<svg width="32" height="32" viewBox="0 0 32 32" fill="none" xmlns="http://www.w3.org/2000/svg">
<path d="M29.8535 8.36028C28.4227 5.90885 26.482 3.96805 24.0308 2.53744C21.5792 1.10676 18.9028 0.391602 15.9997 0.391602C13.097 0.391602 10.4197 1.10698 7.96868 2.53744C5.51725 3.96798 3.57659 5.90885 2.14584 8.36028C0.715304 10.8116 0 13.4885 0 16.3909C0 19.8773 1.01717 23.0124 3.05203 25.7969C5.08667 28.5817 7.71511 30.5086 10.9372 31.5779C11.3122 31.6475 11.5899 31.5986 11.7704 31.4323C11.951 31.2658 12.0412 31.0572 12.0412 30.8075C12.0412 30.7659 12.0376 30.391 12.0307 29.6826C12.0235 28.9741 12.0201 28.3561 12.0201 27.8288L11.541 27.9117C11.2354 27.9676 10.85 27.9913 10.3847 27.9846C9.91962 27.9781 9.43679 27.9294 8.93689 27.8388C8.43677 27.7489 7.9716 27.5406 7.54101 27.2142C7.11065 26.8879 6.80513 26.4606 6.62454 25.9332L6.41621 25.4538C6.27735 25.1347 6.05874 24.7801 5.76009 24.3915C5.46143 24.0025 5.15941 23.7388 4.8539 23.5999L4.70803 23.4955C4.61084 23.4261 4.52065 23.3424 4.43725 23.2453C4.35392 23.1482 4.29153 23.051 4.24987 22.9536C4.20813 22.8562 4.24272 22.7763 4.35399 22.7137C4.46527 22.651 4.66637 22.6205 4.95817 22.6205L5.37467 22.6828C5.65246 22.7385 5.99606 22.9048 6.40592 23.1827C6.81557 23.4604 7.15231 23.8214 7.41624 24.2657C7.73584 24.8353 8.12089 25.2693 8.57249 25.5679C9.02372 25.8666 9.47868 26.0157 9.93691 26.0157C10.3952 26.0157 10.7909 25.9809 11.1244 25.9118C11.4575 25.8424 11.77 25.738 12.0618 25.5992C12.1868 24.6682 12.5271 23.9531 13.0825 23.4532C12.2909 23.37 11.5793 23.2447 10.9472 23.0781C10.3154 22.9113 9.66255 22.6406 8.98906 22.2653C8.3152 21.8904 7.7562 21.425 7.31189 20.8697C6.86752 20.3141 6.50283 19.5847 6.21832 18.6822C5.93368 17.7793 5.79132 16.7377 5.79132 15.5573C5.79132 13.8764 6.34003 12.4461 7.43725 11.2655C6.92327 10.0018 6.97179 8.58524 7.58297 7.01585C7.98575 6.89071 8.58307 6.98462 9.37462 7.29699C10.1663 7.60951 10.746 7.87723 11.1142 8.0992C11.4824 8.3211 11.7774 8.50914 11.9996 8.66164C13.2915 8.30067 14.6247 8.12014 15.9996 8.12014C17.3745 8.12014 18.7079 8.30067 19.9999 8.66164L20.7915 8.16188C21.3329 7.82842 21.9722 7.52283 22.7078 7.24504C23.4439 6.9674 24.0068 6.89093 24.3959 7.01607C25.0206 8.58553 25.0763 10.0021 24.5622 11.2657C25.6593 12.4463 26.2082 13.877 26.2082 15.5575C26.2082 16.7379 26.0654 17.7828 25.7812 18.6926C25.4966 19.6026 25.1288 20.3312 24.6775 20.8801C24.2258 21.4289 23.6632 21.8907 22.9897 22.2655C22.3161 22.6405 21.663 22.9112 21.0312 23.0781C20.3992 23.2449 19.6875 23.3702 18.896 23.4535C19.6179 24.0783 19.979 25.0645 19.979 26.4116V30.807C19.979 31.0567 20.0658 31.2651 20.2396 31.4317C20.4132 31.598 20.6873 31.647 21.0624 31.5773C24.2849 30.5081 26.9133 28.5811 28.9479 25.7963C30.9822 23.0118 31.9998 19.8767 31.9998 16.3903C31.999 13.4883 31.2834 10.8116 29.8535 8.36028Z" fill="white"/>
</svg>
