<svg height="512" viewBox="0 0 448 512" width="448" xmlns="http://www.w3.org/2000/svg" ><path fill="white" d="m48 32c-26.5 0-48 21.5-48 48v352c0 26.5 21.5 48 48 48h352c26.5 0 48-21.5 48-48v-352c0-26.5-21.5-48-48-48zm96.96875 109.94531h49.73633l-24.85938 38.07813zm104.02344 0h49.73633l-24.85547 38.07813zm-28.69141 46.78711c9.75483 0 18.75288 1.53244 26.9707 4.58594 8.23832 3.0535 15.32944 7.43957 21.33399 13.13672 6.00454 5.69714 10.67716 12.60826 14.01758 20.70312.45084 1.10664.85866 2.21075 1.24804 3.33789v-38.58984h48.28321c6.33243 0 12.35948.6161 18.05664 1.8457 5.69714 1.22959 10.69346 3.29891 14.97656 6.16797 4.28311 2.88957 7.70588 6.76127 10.22656 11.63867 2.52069 4.87742 3.79102 10.94462 3.79102 18.24024 0 8.79163-2.27473 16.29441-6.86524 22.46289-4.57002 6.1685-11.26794 10.07928-20.08007 11.71875l31.74023 52.69141h-32.95312l-26.08594-49.88086h-13.56836v49.88086h-27.48242v-38.58985c-.38938 1.12713-.79719 2.25174-1.24805 3.33789-3.36091 8.09486-8.03354 15.00402-14.01758 20.70117-6.00454 5.69714-13.11616 10.07932-21.33398 13.13282-8.23831 3.05349-17.21393 4.59179-26.96875 4.59179s-18.75288-1.5383-26.97071-4.59179c-8.23832-3.0535-15.34799-7.43568-21.33203-13.13282-6.00455-5.69715-10.67716-12.60631-14.01758-20.70117-3.3404-8.09487-5.01953-17.15256-5.01953-27.13281 0-.98368.01955-1.94697.06055-2.91016-.20494.2869-.3888.59787-.59375.88477-4.57 6.1685-11.27185 10.07927-20.08398 11.71875l31.70507 52.69141h-32.95507l-26.08789-49.88086h-13.564458v49.88086h-27.482422v-124.76563h48.25977c6.33243 0 12.35753.6161 18.05468 1.8457 5.69714 1.22959 10.69934 3.29891 14.98243 6.16797 4.28311 2.88957 7.70589 6.76127 10.22656 11.63867 1.90588 3.6888 3.09115 8.07488 3.5625 13.13672 3.23794-7.0497 7.54286-13.1374 12.91211-18.24023 6.00454-5.69715 13.11616-10.08322 21.33398-13.13672 8.23832-3.0535 17.21393-4.58594 26.96875-4.58594zm.02149 25.36914c-5.88158 0-11.18891 1.00435-15.94336 2.99219-4.77495 2.00836-8.85398 4.79648-12.25586 8.38281-3.42238 3.58634-6.02375 7.82869-7.84766 12.76758s-2.72656 10.28435-2.72656 16.04297c0 5.88158.90266 11.25345 2.72656 16.13086 1.82391 4.87742 4.44576 9.09725 7.84766 12.68359 3.42239 3.58633 7.5014 6.39301 12.25586 8.38086 4.75444 1.98785 10.06177 2.99414 15.94336 2.99414 5.86109 0 11.18695-.9858 15.9414-2.99414 4.77494-2.00835 8.85398-4.79453 12.25586-8.38086 3.42241-3.58634 6.02569-7.80617 7.84961-12.68359 1.82389-4.87741 2.72656-10.24928 2.72656-16.13086 0-5.75862-.90267-11.10408-2.72656-16.04297-1.82392-4.9184-4.44771-9.18125-7.84961-12.76758-3.42237-3.58633-7.50141-6.39494-12.25586-8.38281-4.75444-1.98785-10.05982-2.99219-15.9414-2.99219zm-128.820317 1.06446v28.36132h16.210937c2.47969 0 5.08301-.07923 7.84961-.26367 2.7461-.16395 5.24279-.69495 7.47656-1.57617 2.23377-.88121 4.07917-2.2572 5.55469-4.14258 1.47552-1.8854 2.21484-4.52876 2.21484-7.91015 0-3.17647-.65813-5.6947-1.94921-7.58008s-2.95161-3.32396-4.93946-4.32813-4.28308-1.677-6.86523-2.02539c-2.58216-.3484-5.12087-.53515-7.58008-.53515zm219.871097 0v28.36132h16.21093c2.47969 0 5.08301-.07923 7.84961-.26367 2.7461-.16395 5.2467-.69495 7.48047-1.57617 2.23377-.88121 4.07526-2.2572 5.55078-4.14258 1.4755-1.8854 2.21485-4.52876 2.21485-7.91015 0-3.17647-.65423-5.6947-1.94531-7.58008-1.29107-1.88538-2.95161-3.32396-4.93946-4.32813-1.98786-1.00417-4.28307-1.677-6.86523-2.02539-2.58216-.3484-5.12479-.53515-7.58399-.53515zm-141.52735 116.79101 24.85938 38.09766h-49.73633zm104.02735 0 24.85547 38.09766h-49.73633z"/></svg>