<svg width="32" height="32" viewBox="0 0 32 32" fill="none" xmlns="http://www.w3.org/2000/svg">
<g clip-path="url(#clip0)">
<path d="M30.2395 1.76026C29.0664 0.586825 27.653 0 26.0004 0H6.00021C4.34758 0 2.93415 0.586825 1.7605 1.76026C0.587069 2.9339 0.000244141 4.34726 0.000244141 5.99996V25.9999C0.000244141 27.6524 0.587069 29.0659 1.7605 30.2396C2.93415 31.4132 4.34758 32 6.00021 32H26.0001C27.6528 32 29.0662 31.4132 30.2393 30.2396C31.413 29.0659 31.9998 27.6525 31.9998 25.9999V5.99996C31.9997 4.34726 31.4129 2.93369 30.2395 1.76026ZM26.1257 10.6039C25.9307 11.6178 25.3581 13.191 24.4064 15.3225C23.4545 17.4546 22.2571 19.4858 20.8125 21.4163C19.1594 23.6385 17.4234 25.2844 15.6043 26.3544C15.132 26.6456 14.6042 26.8649 14.021 27.0104C13.4377 27.156 12.8472 27.1456 12.2501 26.9789C11.4027 26.6178 10.6875 25.7496 10.1042 24.3747C9.81253 23.666 9.41659 22.298 8.91667 20.2704C8.41683 18.3121 8.04855 17.0135 7.81257 16.3748C7.74324 16.194 7.65634 15.9127 7.55228 15.5309C7.44801 15.1489 7.34388 14.8158 7.2399 14.5308C7.13577 14.246 7.00741 13.9789 6.85447 13.7287C6.61848 13.3259 6.33032 13.1177 5.98999 13.1037C5.64988 13.0899 5.24679 13.1628 4.78175 13.3223C4.31664 13.4821 3.93822 13.5407 3.64641 13.4993C3.47997 13.4716 3.33067 13.3327 3.19867 13.0827C3.06667 12.833 2.88949 12.6525 2.66723 12.5412V12.3953C3.22275 12.0062 4.07343 11.2981 5.21921 10.2699C6.36506 9.24216 7.31294 8.50611 8.06293 8.06173C9.03518 7.49227 9.91709 7.31853 10.7088 7.54079C11.0837 7.652 11.4345 7.92972 11.7608 8.37411C12.087 8.81857 12.3336 9.29776 12.5003 9.81169C12.6533 10.2977 12.8892 11.4364 13.2086 13.2283C13.2504 13.5059 13.3096 14.0025 13.3858 14.7177C13.4621 15.433 13.5317 16.0162 13.594 16.4676C13.6564 16.9192 13.7884 17.4261 13.9899 17.9882C14.191 18.551 14.4514 18.9991 14.771 19.3324C15.3683 19.9712 15.9724 20.0686 16.5834 19.624C16.9725 19.3324 17.4655 18.6447 18.0627 17.5619C18.7155 16.2984 19.0766 15.3051 19.1455 14.5829C19.2429 13.5274 19.0586 12.84 18.5937 12.5204C18.1287 12.201 17.3406 12.0897 16.2294 12.1869C16.4516 11.5064 16.7608 10.8713 17.1563 10.2808C17.5524 9.69078 17.9654 9.20429 18.3959 8.82258C18.8272 8.44051 19.2751 8.10376 19.7399 7.81202C20.2054 7.52043 20.6044 7.30875 20.9383 7.17682C21.2714 7.04482 21.556 6.95791 21.7923 6.91624C23.6671 6.63859 24.9656 6.95098 25.6883 7.85369C26.2019 8.50655 26.3477 9.42342 26.1257 10.6039Z" fill="white"/>
</g>
<defs>
<clipPath id="clip0">
<rect width="32" height="32" fill="white"/>
</clipPath>
</defs>
</svg>
