<svg width="57" height="57" viewBox="0 0 57 57" fill="none" xmlns="http://www.w3.org/2000/svg">
<circle opacity="0.2" cx="28.5" cy="28.5" r="28.5" fill="#5391E1"/>
<path d="M49.7812 12.8125H48.0938V10H45.2812V12.8125H26.7188V10H23.9062V12.8125H22.2188C19.8925 12.8125 18 14.705 18 17.0312V41.7812C18 44.1075 19.8925 46 22.2188 46H49.7812C52.1075 46 54 44.1075 54 41.7812V17.0312C54 14.705 52.1075 12.8125 49.7812 12.8125ZM51.1875 41.7812C51.1875 42.5567 50.5567 43.1875 49.7812 43.1875H22.2188C21.4433 43.1875 20.8125 42.5567 20.8125 41.7812V23.2188H51.1875V41.7812ZM51.1875 20.4062H20.8125V17.0312C20.8125 16.2558 21.4433 15.625 22.2188 15.625H23.9062V18.4375H26.7188V15.625H45.2812V18.4375H48.0938V15.625H49.7812C50.5567 15.625 51.1875 16.2558 51.1875 17.0312V20.4062Z" fill="#484F5E"/>
<path d="M26.1562 26.1719H23.3438V28.9844H26.1562V26.1719Z" fill="#484F5E"/>
<path d="M31.7812 26.1719H28.9688V28.9844H31.7812V26.1719Z" fill="#484F5E"/>
<path d="M37.4062 26.1719H34.5938V28.9844H37.4062V26.1719Z" fill="#484F5E"/>
<path d="M43.0312 26.1719H40.2188V28.9844H43.0312V26.1719Z" fill="#484F5E"/>
<path d="M48.6562 26.1719H45.8438V28.9844H48.6562V26.1719Z" fill="#484F5E"/>
<path d="M26.1562 31.7969H23.3438V34.6094H26.1562V31.7969Z" fill="#484F5E"/>
<path d="M31.7812 31.7969H28.9688V34.6094H31.7812V31.7969Z" fill="#484F5E"/>
<path d="M37.4062 31.7969H34.5938V34.6094H37.4062V31.7969Z" fill="#484F5E"/>
<path d="M43.0312 31.7969H40.2188V34.6094H43.0312V31.7969Z" fill="#484F5E"/>
<path d="M26.1562 37.4219H23.3438V40.2344H26.1562V37.4219Z" fill="#484F5E"/>
<path d="M31.7812 37.4219H28.9688V40.2344H31.7812V37.4219Z" fill="#484F5E"/>
<path d="M37.4062 37.4219H34.5938V40.2344H37.4062V37.4219Z" fill="#484F5E"/>
<path d="M43.0312 37.4219H40.2188V40.2344H43.0312V37.4219Z" fill="#484F5E"/>
<path d="M48.6562 31.7969H45.8438V34.6094H48.6562V31.7969Z" fill="#484F5E"/>
</svg>
