<?xml version="1.0" encoding="UTF-8"?>
<svg xmlns="http://www.w3.org/2000/svg" xmlns:xlink="http://www.w3.org/1999/xlink" width="374.135437pt" height="374.176697pt" viewBox="0 0 374.135437 374.176697" version="1.1">
<g id="surface1">
<path style=" stroke:none;fill-rule:nonzero;fill:rgb(38%,38%,38%);fill-opacity:1;" d="M 330.628906 115.292969 C 330.714844 115.257812 350.332031 154.109375 346.851562 195.410156 C 344.957031 264.777344 283.652344 343.464844 192.289062 346.023438 L 179.550781 345.757812 C 85.402344 341.078125 27.546875 261.195312 27.8125 189.007812 C 28.042969 175.585938 27.992188 160.585938 33.652344 142.03125 L 39.421875 143.757812 C 63.550781 152.875 89.582031 223.375 174.210938 227.386719 C 177.886719 227.5625 184.941406 227.726562 184.925781 227.753906 C 179.449219 233.21875 148.300781 246.066406 134.167969 249.449219 C 137.863281 248.566406 133.878906 249.359375 134.167969 249.449219 C 168.207031 270.550781 202.242188 229.945312 246.429688 223.972656 L 259.964844 223.175781 C 257.378906 215.015625 245.730469 215.703125 244.640625 215.8125 C 214.066406 218.820312 221.703125 215.316406 220.753906 215.613281 C 267.730469 200.882812 294.800781 163.261719 328.605469 117.515625 Z M 330.628906 115.292969 "/>
<path style=" stroke:none;fill-rule:evenodd;fill:rgb(24%,24%,24%);fill-opacity:1;" d="M 262.355469 45.03125 C 259.070312 43.285156 231.503906 26.71875 189.171875 26.054688 C 97.410156 26.386719 57.007812 93.730469 57.007812 93.730469 C 77.308594 103.683594 98.375 133.652344 98.671875 134.070312 C 121.394531 165.949219 153.058594 215.359375 194.082031 216.304688 C 207.21875 216.609375 215.957031 208.75 225.929688 199.089844 C 262.351562 163.820312 267.449219 98.605469 314.105469 89.417969 C 314.105469 89.417969 296.789062 63.34375 262.355469 45.03125 Z M 160.683594 88.164062 L 171.589844 88.164062 C 175.988281 88.164062 179.53125 91.707031 179.53125 96.105469 L 179.53125 122.355469 C 179.53125 126.753906 175.988281 130.296875 171.589844 130.296875 L 160.683594 130.296875 C 156.285156 130.296875 152.742188 126.753906 152.742188 122.355469 L 152.742188 96.105469 C 152.742188 91.707031 156.285156 88.164062 160.683594 88.164062 Z M 163.589844 95.394531 L 168.683594 95.394531 C 169.699219 95.394531 170.515625 96.210938 170.515625 97.226562 L 170.515625 121.234375 C 170.515625 122.25 169.699219 123.066406 168.683594 123.066406 L 163.589844 123.066406 C 162.574219 123.066406 161.757812 122.25 161.757812 121.234375 L 161.757812 97.226562 C 161.757812 96.210938 162.574219 95.394531 163.589844 95.394531 Z M 195.179688 88.175781 C 190.78125 88.175781 187.242188 91.710938 187.242188 96.109375 L 187.242188 130.296875 L 196.25 130.296875 L 196.25 113.378906 L 205.007812 113.378906 L 205.007812 130.296875 L 214.011719 130.296875 L 214.011719 96.109375 C 214.011719 91.710938 210.476562 88.175781 206.078125 88.175781 Z M 198.089844 95.390625 L 203.164062 95.390625 C 204.179688 95.390625 205.007812 96.214844 205.007812 97.230469 L 205.007812 106.164062 L 196.25 106.164062 L 196.25 97.230469 C 196.25 96.214844 197.074219 95.390625 198.089844 95.390625 Z M 229.660156 88.175781 C 225.261719 88.175781 221.722656 91.710938 221.722656 96.109375 L 221.722656 130.296875 L 230.730469 130.296875 L 230.730469 113.378906 L 239.488281 113.378906 L 239.488281 130.296875 L 248.496094 130.296875 L 248.496094 96.109375 C 248.496094 91.710938 244.957031 88.175781 240.558594 88.175781 Z M 232.574219 95.390625 L 237.648438 95.390625 C 238.664062 95.390625 239.488281 96.214844 239.488281 97.230469 L 239.488281 106.164062 L 230.730469 106.164062 L 230.730469 97.230469 C 230.730469 96.214844 231.558594 95.390625 232.574219 95.390625 Z M 118.234375 88.175781 L 118.234375 130.296875 L 127.265625 130.296875 L 127.265625 97.230469 C 127.265625 96.214844 128.070312 95.390625 129.082031 95.390625 L 134.183594 95.390625 C 135.199219 95.390625 136.027344 96.214844 136.027344 97.230469 L 136.027344 130.296875 L 145.03125 130.296875 L 145.03125 96.109375 C 145.03125 91.710938 141.496094 88.175781 137.09375 88.175781 Z M 118.234375 88.175781 "/>
<path style=" stroke:none;fill-rule:nonzero;fill:rgb(24%,24%,24%);fill-opacity:1;" d="M 28.0625 242.835938 L 11.992188 247.859375 L 11.246094 245.46875 L 20.574219 234.316406 C 20.777344 234.070312 20.972656 233.847656 21.15625 233.65625 C 21.34375 233.460938 21.523438 233.296875 21.699219 233.164062 L 8.671875 237.234375 L 8.023438 235.148438 L 24.089844 230.128906 L 24.832031 232.496094 L 15.390625 243.863281 C 15.246094 244.035156 15.089844 244.203125 14.925781 244.363281 C 14.757812 244.523438 14.578125 244.679688 14.390625 244.835938 L 27.414062 240.765625 Z M 15.769531 225.164062 L 14.683594 220.03125 L 7.953125 224.113281 Z M 23.621094 228.480469 L 5.855469 225.84375 L 5.332031 223.371094 L 20.507812 213.753906 L 21.019531 216.179688 L 16.46875 218.964844 L 17.839844 225.449219 L 23.128906 226.164062 Z M 19.871094 208.339844 L 5.195312 210.175781 L 5.855469 215.449219 L 3.824219 215.703125 L 2.222656 202.875 L 4.253906 202.621094 L 4.910156 207.894531 L 19.585938 206.058594 Z M 18.878906 198.710938 L 2.082031 199.839844 L 1.929688 197.5625 L 18.726562 196.429688 Z M 10 191.070312 C 12.15625 191.078125 13.84375 190.585938 15.0625 189.597656 C 16.28125 188.605469 16.890625 187.230469 16.898438 185.46875 C 16.902344 183.71875 16.300781 182.347656 15.085938 181.355469 C 13.875 180.363281 12.191406 179.867188 10.035156 179.859375 C 7.871094 179.851562 6.179688 180.339844 4.964844 181.324219 C 3.75 182.304688 3.140625 183.671875 3.136719 185.425781 C 3.128906 187.1875 3.730469 188.566406 4.941406 189.5625 C 6.148438 190.5625 7.835938 191.0625 10 191.070312 Z M 9.992188 193.4375 C 7.210938 193.429688 5.039062 192.714844 3.476562 191.296875 C 1.914062 189.878906 1.140625 187.917969 1.148438 185.417969 C 1.15625 182.929688 1.941406 180.980469 3.507812 179.582031 C 5.074219 178.179688 7.253906 177.484375 10.042969 177.492188 C 12.824219 177.5 14.996094 178.210938 16.554688 179.621094 C 18.117188 181.035156 18.894531 182.984375 18.886719 185.476562 C 18.878906 187.976562 18.089844 189.929688 16.519531 191.339844 C 14.949219 192.746094 12.773438 193.445312 9.992188 193.4375 Z M 18.664062 174.648438 L 1.921875 172.871094 L 2.1875 170.382812 L 15.175781 163.851562 C 15.460938 163.707031 15.726562 163.582031 15.976562 163.476562 C 16.222656 163.375 16.453125 163.292969 16.667969 163.242188 L 3.09375 161.800781 L 3.324219 159.632812 L 20.066406 161.40625 L 19.804688 163.871094 L 6.625 170.554688 C 6.425781 170.65625 6.214844 170.746094 6 170.828125 C 5.785156 170.910156 5.558594 170.980469 5.320312 171.050781 L 18.890625 172.488281 Z M 14.398438 153.546875 L 15.4375 148.40625 L 7.640625 149.484375 Z M 20.285156 159.707031 L 5.027344 150.238281 L 5.527344 147.761719 L 23.273438 144.953125 L 22.78125 147.382812 L 17.5 148.132812 L 16.183594 154.632812 L 20.757812 157.386719 Z M 23.808594 143.300781 L 7.636719 138.625 L 8.277344 136.40625 L 22.40625 140.492188 L 24.738281 132.433594 L 26.78125 133.023438 Z M 22.46875 120.394531 C 24.445312 121.257812 26.1875 121.472656 27.699219 121.046875 C 29.210938 120.621094 30.320312 119.601562 31.023438 117.988281 C 31.722656 116.382812 31.710938 114.882812 30.992188 113.492188 C 30.269531 112.101562 28.921875 110.976562 26.945312 110.117188 C 24.960938 109.253906 23.21875 109.03125 21.710938 109.449219 C 20.207031 109.871094 19.105469 110.886719 18.40625 112.492188 C 17.703125 114.105469 17.707031 115.609375 18.421875 117.007812 C 19.136719 118.402344 20.484375 119.53125 22.46875 120.394531 Z M 21.523438 122.566406 C 18.972656 121.453125 17.261719 119.9375 16.390625 118.015625 C 15.519531 116.09375 15.585938 113.988281 16.582031 111.699219 C 17.578125 109.414062 19.070312 107.9375 21.066406 107.273438 C 23.058594 106.609375 25.332031 106.832031 27.890625 107.945312 C 30.441406 109.058594 32.152344 110.570312 33.027344 112.484375 C 33.898438 114.398438 33.839844 116.496094 32.84375 118.78125 C 31.847656 121.074219 30.347656 122.554688 28.347656 123.226562 C 26.347656 123.894531 24.074219 123.675781 21.523438 122.566406 Z M 37.300781 95.410156 L 38.390625 93.480469 C 40.125 94.574219 41.203125 95.988281 41.621094 97.714844 C 42.042969 99.445312 41.746094 101.203125 40.734375 102.996094 C 39.570312 105.058594 37.953125 106.28125 35.882812 106.65625 C 33.816406 107.035156 31.539062 106.519531 29.050781 105.113281 C 26.753906 103.816406 25.277344 102.175781 24.621094 100.183594 C 23.964844 98.195312 24.222656 96.160156 25.402344 94.074219 C 26.335938 92.417969 27.53125 91.300781 28.984375 90.722656 C 30.4375 90.148438 31.953125 90.195312 33.527344 90.867188 L 32.425781 92.816406 C 31.351562 92.457031 30.355469 92.476562 29.441406 92.878906 C 28.527344 93.28125 27.757812 94.039062 27.128906 95.15625 C 26.289062 96.640625 26.15625 98.089844 26.738281 99.496094 C 27.316406 100.902344 28.554688 102.144531 30.453125 103.214844 C 32.242188 104.226562 33.921875 104.609375 35.484375 104.367188 C 37.046875 104.128906 38.226562 103.304688 39.019531 101.894531 C 39.695312 100.695312 39.878906 99.5 39.566406 98.3125 C 39.25 97.125 38.496094 96.160156 37.300781 95.410156 Z M 45.34375 94.308594 L 31.519531 84.699219 L 38.371094 74.84375 L 40.085938 76.039062 L 34.527344 84.035156 L 38.65625 86.90625 L 43.792969 79.519531 L 45.40625 80.640625 L 40.273438 88.027344 L 44.910156 91.25 L 50.578125 83.09375 L 52.304688 84.296875 Z M 50.558594 75.34375 L 53.917969 71.3125 L 46.542969 68.554688 Z M 52.808594 83.5625 L 43.886719 67.976562 L 45.503906 66.035156 L 62.453125 72.003906 L 60.863281 73.90625 L 55.859375 72.054688 L 51.613281 77.144531 L 54.324219 81.746094 Z M 63.640625 70.769531 L 51.773438 58.824219 L 53.550781 57.0625 L 67.746094 60.195312 C 68.058594 60.261719 68.34375 60.332031 68.601562 60.40625 C 68.863281 60.484375 69.089844 60.570312 69.289062 60.660156 L 59.671875 50.980469 L 61.21875 49.441406 L 73.085938 61.382812 L 71.328125 63.132812 L 56.886719 60 C 56.664062 59.949219 56.445312 59.886719 56.226562 59.8125 C 56.011719 59.742188 55.789062 59.65625 55.5625 59.558594 L 65.179688 69.238281 Z M 75.867188 59.050781 L 64.832031 46.339844 L 66.558594 44.839844 L 77.59375 57.554688 Z M 85.96875 42.988281 L 87.738281 41.648438 C 88.894531 43.34375 89.324219 45.066406 89.019531 46.820312 C 88.71875 48.574219 87.746094 50.070312 86.109375 51.3125 C 84.21875 52.742188 82.25 53.21875 80.203125 52.746094 C 78.15625 52.269531 76.269531 50.890625 74.542969 48.613281 C 72.953125 46.511719 72.25 44.417969 72.4375 42.328125 C 72.625 40.242188 73.675781 38.476562 75.582031 37.03125 C 77.101562 35.882812 78.640625 35.332031 80.203125 35.382812 C 81.765625 35.433594 83.136719 36.078125 84.3125 37.316406 L 82.527344 38.667969 C 81.683594 37.910156 80.765625 37.535156 79.765625 37.542969 C 78.765625 37.546875 77.757812 37.9375 76.738281 38.710938 C 75.375 39.738281 74.679688 41.015625 74.652344 42.539062 C 74.625 44.058594 75.269531 45.6875 76.585938 47.425781 C 77.828125 49.066406 79.214844 50.085938 80.742188 50.484375 C 82.273438 50.882812 83.683594 50.597656 84.96875 49.621094 C 86.070312 48.789062 86.710938 47.765625 86.894531 46.550781 C 87.082031 45.335938 86.769531 44.148438 85.96875 42.988281 Z M 98.328125 34.15625 L 102.886719 31.5625 L 96.949219 26.394531 Z M 97.550781 42.644531 L 94.664062 24.917969 L 96.859375 23.671875 L 110.636719 35.203125 L 108.480469 36.429688 L 104.445312 32.9375 L 98.683594 36.214844 L 99.609375 41.476562 Z M 112.183594 34.464844 L 105.273438 19.109375 L 107.554688 18.082031 L 119.746094 26.007812 C 120.015625 26.179688 120.257812 26.347656 120.472656 26.507812 C 120.6875 26.671875 120.871094 26.828125 121.027344 26.984375 L 115.425781 14.542969 L 117.414062 13.644531 L 124.324219 29 L 122.0625 30.015625 L 109.648438 22.003906 C 109.457031 21.882812 109.273438 21.746094 109.09375 21.601562 C 108.917969 21.457031 108.738281 21.296875 108.5625 21.128906 L 114.164062 33.570312 Z M 128.832031 11.601562 L 125.101562 12.851562 L 129.179688 25.023438 L 132.910156 23.773438 C 134.507812 23.238281 135.539062 22.3125 136.007812 21.003906 C 136.476562 19.695312 136.371094 18.023438 135.691406 15.992188 C 135.039062 14.050781 134.125 12.699219 132.949219 11.945312 C 131.769531 11.191406 130.398438 11.078125 128.832031 11.601562 Z M 127.667969 27.699219 L 122.316406 11.734375 L 128.398438 9.699219 C 130.621094 8.953125 132.546875 9.046875 134.175781 9.980469 C 135.800781 10.914062 137.035156 12.632812 137.875 15.140625 C 138.746094 17.734375 138.808594 19.957031 138.066406 21.808594 C 137.324219 23.660156 135.855469 24.953125 133.660156 25.691406 Z M 151.25 13.648438 L 156.398438 12.652344 L 152.425781 5.855469 Z M 147.800781 21.445312 L 150.734375 3.726562 L 153.210938 3.246094 L 162.578125 18.578125 L 160.144531 19.050781 L 157.4375 14.453125 L 150.929688 15.714844 L 150.125 20.992188 Z M 168 18.03125 L 166.410156 3.328125 L 161.125 3.898438 L 160.90625 1.863281 L 173.757812 0.472656 L 173.976562 2.507812 L 168.691406 3.078125 L 170.285156 17.78125 Z M 179.527344 2.652344 L 179.699219 16.996094 L 177.59375 17.023438 L 177.394531 0.1875 L 180.664062 0.148438 L 184.988281 12.980469 C 185.113281 13.34375 185.207031 13.625 185.265625 13.828125 C 185.328125 14.027344 185.371094 14.207031 185.40625 14.359375 C 185.460938 14.074219 185.519531 13.824219 185.578125 13.601562 C 185.636719 13.378906 185.699219 13.167969 185.765625 12.96875 L 189.933594 0.0390625 L 193.214844 0 L 193.414062 16.835938 L 191.195312 16.859375 L 191.023438 2.519531 C 190.976562 2.761719 190.917969 3.007812 190.851562 3.257812 C 190.785156 3.503906 190.714844 3.753906 190.644531 3.996094 L 186.464844 16.917969 L 184.304688 16.941406 L 179.921875 4.125 C 179.84375 3.910156 179.773438 3.683594 179.707031 3.441406 C 179.644531 3.199219 179.585938 2.933594 179.527344 2.652344 Z M 199.480469 8.824219 C 199.269531 10.96875 199.601562 12.695312 200.472656 14.003906 C 201.34375 15.308594 202.652344 16.046875 204.40625 16.21875 C 206.148438 16.390625 207.570312 15.921875 208.671875 14.808594 C 209.773438 13.695312 210.429688 12.066406 210.640625 9.917969 C 210.851562 7.765625 210.527344 6.039062 209.664062 4.734375 C 208.796875 3.433594 207.496094 2.695312 205.75 2.527344 C 204 2.351562 202.570312 2.820312 201.460938 3.929688 C 200.351562 5.039062 199.691406 6.667969 199.480469 8.824219 Z M 197.125 8.589844 C 197.398438 5.824219 198.316406 3.730469 199.875 2.308594 C 201.433594 0.890625 203.457031 0.300781 205.945312 0.546875 C 208.425781 0.789062 210.289062 1.757812 211.535156 3.449219 C 212.78125 5.140625 213.265625 7.375 212.996094 10.152344 C 212.722656 12.917969 211.8125 15.011719 210.257812 16.433594 C 208.707031 17.855469 206.691406 18.445312 204.210938 18.199219 C 201.722656 17.957031 199.851562 16.984375 198.597656 15.289062 C 197.347656 13.59375 196.855469 11.359375 197.125 8.589844 Z M 215.347656 13.453125 L 217.511719 13.882812 C 217.296875 15.085938 217.503906 16.117188 218.136719 16.980469 C 218.769531 17.84375 219.730469 18.40625 221.023438 18.660156 C 222.300781 18.917969 223.363281 18.847656 224.203125 18.457031 C 225.046875 18.0625 225.5625 17.40625 225.746094 16.476562 C 225.996094 15.214844 224.804688 13.980469 222.171875 12.773438 C 222.015625 12.703125 221.894531 12.648438 221.808594 12.605469 C 219.671875 11.628906 218.308594 10.742188 217.71875 9.945312 C 217.125 9.148438 216.949219 8.148438 217.191406 6.945312 C 217.484375 5.472656 218.257812 4.398438 219.507812 3.71875 C 220.761719 3.039062 222.285156 2.878906 224.070312 3.234375 C 225.894531 3.59375 227.234375 4.351562 228.09375 5.496094 C 228.953125 6.640625 229.226562 8.035156 228.917969 9.675781 L 226.773438 9.257812 C 226.917969 8.140625 226.714844 7.214844 226.152344 6.492188 C 225.59375 5.765625 224.730469 5.285156 223.554688 5.054688 C 222.457031 4.835938 221.53125 4.902344 220.777344 5.253906 C 220.023438 5.601562 219.566406 6.179688 219.410156 6.976562 C 219.15625 8.257812 220.324219 9.480469 222.921875 10.648438 C 223.304688 10.828125 223.601562 10.960938 223.804688 11.058594 C 223.851562 11.074219 223.925781 11.109375 224.03125 11.160156 C 225.722656 11.941406 226.8125 12.636719 227.296875 13.246094 C 227.664062 13.707031 227.910156 14.226562 228.035156 14.808594 C 228.160156 15.386719 228.160156 16.007812 228.027344 16.664062 C 227.710938 18.257812 226.890625 19.410156 225.5625 20.125 C 224.234375 20.839844 222.601562 21.003906 220.65625 20.617188 C 218.65625 20.21875 217.195312 19.402344 216.28125 18.167969 C 215.363281 16.933594 215.054688 15.359375 215.347656 13.453125 Z M 234.605469 14.042969 L 238.289062 15.125 C 239.566406 15.5 240.523438 15.554688 241.152344 15.296875 C 241.777344 15.035156 242.238281 14.40625 242.53125 13.414062 C 242.8125 12.457031 242.761719 11.695312 242.378906 11.128906 C 241.996094 10.566406 241.21875 10.109375 240.039062 9.765625 L 236.191406 8.636719 Z M 229.839844 22.160156 L 234.578125 6.007812 L 240.523438 7.75 C 241.488281 8.035156 242.210938 8.296875 242.6875 8.539062 C 243.164062 8.78125 243.566406 9.070312 243.898438 9.40625 C 244.449219 9.957031 244.796875 10.636719 244.945312 11.441406 C 245.089844 12.246094 245.023438 13.121094 244.746094 14.0625 C 244.480469 14.964844 244.074219 15.703125 243.519531 16.289062 C 242.96875 16.875 242.296875 17.273438 241.503906 17.484375 C 241.046875 17.605469 240.542969 17.636719 239.992188 17.582031 C 239.4375 17.527344 238.5625 17.324219 237.363281 16.972656 L 234.03125 15.992188 L 232.03125 22.804688 Z M 243.980469 26.4375 L 250.222656 10.800781 L 252.34375 11.648438 L 249.78125 18.070312 L 257.890625 21.308594 L 260.457031 14.886719 L 262.589844 15.738281 L 256.347656 31.371094 L 254.214844 30.519531 L 257.136719 23.195312 L 249.027344 19.960938 L 246.105469 27.285156 Z M 259.613281 32.910156 L 267.304688 17.933594 L 277.980469 23.417969 L 277.023438 25.277344 L 268.359375 20.828125 L 266.0625 25.304688 L 274.0625 29.414062 L 273.167969 31.160156 L 265.164062 27.050781 L 262.585938 32.074219 L 271.421875 36.613281 L 270.460938 38.484375 Z M 282.6875 28.523438 L 279.636719 33.34375 L 282.9375 35.433594 C 284.128906 36.1875 285.09375 36.527344 285.828125 36.453125 C 286.566406 36.378906 287.222656 35.890625 287.792969 34.992188 C 288.324219 34.148438 288.472656 33.40625 288.226562 32.765625 C 287.984375 32.125 287.238281 31.40625 285.992188 30.617188 Z M 281.855469 25.65625 L 287.367188 29.148438 C 288.261719 29.714844 288.894531 30.167969 289.269531 30.515625 C 289.640625 30.859375 289.9375 31.226562 290.15625 31.617188 C 290.546875 32.328125 290.714844 33.070312 290.65625 33.855469 C 290.597656 34.640625 290.316406 35.425781 289.816406 36.21875 C 289.328125 36.984375 288.75 37.535156 288.078125 37.871094 C 287.40625 38.207031 286.644531 38.324219 285.800781 38.222656 C 286.253906 38.726562 286.484375 39.238281 286.488281 39.753906 C 286.488281 40.269531 286.242188 40.980469 285.746094 41.894531 L 284.421875 44.34375 C 284.136719 44.867188 283.964844 45.285156 283.910156 45.59375 C 283.851562 45.90625 283.890625 46.175781 284.023438 46.40625 L 283.773438 46.800781 L 281.542969 45.386719 C 281.550781 44.976562 281.828125 44.265625 282.371094 43.246094 C 282.386719 43.222656 282.398438 43.203125 282.410156 43.1875 L 283.46875 41.261719 C 284.007812 40.269531 284.195312 39.523438 284.035156 39.023438 C 283.871094 38.523438 283.109375 37.839844 281.742188 36.976562 L 278.617188 34.996094 L 274.753906 41.085938 L 272.84375 39.875 Z M 285.867188 48.445312 L 295.761719 34.824219 L 297.609375 36.167969 L 287.714844 49.789062 Z M 303.792969 54.660156 L 305.496094 56.082031 C 304.109375 57.59375 302.527344 58.398438 300.75 58.5 C 298.972656 58.601562 297.296875 57.992188 295.714844 56.675781 C 293.894531 55.15625 292.988281 53.347656 292.988281 51.246094 C 292.988281 49.144531 293.90625 46.996094 295.738281 44.800781 C 297.425781 42.777344 299.308594 41.621094 301.382812 41.332031 C 303.457031 41.042969 305.414062 41.667969 307.253906 43.199219 C 308.714844 44.417969 309.597656 45.796875 309.902344 47.328125 C 310.207031 48.863281 309.886719 50.34375 308.945312 51.769531 L 307.226562 50.335938 C 307.773438 49.34375 307.933594 48.363281 307.699219 47.390625 C 307.46875 46.417969 306.863281 45.523438 305.878906 44.703125 C 304.570312 43.609375 303.167969 43.222656 301.679688 43.535156 C 300.191406 43.851562 298.75 44.847656 297.351562 46.519531 C 296.035156 48.101562 295.355469 49.679688 295.3125 51.261719 C 295.265625 52.84375 295.867188 54.152344 297.105469 55.1875 C 298.164062 56.070312 299.308594 56.464844 300.53125 56.367188 C 301.757812 56.273438 302.84375 55.707031 303.792969 54.660156 Z M 315.183594 64.703125 L 318.742188 68.558594 L 322.433594 61.605469 Z M 306.742188 65.871094 L 323.355469 59.046875 L 325.066406 60.902344 L 316.949219 76.933594 L 315.265625 75.109375 L 317.753906 70.386719 L 313.257812 65.515625 L 308.34375 67.609375 Z M 333.636719 74.183594 L 331.246094 71.0625 L 321.050781 78.859375 L 323.441406 81.980469 C 324.464844 83.320312 325.671875 83.996094 327.0625 84.015625 C 328.453125 84.035156 330 83.394531 331.699219 82.097656 C 333.328125 80.851562 334.308594 79.550781 334.644531 78.191406 C 334.976562 76.832031 334.640625 75.496094 333.636719 74.183594 Z M 318.027344 78.292969 L 331.402344 68.066406 L 335.296875 73.15625 C 336.722656 75.023438 337.257812 76.875 336.902344 78.714844 C 336.542969 80.558594 335.316406 82.28125 333.214844 83.886719 C 331.042969 85.550781 328.960938 86.328125 326.96875 86.226562 C 324.976562 86.125 323.273438 85.152344 321.867188 83.3125 Z M 341.34375 85.855469 L 329.089844 93.3125 L 327.996094 91.515625 L 342.378906 82.761719 L 344.078125 85.554688 L 335.242188 95.816406 C 334.996094 96.109375 334.800781 96.335938 334.65625 96.488281 C 334.511719 96.640625 334.386719 96.773438 334.269531 96.878906 C 334.542969 96.78125 334.789062 96.703125 335.011719 96.640625 C 335.230469 96.578125 335.441406 96.523438 335.648438 96.480469 L 348.898438 93.472656 L 350.601562 96.277344 L 336.222656 105.027344 L 335.070312 103.136719 L 347.320312 95.675781 C 347.085938 95.757812 346.84375 95.835938 346.597656 95.902344 C 346.351562 95.972656 346.101562 96.039062 345.855469 96.101562 L 332.609375 99.09375 L 331.484375 97.246094 L 340.28125 86.945312 C 340.421875 86.769531 340.582031 86.589844 340.757812 86.410156 C 340.9375 86.234375 341.128906 86.046875 341.34375 85.855469 Z M 337.785156 108.347656 L 352.785156 100.703125 L 353.824219 102.738281 L 338.824219 110.386719 Z M 340.554688 113.640625 L 356.039062 107.035156 L 357.019531 109.335938 L 348.859375 121.367188 C 348.683594 121.632812 348.511719 121.875 348.34375 122.085938 C 348.179688 122.296875 348.015625 122.476562 347.855469 122.628906 L 360.40625 117.273438 L 361.265625 119.28125 L 345.78125 125.890625 L 344.804688 123.609375 L 353.058594 111.351562 C 353.1875 111.164062 353.324219 110.980469 353.472656 110.804688 C 353.621094 110.632812 353.78125 110.457031 353.957031 110.28125 L 341.40625 115.640625 Z M 346.914062 129.335938 L 362.8125 123.800781 L 363.566406 125.957031 L 347.664062 131.496094 Z M 354.042969 132.75 L 354.636719 134.875 C 353.46875 135.222656 352.640625 135.875 352.15625 136.828125 C 351.671875 137.785156 351.605469 138.894531 351.960938 140.164062 C 352.308594 141.421875 352.851562 142.335938 353.578125 142.910156 C 354.308594 143.488281 355.128906 143.648438 356.039062 143.394531 C 357.28125 143.046875 357.84375 141.425781 357.734375 138.53125 C 357.726562 138.359375 357.71875 138.226562 357.71875 138.132812 C 357.625 135.785156 357.800781 134.167969 358.242188 133.28125 C 358.6875 132.394531 359.5 131.785156 360.683594 131.453125 C 362.128906 131.050781 363.4375 131.253906 364.609375 132.066406 C 365.78125 132.878906 366.613281 134.164062 367.101562 135.917969 C 367.601562 137.707031 367.535156 139.246094 366.898438 140.53125 C 366.265625 141.816406 365.148438 142.6875 363.542969 143.152344 L 362.945312 141.050781 C 364.011719 140.675781 364.742188 140.074219 365.136719 139.25 C 365.53125 138.421875 365.566406 137.433594 365.246094 136.28125 C 364.945312 135.203125 364.46875 134.40625 363.8125 133.890625 C 363.160156 133.378906 362.441406 133.230469 361.65625 133.449219 C 360.398438 133.800781 359.835938 135.398438 359.964844 138.242188 C 359.980469 138.664062 359.992188 138.988281 360 139.214844 C 360.003906 139.261719 360.007812 139.34375 360.011719 139.460938 C 360.078125 141.324219 359.953125 142.613281 359.625 143.320312 C 359.378906 143.855469 359.027344 144.308594 358.566406 144.683594 C 358.105469 145.058594 357.550781 145.332031 356.90625 145.515625 C 355.339844 145.949219 353.941406 145.738281 352.703125 144.875 C 351.46875 144.015625 350.582031 142.628906 350.050781 140.722656 C 349.5 138.753906 349.570312 137.085938 350.257812 135.710938 C 350.949219 134.335938 352.210938 133.347656 354.042969 132.75 Z M 353.488281 153.265625 L 368.019531 150.511719 L 367.027344 145.289062 L 369.039062 144.910156 L 371.445312 157.609375 L 369.4375 157.992188 L 368.445312 152.769531 L 353.914062 155.523438 Z M 370.183594 163.476562 L 364.511719 164.054688 L 364.90625 167.945312 C 365.050781 169.347656 365.378906 170.3125 365.894531 170.847656 C 366.40625 171.382812 367.195312 171.59375 368.253906 171.484375 C 369.25 171.382812 369.921875 171.039062 370.277344 170.453125 C 370.628906 169.863281 370.730469 168.835938 370.582031 167.363281 Z M 371.921875 161.046875 L 372.585938 167.539062 C 372.695312 168.59375 372.726562 169.371094 372.6875 169.878906 C 372.648438 170.382812 372.539062 170.84375 372.367188 171.261719 C 372.054688 172.003906 371.570312 172.597656 370.917969 173.035156 C 370.265625 173.472656 369.472656 173.738281 368.542969 173.835938 C 367.640625 173.925781 366.847656 173.8125 366.167969 173.492188 C 365.488281 173.167969 364.925781 172.644531 364.484375 171.917969 C 364.371094 172.585938 364.109375 173.082031 363.707031 173.402344 C 363.300781 173.722656 362.589844 173.972656 361.566406 174.144531 L 358.820312 174.621094 C 358.234375 174.71875 357.800781 174.839844 357.519531 174.988281 C 357.242188 175.136719 357.050781 175.332031 356.953125 175.582031 L 356.488281 175.628906 L 356.21875 173 C 356.546875 172.753906 357.277344 172.53125 358.414062 172.328125 C 358.445312 172.324219 358.46875 172.324219 358.484375 172.324219 L 360.652344 171.964844 C 361.765625 171.773438 362.46875 171.460938 362.761719 171.023438 C 363.054688 170.589844 363.121094 169.566406 362.957031 167.960938 L 362.578125 164.277344 L 355.40625 165.007812 L 355.175781 162.757812 Z M 363.609375 181.148438 L 363.675781 186.394531 L 371.070312 183.695312 Z M 356.554688 176.367188 L 373.464844 182.40625 L 373.496094 184.933594 L 356.742188 191.417969 L 356.710938 188.9375 L 361.714844 187.09375 L 361.632812 180.464844 L 356.582031 178.730469 Z M 356.324219 196.851562 L 371.078125 197.886719 L 371.449219 192.582031 L 373.488281 192.726562 L 372.585938 205.621094 L 370.546875 205.480469 L 370.917969 200.175781 L 356.164062 199.144531 Z M 355.4375 206.492188 L 372.140625 208.625 L 371.847656 210.890625 L 355.148438 208.757812 Z M 362.679688 215.710938 C 360.5625 215.285156 358.8125 215.441406 357.425781 216.175781 C 356.039062 216.910156 355.171875 218.140625 354.824219 219.867188 C 354.476562 221.585938 354.800781 223.046875 355.800781 224.253906 C 356.796875 225.460938 358.351562 226.277344 360.464844 226.703125 C 362.585938 227.128906 364.339844 226.980469 365.722656 226.253906 C 367.101562 225.523438 367.96875 224.300781 368.3125 222.582031 C 368.660156 220.855469 368.339844 219.386719 367.347656 218.171875 C 366.355469 216.960938 364.800781 216.140625 362.679688 215.710938 Z M 363.144531 213.390625 C 365.871094 213.941406 367.863281 215.0625 369.117188 216.757812 C 370.375 218.453125 370.757812 220.523438 370.261719 222.976562 C 369.769531 225.417969 368.621094 227.175781 366.8125 228.242188 C 365.003906 229.3125 362.730469 229.574219 360 229.023438 C 357.273438 228.472656 355.28125 227.355469 354.023438 225.667969 C 352.765625 223.980469 352.382812 221.917969 352.875 219.472656 C 353.367188 217.023438 354.519531 215.261719 356.335938 214.183594 C 358.148438 213.105469 360.417969 212.84375 363.144531 213.390625 Z M 350.980469 230.140625 L 367.050781 235.160156 L 366.304688 237.550781 L 352.285156 241.40625 C 351.980469 241.496094 351.695312 241.566406 351.429688 241.617188 C 351.167969 241.671875 350.925781 241.703125 350.707031 241.714844 L 363.730469 245.785156 L 363.082031 247.871094 L 347.011719 242.847656 L 347.75 240.480469 L 361.984375 236.511719 C 362.203125 236.449219 362.425781 236.402344 362.652344 236.367188 C 362.878906 236.328125 363.113281 236.300781 363.359375 236.28125 L 350.335938 232.210938 Z M 350.980469 230.140625 "/>
<path style=" stroke:none;fill-rule:nonzero;fill:rgb(24%,24%,24%);fill-opacity:1;" d="M 29.429688 272.078125 L 38.414062 266.742188 L 39.578125 268.707031 L 30.578125 274.054688 C 29.222656 274.859375 28.398438 275.753906 28.105469 276.738281 C 27.816406 277.722656 28.042969 278.84375 28.789062 280.101562 C 29.527344 281.347656 30.410156 282.082031 31.433594 282.300781 C 32.453125 282.523438 33.632812 282.238281 34.96875 281.441406 L 43.96875 276.09375 L 45.144531 278.070312 L 36.164062 283.40625 C 34.222656 284.558594 32.460938 284.929688 30.871094 284.523438 C 29.28125 284.117188 27.910156 282.941406 26.757812 281.003906 C 25.683594 279.195312 25.371094 277.546875 25.816406 276.058594 C 26.261719 274.574219 27.464844 273.246094 29.429688 272.078125 Z M 33.160156 290.242188 L 35.265625 288.800781 L 36.589844 290.730469 L 34.488281 292.171875 Z M 40.890625 291.820312 L 42.246094 293.558594 C 41.300781 294.328125 40.78125 295.246094 40.695312 296.3125 C 40.609375 297.378906 40.972656 298.433594 41.78125 299.472656 C 42.582031 300.5 43.429688 301.140625 44.324219 301.394531 C 45.21875 301.652344 46.039062 301.488281 46.785156 300.90625 C 47.800781 300.117188 47.707031 298.402344 46.5 295.765625 C 46.429688 295.609375 46.375 295.488281 46.335938 295.402344 C 45.355469 293.269531 44.90625 291.703125 44.980469 290.714844 C 45.054688 289.726562 45.574219 288.851562 46.542969 288.097656 C 47.726562 287.175781 49.015625 286.867188 50.40625 287.175781 C 51.800781 287.480469 53.054688 288.351562 54.175781 289.789062 C 55.316406 291.253906 55.839844 292.703125 55.742188 294.132812 C 55.640625 295.5625 54.9375 296.792969 53.632812 297.832031 L 52.28125 296.117188 C 53.125 295.363281 53.570312 294.53125 53.621094 293.617188 C 53.671875 292.703125 53.332031 291.773438 52.59375 290.828125 C 51.90625 289.945312 51.164062 289.390625 50.363281 289.164062 C 49.5625 288.9375 48.84375 289.074219 48.199219 289.574219 C 47.171875 290.375 47.257812 292.066406 48.457031 294.648438 C 48.632812 295.035156 48.765625 295.332031 48.859375 295.539062 C 48.882812 295.578125 48.914062 295.652344 48.960938 295.761719 C 49.734375 297.460938 50.105469 298.695312 50.074219 299.476562 C 50.046875 300.0625 49.894531 300.617188 49.609375 301.140625 C 49.324219 301.660156 48.917969 302.128906 48.390625 302.539062 C 47.109375 303.539062 45.734375 303.871094 44.261719 303.546875 C 42.789062 303.21875 41.445312 302.273438 40.226562 300.710938 C 38.972656 299.101562 38.402344 297.53125 38.515625 295.996094 C 38.632812 294.464844 39.421875 293.070312 40.890625 291.820312 Z M 47.027344 308.265625 L 48.9375 306.582031 L 50.488281 308.339844 L 48.578125 310.023438 Z M 71.0625 311.695312 L 68.175781 309.023438 L 59.460938 318.449219 L 62.347656 321.117188 C 63.585938 322.261719 64.890625 322.722656 66.265625 322.507812 C 67.640625 322.289062 69.054688 321.394531 70.507812 319.820312 C 71.898438 318.316406 72.644531 316.867188 72.738281 315.472656 C 72.835938 314.074219 72.277344 312.816406 71.0625 311.695312 Z M 56.386719 318.40625 L 67.816406 306.046875 L 72.523438 310.398438 C 74.25 311.992188 75.089844 313.726562 75.054688 315.601562 C 75.015625 317.476562 74.101562 319.386719 72.304688 321.328125 C 70.449219 323.335938 68.527344 324.460938 66.550781 324.699219 C 64.570312 324.9375 62.726562 324.269531 61.027344 322.699219 Z M 69.136719 329.898438 L 79.445312 316.589844 L 88.933594 323.9375 L 87.652344 325.589844 L 79.953125 319.628906 L 76.875 323.605469 L 83.984375 329.113281 L 82.78125 330.664062 L 75.671875 325.15625 L 72.210938 329.621094 L 80.066406 335.703125 L 78.777344 337.367188 Z M 88.441406 332.875 L 91.660156 334.96875 C 92.78125 335.695312 93.675781 336.023438 94.351562 335.953125 C 95.03125 335.886719 95.652344 335.414062 96.214844 334.546875 C 96.757812 333.710938 96.929688 332.964844 96.726562 332.316406 C 96.519531 331.664062 95.902344 331.003906 94.875 330.335938 L 91.511719 328.152344 Z M 81.546875 339.289062 L 90.722656 325.171875 L 95.917969 328.546875 C 96.761719 329.09375 97.375 329.554688 97.761719 329.921875 C 98.148438 330.292969 98.453125 330.683594 98.671875 331.101562 C 99.042969 331.789062 99.183594 332.535156 99.09375 333.351562 C 99 334.164062 98.6875 334.980469 98.152344 335.804688 C 97.640625 336.589844 97.035156 337.183594 96.339844 337.585938 C 95.644531 337.988281 94.882812 338.175781 94.0625 338.152344 C 93.59375 338.136719 93.101562 338.023438 92.585938 337.8125 C 92.074219 337.601562 91.292969 337.15625 90.246094 336.476562 L 87.332031 334.582031 L 83.464844 340.53125 Z M 100.488281 342.78125 L 105.109375 345.265625 L 106.332031 337.488281 Z M 92.886719 346.636719 L 106.367188 334.769531 L 108.589844 335.964844 L 106.144531 353.765625 L 103.960938 352.589844 L 104.773438 347.316406 L 98.933594 344.175781 L 94.972656 347.757812 Z M 116.234375 341.976562 L 113.972656 347.210938 L 117.5625 348.761719 C 118.855469 349.320312 119.859375 349.507812 120.578125 349.320312 C 121.292969 349.128906 121.863281 348.546875 122.285156 347.566406 C 122.683594 346.652344 122.710938 345.894531 122.371094 345.300781 C 122.03125 344.703125 121.179688 344.113281 119.824219 343.527344 Z M 114.964844 339.273438 L 120.953125 341.863281 C 121.925781 342.28125 122.625 342.632812 123.046875 342.914062 C 123.46875 343.195312 123.816406 343.515625 124.097656 343.867188 C 124.59375 344.503906 124.875 345.214844 124.9375 346 C 125 346.78125 124.847656 347.601562 124.476562 348.464844 C 124.117188 349.296875 123.628906 349.929688 123.019531 350.367188 C 122.40625 350.804688 121.675781 351.039062 120.824219 351.066406 C 121.351562 351.496094 121.65625 351.964844 121.742188 352.472656 C 121.824219 352.984375 121.691406 353.726562 121.34375 354.703125 L 120.417969 357.332031 C 120.21875 357.890625 120.113281 358.332031 120.105469 358.648438 C 120.097656 358.960938 120.179688 359.222656 120.347656 359.429688 L 120.160156 359.859375 L 117.738281 358.8125 C 117.679688 358.40625 117.84375 357.65625 118.222656 356.566406 C 118.234375 356.539062 118.242188 356.519531 118.25 356.503906 L 118.992188 354.4375 C 119.371094 353.371094 119.441406 352.605469 119.203125 352.136719 C 118.964844 351.667969 118.105469 351.113281 116.621094 350.472656 L 113.222656 349.003906 L 110.363281 355.625 L 108.285156 354.726562 Z M 126.71875 362.128906 L 131.460938 348.121094 L 126.429688 346.414062 L 127.085938 344.476562 L 139.328125 348.625 L 138.671875 350.5625 L 133.636719 348.855469 L 128.894531 362.867188 Z M 141.828125 351.902344 L 138.496094 365.855469 L 136.449219 365.367188 L 140.363281 348.992188 L 143.542969 349.75 L 144.605469 363.25 C 144.636719 363.632812 144.660156 363.929688 144.667969 364.140625 C 144.675781 364.351562 144.679688 364.53125 144.671875 364.6875 C 144.796875 364.425781 144.914062 364.195312 145.027344 363.996094 C 145.136719 363.796875 145.25 363.605469 145.359375 363.429688 L 152.558594 351.90625 L 155.746094 352.667969 L 151.835938 369.042969 L 149.679688 368.527344 L 153.011719 354.574219 C 152.902344 354.800781 152.785156 355.027344 152.664062 355.25 C 152.539062 355.476562 152.410156 355.699219 152.28125 355.917969 L 145.074219 367.429688 L 142.972656 366.925781 L 141.851562 353.425781 C 141.828125 353.199219 141.8125 352.960938 141.8125 352.710938 C 141.808594 352.460938 141.816406 352.191406 141.828125 351.902344 Z M 156.011719 369.722656 L 158.335938 353.046875 L 170.222656 354.703125 L 169.933594 356.773438 L 160.289062 355.429688 L 159.59375 360.410156 L 168.503906 361.652344 L 168.234375 363.601562 L 159.324219 362.359375 L 158.542969 367.949219 L 168.382812 369.320312 L 168.089844 371.40625 Z M 171.425781 371.722656 L 172.269531 354.910156 L 174.769531 355.035156 L 182.011719 367.644531 C 182.171875 367.917969 182.3125 368.175781 182.429688 368.417969 C 182.546875 368.660156 182.640625 368.886719 182.703125 369.097656 L 183.390625 355.46875 L 185.570312 355.578125 L 184.726562 372.390625 L 182.25 372.265625 L 174.84375 359.476562 C 174.734375 359.28125 174.628906 359.078125 174.539062 358.867188 C 174.445312 358.65625 174.359375 358.4375 174.28125 358.203125 L 173.59375 371.832031 Z M 192.632812 372.230469 L 192.144531 357.449219 L 186.832031 357.621094 L 186.765625 355.578125 L 199.683594 355.152344 L 199.753906 357.195312 L 194.441406 357.371094 L 194.929688 372.152344 Z M 210.152344 362.558594 C 210.492188 364.6875 211.246094 366.273438 212.421875 367.316406 C 213.59375 368.363281 215.050781 368.746094 216.789062 368.46875 C 218.519531 368.191406 219.777344 367.378906 220.558594 366.023438 C 221.34375 364.667969 221.5625 362.921875 221.226562 360.792969 C 220.882812 358.65625 220.132812 357.066406 218.96875 356.027344 C 217.800781 354.984375 216.355469 354.601562 214.625 354.878906 C 212.886719 355.15625 211.621094 355.96875 210.828125 357.324219 C 210.039062 358.675781 209.8125 360.421875 210.152344 362.558594 Z M 207.816406 362.929688 C 207.378906 360.183594 207.734375 357.925781 208.882812 356.15625 C 210.035156 354.386719 211.84375 353.308594 214.3125 352.914062 C 216.769531 352.523438 218.820312 352.988281 220.453125 354.308594 C 222.085938 355.628906 223.121094 357.667969 223.5625 360.421875 C 224 363.167969 223.648438 365.425781 222.503906 367.191406 C 221.363281 368.960938 219.5625 370.039062 217.101562 370.433594 C 214.632812 370.824219 212.578125 370.359375 210.933594 369.035156 C 209.292969 367.710938 208.253906 365.675781 207.816406 362.929688 Z M 228.296875 367.886719 L 224.179688 351.558594 L 235.140625 348.796875 L 235.65625 350.847656 L 226.914062 353.050781 L 228.148438 357.949219 L 235.785156 356.023438 L 236.285156 358.019531 L 228.652344 359.945312 L 230.511719 367.328125 Z M 257.496094 352.007812 L 259.566406 351.207031 C 260.214844 353.152344 260.152344 354.929688 259.382812 356.53125 C 258.613281 358.132812 257.265625 359.308594 255.347656 360.054688 C 253.140625 360.910156 251.117188 360.832031 249.277344 359.8125 C 247.441406 358.792969 246.003906 356.949219 244.96875 354.289062 C 244.015625 351.828125 243.914062 349.625 244.667969 347.667969 C 245.417969 345.710938 246.910156 344.300781 249.140625 343.433594 C 250.917969 342.746094 252.550781 342.636719 254.039062 343.113281 C 255.527344 343.589844 256.667969 344.585938 257.460938 346.101562 L 255.371094 346.914062 C 254.769531 345.953125 253.988281 345.339844 253.027344 345.070312 C 252.0625 344.804688 250.984375 344.902344 249.792969 345.363281 C 248.203125 345.980469 247.183594 347.019531 246.738281 348.476562 C 246.296875 349.929688 246.46875 351.675781 247.257812 353.707031 C 248 355.625 249.054688 356.984375 250.417969 357.789062 C 251.78125 358.589844 253.214844 358.699219 254.71875 358.117188 C 256.003906 357.617188 256.902344 356.808594 257.414062 355.691406 C 257.921875 354.574219 257.953125 353.34375 257.496094 352.007812 Z M 262.527344 347.4375 C 263.5 349.363281 264.703125 350.644531 266.140625 351.28125 C 267.574219 351.917969 269.078125 351.839844 270.648438 351.046875 C 272.214844 350.257812 273.164062 349.097656 273.496094 347.566406 C 273.828125 346.039062 273.507812 344.308594 272.535156 342.386719 C 271.5625 340.453125 270.359375 339.167969 268.933594 338.53125 C 267.507812 337.894531 266.011719 337.972656 264.445312 338.761719 C 262.875 339.554688 261.917969 340.71875 261.578125 342.246094 C 261.234375 343.777344 261.550781 345.507812 262.527344 347.4375 Z M 260.417969 348.503906 C 259.164062 346.023438 258.8125 343.765625 259.371094 341.730469 C 259.925781 339.695312 261.320312 338.113281 263.550781 336.988281 C 265.773438 335.863281 267.867188 335.683594 269.824219 336.445312 C 271.785156 337.203125 273.390625 338.828125 274.648438 341.320312 C 275.902344 343.800781 276.253906 346.058594 275.707031 348.089844 C 275.15625 350.121094 273.769531 351.699219 271.546875 352.820312 C 269.3125 353.949219 267.214844 354.132812 265.246094 353.371094 C 263.28125 352.609375 261.667969 350.988281 260.417969 348.503906 Z M 275.492188 333.867188 L 283.253906 345.929688 L 281.484375 347.070312 L 272.375 332.910156 L 275.125 331.140625 L 285.601562 339.71875 C 285.902344 339.957031 286.132812 340.148438 286.289062 340.289062 C 286.445312 340.425781 286.578125 340.550781 286.6875 340.664062 C 286.585938 340.394531 286.5 340.148438 286.433594 339.929688 C 286.363281 339.710938 286.304688 339.5 286.257812 339.296875 L 282.921875 326.125 L 285.679688 324.351562 L 294.789062 338.507812 L 292.921875 339.710938 L 285.164062 327.644531 C 285.25 327.878906 285.332031 328.121094 285.40625 328.363281 C 285.484375 328.609375 285.554688 328.855469 285.625 329.101562 L 288.945312 342.269531 L 287.128906 343.4375 L 276.609375 334.902344 C 276.429688 334.765625 276.246094 334.609375 276.0625 334.4375 C 275.878906 334.265625 275.691406 334.074219 275.492188 333.867188 Z M 290.851562 323.546875 L 299.859375 334.707031 L 298.222656 336.03125 L 287.648438 322.925781 L 290.195312 320.875 L 301.53125 328.28125 C 301.855469 328.488281 302.101562 328.652344 302.273438 328.773438 C 302.445312 328.894531 302.589844 329.003906 302.710938 329.105469 C 302.578125 328.847656 302.46875 328.613281 302.378906 328.402344 C 302.285156 328.191406 302.207031 327.988281 302.132812 327.792969 L 297.410156 315.054688 L 299.960938 312.992188 L 310.53125 326.097656 L 308.808594 327.488281 L 299.800781 316.324219 C 299.910156 316.546875 300.019531 316.777344 300.121094 317.015625 C 300.222656 317.25 300.320312 317.484375 300.414062 317.722656 L 305.125 330.460938 L 303.445312 331.816406 L 292.070312 324.457031 C 291.878906 324.335938 291.679688 324.203125 291.480469 324.050781 C 291.28125 323.898438 291.070312 323.730469 290.851562 323.546875 Z M 313.625 323.207031 L 301.859375 311.164062 L 310.441406 302.777344 L 311.90625 304.273438 L 304.941406 311.078125 L 308.453125 314.675781 L 314.886719 308.390625 L 316.261719 309.796875 L 309.828125 316.082031 L 313.773438 320.121094 L 320.878906 313.179688 L 322.347656 314.683594 Z M 314.859375 300.800781 L 319.175781 304.53125 L 321.730469 301.574219 C 322.652344 300.503906 323.132812 299.601562 323.167969 298.863281 C 323.203125 298.121094 322.816406 297.402344 322.007812 296.707031 C 321.253906 296.054688 320.539062 295.800781 319.871094 295.945312 C 319.199219 296.09375 318.382812 296.726562 317.414062 297.84375 Z M 311.898438 301.207031 L 316.164062 296.265625 C 316.859375 295.464844 317.402344 294.90625 317.796875 294.585938 C 318.191406 294.269531 318.601562 294.03125 319.019531 293.871094 C 319.777344 293.585938 320.539062 293.53125 321.304688 293.707031 C 322.074219 293.878906 322.808594 294.273438 323.519531 294.886719 C 324.207031 295.480469 324.664062 296.132812 324.898438 296.847656 C 325.132812 297.5625 325.136719 298.332031 324.910156 299.152344 C 325.476562 298.777344 326.015625 298.625 326.527344 298.699219 C 327.035156 298.769531 327.707031 299.121094 328.535156 299.746094 L 330.765625 301.414062 C 331.238281 301.773438 331.625 302.003906 331.925781 302.105469 C 332.222656 302.210938 332.496094 302.210938 332.742188 302.113281 L 333.097656 302.417969 L 331.371094 304.417969 C 330.96875 304.347656 330.300781 303.972656 329.375 303.28125 C 329.355469 303.261719 329.335938 303.246094 329.324219 303.238281 L 327.574219 301.90625 C 326.671875 301.226562 325.960938 300.929688 325.441406 301.015625 C 324.925781 301.105469 324.136719 301.757812 323.082031 302.980469 L 320.664062 305.785156 L 326.121094 310.496094 L 324.640625 312.210938 Z M 336.871094 286.664062 L 338.167969 284.863281 C 339.773438 286.140625 340.691406 287.660156 340.917969 289.425781 C 341.148438 291.191406 340.664062 292.90625 339.460938 294.578125 C 338.078125 296.503906 336.339844 297.539062 334.242188 297.691406 C 332.148438 297.839844 329.9375 297.082031 327.617188 295.414062 C 325.476562 293.875 324.1875 292.082031 323.75 290.03125 C 323.3125 287.980469 323.792969 285.984375 325.191406 284.042969 C 326.300781 282.496094 327.609375 281.515625 329.117188 281.101562 C 330.625 280.6875 332.125 280.898438 333.617188 281.738281 L 332.308594 283.554688 C 331.28125 283.078125 330.289062 282.992188 329.339844 283.292969 C 328.386719 283.59375 327.535156 284.265625 326.789062 285.304688 C 325.792969 286.691406 325.507812 288.113281 325.929688 289.574219 C 326.351562 291.039062 327.445312 292.40625 329.21875 293.675781 C 330.886719 294.878906 332.511719 295.441406 334.09375 295.371094 C 335.671875 295.300781 336.933594 294.609375 337.875 293.296875 C 338.679688 292.179688 338.992188 291.011719 338.808594 289.796875 C 338.628906 288.582031 337.980469 287.539062 336.871094 286.664062 Z M 344.992188 285.695312 L 330.507812 277.113281 L 336.628906 266.789062 L 338.429688 267.855469 L 333.464844 276.230469 L 337.789062 278.796875 L 342.375 271.058594 L 344.066406 272.058594 L 339.480469 279.796875 L 344.335938 282.675781 L 349.402344 274.132812 L 351.210938 275.203125 Z M 344.992188 285.695312 "/>
</g>
</svg>
