<?xml version="1.0" encoding="UTF-8"?>
<svg xmlns="http://www.w3.org/2000/svg" xmlns:xlink="http://www.w3.org/1999/xlink" width="80pt" height="82.400002pt" viewBox="0 0 80 82.400002" version="1.1">
<g id="surface1">
<path style=" stroke:none;fill-rule:nonzero;fill:rgb(49%,49%,49%);fill-opacity:1;" d="M 39.953125 0.496094 C 37.546875 0.496094 38.5625 4.082031 38.75 5.257812 C 38.75 5.3125 38.9375 13.371094 38.992188 15.21875 C 39.367188 15.113281 39.714844 15.03125 40.089844 14.949219 L 40.8125 14.765625 C 40.835938 12.96875 41.023438 5.289062 41.023438 5.234375 C 41.1875 4.003906 42.445312 0.496094 39.953125 0.496094 Z M 41.828125 4.375 L 41.800781 4.484375 C 41.773438 4.671875 41.722656 4.832031 41.695312 4.992188 C 45.84375 5.394531 49.726562 7.214844 52.699219 10.132812 L 50.609375 12.21875 L 50.6875 11.847656 L 50.421875 11.710938 L 50.074219 11.738281 L 50.152344 11.5 L 49.914062 10.640625 L 49.40625 10.078125 L 47.769531 9.222656 L 47.636719 9.382812 L 47.34375 9.464844 C 47.90625 10.265625 48.199219 11.230469 48.199219 12.195312 L 48.199219 12.570312 L 49.003906 13.585938 L 48.628906 13.667969 L 48.871094 14.042969 L 48.148438 14.765625 L 47.851562 14.230469 C 47.71875 14.605469 47.53125 14.976562 47.316406 15.300781 L 47.476562 15.433594 L 45.253906 17.628906 C 45.121094 17.496094 44.988281 17.386719 44.855469 17.253906 C 44.640625 17.359375 44.425781 17.441406 44.210938 17.523438 L 44.398438 17.652344 L 44.292969 17.761719 L 44.023438 17.894531 L 43.917969 18.164062 L 43.757812 18.003906 L 43.300781 18.164062 L 43.433594 18.378906 L 43.757812 18.296875 L 43.96875 18.324219 L 43.996094 18.214844 L 44.15625 18.136719 L 44.210938 18.058594 L 44.503906 17.976562 L 44.71875 17.976562 L 44.855469 18.082031 L 43.996094 18.964844 L 43.941406 18.886719 L 43.035156 19.046875 L 42.820312 19.261719 L 42.628906 19.289062 L 43.191406 18.753906 L 42.980469 18.644531 L 42.445312 19.34375 L 42.605469 19.316406 L 42.605469 19.582031 L 42.792969 19.664062 L 42.820312 19.929688 L 42.5 19.878906 L 42.179688 19.929688 L 41.375 19.527344 C 41.375 19.527344 41.320312 21.671875 41.320312 22.742188 C 43.191406 23.386719 45.203125 24.292969 45.203125 26.703125 C 45.230469 27.71875 44.691406 28.683594 43.835938 29.246094 L 43.785156 29.273438 L 43.726562 29.328125 C 42.980469 29.835938 41.988281 30.101562 41.132812 30.371094 L 41.105469 32.058594 C 42.46875 32.726562 44.101562 33.71875 43.941406 36.5 C 43.914062 37.199219 43.648438 37.382812 43.433594 37.4375 C 42.632812 37.625 41.800781 37.757812 40.996094 37.8125 L 40.996094 38.429688 C 44.53125 38.1875 47.851562 36.714844 50.421875 34.277344 L 52.617188 36.472656 C 45.578125 43.273438 34.414062 43.273438 27.347656 36.527344 L 29.542969 34.332031 C 32.085938 36.714844 35.375 38.160156 38.855469 38.429688 L 38.855469 37.8125 C 35.539062 37.546875 32.429688 36.179688 30.023438 33.878906 L 30.585938 33.289062 L 31.386719 33.371094 L 31.816406 32.914062 L 32.9375 32.96875 L 33.101562 32.566406 L 33.050781 32.40625 C 34.707031 33.664062 36.6875 34.46875 38.777344 34.679688 L 38.777344 34.0625 C 36.476562 33.796875 34.332031 32.832031 32.617188 31.253906 L 34.8125 29.058594 C 35.347656 29.539062 35.941406 29.941406 36.609375 30.261719 C 36.664062 30.046875 36.714844 29.863281 36.824219 29.675781 C 36.261719 29.382812 35.726562 29.03125 35.269531 28.628906 L 37.464844 26.4375 C 37.8125 26.703125 38.214844 26.945312 38.613281 27.078125 L 38.613281 26.410156 C 38.347656 26.300781 38.109375 26.140625 37.894531 25.980469 L 38.507812 25.363281 C 38.292969 25.308594 38.082031 25.230469 37.867188 25.148438 L 37.4375 25.582031 C 37.222656 25.339844 37.035156 25.070312 36.902344 24.804688 C 36.527344 24.644531 36.152344 24.453125 35.804688 24.214844 C 34.519531 23.4375 33.746094 22.019531 33.769531 20.492188 C 33.746094 19.476562 34.039062 18.457031 34.65625 17.652344 L 32.460938 15.460938 C 34.066406 13.910156 36.125 12.917969 38.320312 12.566406 L 38.320312 11.953125 C 35.964844 12.300781 33.746094 13.375 32.03125 15.03125 L 31.65625 14.65625 C 31.574219 14.789062 31.46875 14.980469 31.359375 15.21875 L 31.601562 15.460938 C 29.648438 17.523438 28.550781 20.25 28.496094 23.089844 L 25.363281 23.089844 C 25.417969 19.421875 26.835938 15.914062 29.378906 13.238281 L 30.371094 14.230469 L 30.503906 14.230469 C 30.691406 14.203125 30.90625 14.148438 31.066406 14.066406 L 29.808594 12.808594 C 30.476562 12.167969 31.199219 11.578125 31.976562 11.070312 C 32.03125 10.910156 32.058594 10.75 32.136719 10.613281 C 32.273438 10.398438 32.429688 10.1875 32.617188 9.972656 C 31.441406 10.613281 30.371094 11.417969 29.40625 12.355469 L 27.210938 10.160156 C 30.15625 7.292969 33.984375 5.5 38.109375 5.074219 C 38.109375 4.992188 38.078125 4.9375 38.078125 4.9375 C 38.054688 4.777344 38.027344 4.644531 38 4.457031 C 27.585938 5.527344 20.066406 14.816406 21.164062 25.203125 C 22.179688 34.816406 30.261719 42.125 39.925781 42.097656 C 50.367188 42.097656 58.828125 33.613281 58.800781 23.171875 C 58.800781 13.480469 51.464844 5.367188 41.828125 4.375 Z M 25.847656 5.128906 C 22.449219 5.851562 19.609375 8.847656 18.832031 12.542969 C 19.902344 11.28125 21.75 10.5625 22.796875 9.328125 C 23.839844 8.070312 24.1875 6.359375 25.847656 5.128906 Z M 53.957031 5.128906 C 55.613281 6.359375 55.964844 8.070312 57.007812 9.328125 C 58.050781 10.589844 59.871094 11.308594 60.941406 12.570312 C 60.167969 8.875 57.328125 5.851562 53.957031 5.128906 Z M 42.472656 6.304688 L 42.230469 6.464844 L 41.695312 6.414062 L 41.695312 6.546875 C 42.042969 6.574219 42.390625 6.601562 42.660156 6.652344 L 43.113281 6.625 L 43.570312 6.652344 L 43.757812 6.492188 L 43.40625 6.332031 Z M 41.617188 7.214844 C 41.617188 7.507812 41.589844 8.179688 41.589844 8.179688 C 41.589844 8.394531 41.558594 9.167969 41.558594 9.328125 C 41.773438 9.355469 42.015625 9.382812 42.230469 9.410156 C 44.238281 9.890625 44.960938 11.042969 44.960938 12.167969 C 44.960938 14.015625 43.382812 14.710938 41.453125 15.246094 L 40.8125 15.40625 C 40.222656 15.539062 39.609375 15.703125 39.019531 15.863281 C 38.804688 15.914062 38.589844 15.96875 38.375 16.046875 C 36.234375 16.691406 34.386719 17.734375 34.386719 20.386719 C 34.386719 23.035156 36.503906 24 38.5625 24.640625 C 38.5625 23.890625 38.535156 23.117188 38.507812 22.367188 C 37.570312 21.9375 36.957031 21.378906 36.957031 20.441406 C 36.957031 19.503906 37.546875 18.96875 38.429688 18.566406 C 38.617188 18.484375 38.832031 18.402344 39.070312 18.324219 C 39.578125 18.136719 40.171875 18.003906 40.757812 17.84375 L 41.402344 17.683594 C 44.292969 16.984375 47.558594 16.078125 47.53125 12.195312 C 47.53125 10.242188 46.113281 8.097656 42.660156 7.347656 C 42.308594 7.292969 41.964844 7.242188 41.617188 7.214844 Z M 38.1875 7.511719 C 37.542969 7.722656 36.902344 7.964844 36.289062 8.285156 C 35.617188 8.5 34.65625 8.554688 33.664062 9.625 C 33.34375 10 33.046875 10.398438 32.753906 10.800781 C 32.457031 11.230469 32.433594 11.925781 32.21875 12.273438 C 31.898438 12.808594 31.976562 13.132812 31.976562 13.132812 C 31.921875 13.371094 31.792969 13.613281 31.628906 13.800781 C 31.308594 14.175781 30.824219 14.363281 30.34375 14.28125 C 30.796875 14.496094 31.417969 14.203125 31.417969 14.203125 C 31.308594 14.496094 31.226562 14.789062 31.175781 15.085938 C 31.683594 13.933594 32.136719 13.535156 32.296875 13.398438 C 32.511719 13.453125 32.96875 13.425781 33.796875 12.945312 C 34.734375 12.410156 36.152344 11.523438 36.554688 10.964844 C 36.984375 10.402344 37.546875 9.945312 38.214844 9.703125 C 38.214844 8.898438 38.1875 8.152344 38.1875 7.511719 Z M 19.367188 8.203125 C 14.84375 11.578125 16.769531 16.988281 16.53125 18.699219 C 18.859375 13.640625 22.3125 14.710938 23.785156 9.921875 C 22.929688 11.367188 19.152344 11.980469 17.414062 15.753906 C 18.324219 13.507812 17.867188 10.078125 19.367188 8.203125 Z M 60.460938 8.203125 C 61.984375 10.050781 61.53125 13.507812 62.414062 15.753906 C 60.648438 11.980469 56.875 11.363281 56.042969 9.863281 C 57.515625 14.683594 60.96875 13.613281 63.296875 18.644531 C 63.058594 16.957031 64.984375 11.523438 60.460938 8.203125 Z M 48.628906 8.902344 L 48.308594 9.144531 L 48.707031 9.355469 L 49.164062 9.679688 L 49.21875 9.410156 L 49.03125 9.117188 Z M 34.332031 10.214844 L 35.003906 10.242188 L 34.226562 11.070312 L 33.742188 11.175781 Z M 26.757812 10.5625 L 28.953125 12.753906 C 26.300781 15.511719 24.804688 19.207031 24.75 23.035156 L 21.644531 23.035156 C 21.695312 18.351562 23.515625 13.910156 26.757812 10.5625 Z M 53.152344 10.613281 C 56.367188 13.960938 58.160156 18.40625 58.210938 23.035156 L 55.109375 23.035156 C 55.082031 20.734375 54.542969 18.457031 53.5 16.398438 L 53.527344 16.34375 L 53.742188 16.449219 L 53.796875 16.289062 L 53.234375 15.328125 L 52.5625 14.414062 L 51.785156 13.773438 C 51.519531 13.453125 51.253906 13.132812 50.957031 12.808594 Z M 41.507812 11.875 L 41.507812 12.488281 C 42.390625 12.621094 43.246094 12.863281 44.050781 13.183594 C 44.15625 12.996094 44.238281 12.8125 44.265625 12.625 C 43.378906 12.25 42.445312 12.007812 41.507812 11.875 Z M 15.699219 12.703125 C 11.550781 18.566406 15.941406 22.074219 16.101562 24.214844 C 17.144531 20.117188 19.636719 20.09375 21.242188 14.683594 C 20.8125 15.273438 20.519531 15.539062 19.394531 16.449219 C 17.707031 17.789062 16.53125 19.6875 16.128906 21.804688 C 16.234375 19.179688 14.628906 15.433594 15.699219 12.703125 Z M 64.128906 12.703125 C 65.199219 15.433594 63.59375 19.179688 63.675781 21.804688 C 63.246094 19.6875 62.09375 17.789062 60.40625 16.449219 C 59.285156 15.511719 58.988281 15.273438 58.5625 14.683594 C 60.167969 20.09375 62.65625 20.117188 63.726562 24.214844 C 63.886719 22.097656 68.277344 18.59375 64.128906 12.703125 Z M 31.148438 14.523438 C 31.011719 14.550781 30.90625 14.578125 30.769531 14.550781 L 31.066406 14.871094 C 31.09375 14.765625 31.121094 14.628906 31.148438 14.523438 Z M 49.191406 14.601562 L 49.941406 14.628906 L 50.125 14.84375 L 50.046875 15.164062 L 51.09375 15.808594 L 51.308594 15.78125 L 52.617188 17.308594 L 53.152344 17.117188 C 54.011719 18.964844 54.464844 21 54.492188 23.035156 L 51.386719 23.035156 C 51.386719 22.234375 51.28125 21.457031 51.09375 20.679688 L 51.222656 20.492188 L 51.414062 19.5 L 51.277344 18.457031 L 50.902344 17.253906 L 50.046875 15.996094 L 50.261719 16.105469 L 50.367188 15.996094 L 49.671875 15.511719 L 49.617188 15.675781 L 50.316406 16.664062 L 50.714844 17.46875 L 50.984375 18.273438 L 51.066406 18.808594 L 51.199219 19.714844 L 50.929688 19.742188 C 50.929688 19.742188 50.636719 19.183594 50.53125 18.941406 L 50.664062 18.726562 L 50.394531 18.351562 L 50.394531 18.003906 L 50.207031 17.761719 L 49.96875 17.789062 C 49.886719 17.628906 49.804688 17.46875 49.699219 17.332031 L 49.859375 17.414062 L 49.914062 17.359375 L 49.832031 17.171875 L 50.046875 17.066406 L 49.96875 16.960938 L 49.671875 17.066406 L 49.78125 16.582031 L 49.589844 16.476562 L 49.433594 16.851562 C 49.085938 16.34375 48.707031 15.859375 48.308594 15.40625 Z M 32.003906 15.808594 L 34.199219 18.003906 C 33.746094 18.511719 33.34375 19.074219 33.050781 19.691406 L 32.886719 19.691406 L 32.566406 19.769531 L 32.460938 19.769531 L 32.136719 20.0625 L 32.566406 20.011719 L 32.941406 19.929688 L 32.859375 20.035156 L 32.539062 20.25 L 32.378906 20.25 L 31.898438 20.625 L 31.441406 20.574219 L 30.769531 21.832031 L 30.90625 22.074219 L 30.53125 22.5 L 30.476562 23.035156 L 29.085938 23.035156 C 29.113281 20.332031 30.15625 17.761719 32.003906 15.808594 Z M 47.878906 15.890625 C 48.386719 16.453125 48.84375 17.066406 49.246094 17.710938 L 48.976562 17.789062 L 49.003906 18.273438 L 49.804688 18.78125 C 50.019531 19.234375 50.183594 19.6875 50.316406 20.171875 L 50.179688 20.386719 L 49.886719 20.597656 L 49.804688 21.054688 L 49.589844 21.160156 L 49.433594 21.375 L 49.269531 21.296875 L 48.976562 21.296875 L 49.136719 21.054688 L 49.269531 20.441406 L 49.484375 20.304688 L 48.898438 19.742188 L 48.46875 19.90625 L 48.363281 20.332031 L 48.09375 20.625 L 47.800781 20.386719 L 47.691406 20.117188 L 47.851562 20.011719 L 47.933594 20.171875 L 48.066406 20.117188 L 48.011719 19.851562 L 47.828125 19.851562 L 47.828125 19.957031 L 47.691406 19.984375 L 47.023438 19.179688 L 46.78125 18.992188 L 46.859375 18.914062 L 47.074219 18.835938 L 46.859375 18.753906 C 46.859375 18.753906 46.621094 18.808594 46.59375 18.808594 L 46.726562 18.992188 L 46.378906 18.992188 C 46.164062 18.644531 45.949219 18.351562 45.683594 18.082031 Z M 48.253906 16.773438 L 47.773438 17.011719 L 47.613281 17.308594 L 47.503906 17.574219 L 47.71875 17.921875 L 47.636719 18.082031 L 47.34375 18.191406 L 47.371094 18.429688 L 47.90625 18.273438 L 48.066406 17.949219 L 47.691406 17.46875 L 47.878906 17.175781 L 48.386719 17.523438 L 48.46875 17.441406 L 48.363281 17.359375 L 48.253906 17.148438 L 48.46875 17.039062 Z M 40.730469 18.511719 C 40.167969 18.644531 39.605469 18.804688 39.070312 18.992188 C 39.097656 19.957031 39.234375 27.105469 39.234375 27.878906 C 39.5 27.800781 39.765625 27.695312 40.007812 27.640625 C 40.195312 27.589844 40.359375 27.535156 40.546875 27.480469 C 40.546875 26.972656 40.703125 19.796875 40.730469 18.511719 Z M 45.253906 18.511719 C 45.46875 18.75 45.65625 18.996094 45.84375 19.261719 L 45.738281 19.609375 L 45.445312 19.394531 L 45.203125 19.449219 L 45.308594 19.664062 L 45.417969 19.664062 L 45.28125 19.984375 L 45.203125 19.851562 L 44.855469 19.742188 L 45.121094 19.691406 L 45.121094 19.636719 L 44.855469 19.449219 L 44.933594 18.859375 Z M 38.402344 19.234375 C 37.867188 19.554688 37.597656 19.929688 37.574219 20.441406 C 37.574219 20.976562 37.894531 21.324219 38.457031 21.644531 L 38.457031 21.402344 L 38.109375 21.027344 L 38.292969 20.679688 L 38.457031 20.625 C 38.429688 20.011719 38.429688 19.34375 38.429688 19.234375 Z M 13.238281 19.261719 C 11.550781 26.382812 16.046875 27.210938 17.226562 30.210938 C 17.039062 25.925781 19.769531 25.070312 19.558594 20.171875 C 18.351562 22.5 16.449219 23.035156 16.664062 27.828125 C 15.648438 23.570312 13.210938 21.964844 13.238281 19.261719 Z M 66.5625 19.261719 C 66.589844 21.992188 64.15625 23.574219 63.136719 27.855469 C 63.351562 23.011719 61.476562 22.5 60.246094 20.171875 C 60.003906 25.070312 62.761719 25.925781 62.574219 30.210938 C 63.726562 27.238281 68.25 26.382812 66.5625 19.261719 Z M 50.394531 20.332031 C 50.449219 20.492188 50.476562 20.652344 50.53125 20.8125 L 50.234375 21.695312 L 50.234375 21.992188 L 50.609375 21.375 C 50.691406 21.910156 50.746094 22.472656 50.769531 23.007812 L 48.039062 23.007812 L 47.984375 22.765625 L 48.308594 22.527344 L 48.363281 22.367188 L 48.492188 22.257812 L 48.871094 22.207031 L 48.898438 22.046875 L 48.574219 21.882812 L 49.136719 21.589844 L 49.699219 21.511719 L 49.832031 21.242188 L 50.152344 21.054688 L 50.289062 20.789062 Z M 31.523438 21.722656 L 32.191406 21.832031 L 32.296875 21.9375 C 32.242188 22.285156 32.21875 22.660156 32.191406 23.007812 L 31.441406 23.007812 L 31.09375 22.554688 L 31.148438 21.9375 Z M 41.265625 23.359375 C 41.238281 23.972656 41.238281 24.855469 41.210938 25.472656 C 41.933594 25.738281 42.417969 26.089844 42.417969 26.652344 C 42.417969 27.347656 41.695312 27.722656 41.160156 27.9375 C 40.945312 28.015625 40.625 28.121094 40.515625 28.148438 C 40.089844 28.285156 39.660156 28.417969 39.234375 28.578125 C 39.019531 28.660156 38.804688 28.738281 38.589844 28.84375 C 37.894531 29.21875 37.117188 29.78125 37.117188 30.746094 C 37.117188 31.816406 37.894531 32.378906 38.671875 32.835938 C 38.671875 32.648438 38.644531 31.015625 38.644531 30.988281 C 38.667969 30.667969 38.964844 30.453125 39.234375 30.34375 C 39.632812 30.15625 40.0625 29.996094 40.488281 29.863281 C 40.730469 29.78125 40.917969 29.703125 41.132812 29.648438 C 42.710938 29.167969 44.53125 28.578125 44.53125 26.652344 C 44.53125 24.722656 42.980469 23.945312 41.265625 23.359375 Z M 25.363281 23.625 L 28.472656 23.625 C 28.472656 23.917969 28.496094 24.214844 28.550781 24.535156 L 28.175781 24.613281 L 28.09375 24.992188 L 27.292969 26.007812 L 27.320312 27.398438 L 26.515625 27.667969 L 26.0625 27.667969 C 25.632812 26.355469 25.417969 25.015625 25.363281 23.625 Z M 51.386719 23.625 L 54.492188 23.625 C 54.382812 27.265625 52.9375 30.71875 50.394531 33.316406 L 49.96875 32.886719 L 50.207031 32.621094 L 49.96875 31.414062 L 49.804688 31.359375 L 49.914062 31.148438 L 49.40625 30.988281 L 49.296875 31.414062 L 49.246094 31.949219 L 49.136719 32.058594 L 48.199219 31.121094 C 50.152344 29.085938 51.277344 26.433594 51.386719 23.625 Z M 55.082031 23.625 L 58.183594 23.625 C 58.078125 28.226562 56.230469 32.644531 52.992188 35.9375 L 50.824219 33.742188 C 53.472656 31.011719 55 27.398438 55.082031 23.625 Z M 21.644531 23.652344 L 24.75 23.652344 C 24.777344 24.988281 25.019531 26.355469 25.417969 27.640625 L 25.230469 27.613281 L 25.042969 27.429688 L 24.160156 27.34375 L 24.429688 27.722656 L 23.625 27.558594 L 23.839844 27.371094 L 23.652344 27.1875 L 23.0625 27.429688 L 22.847656 27.800781 L 22.929688 28.683594 L 23.597656 30.289062 L 23.917969 30.796875 L 24.109375 30.851562 L 23.597656 29.890625 L 23.488281 29.40625 L 23.597656 29.300781 L 23.515625 29.035156 L 23.8125 29.085938 L 24.292969 29.78125 L 24.402344 29.835938 L 24.402344 29.328125 L 24.585938 29.433594 L 24.644531 29.703125 L 25.125 29.835938 L 25.335938 29.675781 L 25.417969 29.726562 L 25.417969 30.105469 L 25.632812 30.371094 L 25.898438 30.425781 L 26.488281 31.386719 L 26.839844 31.496094 L 26.945312 31.039062 C 27.5625 32.03125 28.257812 32.96875 29.085938 33.796875 L 26.890625 35.992188 C 23.625 32.699219 21.75 28.28125 21.644531 23.652344 Z M 29.085938 23.652344 L 30.023438 23.652344 L 29.808594 24.402344 L 30.078125 24.695312 L 29.785156 25.148438 L 29.273438 25.148438 L 29.246094 25.125 C 29.164062 24.644531 29.113281 24.132812 29.085938 23.652344 Z M 30.828125 23.652344 L 31.546875 23.652344 L 31.65625 23.867188 L 31.496094 24.589844 L 31.417969 24.722656 L 31.683594 25.3125 L 31.496094 25.417969 L 31.363281 25.257812 L 31.308594 25.3125 L 31.441406 25.660156 L 31.65625 26.0625 L 31.761719 26.0625 L 31.816406 25.6875 L 31.710938 25.554688 L 31.710938 25.3125 L 31.683594 24.804688 L 31.84375 23.894531 L 31.683594 23.652344 L 32.191406 23.652344 C 32.296875 25.5 33.050781 27.238281 34.335938 28.578125 L 32.136719 30.746094 C 31.925781 30.503906 31.683594 30.265625 31.496094 30.023438 L 31.601562 29.246094 L 31.28125 28.5 L 31.199219 27.320312 L 30.828125 26.597656 L 30.90625 26.140625 L 30.449219 25.285156 L 30.078125 25.097656 L 30.234375 24.640625 L 30.078125 24.292969 L 30.234375 23.894531 L 30.664062 23.894531 Z M 48.335938 23.679688 L 50.714844 23.679688 C 50.609375 26.328125 49.539062 28.84375 47.71875 30.746094 L 47.398438 30.425781 L 47.53125 29.996094 L 47.292969 29.035156 L 46.808594 29.753906 L 46.515625 29.460938 L 46.726562 29.167969 L 47.023438 28.578125 L 46.914062 28.414062 L 47.101562 27.988281 L 47.074219 27.585938 L 46.96875 27.1875 L 46.699219 27.105469 L 46.59375 27.320312 L 46.433594 27.265625 C 46.671875 26.917969 46.886719 26.515625 47.074219 26.140625 L 47.34375 26.035156 L 47.503906 25.820312 L 47.585938 25.902344 L 47.769531 25.6875 L 47.613281 25.5 L 47.742188 25.472656 L 47.984375 25.582031 L 48.46875 25.582031 L 48.761719 25.417969 L 49.511719 25.203125 L 49.375 24.964844 L 49.324219 24.667969 L 49.726562 24.855469 L 49.886719 24.777344 L 49.804688 24.457031 L 49.296875 24.640625 L 48.761719 24.535156 Z M 32.808594 24.027344 L 33.261719 24.507812 L 33.691406 24.507812 L 34.25 24.882812 L 34.414062 24.804688 L 34.8125 25.097656 L 34.628906 25.230469 L 35.082031 25.527344 L 35.054688 25.203125 L 35.296875 24.804688 L 35.5625 25.070312 L 35.832031 25.445312 L 35.347656 25.582031 L 35.5625 26.007812 L 35.882812 25.820312 L 35.832031 25.6875 L 36.074219 25.527344 L 36.207031 24.855469 C 36.394531 25.257812 36.636719 25.632812 36.929688 25.953125 L 34.734375 28.148438 C 33.664062 27.023438 32.996094 25.578125 32.808594 24.027344 Z M 19.34375 25.257812 C 19.183594 27.800781 17.46875 29.03125 18.617188 33.664062 C 16.609375 29.726562 13.507812 28.257812 12.597656 25.582031 C 12.648438 32.941406 18.566406 34.039062 20.066406 36.074219 C 18.804688 31.386719 21.03125 29.753906 19.34375 25.257812 Z M 60.460938 25.257812 C 58.773438 29.753906 60.996094 31.386719 59.738281 36.074219 C 61.238281 34.039062 67.152344 32.941406 67.207031 25.582031 C 66.296875 28.285156 63.191406 29.726562 61.183594 33.664062 C 62.335938 29.03125 60.621094 27.800781 60.460938 25.257812 Z M 41.238281 26.167969 C 41.238281 26.300781 41.210938 26.917969 41.210938 27.238281 C 41.558594 27.050781 41.800781 26.890625 41.800781 26.625 C 41.800781 26.464844 41.589844 26.300781 41.292969 26.167969 Z M 44.933594 29.113281 L 45.496094 29.511719 L 45.925781 29.726562 L 46.136719 29.941406 L 46.03125 30.050781 L 45.363281 29.863281 L 45.148438 29.941406 L 44.773438 29.648438 L 44.425781 29.511719 C 44.613281 29.378906 44.773438 29.246094 44.933594 29.113281 Z M 40.515625 30.476562 C 40.515625 30.476562 40.273438 30.558594 40.140625 30.613281 C 40.0625 30.636719 39.820312 30.746094 39.660156 30.796875 C 39.5 30.851562 39.3125 30.933594 39.3125 30.988281 C 39.3125 30.988281 39.472656 39.230469 39.472656 39.390625 C 39.472656 41.078125 40.332031 41.105469 40.332031 39.390625 C 40.332031 39.285156 40.515625 30.476562 40.515625 30.476562 Z M 20.707031 30.796875 C 21.136719 32.753906 19.902344 35.617188 21.855469 38.320312 C 19.847656 36.074219 15.566406 35.484375 13.824219 32.058594 C 15.996094 40.4375 21.671875 38.722656 24.214844 40.542969 C 22.125 37.519531 23.839844 35.507812 20.707031 30.796875 Z M 59.070312 30.796875 C 55.9375 35.507812 57.648438 37.519531 55.5625 40.542969 C 58.128906 38.722656 63.78125 40.4375 65.949219 32.058594 C 64.210938 35.484375 59.953125 36.074219 57.945312 38.320312 C 59.898438 35.617188 58.667969 32.777344 59.070312 30.796875 Z M 24.347656 31.230469 L 24.910156 32.109375 L 24.9375 31.976562 L 24.671875 31.359375 Z M 47.742188 31.574219 L 49.941406 33.769531 C 49.136719 34.546875 48.226562 35.242188 47.234375 35.804688 L 47.53125 35.191406 L 47.421875 34.921875 L 47.851562 34.546875 L 47.851562 34.332031 L 47.476562 34.089844 L 47.773438 33.476562 L 48.226562 32.886719 L 47.773438 32.40625 L 47.421875 32.40625 L 47.207031 32.058594 C 47.394531 31.898438 47.582031 31.734375 47.742188 31.574219 Z M 29.164062 32.378906 L 29.863281 32.78125 L 29.996094 32.886719 L 29.488281 33.398438 C 29.246094 33.15625 29.03125 32.914062 28.816406 32.648438 Z M 41.082031 32.671875 L 41.054688 33.90625 C 42.015625 34.386719 42.925781 35.082031 43.300781 36.367188 C 43.460938 34.226562 42.257812 33.316406 41.082031 32.671875 Z M 23.703125 35.78125 C 24.746094 37.386719 23.675781 39.394531 26.96875 42.5 C 23.757812 40.597656 19.289062 41.398438 17.148438 38.855469 C 20.839844 45.921875 27.316406 43.035156 29.136719 43.917969 C 27.398438 41.507812 28.578125 40.144531 23.703125 35.78125 Z M 56.097656 35.78125 C 51.199219 40.144531 52.402344 41.507812 50.636719 43.917969 C 52.484375 43.035156 58.960938 45.921875 62.628906 38.855469 C 60.511719 41.425781 56.046875 40.597656 52.832031 42.5 C 56.125 39.367188 55.054688 37.359375 56.097656 35.78125 Z M 35.027344 43.460938 C 33.207031 43.515625 31.417969 43.8125 29.675781 44.265625 C 26.730469 45.042969 24.1875 45.65625 21.964844 44.53125 C 24.078125 46.40625 26.570312 47.101562 30.15625 46.699219 C 33.128906 46.378906 35.539062 44.882812 38.347656 44.910156 L 38.457031 44.910156 C 36.691406 45.792969 35.109375 47.023438 33.824219 48.523438 L 35.191406 48.710938 C 35.191406 48.710938 36.605469 45.84375 39.898438 45.09375 C 43.191406 45.84375 44.613281 48.710938 44.613281 48.710938 L 45.980469 48.523438 C 44.695312 47.023438 43.113281 45.792969 41.347656 44.910156 L 41.453125 44.910156 C 44.265625 44.882812 46.675781 46.378906 49.644531 46.699219 C 53.234375 47.074219 55.695312 46.40625 57.839844 44.53125 C 55.617188 45.65625 53.070312 45.042969 50.125 44.265625 C 48.386719 43.8125 46.59375 43.515625 44.773438 43.460938 C 43.113281 43.433594 41.453125 43.703125 39.898438 44.289062 C 38.347656 43.703125 36.6875 43.433594 35.027344 43.460938 Z M 25.359375 52.507812 L 25.359375 64.308594 L 27.324219 64.308594 L 27.324219 52.507812 Z M 33.320312 52.507812 L 33.320312 57.386719 L 33.300781 57.386719 C 32.933594 56.566406 32.113281 56.046875 31.207031 56.089844 C 29.460938 56.089844 28.402344 57.621094 28.402344 60.273438 C 28.402344 62.519531 29.242188 64.4375 31.25 64.4375 C 32.5 64.4375 33.082031 63.75 33.40625 63.058594 L 33.449219 63.058594 C 33.449219 63.46875 33.46875 63.898438 33.511719 64.308594 L 35.347656 64.308594 C 35.304688 63.855469 35.285156 63.382812 35.285156 62.929688 L 35.285156 52.507812 Z M 64.644531 52.507812 L 64.644531 64.308594 L 66.585938 64.308594 L 66.585938 52.507812 Z M 73.015625 52.507812 L 73.015625 64.308594 L 74.957031 64.308594 L 74.957031 59.585938 C 74.957031 58.550781 75.324219 57.6875 76.335938 57.6875 C 77.136719 57.6875 77.460938 58.207031 77.460938 59.457031 L 77.460938 64.308594 L 79.402344 64.308594 L 79.402344 59.089844 C 79.402344 57.449219 78.839844 56.089844 77.007812 56.089844 C 75.800781 56.089844 75.347656 56.761719 75 57.257812 L 74.957031 57.257812 L 74.957031 52.507812 Z M 0.25 53.328125 L 2.492188 64.332031 L 4.863281 64.332031 L 6.589844 55.3125 L 6.613281 55.3125 L 8.273438 64.332031 L 10.6875 64.332031 L 12.957031 53.328125 L 11.121094 53.328125 L 9.503906 61.808594 L 9.480469 61.808594 L 7.84375 53.328125 L 5.382812 53.328125 L 3.71875 61.808594 L 3.699219 61.808594 L 2.148438 53.328125 Z M 41.085938 53.328125 L 41.085938 64.308594 L 43.113281 64.308594 L 43.113281 59.457031 L 46.371094 59.457031 L 46.371094 64.332031 L 48.378906 64.332031 L 48.378906 53.328125 L 46.371094 53.328125 L 46.371094 57.792969 L 43.113281 57.792969 L 43.113281 53.328125 Z M 70.769531 53.933594 L 68.832031 54.535156 L 68.808594 54.535156 L 68.808594 56.21875 L 67.511719 56.21875 L 67.511719 57.644531 L 68.808594 57.644531 L 68.808594 62.066406 C 68.808594 63.769531 69.628906 64.4375 71.074219 64.4375 C 71.527344 64.4375 71.980469 64.355469 72.390625 64.179688 L 72.390625 62.800781 C 72.175781 62.90625 71.914062 62.972656 71.65625 62.972656 C 71.09375 62.972656 70.769531 62.714844 70.769531 61.851562 L 70.769531 57.621094 L 72.390625 57.621094 L 72.390625 56.195312 L 70.769531 56.195312 Z M 15.800781 56.070312 C 14.164062 56.070312 12.246094 56.933594 12.222656 60.234375 C 12.222656 63.621094 14.140625 64.417969 15.800781 64.417969 C 17.464844 64.417969 19.363281 63.644531 19.363281 60.234375 C 19.363281 56.933594 17.464844 56.070312 15.800781 56.070312 Z M 59.75 56.070312 C 58.863281 56.070312 57.976562 56.285156 57.179688 56.671875 L 57.3125 58.226562 C 57.957031 57.730469 58.734375 57.449219 59.53125 57.429688 C 60.652344 57.429688 61.042969 58.183594 61.042969 58.984375 L 61.042969 59.285156 L 60.652344 59.285156 C 58.171875 59.285156 56.382812 59.84375 56.382812 62.046875 C 56.382812 63.554688 57.546875 64.417969 58.800781 64.417969 C 59.964844 64.417969 60.566406 63.855469 61.0625 63.1875 L 61.085938 63.1875 C 61.0625 63.554688 61.105469 63.921875 61.191406 64.289062 L 62.964844 64.289062 C 62.898438 63.8125 62.855469 63.339844 62.855469 62.863281 L 62.855469 59.324219 C 62.855469 57.296875 62.273438 56.070312 59.75 56.070312 Z M 24.195312 56.089844 C 22.964844 56.089844 22.359375 57.0625 22.125 57.6875 L 22.101562 57.6875 C 22.101562 57.191406 22.058594 56.691406 22.039062 56.195312 L 20.269531 56.195312 C 20.3125 56.648438 20.332031 57.082031 20.332031 57.535156 L 20.355469 64.332031 L 22.296875 64.332031 L 22.296875 59.886719 C 22.296875 58.375 23.179688 57.882812 23.976562 57.882812 C 24.152344 57.882812 24.347656 57.925781 24.519531 57.96875 L 24.519531 56.132812 C 24.410156 56.113281 24.304688 56.089844 24.195312 56.089844 Z M 52.695312 56.089844 C 50.625 56.089844 49.351562 57.96875 49.351562 60.386719 C 49.351562 62.5625 50.492188 64.4375 53.105469 64.4375 C 53.925781 64.4375 54.765625 64.269531 55.519531 63.921875 L 55.453125 62.410156 C 55.085938 62.667969 54.503906 63.035156 53.316406 63.035156 C 51.808594 63.035156 51.25 62.195312 51.25 60.816406 L 55.929688 60.816406 L 55.929688 60.425781 C 55.929688 57.105469 54.441406 56.089844 52.695312 56.089844 Z M 52.671875 57.40625 C 53.554688 57.40625 54.03125 58.140625 54.03125 59.5625 L 51.226562 59.5625 C 51.226562 58.484375 51.636719 57.40625 52.671875 57.40625 Z M 15.800781 57.46875 C 17.074219 57.46875 17.355469 58.894531 17.355469 60.253906 C 17.355469 61.613281 17.054688 63.058594 15.800781 63.058594 C 14.550781 63.058594 14.25 61.613281 14.25 60.253906 C 14.25 58.894531 14.53125 57.46875 15.800781 57.46875 Z M 31.789062 57.515625 C 32.867188 57.515625 33.300781 58.660156 33.300781 60.234375 C 33.300781 61.746094 32.910156 62.992188 31.769531 62.992188 C 30.644531 62.992188 30.34375 62.066406 30.320312 60.191406 C 30.320312 58.570312 30.710938 57.515625 31.789062 57.515625 Z M 60.847656 60.339844 L 61.042969 60.339844 L 61.042969 60.8125 C 61.042969 62.257812 60.613281 63.125 59.445312 63.125 L 59.292969 63.125 C 58.644531 63.082031 58.152344 62.519531 58.195312 61.871094 C 58.195312 60.6875 59.1875 60.339844 60.847656 60.339844 Z M 38.367188 66.835938 L 38.367188 68.753906 L 40.398438 68.753906 L 40.398438 66.835938 Z M 61.429688 66.835938 L 61.429688 68.753906 L 63.4375 68.753906 L 63.4375 66.835938 Z M 4.714844 67.242188 C 2.425781 67.242188 0.332031 68.945312 0.332031 72.894531 C 0.332031 76.84375 2.425781 78.550781 4.714844 78.550781 C 7 78.550781 9.09375 76.84375 9.09375 72.894531 C 9.09375 68.945312 7 67.242188 4.714844 67.242188 Z M 58.625 68.019531 L 56.6875 68.625 L 56.660156 70.285156 L 55.367188 70.285156 L 55.367188 71.710938 L 56.660156 71.710938 L 56.660156 76.15625 C 56.660156 77.839844 57.484375 78.503906 58.929688 78.503906 C 59.382812 78.527344 59.832031 78.441406 60.242188 78.246094 L 60.242188 76.867188 C 60.027344 76.996094 59.769531 77.039062 59.511719 77.039062 C 58.949219 77.039062 58.625 76.78125 58.625 75.917969 L 58.625 71.710938 L 60.242188 71.710938 L 60.242188 70.285156 L 58.625 70.285156 Z M 4.714844 68.796875 C 5.988281 68.796875 7.023438 69.851562 7.023438 72.894531 C 7.023438 75.9375 5.988281 77.015625 4.714844 77.015625 C 3.441406 77.015625 2.40625 75.914062 2.40625 72.894531 C 2.40625 69.875 3.441406 68.796875 4.714844 68.796875 Z M 25.789062 70.15625 C 24.90625 70.15625 24.023438 70.351562 23.222656 70.761719 L 23.351562 72.3125 C 24 71.816406 24.777344 71.535156 25.574219 71.515625 C 26.699219 71.515625 27.085938 72.269531 27.085938 73.066406 L 27.085938 73.371094 L 26.699219 73.371094 C 24.21875 73.371094 22.425781 73.929688 22.425781 76.132812 C 22.425781 77.640625 23.589844 78.503906 24.839844 78.503906 C 26.003906 78.503906 26.609375 77.945312 27.105469 77.277344 L 27.128906 77.277344 C 27.109375 77.640625 27.148438 78.007812 27.234375 78.375 L 29.003906 78.375 C 28.9375 77.902344 28.898438 77.425781 28.898438 76.953125 L 28.898438 73.414062 C 28.898438 71.386719 28.3125 70.15625 25.789062 70.15625 Z M 51.464844 70.15625 C 50.578125 70.15625 49.695312 70.351562 48.898438 70.761719 L 49.027344 72.3125 C 49.671875 71.816406 50.449219 71.535156 51.25 71.515625 C 52.371094 71.515625 52.757812 72.269531 52.757812 73.066406 L 52.757812 73.371094 L 52.367188 73.371094 C 49.886719 73.371094 48.097656 73.929688 48.097656 76.132812 C 48.097656 77.640625 49.265625 78.503906 50.515625 78.503906 C 51.679688 78.503906 52.285156 77.945312 52.78125 77.277344 L 52.800781 77.277344 C 52.78125 77.640625 52.824219 78.007812 52.910156 78.375 L 54.675781 78.375 C 54.613281 77.902344 54.570312 77.425781 54.570312 76.953125 L 54.570312 73.414062 C 54.570312 71.386719 53.988281 70.15625 51.464844 70.15625 Z M 68.074219 70.15625 C 66.433594 70.15625 64.515625 71.039062 64.496094 74.320312 C 64.496094 77.726562 66.414062 78.503906 68.074219 78.503906 C 69.734375 78.503906 71.636719 77.726562 71.636719 74.320312 C 71.636719 71.019531 69.734375 70.15625 68.074219 70.15625 Z M 13.773438 70.179688 C 12.566406 70.179688 11.941406 71.148438 11.703125 71.773438 L 11.683594 71.773438 C 11.683594 71.277344 11.636719 70.78125 11.617188 70.285156 L 9.847656 70.285156 C 9.890625 70.738281 9.914062 71.171875 9.914062 71.625 L 9.914062 78.417969 L 11.855469 78.417969 L 11.855469 73.976562 C 11.855469 72.464844 12.738281 71.96875 13.539062 71.96875 C 13.730469 71.96875 13.925781 72.011719 14.097656 72.054688 L 14.097656 70.222656 C 13.988281 70.199219 13.882812 70.175781 13.773438 70.175781 Z M 17.527344 70.179688 C 15.394531 70.179688 14.59375 72.140625 14.59375 74.386719 C 14.59375 77.664062 16.300781 78.417969 17.421875 78.417969 C 18.695312 78.417969 19.234375 77.664062 19.558594 77.039062 L 19.578125 77.039062 L 19.578125 77.816406 C 19.578125 79.089844 19.273438 80.359375 17.441406 80.359375 C 16.597656 80.339844 15.78125 80.101562 15.046875 79.671875 L 14.960938 81.398438 C 15.847656 81.722656 16.792969 81.890625 17.742188 81.890625 C 20.71875 81.890625 21.496094 80.105469 21.496094 77.558594 L 21.496094 71.582031 C 21.496094 71.148438 21.542969 70.738281 21.5625 70.308594 L 19.796875 70.308594 C 19.773438 70.714844 19.730469 71.125 19.730469 71.558594 L 19.664062 71.558594 C 19.253906 70.847656 18.714844 70.179688 17.527344 70.179688 Z M 34.484375 70.179688 C 33.167969 70.179688 32.609375 71.039062 32.328125 71.535156 L 32.304688 71.535156 C 32.304688 71.125 32.265625 70.695312 32.242188 70.285156 L 30.40625 70.285156 C 30.449219 70.738281 30.472656 71.171875 30.472656 71.625 L 30.472656 78.375 L 32.414062 78.375 L 32.414062 73.652344 C 32.414062 72.617188 32.78125 71.753906 33.796875 71.753906 C 34.59375 71.753906 34.914062 72.269531 34.914062 73.519531 L 34.914062 78.398438 L 36.882812 78.398438 L 36.882812 73.175781 C 36.882812 71.535156 36.320312 70.179688 34.484375 70.179688 Z M 77.199219 70.179688 C 75.882812 70.179688 75.324219 71.039062 75.042969 71.535156 L 75.023438 71.535156 C 75.023438 71.125 74.980469 70.695312 74.957031 70.285156 L 73.125 70.285156 C 73.167969 70.738281 73.191406 71.171875 73.191406 71.625 L 73.207031 78.375 L 75.152344 78.375 L 75.152344 73.652344 C 75.152344 72.617188 75.519531 71.753906 76.53125 71.753906 C 77.332031 71.753906 77.65625 72.269531 77.65625 73.519531 L 77.65625 78.398438 L 79.59375 78.398438 L 79.59375 73.175781 C 79.59375 71.535156 79.03125 70.179688 77.199219 70.179688 Z M 38.414062 70.285156 L 38.414062 78.398438 L 40.351562 78.398438 L 40.351562 70.285156 Z M 41.992188 70.285156 L 41.992188 71.773438 L 45.359375 71.773438 L 41.882812 76.714844 L 41.863281 76.714844 L 41.863281 78.398438 L 47.410156 78.398438 L 47.410156 76.90625 L 43.890625 76.90625 L 47.300781 71.949219 L 47.300781 70.285156 Z M 61.472656 70.285156 L 61.496094 78.398438 L 63.4375 78.398438 L 63.4375 70.285156 Z M 68.074219 71.558594 C 69.347656 71.558594 69.625 72.980469 69.625 74.339844 C 69.625 75.699219 69.324219 77.144531 68.074219 77.144531 C 66.820312 77.144531 66.523438 75.699219 66.523438 74.339844 C 66.523438 72.980469 66.800781 71.558594 68.074219 71.558594 Z M 18.023438 71.664062 C 18.953125 71.644531 19.601562 72.550781 19.601562 74.253906 C 19.601562 76.085938 19.105469 76.972656 17.875 76.972656 C 17.207031 76.972656 16.601562 76.175781 16.601562 74.277344 C 16.601562 72.636719 16.988281 71.6875 18.023438 71.664062 Z M 26.890625 74.425781 L 27.0625 74.425781 L 27.085938 74.902344 C 27.085938 76.347656 26.652344 77.210938 25.488281 77.210938 L 25.335938 77.210938 C 24.691406 77.167969 24.191406 76.605469 24.238281 75.957031 C 24.238281 74.769531 25.230469 74.425781 26.890625 74.425781 Z M 52.5625 74.425781 L 52.757812 74.425781 L 52.757812 74.902344 C 52.757812 76.347656 52.324219 77.210938 51.160156 77.210938 L 51.011719 77.210938 C 50.363281 77.167969 49.867188 76.605469 49.910156 75.957031 C 49.910156 74.769531 50.902344 74.425781 52.5625 74.425781 Z M 52.5625 74.425781 "/>
</g>
</svg>
