<svg width="66" height="57" viewBox="0 0 66 57" fill="none" xmlns="http://www.w3.org/2000/svg">
<circle opacity="0.2" cx="28.5" cy="28.5" r="28.5" fill="#5593E3"/>
<g clip-path="url(#clip0)">
<path d="M62.893 7.23949H21.1071C19.3939 7.23949 18 8.63335 18 10.3466V35.0028C18 36.7161 19.3939 38.11 21.1071 38.11H24.6866C24.7547 38.2052 24.832 38.2969 24.9194 38.3842C25.3877 38.8524 26.0351 39.0801 26.8987 39.0801C27.0537 39.0801 27.2106 39.0724 27.3682 39.0606V49.7297C27.3682 50.101 27.568 50.4436 27.8911 50.6266C28.2141 50.8094 28.6107 50.8046 28.9293 50.6134L34.2427 47.4254L39.5562 50.6135C39.7194 50.7114 39.9028 50.7604 40.0865 50.7604C40.2615 50.7604 40.4366 50.7158 40.5943 50.6266C40.9174 50.4436 41.1172 50.101 41.1172 49.7297V39.0606C41.2748 39.0725 41.4318 39.0801 41.5867 39.0801C42.4503 39.0801 43.0977 38.8524 43.5658 38.3843C43.6533 38.2969 43.7306 38.2052 43.7987 38.11H62.8929C64.6061 38.11 65.9999 36.7161 65.9999 35.0028V10.3466C66 8.63335 64.6062 7.23949 62.893 7.23949ZM34.773 45.3396C34.4466 45.1439 34.0389 45.1438 33.7124 45.3396L29.4297 47.9094V38.815C29.5228 38.8089 29.6129 38.8052 29.6987 38.8052C29.9683 38.8052 30.1093 38.8403 30.18 38.8696C30.4771 38.9927 30.9297 39.6019 31.2933 40.0912C32.0439 41.1013 32.8946 42.2461 34.2427 42.2461C35.5909 42.2461 36.4416 41.1013 37.1921 40.0912C37.5558 39.6018 38.0084 38.9927 38.3055 38.8696C38.3762 38.8403 38.5173 38.8052 38.7868 38.8052C38.8726 38.8052 38.9627 38.809 39.0559 38.815V47.9094L34.773 45.3396ZM42.1085 36.9267C42.1046 36.9304 42.0115 37.0187 41.5867 37.0187C41.2263 37.0187 40.7934 36.9571 40.3351 36.8918C39.8243 36.8191 39.2962 36.7438 38.7867 36.7438C38.2911 36.7438 37.8753 36.8162 37.5158 36.9653C36.6932 37.3064 36.1057 38.097 35.5376 38.8616C35.1699 39.3564 34.5544 40.1847 34.2426 40.1847C33.9309 40.1847 33.3154 39.3565 32.9478 38.8616C32.3797 38.097 31.7922 37.3064 30.9696 36.9653C30.6101 36.8162 30.1944 36.7438 29.6987 36.7438C29.1893 36.7438 28.6611 36.8191 28.1504 36.8918C27.6922 36.9571 27.2593 37.0187 26.8988 37.0187C26.474 37.0187 26.3808 36.9304 26.377 36.9267C26.1865 36.7361 26.3332 35.7066 26.4119 35.1536C26.5496 34.1867 26.692 33.1871 26.3384 32.3341C25.9973 31.5115 25.2066 30.924 24.4421 30.3559C23.9472 29.9881 23.119 29.3727 23.119 29.061C23.119 28.7494 23.9472 28.1339 24.442 27.7662C25.2066 27.1981 25.9973 26.6106 26.3384 25.788C26.6921 24.9351 26.5497 23.9353 26.412 22.9686C26.3332 22.4154 26.1866 21.3859 26.3772 21.1953C26.381 21.1915 26.4741 21.1032 26.8988 21.1032C27.2591 21.1032 27.692 21.1649 28.1502 21.2302C28.661 21.3029 29.1892 21.3782 29.6987 21.3782C30.1944 21.3782 30.6102 21.3057 30.9697 21.1566C31.7923 20.8155 32.3798 20.025 32.9479 19.2604C33.3156 18.7656 33.9311 17.9374 34.2427 17.9374C34.5545 17.9374 35.17 18.7656 35.5377 19.2604C36.1058 20.025 36.6933 20.8155 37.5159 21.1566C37.8754 21.3057 38.2911 21.3782 38.7869 21.3782C39.2963 21.3782 39.8244 21.303 40.3352 21.2303C40.7934 21.165 41.2263 21.1033 41.5867 21.1033C42.0115 21.1033 42.1047 21.1917 42.1085 21.1955C42.2991 21.3861 42.1524 22.4156 42.0737 22.9687C41.936 23.9354 41.7936 24.935 42.1472 25.788C42.4884 26.6106 43.279 27.1982 44.0436 27.7663C44.5384 28.134 45.3667 28.7495 45.3667 29.0611C45.3667 29.3728 44.5384 29.9882 44.0436 30.356C43.279 30.9241 42.4883 31.5116 42.1472 32.3343C41.7936 33.1872 41.936 34.1868 42.0736 35.1535C42.1524 35.7064 42.2991 36.736 42.1085 36.9267ZM63.9386 35.0028C63.9386 35.5795 63.4695 36.0486 62.893 36.0486H44.2501C44.2266 35.6502 44.1694 35.2483 44.1145 34.8627C44.0251 34.2356 43.9139 33.4552 44.0513 33.1238C44.1745 32.8267 44.7836 32.3741 45.273 32.0104C46.2831 31.2598 47.4279 30.4092 47.4279 29.061C47.4279 27.7129 46.2831 26.8622 45.273 26.1116C44.7836 25.748 44.1745 25.2953 44.0513 24.9984C43.9139 24.6669 44.0251 23.8865 44.1145 23.2594C44.2882 22.0395 44.4851 20.6569 43.5661 19.7378C43.0978 19.2695 42.4504 19.0419 41.5867 19.0419C41.0802 19.0419 40.5537 19.1169 40.0446 19.1894C39.5846 19.2549 39.1502 19.3167 38.7869 19.3167C38.5173 19.3167 38.3763 19.2818 38.3055 19.2523C38.0084 19.1293 37.5558 18.5201 37.1921 18.0308C36.4416 17.0207 35.5909 15.8759 34.2427 15.8759C32.8946 15.8759 32.0439 17.0207 31.2933 18.0308C30.9297 18.5202 30.4772 19.1293 30.1801 19.2523C30.1093 19.2817 29.9683 19.3167 29.6987 19.3167C29.3354 19.3167 28.9008 19.2549 28.4409 19.1893C27.9317 19.1168 27.4053 19.0418 26.8988 19.0418C26.0352 19.0418 25.3878 19.2694 24.9196 19.7375C24.0005 20.6566 24.1974 22.0393 24.3712 23.2591C24.4606 23.8863 24.5717 24.6666 24.4343 24.9982C24.3111 25.2952 23.702 25.7479 23.2126 26.1115C22.2025 26.8621 21.0577 27.7128 21.0577 29.0609C21.0577 30.4091 22.2025 31.2598 23.2126 32.0103C23.702 32.374 24.3111 32.8266 24.4342 33.1236C24.5717 33.455 24.4605 34.2356 24.3711 34.8627C24.3162 35.2483 24.259 35.6502 24.2355 36.0485H21.1071C20.5305 36.0485 20.0613 35.5794 20.0613 35.0027V10.3466C20.0613 9.76994 20.5305 9.30084 21.1071 9.30084H62.893C63.4695 9.30084 63.9386 9.76994 63.9386 10.3466V35.0028Z" fill="#484F5E" stroke="#484F5E"/>
<path d="M59.718 17.1373H50.997C50.4278 17.1373 49.9663 17.5988 49.9663 18.168C49.9663 18.7372 50.4278 19.1987 50.997 19.1987H59.718C60.2872 19.1987 60.7486 18.7372 60.7486 18.168C60.7486 17.5988 60.2872 17.1373 59.718 17.1373Z" fill="#484F5E" stroke="#484F5E"/>
<path d="M59.718 23.9902H50.997C50.4278 23.9902 49.9663 24.4517 49.9663 25.0209C49.9663 25.5901 50.4278 26.0516 50.997 26.0516H59.718C60.2872 26.0516 60.7486 25.5901 60.7486 25.0209C60.7486 24.4517 60.2872 23.9902 59.718 23.9902Z" fill="#484F5E" stroke="#484F5E"/>
</g>
<defs>
<clipPath id="clip0">
<rect width="48" height="48" fill="white" transform="translate(18 4.99998)"/>
</clipPath>
</defs>
</svg>
