<svg width="66" height="57" viewBox="0 0 66 57" fill="none" xmlns="http://www.w3.org/2000/svg">
<circle opacity="0.2" cx="28.5" cy="28.5" r="28.5" fill="#5391E1"/>
<path d="M54.7246 17.446C54.7246 18.9001 53.666 19.7845 52.893 20.4335C52.6002 20.6793 52.0553 21.1278 52.0567 21.2954C52.062 21.9526 51.5336 22.4774 50.8763 22.4774C50.873 22.4774 50.8697 22.4774 50.8664 22.4774C50.2137 22.4774 49.6819 21.9687 49.6766 21.3148C49.6661 20.0259 50.6067 19.2541 51.3625 18.6195C51.9556 18.1215 52.3445 17.7711 52.3445 17.4505C52.3445 16.8013 51.8163 16.2732 51.1672 16.2732C50.5178 16.2732 49.9896 16.8013 49.9896 17.4505C49.9896 18.1078 49.4568 18.6406 48.7995 18.6406C48.1421 18.6406 47.6094 18.1078 47.6094 17.4505C47.6094 15.489 49.2053 13.8931 51.1669 13.8931C53.1287 13.8929 54.7246 15.4843 54.7246 17.446ZM50.8993 23.576C50.242 23.576 49.7355 24.1087 49.7355 24.766V24.7752C49.7355 25.4325 50.2421 25.9608 50.8993 25.9608C51.5565 25.9608 52.0894 25.4234 52.0894 24.766C52.0894 24.1087 51.5566 23.576 50.8993 23.576ZM26.9113 31.8659C26.254 31.8659 25.7213 32.3987 25.7213 33.056C25.7213 33.7133 26.254 34.2461 26.9113 34.2461H27.0105C27.6678 34.2461 28.2006 33.7133 28.2006 33.056C28.2006 32.3987 27.6678 31.8659 27.0105 31.8659H26.9113ZM31.0474 31.8659C30.3901 31.8659 29.8573 32.3987 29.8573 33.056C29.8573 33.7133 30.3901 34.2461 31.0474 34.2461H31.1464C31.8038 34.2461 32.3365 33.7133 32.3365 33.056C32.3365 32.3987 31.8038 31.8659 31.1464 31.8659H31.0474ZM66 12.8578V26.253C66 29.4246 63.4569 31.9982 60.2854 31.9982H44.8517C44.5499 31.9982 44.3015 31.9965 44.0936 31.9921C43.8758 31.9876 43.6307 31.9859 43.5351 31.9965C43.4355 32.0626 43.1914 32.2862 42.9562 32.5029C42.8629 32.5887 42.7574 32.6831 42.6436 32.7871L38.277 36.767C37.9287 37.0847 37.4134 37.167 36.9821 36.9768C36.5507 36.7865 36.2479 36.3594 36.2479 35.888V23.2709H23.7812C21.9217 23.2709 20.3802 24.7946 20.3802 26.6538V40.049C20.3802 41.9083 21.9219 43.3701 23.7812 43.3701H41.0207C41.3176 43.3701 41.5952 43.5064 41.8145 43.7066L45.3719 46.9865V35.6755C45.3719 35.0182 45.9047 34.4854 46.562 34.4854C47.2193 34.4854 47.7521 35.0182 47.7521 35.6755V49.6839C47.7521 50.1553 47.4823 50.576 47.0508 50.7663C46.8965 50.8344 46.7416 50.8612 46.5793 50.8612C46.2879 50.8612 46.0004 50.7416 45.7768 50.5374L40.5593 45.7501H23.7812C20.6095 45.7501 18 43.2205 18 40.0488V26.6538C18 23.4822 20.6095 20.8907 23.7812 20.8907H36.2479V12.8578C36.2479 9.68611 38.8774 7.13867 42.0491 7.13867H60.2855C63.4569 7.13867 66 9.68611 66 12.8578ZM63.6198 12.8578C63.6198 10.9985 62.1445 9.51884 60.2854 9.51884H42.0491C40.1898 9.51884 38.6281 10.9985 38.6281 12.8578V22.0919V33.1906L41.0208 31.0283C41.1316 30.9271 41.2558 30.8345 41.3464 30.751C42.439 29.7442 42.7185 29.5832 44.1437 29.6126C44.3381 29.6167 44.5697 29.6181 44.8517 29.6181H60.2854C62.1445 29.6181 63.6198 28.1123 63.6198 26.2531V12.8578Z" fill="#484F5E"/>
</svg>
