<svg width="32" height="32" viewBox="0 0 32 32" fill="none" xmlns="http://www.w3.org/2000/svg">
<path d="M19.1829 11.4038L16.0009 14.5858L12.8189 11.4038C12.6421 11.227 12.2886 11.227 12.1118 11.4038L11.4047 12.1109C11.2058 12.3098 11.2279 12.6412 11.4047 12.818L14.5867 16L11.4047 19.182C11.2058 19.3809 11.2279 19.7123 11.4047 19.8891L12.1118 20.5962C12.3107 20.7951 12.6201 20.7951 12.8189 20.5962L16.0009 17.4142L19.1829 20.5962C19.3818 20.7951 19.6911 20.7951 19.89 20.5962L20.5971 19.8891C20.7739 19.7123 20.796 19.3809 20.5971 19.182L17.4151 16L20.5971 12.818C20.7739 12.6412 20.796 12.3098 20.5971 12.1109L19.89 11.4038C19.7132 11.227 19.3597 11.227 19.1829 11.4038Z" fill="#484F5E"/>
<circle cx="16" cy="16" r="15" stroke="#43D4EC" stroke-width="2"/>
</svg>
