<svg width="771" height="728" viewBox="0 0 771 728" fill="none" xmlns="http://www.w3.org/2000/svg">
<g opacity="0.7">
<path fill-rule="evenodd" clip-rule="evenodd" d="M448.864 143.429L361.741 62.7982L242.729 92.311L329.852 172.941L448.864 143.429Z" fill="#E0E5F2"/>
<path fill-rule="evenodd" clip-rule="evenodd" d="M416.975 253.571L448.864 143.428L329.852 172.941L297.963 283.084L416.975 253.571Z" fill="#D8DCE9" fill-opacity="0.46"/>
<path fill-rule="evenodd" clip-rule="evenodd" d="M297.962 283.084L210.839 202.454L242.729 92.3104L329.852 172.941L297.962 283.084Z" fill="#D8DCE9"/>
<path fill-rule="evenodd" clip-rule="evenodd" d="M297.962 283.084L210.839 202.454L91.827 231.967L178.95 312.597L297.962 283.084Z" fill="#E0E5F2"/>
<path fill-rule="evenodd" clip-rule="evenodd" d="M266.073 393.228L297.962 283.085L178.95 312.597L147.061 422.741L266.073 393.228Z" fill="#E4EDFA"/>
<path fill-rule="evenodd" clip-rule="evenodd" d="M147.061 422.74L59.9379 342.11L91.8271 231.967L178.95 312.597L147.061 422.74Z" fill="#D8DCE9"/>
<path fill-rule="evenodd" clip-rule="evenodd" d="M654.999 194.546L567.877 113.916L448.864 143.429L535.987 224.059L654.999 194.546Z" fill="#E0E5F2"/>
<path fill-rule="evenodd" clip-rule="evenodd" d="M623.11 304.689L655 194.546L535.987 224.058L504.098 334.202L623.11 304.689Z" fill="#E4EDFA"/>
<path fill-rule="evenodd" clip-rule="evenodd" d="M504.098 334.202L416.975 253.571L448.864 143.428L535.987 224.058L504.098 334.202Z" fill="#CCDFF6"/>
<path fill-rule="evenodd" clip-rule="evenodd" d="M504.097 334.202L416.975 253.571L297.962 283.084L385.085 363.714L504.097 334.202Z" fill="#D8E6F8"/>
<path fill-rule="evenodd" clip-rule="evenodd" d="M472.209 444.345L504.098 334.202L385.086 363.715L353.197 473.858L472.209 444.345Z" fill="#E4EDFA"/>
<path fill-rule="evenodd" clip-rule="evenodd" d="M353.196 473.858L266.073 393.227L297.962 283.084L385.085 363.715L353.196 473.858Z" fill="#CCDFF6"/>
<path fill-rule="evenodd" clip-rule="evenodd" d="M353.196 473.858L266.073 393.228L147.061 422.741L234.184 503.371L353.196 473.858Z" fill="#D8E6F8"/>
<path fill-rule="evenodd" clip-rule="evenodd" d="M321.307 584.001L353.196 473.858L234.184 503.37L202.295 613.514L321.307 584.001Z" fill="#E4EDFA"/>
<path fill-rule="evenodd" clip-rule="evenodd" d="M202.295 613.513L115.172 532.883L147.061 422.74L234.184 503.37L202.295 613.513Z" fill="#D8DCE9"/>
<path fill-rule="evenodd" clip-rule="evenodd" d="M710.233 385.319L623.11 304.689L504.098 334.202L591.221 414.832L710.233 385.319Z" fill="#D8E6F8"/>
<path fill-rule="evenodd" clip-rule="evenodd" d="M678.344 495.463L710.233 385.32L591.221 414.833L559.332 524.976L678.344 495.463Z" fill="#E4EDFA"/>
<path fill-rule="evenodd" clip-rule="evenodd" d="M559.332 524.975L472.209 444.345L504.098 334.202L591.221 414.832L559.332 524.975Z" fill="#CCDFF6"/>
<path fill-rule="evenodd" clip-rule="evenodd" d="M559.331 524.976L472.208 444.345L353.196 473.858L440.319 554.488L559.331 524.976Z" fill="#D8E6F8"/>
<path fill-rule="evenodd" clip-rule="evenodd" d="M527.442 635.118L559.331 524.975L440.319 554.488L408.43 664.631L527.442 635.118Z" fill="#E4EDFA"/>
<path fill-rule="evenodd" clip-rule="evenodd" d="M408.43 664.631L321.307 584.001L353.196 473.858L440.319 554.488L408.43 664.631Z" fill="#CCDFF6"/>
</g>
</svg>
