<svg width="375" height="637" viewBox="0 0 375 637" fill="none" xmlns="http://www.w3.org/2000/svg">
<path fill-rule="evenodd" clip-rule="evenodd" d="M104.99 467.429L207.468 562.365L347.454 527.616L244.977 432.68L104.99 467.429Z" fill="#447ED3"/>
<path fill-rule="evenodd" clip-rule="evenodd" d="M142.499 337.745L104.99 467.43L244.977 432.681L282.486 302.996L142.499 337.745Z" fill="#4A85D6"/>
<path fill-rule="evenodd" clip-rule="evenodd" d="M282.486 302.996L384.964 397.932L347.454 527.617L244.977 432.681L282.486 302.996Z" fill="#457BCD"/>
<path fill-rule="evenodd" clip-rule="evenodd" d="M282.487 302.996L384.964 397.932L524.951 363.183L422.473 268.247L282.487 302.996Z" fill="#447ED3"/>
<path fill-rule="evenodd" clip-rule="evenodd" d="M319.996 173.31L282.487 302.995L422.473 268.246L459.983 138.561L319.996 173.31Z" fill="#4A85D6"/>
<path fill-rule="evenodd" clip-rule="evenodd" d="M-137.474 407.242L-34.9965 502.178L104.99 467.429L2.51284 372.493L-137.474 407.242Z" fill="#447ED3"/>
<path fill-rule="evenodd" clip-rule="evenodd" d="M-99.9653 277.558L-137.475 407.243L2.51207 372.494L40.0214 242.809L-99.9653 277.558Z" fill="#4A85D6"/>
<path fill-rule="evenodd" clip-rule="evenodd" d="M40.0216 242.809L142.499 337.745L104.99 467.43L2.51227 372.494L40.0216 242.809Z" fill="#457BCD"/>
<path fill-rule="evenodd" clip-rule="evenodd" d="M40.022 242.809L142.499 337.745L282.486 302.996L180.009 208.06L40.022 242.809Z" fill="#447ED3"/>
<path fill-rule="evenodd" clip-rule="evenodd" d="M77.5313 113.123L40.022 242.808L180.009 208.059L217.518 78.3745L77.5313 113.123Z" fill="#4A85D6"/>
<path fill-rule="evenodd" clip-rule="evenodd" d="M217.518 78.3748L319.995 173.311L282.486 302.996L180.009 208.06L217.518 78.3748Z" fill="#457BCD"/>
<path fill-rule="evenodd" clip-rule="evenodd" d="M217.518 78.3744L319.996 173.31L459.982 138.561L357.505 43.6255L217.518 78.3744Z" fill="#447ED3"/>
<path fill-rule="evenodd" clip-rule="evenodd" d="M255.027 -51.3097L217.518 78.3752L357.505 43.6263L395.014 -86.0586L255.027 -51.3097Z" fill="#4A85D6"/>
<path fill-rule="evenodd" clip-rule="evenodd" d="M395.014 -86.0586L497.492 8.87726L459.982 138.562L357.505 43.6263L395.014 -86.0586Z" fill="#457BCD"/>
<path fill-rule="evenodd" clip-rule="evenodd" d="M-202.442 182.622L-99.965 277.558L40.0218 242.809L-62.4556 147.873L-202.442 182.622Z" fill="#447ED3"/>
<path fill-rule="evenodd" clip-rule="evenodd" d="M-24.9463 18.188L77.5311 113.124L40.0218 242.809L-62.4556 147.873L-24.9463 18.188Z" fill="#457BCD"/>
<path fill-rule="evenodd" clip-rule="evenodd" d="M-24.9458 18.1881L77.5316 113.124L217.518 78.3751L115.041 -16.5608L-24.9458 18.1881Z" fill="#447ED3"/>
<path fill-rule="evenodd" clip-rule="evenodd" d="M12.5629 -111.497L-24.9465 18.1881L115.04 -16.5608L152.55 -146.246L12.5629 -111.497Z" fill="#4A85D6"/>
<path fill-rule="evenodd" clip-rule="evenodd" d="M152.55 -146.246L255.027 -51.31L217.518 78.3748L115.04 -16.561L152.55 -146.246Z" fill="#457BCD"/>
</svg>
