<svg width="908" height="523" viewBox="0 0 908 523" fill="none" xmlns="http://www.w3.org/2000/svg">
<path fill-rule="evenodd" clip-rule="evenodd" d="M416.489 497.741L378.974 627.426L518.982 592.677L556.498 462.992L416.489 497.741Z" fill="#4A85D6"/>
<path fill-rule="evenodd" clip-rule="evenodd" d="M556.498 462.992L658.991 557.928L621.476 687.613L518.983 592.677L556.498 462.992Z" fill="#457BCD"/>
<path fill-rule="evenodd" clip-rule="evenodd" d="M556.498 462.992L658.992 557.928L799 523.179L696.507 428.243L556.498 462.992Z" fill="#447ED3"/>
<path fill-rule="evenodd" clip-rule="evenodd" d="M594.014 333.307L556.498 462.992L696.507 428.243L734.022 298.558L594.014 333.307Z" fill="#4A85D6"/>
<path fill-rule="evenodd" clip-rule="evenodd" d="M734.022 298.558L836.515 393.494L799 523.179L696.507 428.243L734.022 298.558Z" fill="#457BCD"/>
<path fill-rule="evenodd" clip-rule="evenodd" d="M136.472 567.238L238.965 662.174L378.974 627.425L276.481 532.489L136.472 567.238Z" fill="#447ED3"/>
<path fill-rule="evenodd" clip-rule="evenodd" d="M173.987 437.554L136.471 567.239L276.48 532.49L313.995 402.805L173.987 437.554Z" fill="#4A85D6"/>
<path fill-rule="evenodd" clip-rule="evenodd" d="M313.995 402.806L416.489 497.742L378.974 627.426L276.48 532.491L313.995 402.806Z" fill="#457BCD"/>
<path fill-rule="evenodd" clip-rule="evenodd" d="M313.996 402.806L416.489 497.742L556.498 462.993L454.004 368.057L313.996 402.806Z" fill="#447ED3"/>
<path fill-rule="evenodd" clip-rule="evenodd" d="M351.511 273.12L313.996 402.805L454.004 368.056L491.52 238.371L351.511 273.12Z" fill="#4A85D6"/>
<path fill-rule="evenodd" clip-rule="evenodd" d="M491.519 238.371L594.013 333.307L556.498 462.992L454.004 368.056L491.519 238.371Z" fill="#457BCD"/>
<path fill-rule="evenodd" clip-rule="evenodd" d="M491.52 238.371L594.013 333.307L734.022 298.558L631.528 203.622L491.52 238.371Z" fill="#447ED3"/>
<path fill-rule="evenodd" clip-rule="evenodd" d="M529.035 108.687L491.52 238.372L631.528 203.623L669.044 73.938L529.035 108.687Z" fill="#4A85D6"/>
<path fill-rule="evenodd" clip-rule="evenodd" d="M669.044 73.938L771.537 168.874L734.022 298.559L631.529 203.623L669.044 73.938Z" fill="#457BCD"/>
<path fill-rule="evenodd" clip-rule="evenodd" d="M71.4931 342.619L173.987 437.555L313.995 402.806L211.502 307.87L71.4931 342.619Z" fill="#447ED3"/>
<path fill-rule="evenodd" clip-rule="evenodd" d="M109.009 212.933L71.4933 342.618L211.502 307.869L249.017 178.184L109.009 212.933Z" fill="#4A85D6"/>
<path fill-rule="evenodd" clip-rule="evenodd" d="M249.017 178.184L351.511 273.12L313.996 402.805L211.502 307.869L249.017 178.184Z" fill="#457BCD"/>
<path fill-rule="evenodd" clip-rule="evenodd" d="M249.018 178.184L351.511 273.12L491.52 238.371L389.026 143.436L249.018 178.184Z" fill="#447ED3"/>
<path fill-rule="evenodd" clip-rule="evenodd" d="M286.532 48.4996L249.017 178.185L389.026 143.436L426.541 13.7507L286.532 48.4996Z" fill="#4A85D6"/>
<path fill-rule="evenodd" clip-rule="evenodd" d="M426.541 13.7505L529.034 108.686L491.519 238.371L389.026 143.435L426.541 13.7505Z" fill="#457BCD"/>
</svg>
