<svg width="21" height="18" viewBox="0 0 21 18" fill="none" xmlns="http://www.w3.org/2000/svg">
<path d="M20.4376 2.8125C20.7189 2.8125 21.0001 2.57812 21.0001 2.25V0.75C21.0001 0.46875 20.7189 0.1875 20.4376 0.1875H0.562622C0.234497 0.1875 0.00012207 0.46875 0.00012207 0.75V2.25C0.00012207 2.57812 0.234497 2.8125 0.562622 2.8125H20.4376ZM20.4376 10.3125C20.7189 10.3125 21.0001 10.0781 21.0001 9.75V8.25C21.0001 7.96875 20.7189 7.6875 20.4376 7.6875H0.562622C0.234497 7.6875 0.00012207 7.96875 0.00012207 8.25V9.75C0.00012207 10.0781 0.234497 10.3125 0.562622 10.3125H20.4376ZM20.4376 17.8125C20.7189 17.8125 21.0001 17.5781 21.0001 17.25V15.75C21.0001 15.4688 20.7189 15.1875 20.4376 15.1875H0.562622C0.234497 15.1875 0.00012207 15.4688 0.00012207 15.75V17.25C0.00012207 17.5781 0.234497 17.8125 0.562622 17.8125H20.4376Z" fill="white"/>
</svg>
