<svg width="97" height="27" viewBox="0 0 97 27" fill="none" xmlns="http://www.w3.org/2000/svg">
<path opacity="0.2" fill-rule="evenodd" clip-rule="evenodd" d="M51.554 26.3371H64.8494C66.836 26.3371 68.4664 25.5219 69.7906 23.8911C71.0641 22.312 71.7265 20.4274 71.7265 18.2885C71.7265 13.9583 66.1742 10.9017 64.0337 10.9017H56.7495C56.1891 10.9017 55.7298 10.6469 55.374 10.2398C55.0171 9.78099 54.8136 9.2719 54.8136 8.66026C54.8136 7.94712 55.0171 7.336 55.374 6.82639C55.7816 6.3173 56.2906 6.01174 56.9023 6.01174H70.5545V0.560364H56.647C54.1507 0.560364 52.2143 1.32478 50.8388 2.80182C49.617 4.17735 49.0049 6.01122 49.0049 8.20192C49.0049 10.3414 49.617 12.2265 50.8388 13.7538C52.2143 15.4349 53.8451 16.3018 55.8318 16.3018H64.2378C64.7463 16.3018 65.1544 16.4546 65.4595 16.8611C65.8163 17.2687 65.9691 17.7783 65.9691 18.3392C65.9691 19.0016 65.7143 19.6127 65.3067 20.1223C64.8484 20.5807 64.3388 20.8355 63.6774 20.8355H50.2287L50.0251 20.4787L44.9819 4.27938L44.7271 3.76977C43.5043 1.27351 41.4669 0.0512752 38.6651 0.0512752C37.1368 0.0512752 35.7612 0.407585 34.5385 1.172C33.265 1.9359 32.4498 3.05663 31.9915 4.48343L25.2158 26.2858L31.3798 26.3376L37.5946 6.92894C37.7474 6.3173 38.1042 6.01174 38.5625 6.01174C38.8173 6.01174 39.0209 6.11325 39.1737 6.26655C39.3264 6.47008 39.4285 6.67413 39.4792 6.92894L45.7447 26.3376H51.554V26.3371ZM5.70566 8.50748V26.2858H0V6.57159C0 4.02457 0.611635 2.24145 1.9359 1.172C2.9546 0.407585 4.48291 0 6.62234 0C8.35418 0 9.83174 0.509612 11.156 1.47756C12.4803 2.44551 13.3462 3.76977 13.805 5.4001L17.5235 18.492L18.1352 20.2751C18.1859 20.6314 18.39 20.8862 18.5935 21.0893C18.8483 21.2938 19.1026 21.3958 19.4087 21.2938C19.9183 21.2431 20.1731 20.937 20.1731 20.4787V0.611635H26.0315V20.2238C26.0315 22.4145 25.5224 24.0454 24.4525 25.2169C23.4338 26.3884 21.9055 27 19.8675 27C18.0844 27 16.6069 26.6432 15.4354 26.0321C14.0091 25.3189 13.0919 24.1982 12.6843 22.7201L8.40545 7.79434L8.0999 6.82639C7.99787 6.47008 7.79434 6.21527 7.53953 5.96047C7.28473 5.75642 6.97917 5.70567 6.67361 5.75642C6.36805 5.80769 6.16452 5.96047 5.96047 6.26603C5.79298 6.5424 5.70482 6.85955 5.70566 7.1827V8.50748ZM96.8922 26.3371L90.2698 4.27938L90.015 3.76977C88.7923 1.27351 86.7549 0.0512752 83.953 0.0512752C82.4247 0.0512752 81.0492 0.407585 79.827 1.172C78.5524 1.9359 77.7383 3.05663 77.2789 4.48343L70.5038 26.2858L76.6678 26.3376L82.8825 6.92894C83.0353 6.3173 83.3922 6.01174 83.8505 6.01174C84.1053 6.01174 84.3088 6.11325 84.4616 6.26655C84.6154 6.47008 84.7164 6.67413 84.7682 6.92894L91.0337 26.3376H96.8922V26.3371Z" fill="black"/>
</svg>
