<svg width="194" height="38" viewBox="0 0 194 38" fill="none" xmlns="http://www.w3.org/2000/svg">
<path d="M43.7859 23.5127L41.5642 23.3275C39.8517 23.1887 39.1574 22.4944 39.1574 21.3373C39.1574 19.9487 40.2219 19.0693 42.2122 19.0693C43.647 19.0693 44.8967 19.3933 45.8687 20.1802L47.1647 18.8842C45.915 17.8659 44.2025 17.4031 42.2122 17.4031C39.2962 17.4031 37.1671 18.9305 37.1671 21.4299C37.1671 23.6978 38.602 24.9012 41.2865 25.1327L43.5545 25.3178C45.1282 25.4567 45.8224 26.1046 45.8224 27.3081C45.8224 28.928 44.4339 29.7149 42.1659 29.7149C40.4534 29.7149 38.9723 29.252 37.9077 28.1412L36.5654 29.4835C38.0928 30.9183 39.898 31.4737 42.2122 31.4737C45.5447 31.4737 47.8127 29.9463 47.8127 27.3081C47.859 24.6235 46.1927 23.7441 43.7859 23.5127ZM61.0039 17.3105C58.7822 17.3105 57.3937 17.7271 56.1903 19.3007L57.4863 20.5967C58.2731 19.4396 59.1988 19.023 60.9576 19.023C63.457 19.023 64.4753 20.0413 64.4753 22.0316V23.3738H60.3559C57.3011 23.3738 55.6349 24.9475 55.6349 27.3543C55.6349 28.4652 56.0051 29.4835 56.6531 30.1314C57.5325 31.0109 58.6434 31.3811 60.5411 31.3811C62.3925 31.3811 63.3645 31.0109 64.5216 29.9V31.2423H66.5118V21.8927C66.4656 18.9305 64.6604 17.3105 61.0039 17.3105ZM64.4753 26.3824C64.4753 27.5395 64.2439 28.3263 63.781 28.7429C62.9016 29.576 61.8833 29.6686 60.7262 29.6686C58.5508 29.6686 57.5788 28.928 57.5788 27.3081C57.5788 25.7344 58.5971 24.9012 60.6336 24.9012H64.4753V26.3824ZM74.334 19.1156C75.63 19.1156 76.4631 19.4859 77.4814 20.643L78.8237 19.347C77.4351 17.8196 76.2317 17.3568 74.334 17.3568C70.8626 17.3568 68.2707 19.7173 68.2707 24.3921C68.2707 29.0669 70.9089 31.4274 74.334 31.4274C76.2317 31.4274 77.4351 30.9183 78.8699 29.3909L77.4814 28.0949C76.4631 29.252 75.63 29.6686 74.334 29.6686C72.9917 29.6686 71.8809 29.1595 71.1403 28.0949C70.4924 27.2155 70.2609 26.1509 70.2609 24.3921C70.2609 22.6796 70.4924 21.615 71.1403 20.6893C71.8809 19.6247 72.9917 19.1156 74.334 19.1156ZM91.552 17.4956H89.0527L82.8042 23.559V11.386H80.8139V31.2423H82.8042V26.2435L85.2573 23.7904L89.8395 31.2423H92.3389L86.6458 22.4018L91.552 17.4956ZM100.994 16.7551C98.8651 16.7551 97.4765 17.5882 96.5971 18.5139C95.3011 19.8562 94.9771 21.4761 94.9771 24.0681C94.9771 26.6601 95.3011 28.28 96.5971 29.6223C97.4765 30.548 98.9114 31.3811 100.994 31.3811C103.123 31.3811 104.558 30.548 105.438 29.6223C106.734 28.28 107.058 26.6601 107.058 24.0681C107.058 21.4761 106.734 19.8562 105.438 18.5139C104.558 17.5882 103.077 16.7551 100.994 16.7551ZM102.66 27.5395C102.244 27.956 101.688 28.1875 100.994 28.1875C100.3 28.1875 99.7445 27.956 99.3279 27.5395C98.5874 26.7989 98.4948 25.5492 98.4948 24.0681C98.4948 22.587 98.5874 21.3373 99.3279 20.5967C99.7445 20.1802 100.254 19.9487 100.994 19.9487C101.688 19.9487 102.244 20.1802 102.66 20.5967C103.401 21.3373 103.494 22.587 103.494 24.0681C103.494 25.5492 103.401 26.7989 102.66 27.5395ZM116.546 16.9402L113.676 25.7807L110.76 16.9402H107.011L112.288 31.2423H115.065L120.295 16.9402H116.546ZM126.405 16.7551C122.702 16.7551 120.156 19.3933 120.156 24.0681C120.156 29.8537 123.396 31.3811 126.775 31.3811C129.367 31.3811 130.755 30.5943 132.19 29.1132L130.015 26.9841C129.089 27.9098 128.349 28.3263 126.775 28.3263C124.785 28.3263 123.628 26.9841 123.628 25.1327H132.561V23.559C132.607 19.671 130.339 16.7551 126.405 16.7551ZM123.674 22.7258C123.72 22.0778 123.766 21.7076 123.998 21.1984C124.368 20.3653 125.155 19.7173 126.405 19.7173C127.608 19.7173 128.395 20.3653 128.811 21.1984C129.043 21.7076 129.135 22.1241 129.135 22.7258H123.674ZM137.883 18.2825V16.8939H134.412V31.2423H137.976V22.6333C137.976 20.8282 139.179 19.995 140.29 19.995C141.17 19.995 141.632 20.2727 142.188 20.8282L144.872 18.1436C143.9 17.1716 142.882 16.8014 141.494 16.8014C139.92 16.7551 138.578 17.4956 137.883 18.2825ZM145.937 15.4591V31.2423H149.501V19.9487H152.139V17.2179H149.501V15.6442C149.501 14.8111 149.917 14.3482 150.751 14.3482H152.139V11.3397H150.103C147.233 11.3397 145.937 13.4225 145.937 15.4591ZM166.858 16.7551C164.729 16.7551 163.34 17.5882 162.461 18.5139C161.165 19.8562 160.841 21.4761 160.841 24.0681C160.841 26.6601 161.165 28.28 162.461 29.6223C163.34 30.548 164.775 31.3811 166.858 31.3811C168.987 31.3811 170.422 30.548 171.301 29.6223C172.597 28.28 172.921 26.6601 172.921 24.0681C172.921 21.4761 172.597 19.8562 171.301 18.5139C170.422 17.5882 168.941 16.7551 166.858 16.7551ZM168.524 27.5395C168.107 27.956 167.552 28.1875 166.858 28.1875C166.164 28.1875 165.608 27.956 165.192 27.5395C164.451 26.7989 164.358 25.5492 164.358 24.0681C164.358 22.587 164.451 21.3373 165.192 20.5967C165.608 20.1802 166.117 19.9487 166.858 19.9487C167.552 19.9487 168.107 20.1802 168.524 20.5967C169.265 21.3373 169.357 22.587 169.357 24.0681C169.357 25.5492 169.265 26.7989 168.524 27.5395ZM189.769 16.9402L187.455 25.7807L184.539 16.9402H181.947L179.031 25.7807L176.716 16.9402H172.921L177.318 31.2423H180.234L183.243 22.263L186.251 31.2423H189.167L193.518 16.9402H189.769ZM157.416 26.9378V11.3397H153.852V27.1229C153.852 29.1595 155.101 31.196 158.017 31.196H160.054V28.1875H158.665C157.786 28.1875 157.416 27.7709 157.416 26.9378ZM53.4132 19.671L55.2646 17.8196H51.4692V13.2837H49.479V27.5395C49.479 29.576 50.6361 31.2423 52.9966 31.2423H54.4314V29.5297H53.3669C52.0709 29.5297 51.5155 28.7892 51.5155 27.5395V19.671H53.4132Z" fill="#222426"/>
<path d="M27.0767 34.6211V24.4384H30.5018V37.9999H0V24.4384H3.37881V34.6211H27.0767Z" fill="#BCBBBB"/>
<path d="M7.12809 23.5128L23.7444 26.9842L24.4387 23.6516L7.82237 20.1803L7.12809 23.5128ZM9.30349 15.5518L24.6701 22.7259L26.105 19.6711L10.7383 12.4507L9.30349 15.5518ZM13.5617 8.00731L26.6141 18.838L28.7895 16.246L15.7371 5.41535L13.5617 8.00731ZM21.9856 0L19.2548 2.03654L29.3912 15.6443L32.122 13.6078L21.9856 0ZM6.75781 31.1961H23.6981V27.8173H6.75781V31.1961Z" fill="#E7853E"/>
</svg>
