<svg width="47" height="34" viewBox="0 0 47 34" fill="none" xmlns="http://www.w3.org/2000/svg">
<path fill-rule="evenodd" clip-rule="evenodd" d="M14.7814 33.7939C32.5179 33.7939 42.2173 20.7935 42.2173 9.52063C42.2173 9.15127 42.2088 8.7838 42.1895 8.41822C44.0722 7.21366 45.7091 5.71115 47 4.00055C45.2723 4.67968 43.4126 5.13748 41.462 5.34368C43.4532 4.28762 44.9821 2.61627 45.7026 0.624272C43.8392 1.60183 41.7763 2.31217 39.5799 2.69525C37.8201 1.03714 35.3141 0 32.5414 0C27.2151 0 22.897 3.82036 22.897 8.5303C22.897 9.19998 22.982 9.85073 23.1467 10.4755C15.1332 10.1189 8.02683 6.7237 3.27092 1.5621C2.44236 2.82247 1.96501 4.28762 1.96501 5.85019C1.96501 8.80981 3.66757 11.4228 6.25641 12.9518C4.67467 12.9083 3.1886 12.5238 1.88911 11.8839C1.88697 11.9198 1.88697 11.9558 1.88697 11.9931C1.88697 16.1251 5.21136 19.5747 9.62302 20.3565C8.81317 20.5518 7.96109 20.6568 7.08122 20.6568C6.45954 20.6568 5.85549 20.6024 5.26802 20.5031C6.49589 23.8921 10.0555 26.359 14.2768 26.4285C10.9754 28.717 6.81822 30.0805 2.30018 30.0805C1.52241 30.0805 0.754788 30.0412 0 29.9622C4.26787 32.3818 9.33489 33.7939 14.7814 33.7939Z" fill="#44A1EB"/>
</svg>
