<svg width="29" height="32" viewBox="0 0 29 32" fill="none" xmlns="http://www.w3.org/2000/svg">
<path d="M27.3496 25.25L20.0371 13.4375V4H20.5371C21.3496 4 22.0371 3.375 22.0371 2.5V1.5C22.0371 0.6875 21.3496 0 20.5371 0H7.53712C6.66212 0 6.03712 0.6875 6.03712 1.5V2.5C6.03712 3.375 6.66212 4 7.53712 4H8.03712V13.4375L0.662123 25.25C-1.15038 28.1875 0.974623 32 4.41212 32H23.5996C27.0371 32 29.1621 28.1875 27.3496 25.25ZM8.59962 20L11.6621 15.1875C11.8496 14.875 11.9746 14.4375 11.9746 14V4H15.9746V14C15.9746 14.4375 16.1621 14.875 16.3496 15.1875L19.3496 20H8.59962Z" fill="white"/>
</svg>
