<?xml version="1.0" encoding="UTF-8" standalone="no"?>
<!DOCTYPE svg PUBLIC "-//W3C//DTD SVG 1.1//EN" "http://www.w3.org/Graphics/SVG/1.1/DTD/svg11.dtd">
<svg xmlns="http://www.w3.org/2000/svg" xmlns:xlink="http://www.w3.org/1999/xlink" version="1.1" width="885pt" height="534pt" viewBox="0 0 885 534">
<g enable-background="new">
<clipPath id="cp0">
<path transform="matrix(1,0,0,-1,0,534)" d="M 0 0 L 885 0 L 885 534 L 0 534 Z "/>
</clipPath>
<g clip-path="url(#cp0)">
<path transform="matrix(1,0,0,-1,0,534)" d="M 0 0 L 885 0 L 885 534 L 0 534 Z " fill="#ffffff"/>
<path transform="matrix(1,0,0,-1,0,534)" d="M 0 0 L 885 0 L 885 534 L 0 534 Z " fill="#ffffff"/>
<text xml:space="preserve" transform="matrix(1 0 0 1 309 77)" font-size="16" font-family="HelveticaNeue" font-style="italic"><tspan y="95" x="-268.18 -256.628 -245.07599 -240.93199 -231.15599 -221.37999 -210.41999 -200.05199 -190.27599 -185.82799 -171.90799 -159.76399 -148.21199 -136.068 -125.107997 -115.33199 -104.96399">UNIVERSE MONOREPO</tspan></text>
<text xml:space="preserve" transform="matrix(1 0 0 1 309 77)" font-size="14" font-family="HelveticaNeue"><tspan y="111.448" x="-292.129 -284.345 -279.935 -275.525 -267.223 -260.223 -256.331 -251.66899 -247.00699 -238.971 -235.86299 -231.45299 -223.66899 -215.885 -207.583 -203.691 -196.17299 -188.137 -176.19499 -171.53299 -167.64099 -162.19499 -154.411 -146.627 -143.519 -136.519 -129.00099 -124.33899 -117.33899 -109.82099 -105.15899 -100.49699 -92.71298 -85.71298 -78.194988 -73.53298">https://github.com/r-universe/{user}</tspan></text>
<path transform="matrix(1,0,0,-1,0,534)" d="M 1 18 L 256 18 L 256 338 L 1 338 Z " fill="#ffffff"/>
<path transform="matrix(1,0,0,1,309,77)" stroke-width="1" stroke-linecap="round" stroke-linejoin="round" fill="none" stroke="#000000" d="M -308 119 L -53 119 L -53 439 L -308 439 Z "/>
<text xml:space="preserve" transform="matrix(1 0 0 1 309 77)" font-size="16" font-family="Courier"><tspan y="144" x="-294 -284.3984 -274.7968 -265.19523 -255.59363 -245.99204 -236.39044 -226.78885">Universe</tspan></text>
<text xml:space="preserve" transform="matrix(1 0 0 1 309 77)" font-size="16" font-family="Menlo"><tspan y="163" x="-294 -284.3664 -274.7328">&#x251c;&#x2500;&#x2500;</tspan></text>
<text xml:space="preserve" transform="matrix(1 0 0 1 309 77)" font-size="16" font-family="Courier"><tspan y="163" x="-265.1016 -255.5 -245.8984 -236.29682 -226.69522 -217.09363 -207.49204 -197.89044 -188.28885 -178.68726"> .registry</tspan></text>
<text xml:space="preserve" transform="matrix(1 0 0 1 309 77)" font-size="16" font-family="Menlo"><tspan y="182" x="-294 -284.3664 -274.7328">&#x251c;&#x2500;&#x2500;</tspan></text>
<text xml:space="preserve" transform="matrix(1 0 0 1 309 77)" font-size="16" font-family="Courier"><tspan y="182" x="-265.1016 -255.5 -245.8984 -236.29682 -226.69522 -217.09363 -207.49204 -197.89044 -188.28885 -178.68726 -169.08567 -159.48407 -149.88248"> aRxiv@0.5.20</tspan></text>
<text xml:space="preserve" transform="matrix(1 0 0 1 309 77)" font-size="16" font-family="Menlo"><tspan y="201" x="-294 -284.3664 -274.7328">&#x251c;&#x2500;&#x2500;</tspan></text>
<text xml:space="preserve" transform="matrix(1 0 0 1 309 77)" font-size="16" font-family="Courier"><tspan y="201" x="-265.1016 -255.5 -245.8984 -236.29682 -226.69522 -217.09363 -207.49204 -197.89044 -188.28885 -178.68726 -169.08567 -159.48407 -149.88248 -140.28089 -130.67929 -121.07769 -111.47609 -101.87449 -92.27289 -82.67129 -73.06969"> addressable@0.0.1.91</tspan></text>
<text xml:space="preserve" transform="matrix(1 0 0 1 309 77)" font-size="16" font-family="Menlo"><tspan y="220" x="-294 -284.3664 -274.7328">&#x251c;&#x2500;&#x2500;</tspan></text>
<text xml:space="preserve" transform="matrix(1 0 0 1 309 77)" font-size="16" font-family="Courier"><tspan y="220" x="-265.1016 -255.5 -245.8984 -236.29682 -226.69522 -217.09363 -207.49204 -197.89044 -188.28885 -178.68726 -169.08567 -159.48407 -149.88248 -140.28089"> antanym@0.4.3</tspan></text>
<text xml:space="preserve" transform="matrix(1 0 0 1 309 77)" font-size="16" font-family="Menlo"><tspan y="239" x="-294 -284.3664 -274.7328">&#x251c;&#x2500;&#x2500;</tspan></text>
<text xml:space="preserve" transform="matrix(1 0 0 1 309 77)" font-size="16" font-family="Courier"><tspan y="239" x="-265.1016 -255.5 -245.8984 -236.29682 -226.69522 -217.09363 -207.49204 -197.89044 -188.28885 -178.68726 -169.08567 -159.48407 -149.88248"> antiword@1.3</tspan></text>
<text xml:space="preserve" transform="matrix(1 0 0 1 309 77)" font-size="16" font-family="Menlo"><tspan y="258" x="-294 -284.3664 -274.7328">&#x251c;&#x2500;&#x2500;</tspan></text>
<text xml:space="preserve" transform="matrix(1 0 0 1 309 77)" font-size="16" font-family="Courier"><tspan y="258" x="-265.1016 -255.5 -245.8984 -236.29682 -226.69522 -217.09363 -207.49204 -197.89044 -188.28885 -178.68726 -169.08567 -159.48407 -149.88248 -140.28089 -130.67929 -121.07769 -111.47609 -101.87449 -92.27289 -82.67129"> apipkgen@0.0.6.9100</tspan></text>
<text xml:space="preserve" transform="matrix(1 0 0 1 309 77)" font-size="16" font-family="Menlo"><tspan y="277" x="-294 -284.3664 -274.7328">&#x251c;&#x2500;&#x2500;</tspan></text>
<text xml:space="preserve" transform="matrix(1 0 0 1 309 77)" font-size="16" font-family="Courier"><tspan y="277" x="-265.1016 -255.5 -245.8984 -236.29682 -226.69522 -217.09363 -207.49204 -197.89044 -188.28885 -178.68726 -169.08567 -159.48407 -149.88248 -140.28089 -130.67929"> arkdb@0.0.5.99</tspan></text>
<text xml:space="preserve" transform="matrix(1 0 0 1 309 77)" font-size="16" font-family="Menlo"><tspan y="296" x="-294 -284.3664 -274.7328">&#x251c;&#x2500;&#x2500;</tspan></text>
<text xml:space="preserve" transform="matrix(1 0 0 1 309 77)" font-size="16" font-family="Courier"><tspan y="296" x="-265.1016 -255.5 -245.8984 -236.29682 -226.69522 -217.09363 -207.49204 -197.89044 -188.28885 -178.68726 -169.08567 -159.48407 -149.88248 -140.28089 -130.67929 -121.07769 -111.47609"> assertr@2.6.9000</tspan></text>
<text xml:space="preserve" transform="matrix(1 0 0 1 309 77)" font-size="16" font-family="Menlo"><tspan y="315" x="-294 -284.3664 -274.7328">&#x251c;&#x2500;&#x2500;</tspan></text>
<text xml:space="preserve" transform="matrix(1 0 0 1 309 77)" font-size="16" font-family="Courier"><tspan y="315" x="-265.1016 -255.5 -245.8984 -236.29682 -226.69522 -217.09363 -207.49204 -197.89044 -188.28885 -178.68726 -169.08567 -159.48407 -149.88248 -140.28089"> astr@0.0.1.94</tspan></text>
<text xml:space="preserve" transform="matrix(1 0 0 1 309 77)" font-size="16" font-family="Menlo"><tspan y="334" x="-294 -284.3664 -274.7328">&#x251c;&#x2500;&#x2500;</tspan></text>
<text xml:space="preserve" transform="matrix(1 0 0 1 309 77)" font-size="16" font-family="Courier"><tspan y="334" x="-265.1016 -255.5 -245.8984 -236.29682 -226.69522 -217.09363 -207.49204 -197.89044 -188.28885 -178.68726"> auk@0.4.2</tspan></text>
<text xml:space="preserve" transform="matrix(1 0 0 1 309 77)" font-size="16" font-family="Menlo"><tspan y="353" x="-294 -284.3664 -274.7328">&#x251c;&#x2500;&#x2500;</tspan></text>
<text xml:space="preserve" transform="matrix(1 0 0 1 309 77)" font-size="16" font-family="Courier"><tspan y="353" x="-265.1016 -255.5 -245.8984 -236.29682 -226.69522 -217.09363 -207.49204 -197.89044 -188.28885"> av@0.5.0</tspan></text>
<text xml:space="preserve" transform="matrix(1 0 0 1 309 77)" font-size="16" font-family="Menlo"><tspan y="372" x="-294 -284.3664 -274.7328">&#x251c;&#x2500;&#x2500;</tspan></text>
<text xml:space="preserve" transform="matrix(1 0 0 1 309 77)" font-size="16" font-family="Courier"><tspan y="372" x="-265.1016 -255.5 -245.8984 -236.29682 -226.69522 -217.09363 -207.49204 -197.89044 -188.28885 -178.68726 -169.08567 -159.48407 -149.88248 -140.28089 -130.67929"> baRcodeR@0.1.6</tspan></text>
<text xml:space="preserve" transform="matrix(1 0 0 1 309 77)" font-size="16" font-family="Menlo"><tspan y="391" x="-294 -284.3664 -274.7328">&#x251c;&#x2500;&#x2500;</tspan></text>
<text xml:space="preserve" transform="matrix(1 0 0 1 309 77)" font-size="16" font-family="Courier"><tspan y="391" x="-265.1016 -255.5 -245.8984 -236.29682 -226.69522 -217.09363 -207.49204 -197.89044 -188.28885 -178.68726 -169.08567 -159.48407 -149.88248 -140.28089"> babette@2.1.2</tspan></text>
<text xml:space="preserve" transform="matrix(1 0 0 1 309 77)" font-size="16" font-family="Menlo"><tspan y="410" x="-294 -284.3664 -274.7328">&#x251c;&#x2500;&#x2500;</tspan></text>
<text xml:space="preserve" transform="matrix(1 0 0 1 309 77)" font-size="16" font-family="Courier"><tspan y="410" x="-265.1016 -255.5 -245.8984 -236.29682 -226.69522 -217.09363 -207.49204 -197.89044 -188.28885 -178.68726 -169.08567 -159.48407 -149.88248 -140.28089 -130.67929"> beastier@2.1.3</tspan></text>
<text xml:space="preserve" transform="matrix(1 0 0 1 309 77)" font-size="16" font-family="Menlo"><tspan y="429" x="-294 -284.3664 -274.7328">&#x251c;&#x2500;&#x2500;</tspan></text>
<text xml:space="preserve" transform="matrix(1 0 0 1 309 77)" font-size="16" font-family="Courier"><tspan y="429" x="-265.1016 -255.5 -245.8984 -236.29682"> ...</tspan></text>
<text xml:space="preserve" transform="matrix(1 0 0 1 309 77)" font-size="16" font-family="HelveticaNeue" font-style="italic"><tspan y="95" x="52.028 63.58 67.724 73.052 84.604007 95.868007 100.316 111.276 122.828 126.972 135.868 147.132 151.58 161.948 171.724 182.092 191.276 201.052">CI/CD BUILD SYSTEM</tspan></text>
<path transform="matrix(1,0,0,-1,0,534)" d="M 315 18 L 570 18 L 570 220 L 315 220 Z " fill="#ffffff"/>
<path transform="matrix(1,0,0,1,309,77)" stroke-width="1" stroke-linecap="round" stroke-linejoin="round" fill="none" stroke="#000000" d="M 6 237 L 261 237 L 261 439 L 6 439 Z "/>
<text xml:space="preserve" transform="matrix(1 0 0 1 309 77)" font-size="16" font-family="HelveticaNeue" font-weight="bold"><tspan y="258" x="11 20.488 30.264 36.488 40.936 50.712 59.896005 69.08 78.264 87.448 97.224 106.408 110.855998 120.343997 130.12 139.896 149.08 154.712 163.89601">For package update:</tspan></text>
<text xml:space="preserve" transform="matrix(1 0 0 1 309 77)" font-size="16" font-family="HelveticaNeue"><tspan y="276.4641" x="22">&#x2043;</tspan></text>
<text xml:space="preserve" transform="matrix(1 0 0 1 309 77)" font-size="16" font-family="HelveticaNeue"><tspan y="276.4641" x="47 57.96 66.856 70.408008 73.96001 83.448009 87.896 98.856 103.304 111.304 120.488 129.384 134.42401 143.016 151.608 156.056 165.544 174.136 182.728 191.032 199.624 208.808">Build R source package</tspan></text>
<text xml:space="preserve" transform="matrix(1 0 0 1 309 77)" font-size="16" font-family="HelveticaNeue"><tspan y="294.9121" x="22">&#x2043;</tspan></text>
<text xml:space="preserve" transform="matrix(1 0 0 1 309 77)" font-size="16" font-family="HelveticaNeue"><tspan y="294.9121" x="47 57.96 66.856 70.408008 73.96001 83.448009 87.896 102.712009 106.26401 115.16001 124.64801 133.83202 145.96002 153.96002 158.40802 167.89603 171.44803 180.34403 188.93602 194.26403 197.81603 206.40802">Build Windows binaries</tspan></text>
<text xml:space="preserve" transform="matrix(1 0 0 1 309 77)" font-size="16" font-family="HelveticaNeue"><tspan y="313.3601" x="22">&#x2043;</tspan></text>
<text xml:space="preserve" transform="matrix(1 0 0 1 309 77)" font-size="16" font-family="HelveticaNeue"><tspan y="313.3601" x="47 57.96 66.856 70.408008 73.96001 83.448009 87.896 101.832 110.424 119.01601 131.17601 141.544 145.992 155.48001 159.03202 167.92801 176.52 181.848 185.40001 193.992">Build MacOS binaries</tspan></text>
<text xml:space="preserve" transform="matrix(1 0 0 1 309 77)" font-size="16" font-family="HelveticaNeue"><tspan y="331.8081" x="22">&#x2043;</tspan></text>
<text xml:space="preserve" transform="matrix(1 0 0 1 309 77)" font-size="16" font-family="HelveticaNeue"><tspan y="331.8081" x="47 57.96 66.552 75.448009 84.936008 93.52801 98.85601 103.30401 111.89601 117.224018 122.264019 125.81602 134.40802 137.96002 146.55202 154.55202 159.88002 167.88002 171.43202 180.61603 189.51203 198.10402 203.14402 208.184 216.776">Render articles/vignettes</tspan></text>
<text xml:space="preserve" transform="matrix(1 0 0 1 309 77)" font-size="16" font-family="HelveticaNeue"><tspan y="350.2561" x="22">&#x2043;</tspan></text>
<text xml:space="preserve" transform="matrix(1 0 0 1 309 77)" font-size="16" font-family="HelveticaNeue"><tspan y="350.2561" x="47 57.96 66.856 70.408008 73.96001 83.448009 87.896 97.384 106.568 115.16 124.05601 137.70401 146.296 155.192 160.232 168.82399 173.86399 177.41599 186.59999">Build documentation</tspan></text>
<text xml:space="preserve" transform="matrix(1 0 0 1 309 77)" font-size="16" font-family="HelveticaNeue"><tspan y="368.7041" x="22">&#x2043;</tspan></text>
<text xml:space="preserve" transform="matrix(1 0 0 1 309 77)" font-size="16" font-family="HelveticaNeue"><tspan y="368.7041" x="47 58.552003 67.144008 70.69601 79.28801 88.18401 91.736019 100.32802 105.36802 113.96002 118.40802 132.05602 140.64801 145.688 154.28 163.768 172.36 177.4">Calculate metadata</tspan></text>
<text xml:space="preserve" transform="matrix(1 0 0 1 309 77)" font-size="16" font-family="HelveticaNeue"><tspan y="387.1521" x="22">&#x2043;</tspan></text>
<text xml:space="preserve" transform="matrix(1 0 0 1 309 77)" font-size="16" font-family="HelveticaNeue"><tspan y="387.1521" x="47 57.368 66.264 74.856 78.408008 86.408008 94.088008 102.68001 107.128009 115.128009 123.128009 131.128 136.168 144.76 158.40799 162.85599 172.344 180.93599 190.424">Analyze system deps</tspan></text>
<text xml:space="preserve" transform="matrix(1 0 0 1 309 77)" font-size="16" font-family="HelveticaNeue"><tspan y="405.6001" x="22">&#x2043;</tspan></text>
<text xml:space="preserve" transform="matrix(1 0 0 1 309 77)" font-size="16" font-family="HelveticaNeue"><tspan y="405.6001" x="47 58.552003 67.144008 70.69601 79.28801 88.18401 91.736019 100.32802 105.36802 113.96002 118.40802 126.40802 135.59203 149.24002 157.83202 162.28002 175.92801 184.52 189.56 194.888 198.44 207.032">Calculate some metrics</tspan></text>
<text xml:space="preserve" transform="matrix(1 0 0 1 309 77)" font-size="16" font-family="HelveticaNeue"><tspan y="424.0481" x="22">&#x2043;</tspan></text>
<text xml:space="preserve" transform="matrix(1 0 0 1 309 77)" font-size="16" font-family="HelveticaNeue"><tspan y="424.0481" x="47 63">&#x2026; </tspan></text>
<path transform="matrix(1,0,0,-1,0,534)" d="M 629 18 L 884 18 L 884 338 L 629 338 Z " fill="#ffffff"/>
<path transform="matrix(1,0,0,1,309,77)" stroke-width="1" stroke-linecap="round" stroke-linejoin="round" fill="none" stroke="#000000" d="M 320 119 L 575 119 L 575 439 L 320 439 Z "/>
<text xml:space="preserve" transform="matrix(1 0 0 1 309 77)" font-size="16" font-family="HelveticaNeue" font-weight="bold"><tspan y="140" x="325 336.856 348.408 359.36799 371.22398 375.35197 379.47996 388.66395 397.84794 402.29594 408.23194 417.41593 427.19194 436.96794 445.55995 449.68794 455.31993 465.09593 471.31993 475.4479 484.6319 493.2239">CRANlike repositories:</tspan></text>
<text xml:space="preserve" transform="matrix(1 0 0 1 309 77)" font-size="16" font-family="Courier"><tspan y="158.4641" x="325 334.6016 344.2032 353.80479 363.40638 373.00798 382.60957 392.21116 401.81275 411.41435 421.01594 430.61753 440.21913">./src/contrib</tspan></text>
<text xml:space="preserve" transform="matrix(1 0 0 1 309 77)" font-size="16" font-family="Courier"><tspan y="177.4641" x="325 334.6016 344.2032 353.80479 363.40638 373.00798 382.60957 392.21116 401.81275 411.41435 421.01594 430.61753 440.21913 449.8207 459.4223 469.0239 478.6255 488.22709 497.82868 507.43028 517.03189 526.6335 536.2351 545.83676 555.43838">./bin/windows/contrib/4.0</tspan></text>
<text xml:space="preserve" transform="matrix(1 0 0 1 309 77)" font-size="16" font-family="Courier"><tspan y="196.4641" x="325 334.6016 344.2032 353.80479 363.40638 373.00798 382.60957 392.21116 401.81275 411.41435 421.01594 430.61753 440.21913 449.8207 459.4223 469.0239 478.6255 488.22709 497.82868 507.43028 517.03189 526.6335 536.2351 545.83676">./bin/macosx/contrib/4.0</tspan></text>
<text xml:space="preserve" transform="matrix(1 0 0 1 309 77)" font-size="16" font-family="HelveticaNeue" font-weight="bold"><tspan y="234.4641" x="325 329.448 338.344 348.728 361.176 373.03199 377.47999 389.33598 399.11198 408.88798 419.55998 429.94398 434.39198 445.35197 456.02397 460.74397"> JSON HTTPS APIs</tspan></text>
<text xml:space="preserve" transform="matrix(1 0 0 1 309 77)" font-size="16" font-family="HelveticaNeue"><tspan y="252.9282" x="336">&#x2043;</tspan></text>
<text xml:space="preserve" transform="matrix(1 0 0 1 309 77)" font-size="16" font-family="HelveticaNeue"><tspan y="252.9282" x="361 371.368 379.96003 388.55204 396.85603 405.44804 414.63203 423.22404 427.67204 437.16004 445.75205 453.75205 462.34407 467.67207 471.22407 480.71208 485.75209 489.30409 498.48808 507.38407 511.83207 521.32009 529.91207 534.952">Package description data</tspan></text>
<text xml:space="preserve" transform="matrix(1 0 0 1 309 77)" font-size="16" font-family="HelveticaNeue"><tspan y="271.3762" x="336">&#x2043;</tspan></text>
<text xml:space="preserve" transform="matrix(1 0 0 1 309 77)" font-size="16" font-family="HelveticaNeue"><tspan y="271.3762" x="361 371.368 379.96003 388.55204 396.85603 405.44804 414.63203 423.22404 427.67204 437.16004 446.05604 449.60804 453.16004 462.64805 467.97605 476.56806 485.46406 494.05607 502.64808 510.9521 515.4001 523.4001 528.44009 537.03207 542.072 550.968">Package build/check status</tspan></text>
<text xml:space="preserve" transform="matrix(1 0 0 1 309 77)" font-size="16" font-family="HelveticaNeue"><tspan y="289.8242" x="336">&#x2043;</tspan></text>
<text xml:space="preserve" transform="matrix(1 0 0 1 309 77)" font-size="16" font-family="HelveticaNeue"><tspan y="289.8242" x="361 371.368 376.696 381.73603 385.28804 393.88005 397.43205 406.02406 414.02406 419.35206 427.35206 430.90406 440.08805 448.98405 457.57606 462.61607 467.65608 476.24809">Articles/vignettes</tspan></text>
<text xml:space="preserve" transform="matrix(1 0 0 1 309 77)" font-size="16" font-family="HelveticaNeue"><tspan y="308.2722" x="336">&#x2043;</tspan></text>
<text xml:space="preserve" transform="matrix(1 0 0 1 309 77)" font-size="16" font-family="HelveticaNeue"><tspan y="308.2722" x="361 374.936 383.528 387.08003 395.976 401.01603 409.60804 413.16004 422.05604 430.64805 435.97605 440.42405 448.42405 453.46406 462.05607 467.09608">Maintainer stats</tspan></text>
<text xml:space="preserve" transform="matrix(1 0 0 1 309 77)" font-size="16" font-family="HelveticaNeue"><tspan y="326.7202" x="336">&#x2043;</tspan></text>
<text xml:space="preserve" transform="matrix(1 0 0 1 309 77)" font-size="16" font-family="HelveticaNeue"><tspan y="326.7202" x="361 372.264 380.85603 390.34403 398.93605 407.83204 417.32005 425.91206 434.80805 443.40007 451.40007 455.84806 463.84806 468.88807 477.48008 482.52009">Dependency stats</tspan></text>
<text xml:space="preserve" transform="matrix(1 0 0 1 309 77)" font-size="16" font-family="HelveticaNeue"><tspan y="345.1682" x="336">&#x2043;</tspan></text>
<text xml:space="preserve" transform="matrix(1 0 0 1 309 77)" font-size="16" font-family="HelveticaNeue"><tspan y="345.1682" x="361 372.552 381.144 386.18403 398.312 407.496 412.824 421.128 425.576 434.168 443.064 451.656 455.208 463.208 468.24803 471.80003 480.39204">Network analytics</tspan></text>
<text xml:space="preserve" transform="matrix(1 0 0 1 309 77)" font-size="16" font-family="HelveticaNeue"><tspan y="363.6162" x="336">&#x2043;</tspan></text>
<text xml:space="preserve" transform="matrix(1 0 0 1 309 77)" font-size="16" font-family="HelveticaNeue"><tspan y="363.6162" x="361 365.448 369.896">...</tspan></text>
<text xml:space="preserve" transform="matrix(1 0 0 1 309 77)" font-size="16" font-family="HelveticaNeue"><tspan y="382.0642" x="325"> </tspan></text>
<text xml:space="preserve" transform="matrix(1 0 0 1 309 77)" font-size="16" font-family="HelveticaNeue" font-weight="bold"><tspan y="401.5122" x="325 340.104 350.47203 361.73603 366.18403 375.67204 387.22404 399.67204 411.528 419.24003 425.752 436.12004 447.976">WEB FRONT-END</tspan></text>
<text xml:space="preserve" transform="matrix(1 0 0 1 309 77)" font-size="16" font-family="HelveticaNeue"><tspan y="419.9763" x="336">&#x2043;</tspan></text>
<text xml:space="preserve" transform="matrix(1 0 0 1 309 77)" font-size="16" font-family="HelveticaNeue"><tspan y="419.9763" x="361 371.96 377 386.184 398.31199 406.31199 414.904 419.352 423.8 432.392 440.68 450.168 453.72 462.904 467.944 476.536 480.984 485.432 494.92 498.47203 506.47203 515.064 524.24807 532.24807 540.84 544.69607">Browse, explore, discover.</tspan></text>
<text xml:space="preserve" transform="matrix(1 0 0 1 309 77)" font-size="16" font-family="HelveticaNeue" font-style="italic"><tspan y="92.104" x="381.608 392.872 402.648 413.01603 421.91203 434.05604 443.83204 457.75205 467.52806 479.08006 486.48805 490.93605">DEPLOYMENT: </tspan></text>
<text xml:space="preserve" transform="matrix(1 0 0 1 309 77)" font-size="14" font-family="HelveticaNeue"><tspan y="108.552" x="349.409 357.193 361.603 366.013 374.315 381.315 385.207 389.869 394.53099 399.19297 406.97697 413.97697 421.49497 426.15696 430.81895 434.71095 438.60295 444.04896 451.83296 459.61695 462.72496 469.72496 477.24296 481.90495 488.90495 496.42295 500.31495 508.61695 516.13497">https://{user}.r-universe.dev</tspan></text>
<path transform="matrix(1,0,0,-1,0,534)" d="M 315 237 L 570 237 L 570 338 L 315 338 Z " fill="#ffffff"/>
<path transform="matrix(1,0,0,1,309,77)" stroke-width="1" stroke-linecap="round" stroke-linejoin="round" fill="none" stroke="#000000" d="M 6 119 L 261 119 L 261 220 L 6 220 Z "/>
<text xml:space="preserve" transform="matrix(1 0 0 1 309 77)" font-size="16" font-family="HelveticaNeue" font-weight="bold"><tspan y="148.0959" x="11 22.552002 31.736002 41.512 51 55.128 64.312 70.535999 74.663997 82.967998">Regularly:</tspan></text>
<text xml:space="preserve" transform="matrix(1 0 0 1 309 77)" font-size="16" font-family="HelveticaNeue"><tspan y="166.5601" x="22">&#x2043;</tspan></text>
<text xml:space="preserve" transform="matrix(1 0 0 1 309 77)" font-size="16" font-family="HelveticaNeue"><tspan y="166.5601" x="47 57.368 65.368 74.264 82.856 87.304 100.952 110.136 119.032009 128.216 133.25601 141.848 151.33602 160.52002 164.96802 177.09603 182.42403 186.87203 191.91204 200.50403 209.68804 213.24004 221.24004 226.28003 231.60803">Sync monorepo w/ registry</tspan></text>
<text xml:space="preserve" transform="matrix(1 0 0 1 309 77)" font-size="16" font-family="HelveticaNeue"><tspan y="185.0081" x="22">&#x2043;</tspan></text>
<text xml:space="preserve" transform="matrix(1 0 0 1 309 77)" font-size="16" font-family="HelveticaNeue"><tspan y="185.0081" x="47 58.552003 67.448009 76.04001 84.63201 92.93601 97.38401 105.97601 109.528018 113.08002 117.528018 126.42402 135.91202 143.91202 148.95201 153.99202 162.58402 171.17601 184.824 189.272 198.45601 202.00801 207.048 211.496 216.53601 225.128 234.61602 243.80002">Check all upstream git repos</tspan></text>
<text xml:space="preserve" transform="matrix(1 0 0 1 309 77)" font-size="16" font-family="HelveticaNeue"><tspan y="203.4561" x="22">&#x2043;</tspan></text>
<text xml:space="preserve" transform="matrix(1 0 0 1 309 77)" font-size="16" font-family="HelveticaNeue"><tspan y="203.4561" x="47 58.552003 68.04 77.528 86.12 91.16 99.75201 104.200008 112.200008 121.09601 130.58402 144.23201 153.41602 162.90402 171.80002 175.35202 183.94402">Update submodules</tspan></text>
<path transform="matrix(1,0,0,-1,0,534)" d="M 366 395.776 L 519 395.776 L 519 496.776 L 366 496.776 Z " fill="#ffffff"/>
<path transform="matrix(1,0,0,1,309,77)" stroke-width="1" stroke-linecap="round" stroke-linejoin="round" fill="none" stroke="#000000" d="M 57 -39.776 L 210 -39.776 L 210 61.224 L 57 61.224 Z "/>
<text xml:space="preserve" transform="matrix(1 0 0 1 309 77)" font-size="14" font-family="Courier" font-weight="bold"><tspan y="-20.776" x="62 70.4014 78.802799 87.20419 95.60559 104.00699 112.40839 120.809787 129.21118 137.61258 146.01398 154.41538 162.81678">packages.json</tspan></text>
<text xml:space="preserve" transform="matrix(1 0 0 1 309 77)" font-size="14" font-family="Courier"><tspan y="-20.776" x="171.2178 179.6192"> {</tspan></text>
<text xml:space="preserve" transform="matrix(1 0 0 1 309 77)" font-size="14" font-family="Courier"><tspan y="-3.776001" x="62 70.4014 78.802799 87.20419 95.60559 104.00699 112.40839 120.809787 129.21118 137.61258 146.01398">  "package"</tspan></text>
<text xml:space="preserve" transform="matrix(1 0 0 1 309 77)" font-size="14" font-family="Courier"><tspan y="13.224" x="62 70.4014 78.802799 87.20419 95.60559 104.00699 112.40839">  "url"</tspan></text>
<text xml:space="preserve" transform="matrix(1 0 0 1 309 77)" font-size="14" font-family="Courier"><tspan y="30.224" x="62 70.4014 78.802799 87.20419 95.60559 104.00699 112.40839 120.809787 129.21118 137.61258">  "branch"</tspan></text>
<text xml:space="preserve" transform="matrix(1 0 0 1 309 77)" font-size="14" font-family="Courier"><tspan y="47.224" x="62">}</tspan></text>
<path transform="matrix(1,0,0,1,309,77)" stroke-width="3" stroke-linecap="round" stroke-linejoin="round" fill="none" stroke="#666666" d="M 57 25.52964 C 26.40122 34.62583 -1.726562 48.56683 -1.726562 69.08203 C -1.726562 82.18896 9.754591 96.18345 26.02611 109.4355 "/>
<path transform="matrix(1,0,0,-1,0,534)" d="M 343.9701 340.8277 L 337.5509 350.921 L 332.497 344.2114 Z M 343.9701 340.8277 " fill="#666666"/>
<path transform="matrix(1,0,0,1,309,77)" stroke-width="3" stroke-linecap="butt" stroke-miterlimit="10" stroke-linejoin="miter" fill="none" stroke="#666666" d="M 34.97009 116.1723 L 28.55086 106.079 L 23.49703 112.7886 Z M 34.97009 116.1723 "/>
<text xml:space="preserve" transform="matrix(1 0 0 1 309 77)" font-size="16" font-family="HelveticaNeue"><tspan y="-57" x="52.028 63.58 73.948 83.724 94.684 99.131999 110.091999 119.868 132.012 136.15599 146.52399 155.708 166.076 176.444 180.892 190.076 194.22 203.116">USER REGISTRY FILE</tspan></text>
<path transform="matrix(1,0,0,1,309,77)" stroke-width="3" stroke-linecap="round" stroke-linejoin="round" fill="none" stroke="#666666" d="M -38.05652 168.8027 C -23.30894 164.0483 -8.460635 160.982 6 159.1581 "/>
<path transform="matrix(1,0,0,-1,0,534)" d="M 260.417 284.3694 L 272.378 284.2499 L 269.5073 292.1441 Z M 260.417 284.3694 " fill="#666666"/>
<path transform="matrix(1,0,0,1,309,77)" stroke-width="3" stroke-linecap="butt" stroke-miterlimit="10" stroke-linejoin="miter" fill="none" stroke="#666666" d="M -48.58298 172.6306 L -36.62197 172.7501 L -39.49265 164.8559 Z M -48.58298 172.6306 "/>
<path transform="matrix(1,0,0,1,309,77)" stroke-width="3" stroke-linecap="round" stroke-linejoin="round" fill="none" stroke="#666666" d="M -53 388.1066 C -44.98593 390.7309 -36.67887 392.7786 -28.10938 394.0938 C -21.96498 395.0368 -15.88814 395.5721 -9.899552 395.7524 "/>
<path transform="matrix(1,0,0,-1,0,534)" d="M 310.301 61.48362 L 299.015 65.44672 L 299.192 57.04858 Z M 310.301 61.48362 " fill="#666666"/>
<path transform="matrix(1,0,0,1,309,77)" stroke-width="3" stroke-linecap="butt" stroke-miterlimit="10" stroke-linejoin="miter" fill="none" stroke="#666666" d="M 1.301043 395.5164 L -9.984959 391.5533 L -9.807982 399.9514 Z M 1.301043 395.5164 "/>
<path transform="matrix(1,0,0,1,309,77)" stroke-width="3" stroke-linecap="round" stroke-linejoin="round" fill="none" stroke="#666666" d="M 261 371.5822 C 266.8393 371.0054 272.842 370.1571 279 369 C 287.7604 367.3539 296.4296 365.1592 304.9404 362.5399 "/>
<path transform="matrix(1,0,0,-1,0,534)" d="M 624.55 98.0663 L 612.5942 98.43847 L 615.2975 90.48534 Z M 624.55 98.0663 " fill="#666666"/>
<path transform="matrix(1,0,0,1,309,77)" stroke-width="3" stroke-linecap="butt" stroke-miterlimit="10" stroke-linejoin="miter" fill="none" stroke="#666666" d="M 315.55 358.9337 L 303.5942 358.5615 L 306.2975 366.5147 Z M 315.55 358.9337 "/>
<path transform="matrix(1,0,0,1,309,77)" stroke-width="3" stroke-linecap="round" stroke-linejoin="round" fill="none" stroke="#666666" d="M 276.1599 254.6593 C 282.6689 252.8318 289.2906 251.2607 296 250 C 304.236 248.4525 312.2455 247.4401 320 246.877 "/>
<path transform="matrix(1,0,0,-1,0,534)" d="M 574.4833 198.9816 L 586.4275 198.3366 L 583.9066 206.3493 Z M 574.4833 198.9816 " fill="#666666"/>
<path transform="matrix(1,0,0,1,309,77)" stroke-width="3" stroke-linecap="butt" stroke-miterlimit="10" stroke-linejoin="miter" fill="none" stroke="#666666" d="M 265.4833 258.0184 L 277.4275 258.6634 L 274.9066 250.6507 Z M 265.4833 258.0184 "/>
</g>
</g>
</svg>
