<?xml version="1.0" encoding="UTF-8"?>
<svg xmlns="http://www.w3.org/2000/svg" xmlns:xlink="http://www.w3.org/1999/xlink" width="720pt" height="432pt" viewBox="0 0 720 432" version="1.1">
<defs>
<g>
<symbol overflow="visible" id="glyph0-0">
<path style="stroke:none;" d=""/>
</symbol>
<symbol overflow="visible" id="glyph0-1">
<path style="stroke:none;" d="M 2.390625 -2.625 L 0.390625 -2.625 L 0.390625 -2.015625 L 2.390625 -2.015625 Z M 2.390625 -2.625 "/>
</symbol>
<symbol overflow="visible" id="glyph0-2">
<path style="stroke:none;" d="M 2.171875 -4.328125 L 2.171875 0 L 2.921875 0 L 2.921875 -6.078125 L 2.421875 -6.078125 C 2.171875 -5.140625 2 -5.015625 0.859375 -4.859375 L 0.859375 -4.328125 Z M 2.171875 -4.328125 "/>
</symbol>
<symbol overflow="visible" id="glyph0-3">
<path style="stroke:none;" d="M 2.3125 -6.078125 C 1.75 -6.078125 1.25 -5.828125 0.9375 -5.40625 C 0.5625 -4.875 0.359375 -4.0625 0.359375 -2.9375 C 0.359375 -0.890625 1.03125 0.1875 2.3125 0.1875 C 3.578125 0.1875 4.265625 -0.890625 4.265625 -2.890625 C 4.265625 -4.0625 4.078125 -4.859375 3.6875 -5.40625 C 3.375 -5.828125 2.875 -6.078125 2.3125 -6.078125 Z M 2.3125 -5.421875 C 3.109375 -5.421875 3.5 -4.609375 3.5 -2.953125 C 3.5 -1.234375 3.125 -0.421875 2.296875 -0.421875 C 1.515625 -0.421875 1.125 -1.265625 1.125 -2.9375 C 1.125 -4.609375 1.515625 -5.421875 2.3125 -5.421875 Z M 2.3125 -5.421875 "/>
</symbol>
<symbol overflow="visible" id="glyph0-4">
<path style="stroke:none;" d="M 4.25 -0.734375 L 1.125 -0.734375 C 1.1875 -1.234375 1.46875 -1.5625 2.1875 -2 L 3.03125 -2.46875 C 3.859375 -2.9375 4.296875 -3.5625 4.296875 -4.296875 C 4.296875 -4.8125 4.09375 -5.28125 3.734375 -5.609375 C 3.390625 -5.921875 2.953125 -6.078125 2.390625 -6.078125 C 1.625 -6.078125 1.0625 -5.8125 0.734375 -5.28125 C 0.53125 -4.96875 0.4375 -4.59375 0.421875 -3.96875 L 1.15625 -3.96875 C 1.1875 -4.390625 1.234375 -4.625 1.34375 -4.828125 C 1.53125 -5.203125 1.921875 -5.4375 2.359375 -5.4375 C 3.03125 -5.4375 3.53125 -4.9375 3.53125 -4.28125 C 3.53125 -3.796875 3.265625 -3.375 2.734375 -3.078125 L 1.953125 -2.625 C 0.71875 -1.90625 0.359375 -1.34375 0.28125 -0.015625 L 4.25 -0.015625 Z M 4.25 -0.734375 "/>
</symbol>
<symbol overflow="visible" id="glyph0-5">
<path style="stroke:none;" d="M 3.28125 -3.203125 C 3.90625 -3.578125 4.109375 -3.890625 4.109375 -4.453125 C 4.109375 -5.40625 3.375 -6.078125 2.3125 -6.078125 C 1.265625 -6.078125 0.515625 -5.40625 0.515625 -4.46875 C 0.515625 -3.890625 0.71875 -3.59375 1.328125 -3.203125 C 0.640625 -2.859375 0.3125 -2.359375 0.3125 -1.6875 C 0.3125 -0.578125 1.125 0.1875 2.3125 0.1875 C 3.484375 0.1875 4.3125 -0.578125 4.3125 -1.6875 C 4.3125 -2.359375 3.96875 -2.859375 3.28125 -3.203125 Z M 2.3125 -5.421875 C 2.9375 -5.421875 3.34375 -5.046875 3.34375 -4.4375 C 3.34375 -3.859375 2.9375 -3.484375 2.3125 -3.484375 C 1.6875 -3.484375 1.28125 -3.859375 1.28125 -4.453125 C 1.28125 -5.046875 1.6875 -5.421875 2.3125 -5.421875 Z M 2.3125 -2.859375 C 3.046875 -2.859375 3.5625 -2.375 3.5625 -1.671875 C 3.5625 -0.9375 3.0625 -0.46875 2.296875 -0.46875 C 1.578125 -0.46875 1.0625 -0.953125 1.0625 -1.671875 C 1.0625 -2.390625 1.5625 -2.859375 2.3125 -2.859375 Z M 2.3125 -2.859375 "/>
</symbol>
<symbol overflow="visible" id="glyph0-6">
<path style="stroke:none;" d="M 4.375 -5.953125 L 0.390625 -5.953125 L 0.390625 -5.234375 L 3.609375 -5.234375 C 2.1875 -3.203125 1.609375 -1.953125 1.15625 0 L 1.953125 0 C 2.28125 -1.90625 3.03125 -3.546875 4.375 -5.34375 Z M 4.375 -5.953125 "/>
</symbol>
<symbol overflow="visible" id="glyph0-7">
<path style="stroke:none;" d="M 0.453125 -1.390625 C 0.59375 -0.390625 1.234375 0.1875 2.140625 0.1875 C 2.796875 0.1875 3.390625 -0.125 3.734375 -0.671875 C 4.109375 -1.265625 4.28125 -2.015625 4.28125 -3.109375 C 4.28125 -4.140625 4.125 -4.78125 3.78125 -5.328125 C 3.453125 -5.8125 2.921875 -6.078125 2.265625 -6.078125 C 1.140625 -6.078125 0.3125 -5.234375 0.3125 -4.046875 C 0.3125 -2.9375 1.078125 -2.140625 2.15625 -2.140625 C 2.71875 -2.140625 3.140625 -2.34375 3.515625 -2.8125 C 3.5 -1.296875 3.03125 -0.46875 2.1875 -0.46875 C 1.671875 -0.46875 1.296875 -0.796875 1.1875 -1.390625 Z M 2.265625 -5.4375 C 2.953125 -5.4375 3.46875 -4.84375 3.46875 -4.0625 C 3.46875 -3.328125 2.96875 -2.796875 2.234375 -2.796875 C 1.515625 -2.796875 1.078125 -3.296875 1.078125 -4.109375 C 1.078125 -4.875 1.578125 -5.4375 2.265625 -5.4375 Z M 2.265625 -5.4375 "/>
</symbol>
<symbol overflow="visible" id="glyph1-0">
<path style="stroke:none;" d=""/>
</symbol>
<symbol overflow="visible" id="glyph1-1">
<path style="stroke:none;" d="M 5.46875 -0.9375 L 1.4375 -0.9375 C 1.53125 -1.59375 1.875 -2 2.8125 -2.5625 L 3.890625 -3.171875 C 4.96875 -3.765625 5.515625 -4.5625 5.515625 -5.53125 C 5.515625 -6.171875 5.265625 -6.78125 4.796875 -7.203125 C 4.34375 -7.609375 3.796875 -7.8125 3.0625 -7.8125 C 2.09375 -7.8125 1.375 -7.453125 0.953125 -6.796875 C 0.6875 -6.375 0.5625 -5.890625 0.546875 -5.109375 L 1.484375 -5.109375 C 1.515625 -5.640625 1.59375 -5.953125 1.71875 -6.203125 C 1.96875 -6.6875 2.46875 -6.96875 3.03125 -6.96875 C 3.890625 -6.96875 4.546875 -6.34375 4.546875 -5.5 C 4.546875 -4.875 4.1875 -4.34375 3.515625 -3.953125 L 2.515625 -3.375 C 0.921875 -2.453125 0.453125 -1.71875 0.359375 -0.015625 L 5.46875 -0.015625 Z M 5.46875 -0.9375 "/>
</symbol>
<symbol overflow="visible" id="glyph1-2">
<path style="stroke:none;" d="M 2.96875 -7.8125 C 2.25 -7.8125 1.609375 -7.484375 1.203125 -6.953125 C 0.71875 -6.265625 0.46875 -5.21875 0.46875 -3.78125 C 0.46875 -1.140625 1.328125 0.25 2.96875 0.25 C 4.59375 0.25 5.46875 -1.140625 5.46875 -3.71875 C 5.46875 -5.21875 5.234375 -6.234375 4.734375 -6.953125 C 4.328125 -7.5 3.6875 -7.8125 2.96875 -7.8125 Z M 2.96875 -6.96875 C 4 -6.96875 4.5 -5.921875 4.5 -3.796875 C 4.5 -1.578125 4 -0.546875 2.953125 -0.546875 C 1.9375 -0.546875 1.4375 -1.625 1.4375 -3.765625 C 1.4375 -5.921875 1.9375 -6.96875 2.96875 -6.96875 Z M 2.96875 -6.96875 "/>
</symbol>
<symbol overflow="visible" id="glyph1-3">
<path style="stroke:none;" d="M 0.578125 -1.78125 C 0.75 -0.5 1.578125 0.25 2.75 0.25 C 3.59375 0.25 4.34375 -0.15625 4.796875 -0.859375 C 5.28125 -1.625 5.5 -2.578125 5.5 -4 C 5.5 -5.3125 5.296875 -6.140625 4.84375 -6.828125 C 4.421875 -7.46875 3.75 -7.8125 2.921875 -7.8125 C 1.453125 -7.8125 0.40625 -6.71875 0.40625 -5.203125 C 0.40625 -3.765625 1.375 -2.75 2.765625 -2.75 C 3.484375 -2.75 4.03125 -3.015625 4.515625 -3.609375 C 4.5 -1.65625 3.890625 -0.59375 2.8125 -0.59375 C 2.140625 -0.59375 1.671875 -1.03125 1.515625 -1.78125 Z M 2.90625 -6.96875 C 3.796875 -6.96875 4.453125 -6.234375 4.453125 -5.21875 C 4.453125 -4.265625 3.8125 -3.59375 2.875 -3.59375 C 1.953125 -3.59375 1.375 -4.25 1.375 -5.28125 C 1.375 -6.265625 2.015625 -6.96875 2.90625 -6.96875 Z M 2.90625 -6.96875 "/>
</symbol>
<symbol overflow="visible" id="glyph1-4">
<path style="stroke:none;" d="M 3.0625 -3.375 L 0.5 -3.375 L 0.5 -2.59375 L 3.0625 -2.59375 Z M 3.0625 -3.375 "/>
</symbol>
<symbol overflow="visible" id="glyph1-5">
<path style="stroke:none;" d="M 2.796875 -5.5625 L 2.796875 0 L 3.75 0 L 3.75 -7.8125 L 3.125 -7.8125 C 2.78125 -6.609375 2.5625 -6.453125 1.09375 -6.25 L 1.09375 -5.5625 Z M 2.796875 -5.5625 "/>
</symbol>
<symbol overflow="visible" id="glyph1-6">
<path style="stroke:none;" d="M 3.53125 -1.890625 L 3.53125 0 L 4.484375 0 L 4.484375 -1.890625 L 5.609375 -1.890625 L 5.609375 -2.75 L 4.484375 -2.75 L 4.484375 -7.8125 L 3.78125 -7.8125 L 0.296875 -2.890625 L 0.296875 -1.890625 Z M 3.53125 -2.75 L 1.140625 -2.75 L 3.53125 -6.1875 Z M 3.53125 -2.75 "/>
</symbol>
<symbol overflow="visible" id="glyph1-7">
<path style="stroke:none;" d="M 5.609375 -7.65625 L 0.5 -7.65625 L 0.5 -6.71875 L 4.625 -6.71875 C 2.8125 -4.109375 2.0625 -2.515625 1.484375 0 L 2.5 0 C 2.921875 -2.453125 3.890625 -4.5625 5.609375 -6.859375 Z M 5.609375 -7.65625 "/>
</symbol>
<symbol overflow="visible" id="glyph1-8">
<path style="stroke:none;" d="M 5.34375 2.359375 L 5.34375 -5.65625 L 4.546875 -5.65625 L 4.546875 -4.90625 C 4.125 -5.5 3.484375 -5.8125 2.75 -5.8125 C 1.25 -5.8125 0.28125 -4.59375 0.28125 -2.71875 C 0.28125 -0.890625 1.203125 0.25 2.703125 0.25 C 3.484375 0.25 4.03125 -0.03125 4.453125 -0.640625 L 4.453125 2.359375 Z M 2.875 -4.984375 C 3.828125 -4.984375 4.453125 -4.125 4.453125 -2.75 C 4.453125 -1.453125 3.828125 -0.59375 2.875 -0.59375 C 1.875 -0.59375 1.21875 -1.46875 1.21875 -2.78125 C 1.21875 -4.109375 1.875 -4.984375 2.875 -4.984375 Z M 2.875 -4.984375 "/>
</symbol>
<symbol overflow="visible" id="glyph1-9">
<path style="stroke:none;" d="M 2.9375 -5.8125 C 1.34375 -5.8125 0.390625 -4.6875 0.390625 -2.78125 C 0.390625 -0.875 1.34375 0.25 2.953125 0.25 C 4.546875 0.25 5.5 -0.890625 5.5 -2.75 C 5.5 -4.703125 4.578125 -5.8125 2.9375 -5.8125 Z M 2.953125 -4.984375 C 3.96875 -4.984375 4.5625 -4.15625 4.5625 -2.75 C 4.5625 -1.421875 3.9375 -0.578125 2.953125 -0.578125 C 1.9375 -0.578125 1.328125 -1.421875 1.328125 -2.78125 C 1.328125 -4.15625 1.9375 -4.984375 2.953125 -4.984375 Z M 2.953125 -4.984375 "/>
</symbol>
<symbol overflow="visible" id="glyph1-10">
<path style="stroke:none;" d=""/>
</symbol>
<symbol overflow="visible" id="glyph1-11">
<path style="stroke:none;" d="M 4.359375 -5.65625 L 4.359375 -4.84375 C 3.90625 -5.515625 3.40625 -5.8125 2.703125 -5.8125 C 1.328125 -5.8125 0.375 -4.546875 0.375 -2.734375 C 0.375 -1.78125 0.609375 -1.09375 1.09375 -0.515625 C 1.515625 -0.015625 2.046875 0.25 2.640625 0.25 C 3.3125 0.25 3.796875 -0.046875 4.28125 -0.765625 L 4.28125 -0.46875 C 4.28125 1.03125 3.859375 1.59375 2.734375 1.59375 C 1.96875 1.59375 1.5625 1.296875 1.484375 0.640625 L 0.5625 0.640625 C 0.640625 1.6875 1.484375 2.359375 2.703125 2.359375 C 3.546875 2.359375 4.234375 2.078125 4.59375 1.625 C 5.03125 1.09375 5.1875 0.40625 5.1875 -0.921875 L 5.1875 -5.65625 Z M 2.78125 -4.984375 C 3.734375 -4.984375 4.28125 -4.1875 4.28125 -2.75 C 4.28125 -1.375 3.71875 -0.578125 2.78125 -0.578125 C 1.859375 -0.578125 1.3125 -1.390625 1.3125 -2.78125 C 1.3125 -4.171875 1.859375 -4.984375 2.78125 -4.984375 Z M 2.78125 -4.984375 "/>
</symbol>
<symbol overflow="visible" id="glyph1-12">
<path style="stroke:none;" d="M 0.75 -5.65625 L 0.75 0 L 1.65625 0 L 1.65625 -2.9375 C 1.65625 -4.296875 2.21875 -4.90625 3.46875 -4.875 L 3.46875 -5.78125 C 3.3125 -5.8125 3.234375 -5.8125 3.125 -5.8125 C 2.53125 -5.8125 2.09375 -5.46875 1.578125 -4.625 L 1.578125 -5.65625 Z M 0.75 -5.65625 "/>
</symbol>
<symbol overflow="visible" id="glyph1-13">
<path style="stroke:none;" d="M 5.984375 0 L 7.640625 -5.65625 L 6.625 -5.65625 L 5.5 -1.25 L 4.390625 -5.65625 L 3.296875 -5.65625 L 2.21875 -1.25 L 1.0625 -5.65625 L 0.0625 -5.65625 L 1.703125 0 L 2.71875 0 L 3.8125 -4.4375 L 4.953125 0 Z M 5.984375 0 "/>
</symbol>
<symbol overflow="visible" id="glyph1-14">
<path style="stroke:none;" d="M 2.75 -5.65625 L 1.8125 -5.65625 L 1.8125 -7.21875 L 0.921875 -7.21875 L 0.921875 -5.65625 L 0.15625 -5.65625 L 0.15625 -4.921875 L 0.921875 -4.921875 L 0.921875 -0.640625 C 0.921875 -0.0625 1.3125 0.25 2.015625 0.25 C 2.25 0.25 2.4375 0.234375 2.75 0.171875 L 2.75 -0.578125 C 2.609375 -0.546875 2.5 -0.546875 2.3125 -0.546875 C 1.921875 -0.546875 1.8125 -0.640625 1.8125 -1.046875 L 1.8125 -4.921875 L 2.75 -4.921875 Z M 2.75 -5.65625 "/>
</symbol>
<symbol overflow="visible" id="glyph1-15">
<path style="stroke:none;" d="M 0.75 -7.875 L 0.75 0 L 1.65625 0 L 1.65625 -3.125 C 1.65625 -4.28125 2.25 -5.03125 3.1875 -5.03125 C 3.484375 -5.03125 3.765625 -4.9375 3.984375 -4.78125 C 4.25 -4.59375 4.34375 -4.3125 4.34375 -3.921875 L 4.34375 0 L 5.25 0 L 5.25 -4.28125 C 5.25 -5.21875 4.5625 -5.8125 3.46875 -5.8125 C 2.671875 -5.8125 2.1875 -5.578125 1.65625 -4.875 L 1.65625 -7.875 Z M 0.75 -7.875 "/>
</symbol>
<symbol overflow="visible" id="glyph1-16">
<path style="stroke:none;" d="M 5.78125 -0.53125 C 5.671875 -0.5 5.640625 -0.5 5.578125 -0.5 C 5.265625 -0.5 5.09375 -0.671875 5.09375 -0.953125 L 5.09375 -4.28125 C 5.09375 -5.28125 4.359375 -5.8125 2.96875 -5.8125 C 2.140625 -5.8125 1.484375 -5.578125 1.09375 -5.15625 C 0.828125 -4.875 0.71875 -4.546875 0.703125 -3.984375 L 1.609375 -3.984375 C 1.6875 -4.671875 2.09375 -4.984375 2.9375 -4.984375 C 3.75 -4.984375 4.203125 -4.6875 4.203125 -4.140625 L 4.203125 -3.90625 C 4.1875 -3.515625 4 -3.375 3.265625 -3.28125 C 1.984375 -3.125 1.796875 -3.078125 1.453125 -2.9375 C 0.78125 -2.65625 0.453125 -2.15625 0.453125 -1.421875 C 0.453125 -0.40625 1.171875 0.25 2.3125 0.25 C 3.015625 0.25 3.59375 0 4.234375 -0.578125 C 4.296875 0 4.578125 0.25 5.15625 0.25 C 5.359375 0.25 5.46875 0.234375 5.78125 0.15625 Z M 4.203125 -1.78125 C 4.203125 -1.484375 4.109375 -1.296875 3.84375 -1.046875 C 3.484375 -0.71875 3.03125 -0.546875 2.5 -0.546875 C 1.796875 -0.546875 1.390625 -0.875 1.390625 -1.453125 C 1.390625 -2.046875 1.78125 -2.34375 2.75 -2.484375 C 3.71875 -2.609375 3.890625 -2.65625 4.203125 -2.796875 Z M 4.203125 -1.78125 "/>
</symbol>
<symbol overflow="visible" id="glyph1-17">
<path style="stroke:none;" d="M 5.53125 -2.53125 C 5.53125 -3.390625 5.46875 -3.90625 5.3125 -4.328125 C 4.9375 -5.265625 4.078125 -5.8125 3.015625 -5.8125 C 1.453125 -5.8125 0.4375 -4.625 0.4375 -2.75 C 0.4375 -0.890625 1.40625 0.25 3 0.25 C 4.296875 0.25 5.1875 -0.484375 5.421875 -1.71875 L 4.515625 -1.71875 C 4.265625 -0.96875 3.75 -0.578125 3.03125 -0.578125 C 2.46875 -0.578125 1.96875 -0.84375 1.671875 -1.3125 C 1.453125 -1.640625 1.375 -1.96875 1.375 -2.53125 Z M 1.390625 -3.265625 C 1.46875 -4.3125 2.109375 -4.984375 3.015625 -4.984375 C 3.9375 -4.984375 4.5625 -4.28125 4.5625 -3.265625 Z M 1.390625 -3.265625 "/>
</symbol>
<symbol overflow="visible" id="glyph1-18">
<path style="stroke:none;" d="M 4.734375 -4.078125 C 4.71875 -5.1875 3.984375 -5.8125 2.671875 -5.8125 C 1.359375 -5.8125 0.5 -5.140625 0.5 -4.09375 C 0.5 -3.203125 0.953125 -2.78125 2.296875 -2.46875 L 3.140625 -2.25 C 3.765625 -2.109375 4.015625 -1.875 4.015625 -1.484375 C 4.015625 -0.9375 3.484375 -0.578125 2.703125 -0.578125 C 2.21875 -0.578125 1.796875 -0.71875 1.578125 -0.953125 C 1.4375 -1.125 1.375 -1.28125 1.3125 -1.6875 L 0.359375 -1.6875 C 0.40625 -0.375 1.140625 0.25 2.625 0.25 C 4.046875 0.25 4.953125 -0.453125 4.953125 -1.546875 C 4.953125 -2.390625 4.484375 -2.84375 3.359375 -3.125 L 2.5 -3.328125 C 1.765625 -3.5 1.453125 -3.734375 1.453125 -4.140625 C 1.453125 -4.671875 1.90625 -4.984375 2.640625 -4.984375 C 3.375 -4.984375 3.75 -4.671875 3.78125 -4.078125 Z M 4.734375 -4.078125 "/>
</symbol>
<symbol overflow="visible" id="glyph2-0">
<path style="stroke:none;" d=""/>
</symbol>
<symbol overflow="visible" id="glyph2-1">
<path style="stroke:none;" d="M 3.3125 -4.15625 L 5.796875 -4.15625 C 6.734375 -4.15625 7.125 -3.78125 7.125 -2.921875 L 7.125 -2.5 C 7.109375 -2.21875 7.109375 -1.953125 7.109375 -1.796875 C 7.109375 -0.8125 7.171875 -0.5 7.4375 0 L 9.75 0 L 9.75 -0.390625 C 9.421875 -0.578125 9.296875 -0.796875 9.296875 -1.25 C 9.234375 -4.34375 9.171875 -4.5 7.84375 -5.078125 C 9.015625 -5.53125 9.609375 -6.375 9.609375 -7.671875 C 9.609375 -8.5 9.328125 -9.265625 8.8125 -9.78125 C 8.34375 -10.265625 7.671875 -10.5 6.78125 -10.5 L 1.15625 -10.5 L 1.15625 0 L 3.3125 0 Z M 3.3125 -5.96875 L 3.3125 -8.703125 L 5.921875 -8.703125 C 6.546875 -8.703125 6.78125 -8.640625 7.0625 -8.421875 C 7.3125 -8.21875 7.453125 -7.84375 7.453125 -7.359375 C 7.453125 -6.859375 7.3125 -6.453125 7.0625 -6.234375 C 6.8125 -6.03125 6.546875 -5.96875 5.921875 -5.96875 Z M 3.3125 -5.96875 "/>
</symbol>
<symbol overflow="visible" id="glyph2-2">
<path style="stroke:none;" d="M 7.546875 -3.25 C 7.5625 -3.421875 7.5625 -3.5 7.5625 -3.59375 C 7.5625 -4.375 7.453125 -5.09375 7.265625 -5.640625 C 6.734375 -7.0625 5.484375 -7.90625 3.921875 -7.90625 C 1.6875 -7.90625 0.3125 -6.296875 0.3125 -3.6875 C 0.3125 -1.203125 1.671875 0.328125 3.875 0.328125 C 5.625 0.328125 7.03125 -0.640625 7.484375 -2.1875 L 5.484375 -2.1875 C 5.25 -1.5625 4.6875 -1.203125 3.953125 -1.203125 C 3.375 -1.203125 2.90625 -1.453125 2.625 -1.890625 C 2.4375 -2.171875 2.359375 -2.515625 2.328125 -3.25 Z M 2.359375 -4.59375 C 2.5 -5.796875 3 -6.375 3.890625 -6.375 C 4.8125 -6.375 5.359375 -5.75 5.453125 -4.59375 Z M 2.359375 -4.59375 "/>
</symbol>
<symbol overflow="visible" id="glyph2-3">
<path style="stroke:none;" d="M 5.046875 0 L 7.71875 -7.78125 L 5.59375 -7.78125 L 4.015625 -2.09375 L 2.328125 -7.78125 L 0.203125 -7.78125 L 2.921875 0 Z M 5.046875 0 "/>
</symbol>
<symbol overflow="visible" id="glyph2-4">
<path style="stroke:none;" d="M 2.984375 -7.78125 L 0.96875 -7.78125 L 0.96875 0 L 2.984375 0 Z M 2.984375 -10.5 L 0.96875 -10.5 L 0.96875 -8.703125 L 2.984375 -8.703125 Z M 2.984375 -10.5 "/>
</symbol>
<symbol overflow="visible" id="glyph2-5">
<path style="stroke:none;" d="M 7.28125 -5.265625 C 7.25 -6.921875 5.984375 -7.90625 3.890625 -7.90625 C 1.921875 -7.90625 0.6875 -6.921875 0.6875 -5.3125 C 0.6875 -4.796875 0.84375 -4.34375 1.125 -4.046875 C 1.390625 -3.78125 1.640625 -3.640625 2.390625 -3.40625 L 4.796875 -2.65625 C 5.296875 -2.5 5.46875 -2.328125 5.46875 -2.015625 C 5.46875 -1.546875 4.90625 -1.25 3.96875 -1.25 C 3.4375 -1.25 3.046875 -1.34375 2.78125 -1.53125 C 2.5625 -1.6875 2.484375 -1.84375 2.390625 -2.265625 L 0.421875 -2.265625 C 0.46875 -0.546875 1.734375 0.328125 4.09375 0.328125 C 5.171875 0.328125 6 0.09375 6.5625 -0.359375 C 7.140625 -0.828125 7.484375 -1.546875 7.484375 -2.3125 C 7.484375 -3.3125 6.984375 -3.96875 5.96875 -4.265625 L 3.421875 -5 C 2.859375 -5.171875 2.703125 -5.28125 2.703125 -5.609375 C 2.703125 -6.03125 3.171875 -6.328125 3.875 -6.328125 C 4.84375 -6.328125 5.3125 -5.984375 5.328125 -5.265625 Z M 7.28125 -5.265625 "/>
</symbol>
<symbol overflow="visible" id="glyph2-6">
<path style="stroke:none;" d="M 4.34375 -7.90625 C 1.953125 -7.90625 0.5 -6.34375 0.5 -3.78125 C 0.5 -1.21875 1.953125 0.328125 4.34375 0.328125 C 6.734375 0.328125 8.203125 -1.21875 8.203125 -3.734375 C 8.203125 -6.375 6.765625 -7.90625 4.34375 -7.90625 Z M 4.34375 -6.28125 C 5.453125 -6.28125 6.1875 -5.28125 6.1875 -3.765625 C 6.1875 -2.3125 5.4375 -1.296875 4.34375 -1.296875 C 3.25 -1.296875 2.515625 -2.296875 2.515625 -3.78125 C 2.515625 -5.28125 3.25 -6.28125 4.34375 -6.28125 Z M 4.34375 -6.28125 "/>
</symbol>
<symbol overflow="visible" id="glyph2-7">
<path style="stroke:none;" d="M 0.90625 -7.78125 L 0.90625 0 L 2.921875 0 L 2.921875 -4.671875 C 2.921875 -5.59375 3.5625 -6.1875 4.546875 -6.1875 C 5.421875 -6.1875 5.84375 -5.71875 5.84375 -4.796875 L 5.84375 0 L 7.859375 0 L 7.859375 -5.21875 C 7.859375 -6.9375 6.921875 -7.90625 5.265625 -7.90625 C 4.203125 -7.90625 3.5 -7.53125 2.921875 -6.65625 L 2.921875 -7.78125 Z M 0.90625 -7.78125 "/>
</symbol>
<symbol overflow="visible" id="glyph2-8">
<path style="stroke:none;" d=""/>
</symbol>
<symbol overflow="visible" id="glyph2-9">
<path style="stroke:none;" d="M 4.515625 -7.625 L 3.3125 -7.625 L 3.3125 -8.390625 C 3.3125 -8.78125 3.484375 -8.984375 3.859375 -8.984375 C 4.046875 -8.984375 4.234375 -8.96875 4.4375 -8.953125 L 4.4375 -10.453125 C 4 -10.484375 3.59375 -10.5 3.28125 -10.5 C 1.9375 -10.5 1.296875 -9.875 1.296875 -8.5625 L 1.296875 -7.625 L 0.203125 -7.625 L 0.203125 -6.28125 L 1.296875 -6.28125 L 1.296875 0 L 3.3125 0 L 3.3125 -6.28125 L 4.515625 -6.28125 Z M 4.515625 -7.625 "/>
</symbol>
<symbol overflow="visible" id="glyph2-10">
<path style="stroke:none;" d="M 10.25 -5.640625 L 6.03125 -5.640625 L 6.03125 -3.84375 L 8.421875 -3.84375 C 8.375 -3.25 8.21875 -2.890625 7.90625 -2.515625 C 7.390625 -1.890625 6.578125 -1.515625 5.765625 -1.515625 C 4 -1.515625 2.765625 -3.046875 2.765625 -5.203125 C 2.765625 -7.46875 3.859375 -8.828125 5.703125 -8.828125 C 6.453125 -8.828125 7.09375 -8.609375 7.5625 -8.203125 C 7.859375 -7.9375 8.03125 -7.6875 8.21875 -7.140625 L 10.25 -7.140625 C 9.984375 -9.328125 8.21875 -10.671875 5.6875 -10.671875 C 2.671875 -10.671875 0.609375 -8.4375 0.609375 -5.171875 C 0.609375 -1.984375 2.671875 0.328125 5.515625 0.328125 C 6.921875 0.328125 7.875 -0.171875 8.6875 -1.359375 L 8.953125 0.03125 L 10.25 0.03125 Z M 10.25 -5.640625 "/>
</symbol>
<symbol overflow="visible" id="glyph2-11">
<path style="stroke:none;" d="M 1.109375 0 L 5.21875 0 C 6.8125 0 7.828125 -0.375 8.546875 -1.21875 C 9.359375 -2.203125 9.8125 -3.609375 9.8125 -5.265625 C 9.8125 -6.890625 9.359375 -8.296875 8.546875 -9.296875 C 7.828125 -10.140625 6.828125 -10.5 5.21875 -10.5 L 1.109375 -10.5 Z M 3.265625 -1.796875 L 3.265625 -8.703125 L 5.21875 -8.703125 C 6.84375 -8.703125 7.65625 -7.5625 7.65625 -5.25 C 7.65625 -2.9375 6.84375 -1.796875 5.21875 -1.796875 Z M 3.265625 -1.796875 "/>
</symbol>
<symbol overflow="visible" id="glyph2-12">
<path style="stroke:none;" d="M 3.25 -3.75 L 5.953125 -3.75 C 7.875 -3.75 9.125 -5.109375 9.125 -7.25 C 9.125 -9.34375 7.921875 -10.5 5.734375 -10.5 L 1.09375 -10.5 L 1.09375 0 L 3.25 0 Z M 3.25 -5.546875 L 3.25 -8.703125 L 5.265625 -8.703125 C 6.421875 -8.703125 6.953125 -8.203125 6.953125 -7.125 C 6.953125 -6.046875 6.421875 -5.546875 5.265625 -5.546875 Z M 3.25 -5.546875 "/>
</symbol>
<symbol overflow="visible" id="glyph2-13">
<path style="stroke:none;" d="M 5.828125 0 L 7.84375 0 L 7.84375 -10.5 L 5.828125 -10.5 L 5.828125 -6.765625 C 5.328125 -7.546875 4.671875 -7.90625 3.6875 -7.90625 C 1.828125 -7.90625 0.421875 -6.125 0.421875 -3.78125 C 0.421875 -2.71875 0.734375 -1.65625 1.25 -0.90625 C 1.78125 -0.140625 2.734375 0.328125 3.6875 0.328125 C 4.671875 0.328125 5.328125 -0.015625 5.828125 -0.796875 Z M 4.140625 -6.21875 C 5.15625 -6.21875 5.828125 -5.25 5.828125 -3.75 C 5.828125 -2.328125 5.140625 -1.359375 4.140625 -1.359375 C 3.125 -1.359375 2.4375 -2.34375 2.4375 -3.78125 C 2.4375 -5.234375 3.125 -6.21875 4.140625 -6.21875 Z M 4.140625 -6.21875 "/>
</symbol>
<symbol overflow="visible" id="glyph2-14">
<path style="stroke:none;" d="M 7.796875 0 L 7.796875 -7.78125 L 5.78125 -7.78125 L 5.78125 -2.90625 C 5.78125 -1.984375 5.140625 -1.390625 4.15625 -1.390625 C 3.28125 -1.390625 2.859375 -1.84375 2.859375 -2.78125 L 2.859375 -7.78125 L 0.828125 -7.78125 L 0.828125 -2.359375 C 0.828125 -0.640625 1.765625 0.328125 3.4375 0.328125 C 4.5 0.328125 5.203125 -0.046875 5.78125 -0.921875 L 5.78125 0 Z M 7.796875 0 "/>
</symbol>
<symbol overflow="visible" id="glyph2-15">
<path style="stroke:none;" d="M 0.90625 -7.78125 L 0.90625 0 L 2.921875 0 L 2.921875 -4.140625 C 2.921875 -5.3125 3.515625 -5.90625 4.703125 -5.90625 C 4.90625 -5.90625 5.0625 -5.890625 5.328125 -5.84375 L 5.328125 -7.890625 C 5.21875 -7.90625 5.171875 -7.90625 5.078125 -7.90625 C 4.15625 -7.90625 3.375 -7.296875 2.921875 -6.25 L 2.921875 -7.78125 Z M 0.90625 -7.78125 "/>
</symbol>
<symbol overflow="visible" id="glyph2-16">
<path style="stroke:none;" d="M 5.765625 -7.78125 L 5.765625 -6.578125 C 5.203125 -7.484375 4.578125 -7.90625 3.765625 -7.90625 C 3.0625 -7.90625 2.3125 -7.5625 1.765625 -7 C 1 -6.1875 0.59375 -5.078125 0.59375 -3.703125 C 0.59375 -1.3125 1.859375 0.328125 3.71875 0.328125 C 4.546875 0.328125 5.0625 0.0625 5.765625 -0.796875 L 5.765625 0.265625 C 5.765625 1.203125 5.09375 1.84375 4.15625 1.84375 C 3.421875 1.84375 2.984375 1.53125 2.828125 0.9375 L 0.75 0.9375 C 0.765625 1.546875 0.984375 1.953125 1.515625 2.390625 C 2.125 2.890625 2.984375 3.140625 4.078125 3.140625 C 6.328125 3.140625 7.671875 2.0625 7.671875 0.265625 L 7.671875 -7.78125 Z M 4.140625 -6.21875 C 5.078125 -6.21875 5.796875 -5.171875 5.796875 -3.734375 C 5.796875 -2.3125 5.109375 -1.359375 4.109375 -1.359375 C 3.234375 -1.359375 2.609375 -2.3125 2.609375 -3.734375 C 2.609375 -5.203125 3.234375 -6.21875 4.140625 -6.21875 Z M 4.140625 -6.21875 "/>
</symbol>
<symbol overflow="visible" id="glyph2-17">
<path style="stroke:none;" d="M 4.34375 -7.625 L 3.21875 -7.625 L 3.21875 -9.703125 L 1.203125 -9.703125 L 1.203125 -7.625 L 0.203125 -7.625 L 0.203125 -6.28125 L 1.203125 -6.28125 L 1.203125 -1.5 C 1.203125 -0.28125 1.84375 0.328125 3.171875 0.328125 C 3.625 0.328125 3.96875 0.28125 4.34375 0.171875 L 4.34375 -1.234375 C 4.140625 -1.203125 4.03125 -1.203125 3.875 -1.203125 C 3.34375 -1.203125 3.21875 -1.359375 3.21875 -2.046875 L 3.21875 -6.28125 L 4.34375 -6.28125 Z M 4.34375 -7.625 "/>
</symbol>
<symbol overflow="visible" id="glyph2-18">
<path style="stroke:none;" d="M 0.96875 -10.5 L 0.96875 0 L 2.984375 0 L 2.984375 -4.671875 C 2.984375 -5.5625 3.625 -6.1875 4.53125 -6.1875 C 4.984375 -6.1875 5.3125 -6.03125 5.546875 -5.71875 C 5.734375 -5.453125 5.78125 -5.25 5.78125 -4.75 L 5.78125 0 L 7.796875 0 L 7.796875 -5.21875 C 7.796875 -6.1875 7.53125 -6.875 7 -7.3125 C 6.5625 -7.6875 5.90625 -7.90625 5.265625 -7.90625 C 4.265625 -7.90625 3.546875 -7.515625 2.984375 -6.65625 L 2.984375 -10.5 Z M 0.96875 -10.5 "/>
</symbol>
<symbol overflow="visible" id="glyph2-19">
<path style="stroke:none;" d="M 4.515625 -7.625 L 3.3125 -7.625 L 3.3125 -8.390625 C 3.3125 -8.78125 3.484375 -8.984375 3.859375 -8.984375 C 4.046875 -8.984375 4.234375 -8.96875 4.4375 -8.953125 L 4.4375 -10.453125 C 4 -10.484375 3.59375 -10.5 3.28125 -10.5 C 1.9375 -10.5 1.296875 -9.875 1.296875 -8.5625 L 1.296875 -7.625 L 0.203125 -7.625 L 0.203125 -6.28125 L 1.296875 -6.28125 L 1.296875 0 L 3.3125 0 L 3.3125 -6.28125 L 4.515625 -6.28125 Z M 7.78125 -7.78125 L 5.765625 -7.78125 L 5.765625 0 L 7.78125 0 Z M 7.78125 -10.5 L 5.765625 -10.5 L 5.765625 -8.703125 L 7.78125 -8.703125 Z M 7.78125 -10.5 "/>
</symbol>
<symbol overflow="visible" id="glyph2-20">
<path style="stroke:none;" d="M 7.546875 -0.25 C 7.203125 -0.578125 7.09375 -0.8125 7.09375 -1.203125 L 7.09375 -5.515625 C 7.09375 -7.109375 6 -7.90625 3.90625 -7.90625 C 1.796875 -7.90625 0.703125 -7.015625 0.578125 -5.21875 L 2.515625 -5.21875 C 2.625 -6.015625 2.953125 -6.28125 3.953125 -6.28125 C 4.71875 -6.28125 5.109375 -6.015625 5.109375 -5.5 C 5.109375 -5.25 4.984375 -5.03125 4.765625 -4.890625 C 4.5 -4.75 4.5 -4.75 3.5 -4.59375 L 2.6875 -4.453125 C 1.15625 -4.1875 0.40625 -3.40625 0.40625 -2 C 0.40625 -0.609375 1.34375 0.328125 2.765625 0.328125 C 3.625 0.328125 4.40625 -0.03125 5.125 -0.78125 C 5.125 -0.375 5.171875 -0.234375 5.359375 0 L 7.546875 0 Z M 5.109375 -3.125 C 5.109375 -1.953125 4.53125 -1.296875 3.515625 -1.296875 C 2.84375 -1.296875 2.421875 -1.65625 2.421875 -2.234375 C 2.421875 -2.84375 2.734375 -3.125 3.578125 -3.296875 L 4.265625 -3.421875 C 4.796875 -3.53125 4.890625 -3.5625 5.109375 -3.671875 Z M 5.109375 -3.125 "/>
</symbol>
<symbol overflow="visible" id="glyph2-21">
<path style="stroke:none;" d="M 7.515625 -4.875 C 7.375 -6.765625 6.125 -7.90625 4.15625 -7.90625 C 1.828125 -7.90625 0.484375 -6.375 0.484375 -3.734375 C 0.484375 -1.171875 1.828125 0.328125 4.140625 0.328125 C 6.015625 0.328125 7.328125 -0.828125 7.515625 -2.6875 L 5.59375 -2.6875 C 5.34375 -1.6875 4.9375 -1.296875 4.140625 -1.296875 C 3.109375 -1.296875 2.5 -2.203125 2.5 -3.734375 C 2.5 -4.484375 2.65625 -5.15625 2.890625 -5.625 C 3.125 -6.046875 3.578125 -6.28125 4.15625 -6.28125 C 4.96875 -6.28125 5.359375 -5.890625 5.59375 -4.875 Z M 7.515625 -4.875 "/>
</symbol>
<symbol overflow="visible" id="glyph2-22">
<path style="stroke:none;" d="M 2.984375 -10.5 L 0.96875 -10.5 L 0.96875 0 L 2.984375 0 Z M 2.984375 -10.5 "/>
</symbol>
</g>
<clipPath id="clip1">
  <path d="M 37.332031 338 L 714.023438 338 L 714.023438 339 L 37.332031 339 Z M 37.332031 338 "/>
</clipPath>
<clipPath id="clip2">
  <path d="M 37.332031 215 L 714.023438 215 L 714.023438 217 L 37.332031 217 Z M 37.332031 215 "/>
</clipPath>
<clipPath id="clip3">
  <path d="M 37.332031 93 L 714.023438 93 L 714.023438 95 L 37.332031 95 Z M 37.332031 93 "/>
</clipPath>
<clipPath id="clip4">
  <path d="M 66 55.289062 L 67 55.289062 L 67 370.449219 L 66 370.449219 Z M 66 55.289062 "/>
</clipPath>
<clipPath id="clip5">
  <path d="M 314 55.289062 L 316 55.289062 L 316 370.449219 L 314 370.449219 Z M 314 55.289062 "/>
</clipPath>
<clipPath id="clip6">
  <path d="M 561 55.289062 L 562 55.289062 L 562 370.449219 L 561 370.449219 Z M 561 55.289062 "/>
</clipPath>
<clipPath id="clip7">
  <path d="M 37.332031 276 L 714.023438 276 L 714.023438 278 L 37.332031 278 Z M 37.332031 276 "/>
</clipPath>
<clipPath id="clip8">
  <path d="M 37.332031 154 L 714.023438 154 L 714.023438 156 L 37.332031 156 Z M 37.332031 154 "/>
</clipPath>
<clipPath id="clip9">
  <path d="M 190 55.289062 L 192 55.289062 L 192 370.449219 L 190 370.449219 Z M 190 55.289062 "/>
</clipPath>
<clipPath id="clip10">
  <path d="M 438 55.289062 L 440 55.289062 L 440 370.449219 L 438 370.449219 Z M 438 55.289062 "/>
</clipPath>
<clipPath id="clip11">
  <path d="M 683 55.289062 L 684 55.289062 L 684 370.449219 L 683 370.449219 Z M 683 55.289062 "/>
</clipPath>
</defs>
<g id="surface7">
<rect x="0" y="0" width="720" height="432" style="fill:rgb(100%,100%,100%);fill-opacity:1;stroke:none;"/>
<rect x="0" y="0" width="720" height="432" style="fill:rgb(100%,100%,100%);fill-opacity:1;stroke:none;"/>
<g clip-path="url(#clip1)" clip-rule="nonzero">
<path style="fill:none;stroke-width:0.213396;stroke-linecap:butt;stroke-linejoin:round;stroke:rgb(92.156863%,92.156863%,92.156863%);stroke-opacity:1;stroke-miterlimit:10;" d="M 37.332031 338.128906 L 714.023438 338.128906 "/>
</g>
<g clip-path="url(#clip2)" clip-rule="nonzero">
<path style="fill:none;stroke-width:0.213396;stroke-linecap:butt;stroke-linejoin:round;stroke:rgb(92.156863%,92.156863%,92.156863%);stroke-opacity:1;stroke-miterlimit:10;" d="M 37.332031 216.019531 L 714.023438 216.019531 "/>
</g>
<g clip-path="url(#clip3)" clip-rule="nonzero">
<path style="fill:none;stroke-width:0.213396;stroke-linecap:butt;stroke-linejoin:round;stroke:rgb(92.156863%,92.156863%,92.156863%);stroke-opacity:1;stroke-miterlimit:10;" d="M 37.332031 93.910156 L 714.023438 93.910156 "/>
</g>
<g clip-path="url(#clip4)" clip-rule="nonzero">
<path style="fill:none;stroke-width:0.213396;stroke-linecap:butt;stroke-linejoin:round;stroke:rgb(92.156863%,92.156863%,92.156863%);stroke-opacity:1;stroke-miterlimit:10;" d="M 66.742188 370.453125 L 66.742188 55.289062 "/>
</g>
<g clip-path="url(#clip5)" clip-rule="nonzero">
<path style="fill:none;stroke-width:0.213396;stroke-linecap:butt;stroke-linejoin:round;stroke:rgb(92.156863%,92.156863%,92.156863%);stroke-opacity:1;stroke-miterlimit:10;" d="M 314.96875 370.453125 L 314.96875 55.289062 "/>
</g>
<g clip-path="url(#clip6)" clip-rule="nonzero">
<path style="fill:none;stroke-width:0.213396;stroke-linecap:butt;stroke-linejoin:round;stroke:rgb(92.156863%,92.156863%,92.156863%);stroke-opacity:1;stroke-miterlimit:10;" d="M 561.171875 370.453125 L 561.171875 55.289062 "/>
</g>
<g clip-path="url(#clip7)" clip-rule="nonzero">
<path style="fill:none;stroke-width:0.426791;stroke-linecap:butt;stroke-linejoin:round;stroke:rgb(92.156863%,92.156863%,92.156863%);stroke-opacity:1;stroke-miterlimit:10;" d="M 37.332031 277.074219 L 714.023438 277.074219 "/>
</g>
<g clip-path="url(#clip8)" clip-rule="nonzero">
<path style="fill:none;stroke-width:0.426791;stroke-linecap:butt;stroke-linejoin:round;stroke:rgb(92.156863%,92.156863%,92.156863%);stroke-opacity:1;stroke-miterlimit:10;" d="M 37.332031 154.964844 L 714.023438 154.964844 "/>
</g>
<g clip-path="url(#clip9)" clip-rule="nonzero">
<path style="fill:none;stroke-width:0.426791;stroke-linecap:butt;stroke-linejoin:round;stroke:rgb(92.156863%,92.156863%,92.156863%);stroke-opacity:1;stroke-miterlimit:10;" d="M 190.855469 370.453125 L 190.855469 55.289062 "/>
</g>
<g clip-path="url(#clip10)" clip-rule="nonzero">
<path style="fill:none;stroke-width:0.426791;stroke-linecap:butt;stroke-linejoin:round;stroke:rgb(92.156863%,92.156863%,92.156863%);stroke-opacity:1;stroke-miterlimit:10;" d="M 439.082031 370.453125 L 439.082031 55.289062 "/>
</g>
<g clip-path="url(#clip11)" clip-rule="nonzero">
<path style="fill:none;stroke-width:0.426791;stroke-linecap:butt;stroke-linejoin:round;stroke:rgb(92.156863%,92.156863%,92.156863%);stroke-opacity:1;stroke-miterlimit:10;" d="M 683.265625 370.453125 L 683.265625 55.289062 "/>
</g>
<path style="fill:none;stroke-width:1.163976;stroke-linecap:butt;stroke-linejoin:round;stroke:rgb(30.196078%,30.196078%,30.196078%);stroke-opacity:1;stroke-miterlimit:10;" d="M 68.089844 69.617188 L 190.855469 170.582031 L 314.96875 350.339844 "/>
<path style="fill:none;stroke-width:1.163976;stroke-linecap:butt;stroke-linejoin:round;stroke:rgb(0%,44.705882%,69.803922%);stroke-opacity:1;stroke-miterlimit:10;" d="M 68.089844 69.617188 L 190.855469 170.582031 L 314.96875 353.363281 L 439.082031 333.429688 "/>
<path style="fill:none;stroke-width:1.163976;stroke-linecap:butt;stroke-linejoin:round;stroke:rgb(83.529412%,36.862745%,0%);stroke-opacity:1;stroke-miterlimit:10;" d="M 68.089844 110.75 L 190.855469 237.519531 L 314.96875 322.394531 L 439.082031 356.125 L 560.5 186.046875 "/>
<path style="fill:none;stroke-width:1.163976;stroke-linecap:butt;stroke-linejoin:round;stroke:rgb(0%,61.960784%,45.098039%);stroke-opacity:1;stroke-miterlimit:10;" d="M 68.089844 110.75 L 190.855469 237.519531 L 314.96875 322.394531 L 439.082031 356.125 L 560.5 177.542969 L 683.265625 70.917969 "/>
<g style="fill:rgb(10.196078%,10.196078%,10.196078%);fill-opacity:1;">
  <use xlink:href="#glyph0-1" x="23.953125" y="279.697266"/>
  <use xlink:href="#glyph0-2" x="26.953125" y="279.697266"/>
</g>
<g style="fill:rgb(10.196078%,10.196078%,10.196078%);fill-opacity:1;">
  <use xlink:href="#glyph0-3" x="26.953125" y="157.587891"/>
</g>
<g style="fill:rgb(10.196078%,10.196078%,10.196078%);fill-opacity:1;">
  <use xlink:href="#glyph0-4" x="174.355469" y="381.955078"/>
  <use xlink:href="#glyph0-3" x="179.355469" y="381.955078"/>
  <use xlink:href="#glyph0-3" x="184.355469" y="381.955078"/>
  <use xlink:href="#glyph0-5" x="189.355469" y="381.955078"/>
  <use xlink:href="#glyph0-1" x="194.355469" y="381.955078"/>
  <use xlink:href="#glyph0-3" x="197.355469" y="381.955078"/>
  <use xlink:href="#glyph0-6" x="202.355469" y="381.955078"/>
</g>
<g style="fill:rgb(10.196078%,10.196078%,10.196078%);fill-opacity:1;">
  <use xlink:href="#glyph0-4" x="422.582031" y="381.955078"/>
  <use xlink:href="#glyph0-3" x="427.582031" y="381.955078"/>
  <use xlink:href="#glyph0-3" x="432.582031" y="381.955078"/>
  <use xlink:href="#glyph0-7" x="437.582031" y="381.955078"/>
  <use xlink:href="#glyph0-1" x="442.582031" y="381.955078"/>
  <use xlink:href="#glyph0-3" x="445.582031" y="381.955078"/>
  <use xlink:href="#glyph0-2" x="450.582031" y="381.955078"/>
</g>
<g style="fill:rgb(10.196078%,10.196078%,10.196078%);fill-opacity:1;">
  <use xlink:href="#glyph0-4" x="666.765625" y="381.955078"/>
  <use xlink:href="#glyph0-3" x="671.765625" y="381.955078"/>
  <use xlink:href="#glyph0-3" x="676.765625" y="381.955078"/>
  <use xlink:href="#glyph0-7" x="681.765625" y="381.955078"/>
  <use xlink:href="#glyph0-1" x="686.765625" y="381.955078"/>
  <use xlink:href="#glyph0-3" x="689.765625" y="381.955078"/>
  <use xlink:href="#glyph0-6" x="694.765625" y="381.955078"/>
</g>
<path style="fill:none;stroke-width:1.163976;stroke-linecap:butt;stroke-linejoin:round;stroke:rgb(30.196078%,30.196078%,30.196078%);stroke-opacity:1;stroke-miterlimit:10;" d="M 209.921875 411.40625 L 223.746094 411.40625 "/>
<path style="fill:none;stroke-width:1.163976;stroke-linecap:butt;stroke-linejoin:round;stroke:rgb(0%,44.705882%,69.803922%);stroke-opacity:1;stroke-miterlimit:10;" d="M 295.160156 411.40625 L 308.984375 411.40625 "/>
<path style="fill:none;stroke-width:1.163976;stroke-linecap:butt;stroke-linejoin:round;stroke:rgb(83.529412%,36.862745%,0%);stroke-opacity:1;stroke-miterlimit:10;" d="M 380.394531 411.40625 L 394.21875 411.40625 "/>
<path style="fill:none;stroke-width:1.163976;stroke-linecap:butt;stroke-linejoin:round;stroke:rgb(0%,61.960784%,45.098039%);stroke-opacity:1;stroke-miterlimit:10;" d="M 465.628906 411.40625 L 479.453125 411.40625 "/>
<g style="fill:rgb(10.196078%,10.196078%,10.196078%);fill-opacity:1;">
  <use xlink:href="#glyph1-1" x="231.453125" y="415.279297"/>
  <use xlink:href="#glyph1-2" x="237.453125" y="415.279297"/>
  <use xlink:href="#glyph1-2" x="243.453125" y="415.279297"/>
  <use xlink:href="#glyph1-3" x="249.453125" y="415.279297"/>
  <use xlink:href="#glyph1-4" x="255.453125" y="415.279297"/>
  <use xlink:href="#glyph1-2" x="259.453125" y="415.279297"/>
  <use xlink:href="#glyph1-5" x="265.453125" y="415.279297"/>
  <use xlink:href="#glyph1-4" x="271.453125" y="415.279297"/>
  <use xlink:href="#glyph1-2" x="275.453125" y="415.279297"/>
  <use xlink:href="#glyph1-5" x="281.453125" y="415.279297"/>
</g>
<g style="fill:rgb(10.196078%,10.196078%,10.196078%);fill-opacity:1;">
  <use xlink:href="#glyph1-1" x="316.6875" y="415.279297"/>
  <use xlink:href="#glyph1-2" x="322.6875" y="415.279297"/>
  <use xlink:href="#glyph1-2" x="328.6875" y="415.279297"/>
  <use xlink:href="#glyph1-3" x="334.6875" y="415.279297"/>
  <use xlink:href="#glyph1-4" x="340.6875" y="415.279297"/>
  <use xlink:href="#glyph1-2" x="344.6875" y="415.279297"/>
  <use xlink:href="#glyph1-6" x="350.6875" y="415.279297"/>
  <use xlink:href="#glyph1-4" x="356.6875" y="415.279297"/>
  <use xlink:href="#glyph1-2" x="360.6875" y="415.279297"/>
  <use xlink:href="#glyph1-5" x="366.6875" y="415.279297"/>
</g>
<g style="fill:rgb(10.196078%,10.196078%,10.196078%);fill-opacity:1;">
  <use xlink:href="#glyph1-1" x="401.921875" y="415.279297"/>
  <use xlink:href="#glyph1-2" x="407.921875" y="415.279297"/>
  <use xlink:href="#glyph1-2" x="413.921875" y="415.279297"/>
  <use xlink:href="#glyph1-3" x="419.921875" y="415.279297"/>
  <use xlink:href="#glyph1-4" x="425.921875" y="415.279297"/>
  <use xlink:href="#glyph1-2" x="429.921875" y="415.279297"/>
  <use xlink:href="#glyph1-7" x="435.921875" y="415.279297"/>
  <use xlink:href="#glyph1-4" x="441.921875" y="415.279297"/>
  <use xlink:href="#glyph1-2" x="445.921875" y="415.279297"/>
  <use xlink:href="#glyph1-5" x="451.921875" y="415.279297"/>
</g>
<g style="fill:rgb(10.196078%,10.196078%,10.196078%);fill-opacity:1;">
  <use xlink:href="#glyph1-1" x="487.160156" y="415.279297"/>
  <use xlink:href="#glyph1-2" x="493.160156" y="415.279297"/>
  <use xlink:href="#glyph1-2" x="499.160156" y="415.279297"/>
  <use xlink:href="#glyph1-3" x="505.160156" y="415.279297"/>
  <use xlink:href="#glyph1-4" x="511.160156" y="415.279297"/>
  <use xlink:href="#glyph1-5" x="515.160156" y="415.279297"/>
  <use xlink:href="#glyph1-2" x="521.160156" y="415.279297"/>
  <use xlink:href="#glyph1-4" x="527.160156" y="415.279297"/>
  <use xlink:href="#glyph1-2" x="531.160156" y="415.279297"/>
  <use xlink:href="#glyph1-5" x="537.160156" y="415.279297"/>
</g>
<g style="fill:rgb(10.196078%,10.196078%,10.196078%);fill-opacity:1;">
  <use xlink:href="#glyph1-8" x="37.332031" y="44.990234"/>
  <use xlink:href="#glyph1-9" x="43.332031" y="44.990234"/>
  <use xlink:href="#glyph1-8" x="49.332031" y="44.990234"/>
  <use xlink:href="#glyph1-10" x="55.332031" y="44.990234"/>
  <use xlink:href="#glyph1-11" x="58.332031" y="44.990234"/>
  <use xlink:href="#glyph1-12" x="64.332031" y="44.990234"/>
  <use xlink:href="#glyph1-9" x="68.332031" y="44.990234"/>
  <use xlink:href="#glyph1-13" x="74.332031" y="44.990234"/>
  <use xlink:href="#glyph1-14" x="82.332031" y="44.990234"/>
  <use xlink:href="#glyph1-15" x="85.332031" y="44.990234"/>
  <use xlink:href="#glyph1-10" x="91.332031" y="44.990234"/>
  <use xlink:href="#glyph1-12" x="94.332031" y="44.990234"/>
  <use xlink:href="#glyph1-16" x="98.332031" y="44.990234"/>
  <use xlink:href="#glyph1-14" x="104.332031" y="44.990234"/>
  <use xlink:href="#glyph1-17" x="107.332031" y="44.990234"/>
  <use xlink:href="#glyph1-18" x="113.332031" y="44.990234"/>
</g>
<g style="fill:rgb(10.196078%,10.196078%,10.196078%);fill-opacity:1;">
  <use xlink:href="#glyph2-1" x="37.332031" y="28.430664"/>
  <use xlink:href="#glyph2-2" x="47.332031" y="28.430664"/>
  <use xlink:href="#glyph2-3" x="55.332031" y="28.430664"/>
  <use xlink:href="#glyph2-4" x="63.332031" y="28.430664"/>
  <use xlink:href="#glyph2-5" x="67.332031" y="28.430664"/>
  <use xlink:href="#glyph2-4" x="75.332031" y="28.430664"/>
  <use xlink:href="#glyph2-6" x="79.332031" y="28.430664"/>
  <use xlink:href="#glyph2-7" x="88.332031" y="28.430664"/>
  <use xlink:href="#glyph2-5" x="97.332031" y="28.430664"/>
  <use xlink:href="#glyph2-8" x="105.332031" y="28.430664"/>
  <use xlink:href="#glyph2-6" x="109.332031" y="28.430664"/>
  <use xlink:href="#glyph2-9" x="118.332031" y="28.430664"/>
  <use xlink:href="#glyph2-8" x="123.332031" y="28.430664"/>
  <use xlink:href="#glyph2-10" x="127.332031" y="28.430664"/>
  <use xlink:href="#glyph2-11" x="138.332031" y="28.430664"/>
  <use xlink:href="#glyph2-12" x="148.332031" y="28.430664"/>
  <use xlink:href="#glyph2-8" x="158.332031" y="28.430664"/>
  <use xlink:href="#glyph2-13" x="162.332031" y="28.430664"/>
  <use xlink:href="#glyph2-14" x="171.332031" y="28.430664"/>
  <use xlink:href="#glyph2-15" x="180.332031" y="28.430664"/>
  <use xlink:href="#glyph2-4" x="186.332031" y="28.430664"/>
  <use xlink:href="#glyph2-7" x="190.332031" y="28.430664"/>
  <use xlink:href="#glyph2-16" x="199.332031" y="28.430664"/>
  <use xlink:href="#glyph2-8" x="208.332031" y="28.430664"/>
  <use xlink:href="#glyph2-17" x="212.332031" y="28.430664"/>
  <use xlink:href="#glyph2-18" x="217.332031" y="28.430664"/>
  <use xlink:href="#glyph2-2" x="226.332031" y="28.430664"/>
  <use xlink:href="#glyph2-8" x="234.332031" y="28.430664"/>
  <use xlink:href="#glyph2-19" x="238.332031" y="28.430664"/>
  <use xlink:href="#glyph2-7" x="247.332031" y="28.430664"/>
  <use xlink:href="#glyph2-20" x="256.332031" y="28.430664"/>
  <use xlink:href="#glyph2-7" x="264.332031" y="28.430664"/>
  <use xlink:href="#glyph2-21" x="273.332031" y="28.430664"/>
  <use xlink:href="#glyph2-4" x="281.332031" y="28.430664"/>
  <use xlink:href="#glyph2-20" x="285.332031" y="28.430664"/>
  <use xlink:href="#glyph2-22" x="293.332031" y="28.430664"/>
  <use xlink:href="#glyph2-8" x="297.332031" y="28.430664"/>
  <use xlink:href="#glyph2-21" x="301.332031" y="28.430664"/>
  <use xlink:href="#glyph2-15" x="309.332031" y="28.430664"/>
  <use xlink:href="#glyph2-4" x="315.332031" y="28.430664"/>
  <use xlink:href="#glyph2-5" x="319.332031" y="28.430664"/>
  <use xlink:href="#glyph2-4" x="327.332031" y="28.430664"/>
  <use xlink:href="#glyph2-5" x="331.332031" y="28.430664"/>
</g>
</g>
</svg>
