<?xml version="1.0" encoding="UTF-8"?>
<svg xmlns="http://www.w3.org/2000/svg" xmlns:xlink="http://www.w3.org/1999/xlink" width="720pt" height="432pt" viewBox="0 0 720 432" version="1.1">
<defs>
<g>
<symbol overflow="visible" id="glyph0-0">
<path style="stroke:none;" d=""/>
</symbol>
<symbol overflow="visible" id="glyph0-1">
<path style="stroke:none;" d="M 2.390625 -2.625 L 0.390625 -2.625 L 0.390625 -2.015625 L 2.390625 -2.015625 Z M 2.390625 -2.625 "/>
</symbol>
<symbol overflow="visible" id="glyph0-2">
<path style="stroke:none;" d="M 2.75 -1.46875 L 2.75 0 L 3.484375 0 L 3.484375 -1.46875 L 4.375 -1.46875 L 4.375 -2.140625 L 3.484375 -2.140625 L 3.484375 -6.078125 L 2.9375 -6.078125 L 0.234375 -2.25 L 0.234375 -1.46875 Z M 2.75 -2.140625 L 0.875 -2.140625 L 2.75 -4.8125 Z M 2.75 -2.140625 "/>
</symbol>
<symbol overflow="visible" id="glyph0-3">
<path style="stroke:none;" d="M 4.25 -0.734375 L 1.125 -0.734375 C 1.1875 -1.234375 1.46875 -1.5625 2.1875 -2 L 3.03125 -2.46875 C 3.859375 -2.9375 4.296875 -3.5625 4.296875 -4.296875 C 4.296875 -4.8125 4.09375 -5.28125 3.734375 -5.609375 C 3.390625 -5.921875 2.953125 -6.078125 2.390625 -6.078125 C 1.625 -6.078125 1.0625 -5.8125 0.734375 -5.28125 C 0.53125 -4.96875 0.4375 -4.59375 0.421875 -3.96875 L 1.15625 -3.96875 C 1.1875 -4.390625 1.234375 -4.625 1.34375 -4.828125 C 1.53125 -5.203125 1.921875 -5.4375 2.359375 -5.4375 C 3.03125 -5.4375 3.53125 -4.9375 3.53125 -4.28125 C 3.53125 -3.796875 3.265625 -3.375 2.734375 -3.078125 L 1.953125 -2.625 C 0.71875 -1.90625 0.359375 -1.34375 0.28125 -0.015625 L 4.25 -0.015625 Z M 4.25 -0.734375 "/>
</symbol>
<symbol overflow="visible" id="glyph0-4">
<path style="stroke:none;" d="M 2.3125 -6.078125 C 1.75 -6.078125 1.25 -5.828125 0.9375 -5.40625 C 0.5625 -4.875 0.359375 -4.0625 0.359375 -2.9375 C 0.359375 -0.890625 1.03125 0.1875 2.3125 0.1875 C 3.578125 0.1875 4.265625 -0.890625 4.265625 -2.890625 C 4.265625 -4.0625 4.078125 -4.859375 3.6875 -5.40625 C 3.375 -5.828125 2.875 -6.078125 2.3125 -6.078125 Z M 2.3125 -5.421875 C 3.109375 -5.421875 3.5 -4.609375 3.5 -2.953125 C 3.5 -1.234375 3.125 -0.421875 2.296875 -0.421875 C 1.515625 -0.421875 1.125 -1.265625 1.125 -2.9375 C 1.125 -4.609375 1.515625 -5.421875 2.3125 -5.421875 Z M 2.3125 -5.421875 "/>
</symbol>
<symbol overflow="visible" id="glyph0-5">
<path style="stroke:none;" d="M 4 -5.953125 L 0.921875 -5.953125 L 0.484375 -2.71875 L 1.15625 -2.71875 C 1.5 -3.125 1.796875 -3.265625 2.265625 -3.265625 C 3.0625 -3.265625 3.5625 -2.71875 3.5625 -1.84375 C 3.5625 -0.984375 3.0625 -0.46875 2.25 -0.46875 C 1.609375 -0.46875 1.203125 -0.796875 1.03125 -1.46875 L 0.296875 -1.46875 C 0.390625 -0.96875 0.484375 -0.734375 0.65625 -0.515625 C 0.984375 -0.0625 1.59375 0.1875 2.265625 0.1875 C 3.46875 0.1875 4.3125 -0.6875 4.3125 -1.9375 C 4.3125 -3.125 3.53125 -3.921875 2.390625 -3.921875 C 1.96875 -3.921875 1.625 -3.8125 1.28125 -3.5625 L 1.515625 -5.234375 L 4 -5.234375 Z M 4 -5.953125 "/>
</symbol>
<symbol overflow="visible" id="glyph0-6">
<path style="stroke:none;" d="M 2.171875 -4.328125 L 2.171875 0 L 2.921875 0 L 2.921875 -6.078125 L 2.421875 -6.078125 C 2.171875 -5.140625 2 -5.015625 0.859375 -4.859375 L 0.859375 -4.328125 Z M 2.171875 -4.328125 "/>
</symbol>
<symbol overflow="visible" id="glyph1-0">
<path style="stroke:none;" d=""/>
</symbol>
<symbol overflow="visible" id="glyph1-1">
<path style="stroke:none;" d="M 2.09375 -7.875 L 1.078125 -7.875 L 1.078125 0 L 2.09375 0 Z M 2.09375 -7.875 "/>
</symbol>
<symbol overflow="visible" id="glyph1-2">
<path style="stroke:none;" d="M 0.75 -5.65625 L 0.75 0 L 1.65625 0 L 1.65625 -3.125 C 1.65625 -4.28125 2.265625 -5.03125 3.203125 -5.03125 C 3.90625 -5.03125 4.359375 -4.59375 4.359375 -3.921875 L 4.359375 0 L 5.265625 0 L 5.265625 -4.28125 C 5.265625 -5.21875 4.5625 -5.8125 3.46875 -5.8125 C 2.625 -5.8125 2.078125 -5.5 1.59375 -4.703125 L 1.59375 -5.65625 Z M 0.75 -5.65625 "/>
</symbol>
<symbol overflow="visible" id="glyph1-3">
<path style="stroke:none;" d="M 3.0625 -3.375 L 0.5 -3.375 L 0.5 -2.59375 L 3.0625 -2.59375 Z M 3.0625 -3.375 "/>
</symbol>
<symbol overflow="visible" id="glyph1-4">
<path style="stroke:none;" d="M 4.734375 -4.078125 C 4.71875 -5.1875 3.984375 -5.8125 2.671875 -5.8125 C 1.359375 -5.8125 0.5 -5.140625 0.5 -4.09375 C 0.5 -3.203125 0.953125 -2.78125 2.296875 -2.46875 L 3.140625 -2.25 C 3.765625 -2.109375 4.015625 -1.875 4.015625 -1.484375 C 4.015625 -0.9375 3.484375 -0.578125 2.703125 -0.578125 C 2.21875 -0.578125 1.796875 -0.71875 1.578125 -0.953125 C 1.4375 -1.125 1.375 -1.28125 1.3125 -1.6875 L 0.359375 -1.6875 C 0.40625 -0.375 1.140625 0.25 2.625 0.25 C 4.046875 0.25 4.953125 -0.453125 4.953125 -1.546875 C 4.953125 -2.390625 4.484375 -2.84375 3.359375 -3.125 L 2.5 -3.328125 C 1.765625 -3.5 1.453125 -3.734375 1.453125 -4.140625 C 1.453125 -4.671875 1.90625 -4.984375 2.640625 -4.984375 C 3.375 -4.984375 3.75 -4.671875 3.78125 -4.078125 Z M 4.734375 -4.078125 "/>
</symbol>
<symbol overflow="visible" id="glyph1-5">
<path style="stroke:none;" d="M 5.78125 -0.53125 C 5.671875 -0.5 5.640625 -0.5 5.578125 -0.5 C 5.265625 -0.5 5.09375 -0.671875 5.09375 -0.953125 L 5.09375 -4.28125 C 5.09375 -5.28125 4.359375 -5.8125 2.96875 -5.8125 C 2.140625 -5.8125 1.484375 -5.578125 1.09375 -5.15625 C 0.828125 -4.875 0.71875 -4.546875 0.703125 -3.984375 L 1.609375 -3.984375 C 1.6875 -4.671875 2.09375 -4.984375 2.9375 -4.984375 C 3.75 -4.984375 4.203125 -4.6875 4.203125 -4.140625 L 4.203125 -3.90625 C 4.1875 -3.515625 4 -3.375 3.265625 -3.28125 C 1.984375 -3.125 1.796875 -3.078125 1.453125 -2.9375 C 0.78125 -2.65625 0.453125 -2.15625 0.453125 -1.421875 C 0.453125 -0.40625 1.171875 0.25 2.3125 0.25 C 3.015625 0.25 3.59375 0 4.234375 -0.578125 C 4.296875 0 4.578125 0.25 5.15625 0.25 C 5.359375 0.25 5.46875 0.234375 5.78125 0.15625 Z M 4.203125 -1.78125 C 4.203125 -1.484375 4.109375 -1.296875 3.84375 -1.046875 C 3.484375 -0.71875 3.03125 -0.546875 2.5 -0.546875 C 1.796875 -0.546875 1.390625 -0.875 1.390625 -1.453125 C 1.390625 -2.046875 1.78125 -2.34375 2.75 -2.484375 C 3.71875 -2.609375 3.890625 -2.65625 4.203125 -2.796875 Z M 4.203125 -1.78125 "/>
</symbol>
<symbol overflow="visible" id="glyph1-6">
<path style="stroke:none;" d="M 0.75 -5.65625 L 0.75 0 L 1.65625 0 L 1.65625 -3.546875 C 1.65625 -4.375 2.25 -5.03125 2.984375 -5.03125 C 3.65625 -5.03125 4.03125 -4.625 4.03125 -3.890625 L 4.03125 0 L 4.9375 0 L 4.9375 -3.546875 C 4.9375 -4.375 5.53125 -5.03125 6.265625 -5.03125 C 6.9375 -5.03125 7.3125 -4.609375 7.3125 -3.890625 L 7.3125 0 L 8.234375 0 L 8.234375 -4.25 C 8.234375 -5.265625 7.640625 -5.8125 6.59375 -5.8125 C 5.828125 -5.8125 5.375 -5.59375 4.84375 -4.953125 C 4.515625 -5.5625 4.0625 -5.8125 3.328125 -5.8125 C 2.5625 -5.8125 2.0625 -5.53125 1.59375 -4.859375 L 1.59375 -5.65625 Z M 0.75 -5.65625 "/>
</symbol>
<symbol overflow="visible" id="glyph1-7">
<path style="stroke:none;" d="M 0.578125 2.359375 L 1.484375 2.359375 L 1.484375 -0.59375 C 1.96875 -0.015625 2.5 0.25 3.234375 0.25 C 4.703125 0.25 5.640625 -0.921875 5.640625 -2.734375 C 5.640625 -4.625 4.71875 -5.8125 3.21875 -5.8125 C 2.453125 -5.8125 1.828125 -5.46875 1.421875 -4.796875 L 1.421875 -5.65625 L 0.578125 -5.65625 Z M 3.0625 -4.984375 C 4.0625 -4.984375 4.703125 -4.109375 4.703125 -2.75 C 4.703125 -1.46875 4.046875 -0.59375 3.0625 -0.59375 C 2.109375 -0.59375 1.484375 -1.453125 1.484375 -2.78125 C 1.484375 -4.109375 2.109375 -4.984375 3.0625 -4.984375 Z M 3.0625 -4.984375 "/>
</symbol>
<symbol overflow="visible" id="glyph1-8">
<path style="stroke:none;" d="M 1.640625 -7.875 L 0.734375 -7.875 L 0.734375 0 L 1.640625 0 Z M 1.640625 -7.875 "/>
</symbol>
<symbol overflow="visible" id="glyph1-9">
<path style="stroke:none;" d="M 5.53125 -2.53125 C 5.53125 -3.390625 5.46875 -3.90625 5.3125 -4.328125 C 4.9375 -5.265625 4.078125 -5.8125 3.015625 -5.8125 C 1.453125 -5.8125 0.4375 -4.625 0.4375 -2.75 C 0.4375 -0.890625 1.40625 0.25 3 0.25 C 4.296875 0.25 5.1875 -0.484375 5.421875 -1.71875 L 4.515625 -1.71875 C 4.265625 -0.96875 3.75 -0.578125 3.03125 -0.578125 C 2.46875 -0.578125 1.96875 -0.84375 1.671875 -1.3125 C 1.453125 -1.640625 1.375 -1.96875 1.375 -2.53125 Z M 1.390625 -3.265625 C 1.46875 -4.3125 2.109375 -4.984375 3.015625 -4.984375 C 3.9375 -4.984375 4.5625 -4.28125 4.5625 -3.265625 Z M 1.390625 -3.265625 "/>
</symbol>
<symbol overflow="visible" id="glyph1-10">
<path style="stroke:none;" d="M 5.984375 0 L 7.640625 -5.65625 L 6.625 -5.65625 L 5.5 -1.25 L 4.390625 -5.65625 L 3.296875 -5.65625 L 2.21875 -1.25 L 1.0625 -5.65625 L 0.0625 -5.65625 L 1.703125 0 L 2.71875 0 L 3.8125 -4.4375 L 4.953125 0 Z M 5.984375 0 "/>
</symbol>
<symbol overflow="visible" id="glyph1-11">
<path style="stroke:none;" d="M 1.625 -5.65625 L 0.71875 -5.65625 L 0.71875 0 L 1.625 0 Z M 1.625 -7.875 L 0.71875 -7.875 L 0.71875 -6.734375 L 1.625 -6.734375 Z M 1.625 -7.875 "/>
</symbol>
<symbol overflow="visible" id="glyph1-12">
<path style="stroke:none;" d="M 2.75 -5.65625 L 1.8125 -5.65625 L 1.8125 -7.21875 L 0.921875 -7.21875 L 0.921875 -5.65625 L 0.15625 -5.65625 L 0.15625 -4.921875 L 0.921875 -4.921875 L 0.921875 -0.640625 C 0.921875 -0.0625 1.3125 0.25 2.015625 0.25 C 2.25 0.25 2.4375 0.234375 2.75 0.171875 L 2.75 -0.578125 C 2.609375 -0.546875 2.5 -0.546875 2.3125 -0.546875 C 1.921875 -0.546875 1.8125 -0.640625 1.8125 -1.046875 L 1.8125 -4.921875 L 2.75 -4.921875 Z M 2.75 -5.65625 "/>
</symbol>
<symbol overflow="visible" id="glyph1-13">
<path style="stroke:none;" d="M 0.75 -7.875 L 0.75 0 L 1.65625 0 L 1.65625 -3.125 C 1.65625 -4.28125 2.25 -5.03125 3.1875 -5.03125 C 3.484375 -5.03125 3.765625 -4.9375 3.984375 -4.78125 C 4.25 -4.59375 4.34375 -4.3125 4.34375 -3.921875 L 4.34375 0 L 5.25 0 L 5.25 -4.28125 C 5.25 -5.21875 4.5625 -5.8125 3.46875 -5.8125 C 2.671875 -5.8125 2.1875 -5.578125 1.65625 -4.875 L 1.65625 -7.875 Z M 0.75 -7.875 "/>
</symbol>
<symbol overflow="visible" id="glyph1-14">
<path style="stroke:none;" d=""/>
</symbol>
<symbol overflow="visible" id="glyph1-15">
<path style="stroke:none;" d="M 0.578125 -1.78125 C 0.75 -0.5 1.578125 0.25 2.75 0.25 C 3.59375 0.25 4.34375 -0.15625 4.796875 -0.859375 C 5.28125 -1.625 5.5 -2.578125 5.5 -4 C 5.5 -5.3125 5.296875 -6.140625 4.84375 -6.828125 C 4.421875 -7.46875 3.75 -7.8125 2.921875 -7.8125 C 1.453125 -7.8125 0.40625 -6.71875 0.40625 -5.203125 C 0.40625 -3.765625 1.375 -2.75 2.765625 -2.75 C 3.484375 -2.75 4.03125 -3.015625 4.515625 -3.609375 C 4.5 -1.65625 3.890625 -0.59375 2.8125 -0.59375 C 2.140625 -0.59375 1.671875 -1.03125 1.515625 -1.78125 Z M 2.90625 -6.96875 C 3.796875 -6.96875 4.453125 -6.234375 4.453125 -5.21875 C 4.453125 -4.265625 3.8125 -3.59375 2.875 -3.59375 C 1.953125 -3.59375 1.375 -4.25 1.375 -5.28125 C 1.375 -6.265625 2.015625 -6.96875 2.90625 -6.96875 Z M 2.90625 -6.96875 "/>
</symbol>
<symbol overflow="visible" id="glyph1-16">
<path style="stroke:none;" d="M 5.140625 -7.65625 L 1.1875 -7.65625 L 0.609375 -3.484375 L 1.484375 -3.484375 C 1.9375 -4.015625 2.296875 -4.203125 2.90625 -4.203125 C 3.9375 -4.203125 4.5625 -3.5 4.5625 -2.359375 C 4.5625 -1.265625 3.9375 -0.59375 2.890625 -0.59375 C 2.0625 -0.59375 1.5625 -1.015625 1.328125 -1.875 L 0.375 -1.875 C 0.5 -1.25 0.609375 -0.953125 0.84375 -0.671875 C 1.28125 -0.09375 2.046875 0.25 2.921875 0.25 C 4.453125 0.25 5.53125 -0.875 5.53125 -2.5 C 5.53125 -4 4.53125 -5.046875 3.0625 -5.046875 C 2.53125 -5.046875 2.09375 -4.90625 1.65625 -4.578125 L 1.953125 -6.71875 L 5.140625 -6.71875 Z M 5.140625 -7.65625 "/>
</symbol>
<symbol overflow="visible" id="glyph1-17">
<path style="stroke:none;" d="M 2.15625 -7.390625 C 1.140625 -7.390625 0.3125 -6.5625 0.3125 -5.546875 C 0.3125 -4.53125 1.140625 -3.703125 2.15625 -3.703125 C 3.15625 -3.703125 4 -4.53125 4 -5.53125 C 4 -6.578125 3.1875 -7.390625 2.15625 -7.390625 Z M 2.15625 -6.640625 C 2.765625 -6.640625 3.25 -6.15625 3.25 -5.53125 C 3.25 -4.9375 2.75 -4.453125 2.15625 -4.453125 C 1.5625 -4.453125 1.0625 -4.9375 1.0625 -5.546875 C 1.0625 -6.15625 1.546875 -6.640625 2.15625 -6.640625 Z M 6.578125 -7.65625 L 2.3125 0.21875 L 3.015625 0.21875 L 7.28125 -7.65625 Z M 7.421875 -3.484375 C 6.40625 -3.484375 5.59375 -2.65625 5.59375 -1.640625 C 5.59375 -0.609375 6.40625 0.203125 7.4375 0.203125 C 8.4375 0.203125 9.28125 -0.609375 9.28125 -1.625 C 9.28125 -2.65625 8.46875 -3.484375 7.421875 -3.484375 Z M 7.421875 -2.71875 C 8.046875 -2.71875 8.53125 -2.234375 8.53125 -1.625 C 8.53125 -1.03125 8.03125 -0.546875 7.4375 -0.546875 C 6.828125 -0.546875 6.34375 -1.03125 6.34375 -1.640625 C 6.34375 -2.234375 6.828125 -2.71875 7.421875 -2.71875 Z M 7.421875 -2.71875 "/>
</symbol>
<symbol overflow="visible" id="glyph1-18">
<path style="stroke:none;" d="M 5.078125 -3.75 C 5.046875 -4.3125 4.921875 -4.671875 4.703125 -4.984375 C 4.3125 -5.5 3.640625 -5.8125 2.84375 -5.8125 C 1.3125 -5.8125 0.328125 -4.609375 0.328125 -2.734375 C 0.328125 -0.90625 1.3125 0.25 2.84375 0.25 C 4.1875 0.25 5.046875 -0.5625 5.15625 -1.9375 L 4.25 -1.9375 C 4.09375 -1.03125 3.625 -0.578125 2.859375 -0.578125 C 1.875 -0.578125 1.28125 -1.390625 1.28125 -2.734375 C 1.28125 -4.140625 1.859375 -4.984375 2.84375 -4.984375 C 3.59375 -4.984375 4.078125 -4.546875 4.171875 -3.75 Z M 5.078125 -3.75 "/>
</symbol>
<symbol overflow="visible" id="glyph1-19">
<path style="stroke:none;" d="M 2.9375 -5.8125 C 1.34375 -5.8125 0.390625 -4.6875 0.390625 -2.78125 C 0.390625 -0.875 1.34375 0.25 2.953125 0.25 C 4.546875 0.25 5.5 -0.890625 5.5 -2.75 C 5.5 -4.703125 4.578125 -5.8125 2.9375 -5.8125 Z M 2.953125 -4.984375 C 3.96875 -4.984375 4.5625 -4.15625 4.5625 -2.75 C 4.5625 -1.421875 3.9375 -0.578125 2.953125 -0.578125 C 1.9375 -0.578125 1.328125 -1.421875 1.328125 -2.78125 C 1.328125 -4.15625 1.9375 -4.984375 2.953125 -4.984375 Z M 2.953125 -4.984375 "/>
</symbol>
<symbol overflow="visible" id="glyph1-20">
<path style="stroke:none;" d="M 2.71875 -5.65625 L 1.78125 -5.65625 L 1.78125 -6.546875 C 1.78125 -6.921875 1.984375 -7.109375 2.40625 -7.109375 C 2.484375 -7.109375 2.515625 -7.109375 2.71875 -7.109375 L 2.71875 -7.84375 C 2.515625 -7.890625 2.390625 -7.90625 2.21875 -7.90625 C 1.375 -7.90625 0.890625 -7.421875 0.890625 -6.625 L 0.890625 -5.65625 L 0.125 -5.65625 L 0.125 -4.921875 L 0.890625 -4.921875 L 0.890625 0 L 1.78125 0 L 1.78125 -4.921875 L 2.71875 -4.921875 Z M 4.703125 -5.65625 L 3.8125 -5.65625 L 3.8125 0 L 4.703125 0 Z M 4.703125 -7.875 L 3.8125 -7.875 L 3.8125 -6.734375 L 4.703125 -6.734375 Z M 4.703125 -7.875 "/>
</symbol>
<symbol overflow="visible" id="glyph1-21">
<path style="stroke:none;" d="M 5.34375 -7.875 L 4.453125 -7.875 L 4.453125 -4.9375 C 4.078125 -5.515625 3.46875 -5.8125 2.703125 -5.8125 C 1.234375 -5.8125 0.28125 -4.640625 0.28125 -2.84375 C 0.28125 -0.921875 1.203125 0.25 2.75 0.25 C 3.515625 0.25 4.0625 -0.046875 4.546875 -0.75 L 4.546875 0 L 5.34375 0 Z M 2.859375 -4.984375 C 3.828125 -4.984375 4.453125 -4.125 4.453125 -2.765625 C 4.453125 -1.453125 3.828125 -0.59375 2.875 -0.59375 C 1.875 -0.59375 1.21875 -1.46875 1.21875 -2.78125 C 1.21875 -4.109375 1.875 -4.984375 2.859375 -4.984375 Z M 2.859375 -4.984375 "/>
</symbol>
<symbol overflow="visible" id="glyph1-22">
<path style="stroke:none;" d="M 0.75 -5.65625 L 0.75 0 L 1.65625 0 L 1.65625 -2.9375 C 1.65625 -4.296875 2.21875 -4.90625 3.46875 -4.875 L 3.46875 -5.78125 C 3.3125 -5.8125 3.234375 -5.8125 3.125 -5.8125 C 2.53125 -5.8125 2.09375 -5.46875 1.578125 -4.625 L 1.578125 -5.65625 Z M 0.75 -5.65625 "/>
</symbol>
<symbol overflow="visible" id="glyph1-23">
<path style="stroke:none;" d="M 3.078125 0 L 5.25 -5.65625 L 4.234375 -5.65625 L 2.640625 -1.0625 L 1.125 -5.65625 L 0.109375 -5.65625 L 2.09375 0 Z M 3.078125 0 "/>
</symbol>
<symbol overflow="visible" id="glyph2-0">
<path style="stroke:none;" d=""/>
</symbol>
<symbol overflow="visible" id="glyph2-1">
<path style="stroke:none;" d="M 4.515625 -7.625 L 3.3125 -7.625 L 3.3125 -8.390625 C 3.3125 -8.78125 3.484375 -8.984375 3.859375 -8.984375 C 4.046875 -8.984375 4.234375 -8.96875 4.4375 -8.953125 L 4.4375 -10.453125 C 4 -10.484375 3.59375 -10.5 3.28125 -10.5 C 1.9375 -10.5 1.296875 -9.875 1.296875 -8.5625 L 1.296875 -7.625 L 0.203125 -7.625 L 0.203125 -6.28125 L 1.296875 -6.28125 L 1.296875 0 L 3.3125 0 L 3.3125 -6.28125 L 4.515625 -6.28125 Z M 7.78125 -7.78125 L 5.765625 -7.78125 L 5.765625 0 L 7.78125 0 Z M 7.78125 -10.5 L 5.765625 -10.5 L 5.765625 -8.703125 L 7.78125 -8.703125 Z M 7.78125 -10.5 "/>
</symbol>
<symbol overflow="visible" id="glyph2-2">
<path style="stroke:none;" d="M 2.984375 -10.5 L 0.96875 -10.5 L 0.96875 0 L 2.984375 0 Z M 2.984375 -10.5 "/>
</symbol>
<symbol overflow="visible" id="glyph2-3">
<path style="stroke:none;" d="M 4.34375 -7.625 L 3.21875 -7.625 L 3.21875 -9.703125 L 1.203125 -9.703125 L 1.203125 -7.625 L 0.203125 -7.625 L 0.203125 -6.28125 L 1.203125 -6.28125 L 1.203125 -1.5 C 1.203125 -0.28125 1.84375 0.328125 3.171875 0.328125 C 3.625 0.328125 3.96875 0.28125 4.34375 0.171875 L 4.34375 -1.234375 C 4.140625 -1.203125 4.03125 -1.203125 3.875 -1.203125 C 3.34375 -1.203125 3.21875 -1.359375 3.21875 -2.046875 L 3.21875 -6.28125 L 4.34375 -6.28125 Z M 4.34375 -7.625 "/>
</symbol>
<symbol overflow="visible" id="glyph2-4">
<path style="stroke:none;" d="M 7.546875 -3.25 C 7.5625 -3.421875 7.5625 -3.5 7.5625 -3.59375 C 7.5625 -4.375 7.453125 -5.09375 7.265625 -5.640625 C 6.734375 -7.0625 5.484375 -7.90625 3.921875 -7.90625 C 1.6875 -7.90625 0.3125 -6.296875 0.3125 -3.6875 C 0.3125 -1.203125 1.671875 0.328125 3.875 0.328125 C 5.625 0.328125 7.03125 -0.640625 7.484375 -2.1875 L 5.484375 -2.1875 C 5.25 -1.5625 4.6875 -1.203125 3.953125 -1.203125 C 3.375 -1.203125 2.90625 -1.453125 2.625 -1.890625 C 2.4375 -2.171875 2.359375 -2.515625 2.328125 -3.25 Z M 2.359375 -4.59375 C 2.5 -5.796875 3 -6.375 3.890625 -6.375 C 4.8125 -6.375 5.359375 -5.75 5.453125 -4.59375 Z M 2.359375 -4.59375 "/>
</symbol>
<symbol overflow="visible" id="glyph2-5">
<path style="stroke:none;" d="M 0.90625 -7.78125 L 0.90625 0 L 2.921875 0 L 2.921875 -4.140625 C 2.921875 -5.3125 3.515625 -5.90625 4.703125 -5.90625 C 4.90625 -5.90625 5.0625 -5.890625 5.328125 -5.84375 L 5.328125 -7.890625 C 5.21875 -7.90625 5.171875 -7.90625 5.078125 -7.90625 C 4.15625 -7.90625 3.375 -7.296875 2.921875 -6.25 L 2.921875 -7.78125 Z M 0.90625 -7.78125 "/>
</symbol>
<symbol overflow="visible" id="glyph2-6">
<path style="stroke:none;" d="M 5.828125 0 L 7.84375 0 L 7.84375 -10.5 L 5.828125 -10.5 L 5.828125 -6.765625 C 5.328125 -7.546875 4.671875 -7.90625 3.6875 -7.90625 C 1.828125 -7.90625 0.421875 -6.125 0.421875 -3.78125 C 0.421875 -2.71875 0.734375 -1.65625 1.25 -0.90625 C 1.78125 -0.140625 2.734375 0.328125 3.6875 0.328125 C 4.671875 0.328125 5.328125 -0.015625 5.828125 -0.796875 Z M 4.140625 -6.21875 C 5.15625 -6.21875 5.828125 -5.25 5.828125 -3.75 C 5.828125 -2.328125 5.140625 -1.359375 4.140625 -1.359375 C 3.125 -1.359375 2.4375 -2.34375 2.4375 -3.78125 C 2.4375 -5.234375 3.125 -6.21875 4.140625 -6.21875 Z M 4.140625 -6.21875 "/>
</symbol>
<symbol overflow="visible" id="glyph2-7">
<path style="stroke:none;" d=""/>
</symbol>
<symbol overflow="visible" id="glyph2-8">
<path style="stroke:none;" d="M 7.28125 -5.265625 C 7.25 -6.921875 5.984375 -7.90625 3.890625 -7.90625 C 1.921875 -7.90625 0.6875 -6.921875 0.6875 -5.3125 C 0.6875 -4.796875 0.84375 -4.34375 1.125 -4.046875 C 1.390625 -3.78125 1.640625 -3.640625 2.390625 -3.40625 L 4.796875 -2.65625 C 5.296875 -2.5 5.46875 -2.328125 5.46875 -2.015625 C 5.46875 -1.546875 4.90625 -1.25 3.96875 -1.25 C 3.4375 -1.25 3.046875 -1.34375 2.78125 -1.53125 C 2.5625 -1.6875 2.484375 -1.84375 2.390625 -2.265625 L 0.421875 -2.265625 C 0.46875 -0.546875 1.734375 0.328125 4.09375 0.328125 C 5.171875 0.328125 6 0.09375 6.5625 -0.359375 C 7.140625 -0.828125 7.484375 -1.546875 7.484375 -2.3125 C 7.484375 -3.3125 6.984375 -3.96875 5.96875 -4.265625 L 3.421875 -5 C 2.859375 -5.171875 2.703125 -5.28125 2.703125 -5.609375 C 2.703125 -6.03125 3.171875 -6.328125 3.875 -6.328125 C 4.84375 -6.328125 5.3125 -5.984375 5.328125 -5.265625 Z M 7.28125 -5.265625 "/>
</symbol>
<symbol overflow="visible" id="glyph2-9">
<path style="stroke:none;" d="M 2.984375 -7.78125 L 0.96875 -7.78125 L 0.96875 0 L 2.984375 0 Z M 2.984375 -10.5 L 0.96875 -10.5 L 0.96875 -8.703125 L 2.984375 -8.703125 Z M 2.984375 -10.5 "/>
</symbol>
<symbol overflow="visible" id="glyph2-10">
<path style="stroke:none;" d="M 0.859375 -7.78125 L 0.859375 0 L 2.875 0 L 2.875 -4.671875 C 2.875 -5.640625 3.40625 -6.1875 4.265625 -6.1875 C 4.9375 -6.1875 5.359375 -5.8125 5.359375 -5.1875 L 5.359375 0 L 7.375 0 L 7.375 -4.671875 C 7.375 -5.625 7.890625 -6.1875 8.765625 -6.1875 C 9.4375 -6.1875 9.859375 -5.8125 9.859375 -5.1875 L 9.859375 0 L 11.875 0 L 11.875 -5.5 C 11.875 -7.015625 10.953125 -7.90625 9.390625 -7.90625 C 8.40625 -7.90625 7.71875 -7.5625 7.109375 -6.75 C 6.734375 -7.484375 5.96875 -7.90625 5 -7.90625 C 4.109375 -7.90625 3.53125 -7.625 2.859375 -6.8125 L 2.859375 -7.78125 Z M 0.859375 -7.78125 "/>
</symbol>
<symbol overflow="visible" id="glyph2-11">
<path style="stroke:none;" d="M 7.546875 -0.25 C 7.203125 -0.578125 7.09375 -0.8125 7.09375 -1.203125 L 7.09375 -5.515625 C 7.09375 -7.109375 6 -7.90625 3.90625 -7.90625 C 1.796875 -7.90625 0.703125 -7.015625 0.578125 -5.21875 L 2.515625 -5.21875 C 2.625 -6.015625 2.953125 -6.28125 3.953125 -6.28125 C 4.71875 -6.28125 5.109375 -6.015625 5.109375 -5.5 C 5.109375 -5.25 4.984375 -5.03125 4.765625 -4.890625 C 4.5 -4.75 4.5 -4.75 3.5 -4.59375 L 2.6875 -4.453125 C 1.15625 -4.1875 0.40625 -3.40625 0.40625 -2 C 0.40625 -0.609375 1.34375 0.328125 2.765625 0.328125 C 3.625 0.328125 4.40625 -0.03125 5.125 -0.78125 C 5.125 -0.375 5.171875 -0.234375 5.359375 0 L 7.546875 0 Z M 5.109375 -3.125 C 5.109375 -1.953125 4.53125 -1.296875 3.515625 -1.296875 C 2.84375 -1.296875 2.421875 -1.65625 2.421875 -2.234375 C 2.421875 -2.84375 2.734375 -3.125 3.578125 -3.296875 L 4.265625 -3.421875 C 4.796875 -3.53125 4.890625 -3.5625 5.109375 -3.671875 Z M 5.109375 -3.125 "/>
</symbol>
<symbol overflow="visible" id="glyph2-12">
<path style="stroke:none;" d="M 3.78125 -2.109375 L 1.625 -2.109375 L 1.625 0 L 3.78125 0 Z M 3.78125 -7.484375 L 1.625 -7.484375 L 1.625 -5.390625 L 3.78125 -5.390625 Z M 3.78125 -7.484375 "/>
</symbol>
<symbol overflow="visible" id="glyph2-13">
<path style="stroke:none;" d="M 8.328125 1.734375 L -0.3125 1.734375 L -0.3125 2.71875 L 8.328125 2.71875 Z M 8.328125 1.734375 "/>
</symbol>
<symbol overflow="visible" id="glyph2-14">
<path style="stroke:none;" d="M 7.375 -1.796875 L 3.046875 -1.796875 C 3.3125 -2.34375 3.625 -2.65625 5.125 -3.734375 C 6.90625 -5.03125 7.421875 -5.796875 7.421875 -7.1875 C 7.421875 -9.15625 6.046875 -10.4375 3.921875 -10.4375 C 1.796875 -10.4375 0.5625 -9.171875 0.5625 -7.015625 L 0.5625 -6.65625 L 2.5 -6.65625 L 2.5 -6.984375 C 2.5 -8.125 3.046875 -8.78125 3.96875 -8.78125 C 4.859375 -8.78125 5.40625 -8.171875 5.40625 -7.140625 C 5.40625 -6 5.0625 -5.59375 2.78125 -3.96875 C 1.046875 -2.796875 0.515625 -1.90625 0.4375 0 L 7.375 0 Z M 7.375 -1.796875 "/>
</symbol>
<symbol overflow="visible" id="glyph2-15">
<path style="stroke:none;" d="M 5.765625 -7.78125 L 5.765625 -6.578125 C 5.203125 -7.484375 4.578125 -7.90625 3.765625 -7.90625 C 3.0625 -7.90625 2.3125 -7.5625 1.765625 -7 C 1 -6.1875 0.59375 -5.078125 0.59375 -3.703125 C 0.59375 -1.3125 1.859375 0.328125 3.71875 0.328125 C 4.546875 0.328125 5.0625 0.0625 5.765625 -0.796875 L 5.765625 0.265625 C 5.765625 1.203125 5.09375 1.84375 4.15625 1.84375 C 3.421875 1.84375 2.984375 1.53125 2.828125 0.9375 L 0.75 0.9375 C 0.765625 1.546875 0.984375 1.953125 1.515625 2.390625 C 2.125 2.890625 2.984375 3.140625 4.078125 3.140625 C 6.328125 3.140625 7.671875 2.0625 7.671875 0.265625 L 7.671875 -7.78125 Z M 4.140625 -6.21875 C 5.078125 -6.21875 5.796875 -5.171875 5.796875 -3.734375 C 5.796875 -2.3125 5.109375 -1.359375 4.109375 -1.359375 C 3.234375 -1.359375 2.609375 -2.3125 2.609375 -3.734375 C 2.609375 -5.203125 3.234375 -6.21875 4.140625 -6.21875 Z M 4.140625 -6.21875 "/>
</symbol>
<symbol overflow="visible" id="glyph2-16">
<path style="stroke:none;" d="M 3.9375 -10.4375 C 2.84375 -10.4375 1.90625 -9.96875 1.28125 -9.125 C 0.6875 -8.328125 0.421875 -7.03125 0.421875 -5.046875 C 0.421875 -3.234375 0.640625 -1.953125 1.140625 -1.1875 C 1.75 -0.203125 2.734375 0.328125 3.9375 0.328125 C 5.046875 0.328125 5.953125 -0.109375 6.578125 -0.96875 C 7.15625 -1.75 7.453125 -3.0625 7.453125 -4.984375 C 7.453125 -6.859375 7.21875 -8.125 6.734375 -8.921875 C 6.125 -9.890625 5.125 -10.4375 3.9375 -10.4375 Z M 3.9375 -8.796875 C 4.453125 -8.796875 4.875 -8.515625 5.109375 -7.984375 C 5.3125 -7.546875 5.4375 -6.4375 5.4375 -5.03125 C 5.4375 -3.875 5.328125 -2.75 5.171875 -2.328125 C 4.9375 -1.734375 4.515625 -1.390625 3.9375 -1.390625 C 3.40625 -1.390625 3 -1.671875 2.75 -2.1875 C 2.546875 -2.625 2.4375 -3.6875 2.4375 -5.0625 C 2.4375 -6.265625 2.53125 -7.421875 2.6875 -7.84375 C 2.90625 -8.453125 3.359375 -8.796875 3.9375 -8.796875 Z M 3.9375 -8.796875 "/>
</symbol>
</g>
<clipPath id="clip1">
  <path d="M 37.332031 312 L 714.023438 312 L 714.023438 314 L 37.332031 314 Z M 37.332031 312 "/>
</clipPath>
<clipPath id="clip2">
  <path d="M 37.332031 214 L 714.023438 214 L 714.023438 216 L 37.332031 216 Z M 37.332031 214 "/>
</clipPath>
<clipPath id="clip3">
  <path d="M 37.332031 116 L 714.023438 116 L 714.023438 118 L 37.332031 118 Z M 37.332031 116 "/>
</clipPath>
<clipPath id="clip4">
  <path d="M 40 55.289062 L 41 55.289062 L 41 370.449219 L 40 370.449219 Z M 40 55.289062 "/>
</clipPath>
<clipPath id="clip5">
  <path d="M 224 55.289062 L 225 55.289062 L 225 370.449219 L 224 370.449219 Z M 224 55.289062 "/>
</clipPath>
<clipPath id="clip6">
  <path d="M 407 55.289062 L 409 55.289062 L 409 370.449219 L 407 370.449219 Z M 407 55.289062 "/>
</clipPath>
<clipPath id="clip7">
  <path d="M 591 55.289062 L 592 55.289062 L 592 370.449219 L 591 370.449219 Z M 591 55.289062 "/>
</clipPath>
<clipPath id="clip8">
  <path d="M 37.332031 361 L 714.023438 361 L 714.023438 363 L 37.332031 363 Z M 37.332031 361 "/>
</clipPath>
<clipPath id="clip9">
  <path d="M 37.332031 263 L 714.023438 263 L 714.023438 265 L 37.332031 265 Z M 37.332031 263 "/>
</clipPath>
<clipPath id="clip10">
  <path d="M 37.332031 165 L 714.023438 165 L 714.023438 167 L 37.332031 167 Z M 37.332031 165 "/>
</clipPath>
<clipPath id="clip11">
  <path d="M 37.332031 67 L 714.023438 67 L 714.023438 69 L 37.332031 69 Z M 37.332031 67 "/>
</clipPath>
<clipPath id="clip12">
  <path d="M 132 55.289062 L 133 55.289062 L 133 370.449219 L 132 370.449219 Z M 132 55.289062 "/>
</clipPath>
<clipPath id="clip13">
  <path d="M 315 55.289062 L 317 55.289062 L 317 370.449219 L 315 370.449219 Z M 315 55.289062 "/>
</clipPath>
<clipPath id="clip14">
  <path d="M 499 55.289062 L 500 55.289062 L 500 370.449219 L 499 370.449219 Z M 499 55.289062 "/>
</clipPath>
<clipPath id="clip15">
  <path d="M 683 55.289062 L 684 55.289062 L 684 370.449219 L 683 370.449219 Z M 683 55.289062 "/>
</clipPath>
</defs>
<g id="surface19">
<rect x="0" y="0" width="720" height="432" style="fill:rgb(100%,100%,100%);fill-opacity:1;stroke:none;"/>
<rect x="0" y="0" width="720" height="432" style="fill:rgb(100%,100%,100%);fill-opacity:1;stroke:none;"/>
<g clip-path="url(#clip1)" clip-rule="nonzero">
<path style="fill:none;stroke-width:0.213396;stroke-linecap:butt;stroke-linejoin:round;stroke:rgb(92.156863%,92.156863%,92.156863%);stroke-opacity:1;stroke-miterlimit:10;" d="M 37.332031 312.964844 L 714.023438 312.964844 "/>
</g>
<g clip-path="url(#clip2)" clip-rule="nonzero">
<path style="fill:none;stroke-width:0.213396;stroke-linecap:butt;stroke-linejoin:round;stroke:rgb(92.156863%,92.156863%,92.156863%);stroke-opacity:1;stroke-miterlimit:10;" d="M 37.332031 214.9375 L 714.023438 214.9375 "/>
</g>
<g clip-path="url(#clip3)" clip-rule="nonzero">
<path style="fill:none;stroke-width:0.213396;stroke-linecap:butt;stroke-linejoin:round;stroke:rgb(92.156863%,92.156863%,92.156863%);stroke-opacity:1;stroke-miterlimit:10;" d="M 37.332031 116.914062 L 714.023438 116.914062 "/>
</g>
<g clip-path="url(#clip4)" clip-rule="nonzero">
<path style="fill:none;stroke-width:0.213396;stroke-linecap:butt;stroke-linejoin:round;stroke:rgb(92.156863%,92.156863%,92.156863%);stroke-opacity:1;stroke-miterlimit:10;" d="M 40.746094 370.453125 L 40.746094 55.289062 "/>
</g>
<g clip-path="url(#clip5)" clip-rule="nonzero">
<path style="fill:none;stroke-width:0.213396;stroke-linecap:butt;stroke-linejoin:round;stroke:rgb(92.156863%,92.156863%,92.156863%);stroke-opacity:1;stroke-miterlimit:10;" d="M 224.320312 370.453125 L 224.320312 55.289062 "/>
</g>
<g clip-path="url(#clip6)" clip-rule="nonzero">
<path style="fill:none;stroke-width:0.213396;stroke-linecap:butt;stroke-linejoin:round;stroke:rgb(92.156863%,92.156863%,92.156863%);stroke-opacity:1;stroke-miterlimit:10;" d="M 407.898438 370.453125 L 407.898438 55.289062 "/>
</g>
<g clip-path="url(#clip7)" clip-rule="nonzero">
<path style="fill:none;stroke-width:0.213396;stroke-linecap:butt;stroke-linejoin:round;stroke:rgb(92.156863%,92.156863%,92.156863%);stroke-opacity:1;stroke-miterlimit:10;" d="M 591.476562 370.453125 L 591.476562 55.289062 "/>
</g>
<g clip-path="url(#clip8)" clip-rule="nonzero">
<path style="fill:none;stroke-width:0.426791;stroke-linecap:butt;stroke-linejoin:round;stroke:rgb(92.156863%,92.156863%,92.156863%);stroke-opacity:1;stroke-miterlimit:10;" d="M 37.332031 361.980469 L 714.023438 361.980469 "/>
</g>
<g clip-path="url(#clip9)" clip-rule="nonzero">
<path style="fill:none;stroke-width:0.426791;stroke-linecap:butt;stroke-linejoin:round;stroke:rgb(92.156863%,92.156863%,92.156863%);stroke-opacity:1;stroke-miterlimit:10;" d="M 37.332031 263.953125 L 714.023438 263.953125 "/>
</g>
<g clip-path="url(#clip10)" clip-rule="nonzero">
<path style="fill:none;stroke-width:0.426791;stroke-linecap:butt;stroke-linejoin:round;stroke:rgb(92.156863%,92.156863%,92.156863%);stroke-opacity:1;stroke-miterlimit:10;" d="M 37.332031 165.925781 L 714.023438 165.925781 "/>
</g>
<g clip-path="url(#clip11)" clip-rule="nonzero">
<path style="fill:none;stroke-width:0.426791;stroke-linecap:butt;stroke-linejoin:round;stroke:rgb(92.156863%,92.156863%,92.156863%);stroke-opacity:1;stroke-miterlimit:10;" d="M 37.332031 67.898438 L 714.023438 67.898438 "/>
</g>
<g clip-path="url(#clip12)" clip-rule="nonzero">
<path style="fill:none;stroke-width:0.426791;stroke-linecap:butt;stroke-linejoin:round;stroke:rgb(92.156863%,92.156863%,92.156863%);stroke-opacity:1;stroke-miterlimit:10;" d="M 132.53125 370.453125 L 132.53125 55.289062 "/>
</g>
<g clip-path="url(#clip13)" clip-rule="nonzero">
<path style="fill:none;stroke-width:0.426791;stroke-linecap:butt;stroke-linejoin:round;stroke:rgb(92.156863%,92.156863%,92.156863%);stroke-opacity:1;stroke-miterlimit:10;" d="M 316.109375 370.453125 L 316.109375 55.289062 "/>
</g>
<g clip-path="url(#clip14)" clip-rule="nonzero">
<path style="fill:none;stroke-width:0.426791;stroke-linecap:butt;stroke-linejoin:round;stroke:rgb(92.156863%,92.156863%,92.156863%);stroke-opacity:1;stroke-miterlimit:10;" d="M 499.6875 370.453125 L 499.6875 55.289062 "/>
</g>
<g clip-path="url(#clip15)" clip-rule="nonzero">
<path style="fill:none;stroke-width:0.426791;stroke-linecap:butt;stroke-linejoin:round;stroke:rgb(92.156863%,92.156863%,92.156863%);stroke-opacity:1;stroke-miterlimit:10;" d="M 683.265625 370.453125 L 683.265625 55.289062 "/>
</g>
<path style=" stroke:none;fill-rule:nonzero;fill:rgb(30.196078%,30.196078%,30.196078%);fill-opacity:0.2;" d="M 68.089844 69.617188 L 77.238281 138.371094 L 86.488281 141.644531 L 95.738281 128.035156 L 104.886719 132.71875 L 114.035156 142.546875 L 123.285156 138.355469 L 132.53125 133.511719 L 141.582031 142.988281 L 150.730469 126.835938 L 159.980469 139.859375 L 169.226562 128.820312 L 178.277344 112.113281 L 187.425781 130.878906 L 196.675781 114.859375 L 205.921875 127.441406 L 214.972656 139.734375 L 224.121094 120.820312 L 233.371094 138.683594 L 242.617188 117.390625 L 251.765625 168.128906 L 260.917969 167.011719 L 270.164062 232.714844 L 279.414062 284.613281 L 288.460938 161.421875 L 297.613281 137.773438 L 306.859375 151.359375 L 316.109375 147.34375 L 325.15625 108.066406 L 334.308594 139.371094 L 343.554688 143.449219 L 352.804688 114.746094 L 361.851562 149.976562 L 371.003906 149.332031 L 380.25 173.53125 L 389.5 157.347656 L 398.648438 165.777344 L 407.796875 159.902344 L 417.046875 186.757812 L 426.296875 167.378906 L 435.34375 141.132812 L 444.492188 153.683594 L 453.742188 142.984375 L 462.992188 147.890625 L 472.039062 155.128906 L 481.1875 148.238281 L 490.4375 140.550781 L 499.6875 137.121094 L 508.734375 141.515625 L 517.882812 141.175781 L 527.132812 141.539062 L 536.382812 131.042969 L 545.53125 141.457031 L 554.679688 139.835938 L 563.929688 136.476562 L 573.179688 127.695312 L 582.226562 124.8125 L 591.375 126.28125 L 600.625 126.707031 L 609.875 137.804688 L 618.921875 138.5 L 628.070312 149.671875 L 637.320312 146.53125 L 646.570312 137.46875 L 655.617188 146.65625 L 664.765625 145.371094 L 674.015625 151.730469 L 683.265625 338.464844 L 683.265625 356.125 L 674.015625 169.390625 L 664.765625 163.03125 L 655.617188 164.316406 L 646.570312 155.128906 L 637.320312 164.191406 L 628.070312 167.332031 L 618.921875 156.160156 L 609.875 155.464844 L 600.625 144.367188 L 591.375 143.941406 L 582.226562 142.472656 L 573.179688 145.355469 L 563.929688 154.136719 L 554.679688 157.496094 L 545.53125 159.117188 L 536.382812 148.703125 L 527.132812 159.199219 L 517.882812 158.835938 L 508.734375 159.175781 L 499.6875 154.78125 L 490.4375 158.210938 L 481.1875 165.898438 L 472.039062 172.789062 L 462.992188 165.550781 L 453.742188 160.644531 L 444.492188 171.34375 L 435.34375 158.792969 L 426.296875 185.039062 L 417.046875 204.417969 L 407.796875 177.5625 L 398.648438 183.4375 L 389.5 175.007812 L 380.25 191.191406 L 371.003906 166.992188 L 361.851562 167.636719 L 352.804688 132.40625 L 343.554688 161.109375 L 334.308594 157.03125 L 325.15625 125.726562 L 316.109375 165.003906 L 306.859375 169.019531 L 297.613281 155.433594 L 288.460938 179.082031 L 279.414062 302.273438 L 270.164062 250.375 L 260.917969 184.671875 L 251.765625 185.789062 L 242.617188 135.050781 L 233.371094 156.34375 L 224.121094 138.480469 L 214.972656 157.394531 L 205.921875 145.101562 L 196.675781 132.519531 L 187.425781 148.539062 L 178.277344 129.773438 L 169.226562 146.480469 L 159.980469 157.519531 L 150.730469 144.496094 L 141.582031 160.648438 L 132.53125 151.171875 L 123.285156 156.015625 L 114.035156 160.207031 L 104.886719 150.378906 L 95.738281 145.695312 L 86.488281 159.304688 L 77.238281 156.039062 L 68.089844 261.742188 Z M 68.089844 69.617188 "/>
<path style="fill:none;stroke-width:1.707165;stroke-linecap:butt;stroke-linejoin:round;stroke:rgb(30.196078%,30.196078%,30.196078%);stroke-opacity:1;stroke-miterlimit:10;" d="M 68.089844 165.679688 L 77.238281 147.203125 L 86.488281 150.476562 L 95.738281 136.863281 L 104.886719 141.550781 L 114.035156 151.375 L 123.285156 147.183594 L 132.53125 142.339844 L 141.582031 151.816406 L 150.730469 135.664062 L 159.980469 148.6875 L 169.226562 137.648438 L 178.277344 120.945312 L 187.425781 139.710938 L 196.675781 123.691406 L 205.921875 136.269531 L 214.972656 148.566406 L 224.121094 129.648438 L 233.371094 147.515625 L 242.617188 126.21875 L 251.765625 176.957031 L 260.917969 175.84375 L 270.164062 241.546875 L 279.414062 293.441406 L 288.460938 170.253906 L 297.613281 146.601562 L 306.859375 160.1875 L 316.109375 156.171875 L 325.15625 116.894531 L 334.308594 148.199219 L 343.554688 152.277344 L 352.804688 123.578125 L 361.851562 158.808594 L 371.003906 158.164062 L 380.25 182.359375 L 389.5 166.179688 L 398.648438 174.609375 L 407.796875 168.734375 L 417.046875 195.589844 L 426.296875 176.210938 L 435.34375 149.964844 L 444.492188 162.515625 L 453.742188 151.816406 L 462.992188 156.71875 L 472.039062 163.957031 L 481.1875 157.066406 L 490.4375 149.378906 L 499.6875 145.953125 L 508.734375 150.347656 L 517.882812 150.007812 L 527.132812 150.367188 L 536.382812 139.871094 L 545.53125 150.289062 L 554.679688 148.667969 L 563.929688 145.308594 L 573.179688 136.527344 L 582.226562 133.644531 L 591.375 135.109375 L 600.625 135.535156 L 609.875 146.632812 L 618.921875 147.328125 L 628.070312 158.503906 L 637.320312 155.359375 L 646.570312 146.300781 L 655.617188 155.484375 L 664.765625 154.199219 L 674.015625 160.558594 L 683.265625 347.296875 "/>
<g style="fill:rgb(10.196078%,10.196078%,10.196078%);fill-opacity:1;">
  <use xlink:href="#glyph0-1" x="23.953125" y="364.603516"/>
  <use xlink:href="#glyph0-2" x="26.953125" y="364.603516"/>
</g>
<g style="fill:rgb(10.196078%,10.196078%,10.196078%);fill-opacity:1;">
  <use xlink:href="#glyph0-1" x="23.953125" y="266.576172"/>
  <use xlink:href="#glyph0-3" x="26.953125" y="266.576172"/>
</g>
<g style="fill:rgb(10.196078%,10.196078%,10.196078%);fill-opacity:1;">
  <use xlink:href="#glyph0-4" x="26.953125" y="168.548828"/>
</g>
<g style="fill:rgb(10.196078%,10.196078%,10.196078%);fill-opacity:1;">
  <use xlink:href="#glyph0-3" x="26.953125" y="70.521484"/>
</g>
<g style="fill:rgb(10.196078%,10.196078%,10.196078%);fill-opacity:1;">
  <use xlink:href="#glyph0-3" x="122.53125" y="381.955078"/>
  <use xlink:href="#glyph0-4" x="127.53125" y="381.955078"/>
  <use xlink:href="#glyph0-4" x="132.53125" y="381.955078"/>
  <use xlink:href="#glyph0-5" x="137.53125" y="381.955078"/>
</g>
<g style="fill:rgb(10.196078%,10.196078%,10.196078%);fill-opacity:1;">
  <use xlink:href="#glyph0-3" x="306.109375" y="381.955078"/>
  <use xlink:href="#glyph0-4" x="311.109375" y="381.955078"/>
  <use xlink:href="#glyph0-6" x="316.109375" y="381.955078"/>
  <use xlink:href="#glyph0-4" x="321.109375" y="381.955078"/>
</g>
<g style="fill:rgb(10.196078%,10.196078%,10.196078%);fill-opacity:1;">
  <use xlink:href="#glyph0-3" x="489.6875" y="381.955078"/>
  <use xlink:href="#glyph0-4" x="494.6875" y="381.955078"/>
  <use xlink:href="#glyph0-6" x="499.6875" y="381.955078"/>
  <use xlink:href="#glyph0-5" x="504.6875" y="381.955078"/>
</g>
<g style="fill:rgb(10.196078%,10.196078%,10.196078%);fill-opacity:1;">
  <use xlink:href="#glyph0-3" x="673.265625" y="381.955078"/>
  <use xlink:href="#glyph0-4" x="678.265625" y="381.955078"/>
  <use xlink:href="#glyph0-3" x="683.265625" y="381.955078"/>
  <use xlink:href="#glyph0-4" x="688.265625" y="381.955078"/>
</g>
<path style=" stroke:none;fill-rule:nonzero;fill:rgb(30.196078%,30.196078%,30.196078%);fill-opacity:0.2;" d="M 341.320312 419.273438 L 357.054688 419.273438 L 357.054688 403.539062 L 341.320312 403.539062 Z M 341.320312 419.273438 "/>
<path style="fill:none;stroke-width:1.707165;stroke-linecap:butt;stroke-linejoin:round;stroke:rgb(30.196078%,30.196078%,30.196078%);stroke-opacity:1;stroke-miterlimit:10;" d="M 342.277344 411.40625 L 356.101562 411.40625 "/>
<path style=" stroke:none;fill-rule:nonzero;fill:rgb(30.196078%,30.196078%,30.196078%);fill-opacity:0.2;" d="M 341.320312 419.273438 L 357.054688 419.273438 L 357.054688 403.539062 L 341.320312 403.539062 Z M 341.320312 419.273438 "/>
<path style="fill:none;stroke-width:1.707165;stroke-linecap:butt;stroke-linejoin:round;stroke:rgb(30.196078%,30.196078%,30.196078%);stroke-opacity:1;stroke-miterlimit:10;" d="M 342.277344 411.40625 L 356.101562 411.40625 "/>
<g style="fill:rgb(10.196078%,10.196078%,10.196078%);fill-opacity:1;">
  <use xlink:href="#glyph1-1" x="363.804688" y="415.279297"/>
  <use xlink:href="#glyph1-2" x="366.804688" y="415.279297"/>
  <use xlink:href="#glyph1-3" x="372.804688" y="415.279297"/>
  <use xlink:href="#glyph1-4" x="376.804688" y="415.279297"/>
  <use xlink:href="#glyph1-5" x="381.804688" y="415.279297"/>
  <use xlink:href="#glyph1-6" x="387.804688" y="415.279297"/>
  <use xlink:href="#glyph1-7" x="396.804688" y="415.279297"/>
  <use xlink:href="#glyph1-8" x="402.804688" y="415.279297"/>
  <use xlink:href="#glyph1-9" x="404.804688" y="415.279297"/>
</g>
<g style="fill:rgb(10.196078%,10.196078%,10.196078%);fill-opacity:1;">
  <use xlink:href="#glyph1-10" x="37.332031" y="44.990234"/>
  <use xlink:href="#glyph1-11" x="45.332031" y="44.990234"/>
  <use xlink:href="#glyph1-12" x="47.332031" y="44.990234"/>
  <use xlink:href="#glyph1-13" x="50.332031" y="44.990234"/>
  <use xlink:href="#glyph1-14" x="56.332031" y="44.990234"/>
  <use xlink:href="#glyph1-15" x="59.332031" y="44.990234"/>
  <use xlink:href="#glyph1-16" x="65.332031" y="44.990234"/>
  <use xlink:href="#glyph1-17" x="71.332031" y="44.990234"/>
  <use xlink:href="#glyph1-14" x="81.332031" y="44.990234"/>
  <use xlink:href="#glyph1-18" x="84.332031" y="44.990234"/>
  <use xlink:href="#glyph1-19" x="89.332031" y="44.990234"/>
  <use xlink:href="#glyph1-2" x="95.332031" y="44.990234"/>
  <use xlink:href="#glyph1-20" x="101.332031" y="44.990234"/>
  <use xlink:href="#glyph1-21" x="106.332031" y="44.990234"/>
  <use xlink:href="#glyph1-9" x="112.332031" y="44.990234"/>
  <use xlink:href="#glyph1-2" x="118.332031" y="44.990234"/>
  <use xlink:href="#glyph1-18" x="124.332031" y="44.990234"/>
  <use xlink:href="#glyph1-9" x="129.332031" y="44.990234"/>
  <use xlink:href="#glyph1-14" x="135.332031" y="44.990234"/>
  <use xlink:href="#glyph1-11" x="138.332031" y="44.990234"/>
  <use xlink:href="#glyph1-2" x="140.332031" y="44.990234"/>
  <use xlink:href="#glyph1-12" x="146.332031" y="44.990234"/>
  <use xlink:href="#glyph1-9" x="149.332031" y="44.990234"/>
  <use xlink:href="#glyph1-22" x="155.332031" y="44.990234"/>
  <use xlink:href="#glyph1-23" x="159.332031" y="44.990234"/>
  <use xlink:href="#glyph1-5" x="164.332031" y="44.990234"/>
  <use xlink:href="#glyph1-8" x="170.332031" y="44.990234"/>
  <use xlink:href="#glyph1-4" x="172.332031" y="44.990234"/>
</g>
<g style="fill:rgb(10.196078%,10.196078%,10.196078%);fill-opacity:1;">
  <use xlink:href="#glyph2-1" x="37.332031" y="28.430664"/>
  <use xlink:href="#glyph2-2" x="46.332031" y="28.430664"/>
  <use xlink:href="#glyph2-3" x="50.332031" y="28.430664"/>
  <use xlink:href="#glyph2-4" x="55.332031" y="28.430664"/>
  <use xlink:href="#glyph2-5" x="63.332031" y="28.430664"/>
  <use xlink:href="#glyph2-4" x="69.332031" y="28.430664"/>
  <use xlink:href="#glyph2-6" x="77.332031" y="28.430664"/>
  <use xlink:href="#glyph2-7" x="86.332031" y="28.430664"/>
  <use xlink:href="#glyph2-4" x="90.332031" y="28.430664"/>
  <use xlink:href="#glyph2-8" x="98.332031" y="28.430664"/>
  <use xlink:href="#glyph2-3" x="106.332031" y="28.430664"/>
  <use xlink:href="#glyph2-9" x="111.332031" y="28.430664"/>
  <use xlink:href="#glyph2-10" x="115.332031" y="28.430664"/>
  <use xlink:href="#glyph2-11" x="128.332031" y="28.430664"/>
  <use xlink:href="#glyph2-3" x="136.332031" y="28.430664"/>
  <use xlink:href="#glyph2-4" x="141.332031" y="28.430664"/>
  <use xlink:href="#glyph2-12" x="149.332031" y="28.430664"/>
  <use xlink:href="#glyph2-7" x="154.332031" y="28.430664"/>
  <use xlink:href="#glyph2-5" x="158.332031" y="28.430664"/>
  <use xlink:href="#glyph2-4" x="164.332031" y="28.430664"/>
  <use xlink:href="#glyph2-2" x="172.332031" y="28.430664"/>
  <use xlink:href="#glyph2-4" x="176.332031" y="28.430664"/>
  <use xlink:href="#glyph2-11" x="184.332031" y="28.430664"/>
  <use xlink:href="#glyph2-8" x="192.332031" y="28.430664"/>
  <use xlink:href="#glyph2-4" x="200.332031" y="28.430664"/>
  <use xlink:href="#glyph2-13" x="208.332031" y="28.430664"/>
  <use xlink:href="#glyph2-14" x="216.332031" y="28.430664"/>
  <use xlink:href="#glyph2-13" x="224.332031" y="28.430664"/>
  <use xlink:href="#glyph2-2" x="232.332031" y="28.430664"/>
  <use xlink:href="#glyph2-11" x="236.332031" y="28.430664"/>
  <use xlink:href="#glyph2-15" x="244.332031" y="28.430664"/>
  <use xlink:href="#glyph2-13" x="253.332031" y="28.430664"/>
  <use xlink:href="#glyph2-16" x="261.332031" y="28.430664"/>
</g>
</g>
</svg>
