<svg width="17" height="16" viewBox="0 0 17 16" fill="none" xmlns="http://www.w3.org/2000/svg">
<path d="M15.3011 4.08427C14.5678 2.82782 13.5731 1.83308 12.3168 1.09983C11.0602 0.366548 9.68848 0 8.20052 0C6.71275 0 5.34054 0.36666 4.08427 1.09983C2.82782 1.83304 1.83315 2.82782 1.09983 4.08427C0.366623 5.34069 0 6.71272 0 8.2003C0 9.98723 0.521343 11.5941 1.56429 13.0213C2.60712 14.4486 3.95431 15.4362 5.60574 15.9843C5.79797 16.02 5.94028 15.9949 6.0328 15.9096C6.12536 15.8243 6.17159 15.7174 6.17159 15.5894C6.17159 15.5681 6.16976 15.3759 6.1662 15.0128C6.16254 14.6497 6.16082 14.333 6.16082 14.0627L5.91522 14.1052C5.75863 14.1338 5.56109 14.146 5.32259 14.1426C5.08421 14.1392 4.83674 14.1142 4.58052 14.0678C4.32419 14.0218 4.08577 13.915 3.86508 13.7477C3.6445 13.5804 3.48791 13.3614 3.39535 13.0911L3.28857 12.8454C3.2174 12.6818 3.10535 12.5001 2.95228 12.3009C2.79921 12.1015 2.64441 11.9664 2.48782 11.8952L2.41306 11.8417C2.36325 11.8061 2.31702 11.7632 2.27427 11.7135C2.23156 11.6637 2.19959 11.6139 2.17823 11.564C2.15684 11.514 2.17457 11.4731 2.2316 11.441C2.28863 11.4088 2.39171 11.3932 2.54126 11.3932L2.75474 11.4251C2.89712 11.4537 3.07323 11.5389 3.2833 11.6814C3.49326 11.8237 3.66585 12.0088 3.80113 12.2364C3.96493 12.5284 4.16229 12.7508 4.39375 12.9039C4.62503 13.057 4.85821 13.1334 5.09308 13.1334C5.32794 13.1334 5.53079 13.1156 5.70171 13.0802C5.87243 13.0446 6.03261 12.991 6.18217 12.9199C6.24624 12.4428 6.42067 12.0762 6.70531 11.82C6.29961 11.7774 5.93485 11.7132 5.61086 11.6278C5.28706 11.5423 4.95246 11.4035 4.60726 11.2111C4.26188 11.019 3.97537 10.7805 3.74765 10.4959C3.51989 10.2111 3.33296 9.83726 3.18715 9.37467C3.04125 8.91189 2.96829 8.37806 2.96829 7.77302C2.96829 6.91153 3.24953 6.17843 3.8119 5.57332C3.54846 4.92564 3.57333 4.19958 3.88658 3.3952C4.09303 3.33106 4.39917 3.37919 4.80488 3.5393C5.21066 3.69948 5.50776 3.83669 5.69647 3.95046C5.88519 4.06419 6.03639 4.16057 6.15031 4.23873C6.81246 4.05372 7.49578 3.96119 8.20045 3.96119C8.90512 3.96119 9.58859 4.05372 10.2508 4.23873L10.6565 3.98259C10.934 3.81167 11.2616 3.65505 11.6387 3.51267C12.016 3.37036 12.3045 3.33117 12.5039 3.39531C12.8241 4.19973 12.8526 4.92575 12.5891 5.57343C13.1514 6.17855 13.4328 6.91183 13.4328 7.77313C13.4328 8.37817 13.3596 8.91369 13.2139 9.38002C13.068 9.84642 12.8795 10.2199 12.6482 10.5012C12.4167 10.7825 12.1284 11.0192 11.7832 11.2113C11.4379 11.4035 11.1032 11.5422 10.7794 11.6277C10.4554 11.7132 10.0907 11.7775 9.68497 11.8202C10.055 12.1404 10.24 12.6458 10.24 13.3363V15.5891C10.24 15.7171 10.2845 15.8239 10.3736 15.9093C10.4626 15.9946 10.6031 16.0197 10.7953 15.9839C12.447 15.4359 13.7942 14.4483 14.837 13.021C15.8797 11.5938 16.4012 9.98693 16.4012 8.2C16.4008 6.7126 16.034 5.34069 15.3011 4.08427Z" fill="#484F5E"/>
</svg>
