<svg width="16" height="16" viewBox="0 0 16 16" fill="none" xmlns="http://www.w3.org/2000/svg">
<g clip-path="url(#clip0)">
<path d="M16 2.91333C15.4022 3.18695 14.7659 3.36684 14.1133 3.44666C14.8055 3.01999 15.3195 2.35677 15.56 1.58C14.9267 1.96666 14.2267 2.24666 13.4733 2.39333C13.1693 2.05906 12.7987 1.79208 12.3854 1.60953C11.9721 1.42698 11.5252 1.3329 11.0733 1.33333C10.5707 1.33847 10.0757 1.45745 9.62567 1.68134C9.17561 1.90522 8.78213 2.22819 8.47481 2.62598C8.16749 3.02377 7.95431 3.48603 7.85129 3.97804C7.74827 4.47004 7.75808 4.979 7.88 5.46666C6.56664 5.39496 5.28369 5.04389 4.11681 4.43688C2.94993 3.82988 1.92598 2.98091 1.11333 1.94666C0.689393 2.68832 0.558966 3.56198 0.74781 4.39512C0.936654 5.22825 1.43104 5.96029 2.13333 6.44666C1.61043 6.4276 1.10009 6.28114 0.646667 6.02V6.06666C0.646667 7.69333 1.78 9.05333 3.28 9.36666C2.79747 9.49895 2.2908 9.5172 1.8 9.42C2.22 10.76 3.43333 11.7333 4.86667 11.76C4.191 12.3081 3.41188 12.7146 2.57575 12.9551C1.73963 13.1956 0.863635 13.2653 0 13.16C1.49366 14.1451 3.24408 14.6691 5.03333 14.6667C11.0733 14.6667 14.3667 9.53333 14.3667 5.08666V4.65333C15.0067 4.18 15.56 3.58666 16 2.91333Z" fill="#484F5E"/>
</g>
<defs>
<clipPath id="clip0">
<rect width="16" height="16" fill="white"/>
</clipPath>
</defs>
</svg>
