<?xml version="1.0" encoding="UTF-8" standalone="no"?>
<!-- Created with Inkscape (http://www.inkscape.org/) -->

<svg
   xmlns:dc="http://purl.org/dc/elements/1.1/"
   xmlns:cc="http://creativecommons.org/ns#"
   xmlns:rdf="http://www.w3.org/1999/02/22-rdf-syntax-ns#"
   xmlns:svg="http://www.w3.org/2000/svg"
   xmlns="http://www.w3.org/2000/svg"
   xmlns:sodipodi="http://sodipodi.sourceforge.net/DTD/sodipodi-0.dtd"
   xmlns:inkscape="http://www.inkscape.org/namespaces/inkscape"
   version="1.1"
   id="svg2"
   xml:space="preserve"
   width="1280.0126"
   height="720"
   viewBox="0 0 1280.0126 720"
   sodipodi:docname="workflow.svg"
   inkscape:version="0.92.5 (2060ec1f9f, 2020-04-08)"><metadata
     id="metadata8"><rdf:RDF><cc:Work
         rdf:about=""><dc:format>image/svg+xml</dc:format><dc:type
           rdf:resource="http://purl.org/dc/dcmitype/StillImage" /><dc:title></dc:title></cc:Work></rdf:RDF></metadata><defs
     id="defs6"><clipPath
       clipPathUnits="userSpaceOnUse"
       id="clipPath18"><path
         d="M 0,0.028 H 959.981 V 539.999 H 0 Z"
         id="path16"
         inkscape:connector-curvature="0"
         style="clip-rule:evenodd" /></clipPath></defs><sodipodi:namedview
     pagecolor="#ffffff"
     bordercolor="#666666"
     borderopacity="1"
     objecttolerance="10"
     gridtolerance="10"
     guidetolerance="10"
     inkscape:pageopacity="0"
     inkscape:pageshadow="2"
     inkscape:window-width="1920"
     inkscape:window-height="1057"
     id="namedview4"
     showgrid="false"
     inkscape:zoom="0.7468742"
     inkscape:cx="580.33846"
     inkscape:cy="391.82159"
     inkscape:window-x="0"
     inkscape:window-y="23"
     inkscape:window-maximized="1"
     inkscape:current-layer="g10" /><g
     id="g10"
     inkscape:groupmode="layer"
     inkscape:label="Blogpost images"
     transform="matrix(1.3333333,0,0,-1.3333333,0,720)"><path
       d="M 0,540 H 959.981 V 0.028 H 0 Z"
       style="fill:#ffffff;fill-opacity:1;fill-rule:evenodd;stroke:none"
       id="path20"
       inkscape:connector-curvature="0" /><path
       d="M 0,540 H 960.009 V 0 H 0 Z"
       style="fill:#ffffff;fill-opacity:1;fill-rule:evenodd;stroke:none"
       id="path22"
       inkscape:connector-curvature="0" /><g
       id="g24"><text
         transform="matrix(1,0,0,-1,73.191,441.099)"
         style="font-variant:normal;font-weight:bold;font-size:43.99399948px;font-family:'Liberation Sans';-inkscape-font-specification:LiberationSans-Bold;writing-mode:lr-tb;fill:#000000;fill-opacity:1;fill-rule:nonzero;stroke:none"
         id="text28"><tspan
           x="0 30.091896 42.278233 66.738899 91.199562 115.66022 127.84657 152.30722 179.14357 191.32991 215.79057 227.97691 262.24823 289.04059 306.19824 330.65891 345.26492 357.45126 384.2876 418.47092"
           y="0"
           sodipodi:role="line"
           id="tspan26">A scalable workflow:</tspan></text>
</g><g
       id="g30"><text
         transform="matrix(1,0,0,-1,73.191,393.591)"
         style="font-variant:normal;font-weight:bold;font-size:43.99399948px;font-family:'Liberation Sans';-inkscape-font-specification:LiberationSans-Bold;writing-mode:lr-tb;fill:#000000;fill-opacity:1;fill-rule:nonzero;stroke:none"
         id="text34"><tspan
           x="0 24.460665 41.574329 68.410667 102.59401 129.43034 153.89101 180.72736 207.5197 224.67735 249.13802 261.32437 288.16071 314.99704 327.18338 351.64404 378.48038 405.27274 432.10907 456.56973 481.0304 495.63641 507.91074 534.70306 561.53943"
           y="0"
           sodipodi:role="line"
           id="tspan32">crowdsourcing suggestions</tspan></text>
</g><path
       d="M 40.847,191.367 H 241.285 L 303.647,129.005 241.285,66.643 H 40.847 Z"
       style="fill:#5b9bd5;fill-opacity:1;fill-rule:evenodd;stroke:none"
       id="path36"
       inkscape:connector-curvature="0" /><g
       id="g38"><path
         d="M 40.847,191.367 H 241.285 L 303.647,129.005 241.285,66.643 H 40.847 Z"
         style="fill:none;stroke:#ffffff;stroke-width:0.99211001;stroke-linecap:butt;stroke-linejoin:miter;stroke-miterlimit:3.86369991;stroke-dasharray:none;stroke-opacity:1"
         id="path40"
         inkscape:connector-curvature="0" /></g><g
       id="g42"><text
         transform="matrix(1,0,0,-1,77.187,118.687)"
         style="font-variant:normal;font-weight:normal;font-size:32.00299835px;font-family:'Nimbus Sans L';-inkscape-font-specification:NimbusSansBold;writing-mode:lr-tb;fill:#000000;fill-opacity:1;fill-rule:nonzero;stroke:none"
         id="text46"><tspan
           x="0 23.266182 42.756008 62.437855 80.231522 90.824516 108.52217"
           y="0"
           sodipodi:role="line"
           id="tspan44">Update </tspan></text>
</g><g
       id="g48"><text
         transform="matrix(1,0,0,-1,194.712,118.687)"
         style="font-variant:normal;font-weight:normal;font-size:32.00299835px;font-family:'Nimbus Sans';-inkscape-font-specification:NimbusSans;writing-mode:lr-tb;fill:#000000;fill-opacity:1;fill-rule:nonzero;stroke:none"
         id="text52"><tspan
           x="0 17.793669 35.491325 42.595993"
           y="0"
           sodipodi:role="line"
           id="tspan50">doi </tspan></text>
</g><path
       d="M 251.093,191.367 H 451.531 L 513.893,129.005 451.531,66.643 H 251.093 l 62.362,62.362 z"
       style="fill:#52cab8;fill-opacity:1;fill-rule:evenodd;stroke:none"
       id="path54"
       inkscape:connector-curvature="0" /><g
       id="g56"><path
         d="M 251.093,191.367 H 451.531 L 513.893,129.005 451.531,66.643 H 251.093 l 62.362,62.362 z"
         style="fill:none;stroke:#ffffff;stroke-width:0.99211001;stroke-linecap:butt;stroke-linejoin:miter;stroke-miterlimit:3.86369991;stroke-dasharray:none;stroke-opacity:1"
         id="path58"
         inkscape:connector-curvature="0" /></g><g
       id="g60"><text
         transform="matrix(1,0,0,-1,346.592,135.893)"
         style="font-variant:normal;font-weight:normal;font-size:32.00299835px;font-family:'Nimbus Sans L';-inkscape-font-specification:NimbusSansBold;writing-mode:lr-tb;fill:#000000;fill-opacity:1;fill-rule:nonzero;stroke:none"
         id="text64"><tspan
           x="0 23.170172 41.155857 58.949528"
           y="0"
           sodipodi:role="line"
           id="tspan62">Read</tspan></text>
</g><g
       id="g66" /><g
       id="g68"><text
         transform="matrix(1,0,0,-1,355.011,101.395)"
         style="font-variant:normal;font-weight:normal;font-size:32.00299835px;font-family:'Nimbus Sans';-inkscape-font-specification:NimbusSans;writing-mode:lr-tb;fill:#000000;fill-opacity:1;fill-rule:nonzero;stroke:none"
         id="text72"><tspan
           x="0 17.60165 35.107292 44.004124"
           y="0"
           sodipodi:role="line"
           id="tspan70">data</tspan></text>
</g><path
       d="M 461.31,191.367 H 661.748 L 724.11,129.005 661.748,66.643 H 461.31 l 62.362,62.362 z"
       style="fill:#49bf64;fill-opacity:1;fill-rule:evenodd;stroke:none"
       id="path74"
       inkscape:connector-curvature="0" /><g
       id="g76"><path
         d="M 461.31,191.367 H 661.748 L 724.11,129.005 661.748,66.643 H 461.31 l 62.362,62.362 z"
         style="fill:none;stroke:#ffffff;stroke-width:0.99211001;stroke-linecap:butt;stroke-linejoin:miter;stroke-miterlimit:3.86369991;stroke-dasharray:none;stroke-opacity:1"
         id="path78"
         inkscape:connector-curvature="0" /></g><g
       id="g80"><text
         transform="matrix(1,0,0,-1,565.2,153.213)"
         style="font-variant:normal;font-weight:normal;font-size:32.00299835px;font-family:'Nimbus Sans L';-inkscape-font-specification:NimbusSansBold;writing-mode:lr-tb;fill:#000000;fill-opacity:1;fill-rule:nonzero;stroke:none"
         id="text84"><tspan
           x="0 22.594118 42.179955"
           y="0"
           sodipodi:role="line"
           id="tspan82">Add</tspan></text>
</g><g
       id="g86" /><g
       id="g88"><text
         transform="matrix(1,0,0,-1,542.098,118.687)"
         style="font-variant:normal;font-weight:normal;font-size:32.00299835px;font-family:'Nimbus Sans';-inkscape-font-specification:NimbusSans;writing-mode:lr-tb;fill:#000000;fill-opacity:1;fill-rule:nonzero;stroke:none"
         id="text92"><tspan
           x="0 17.697659 28.098635 45.796291 63.589962 74.182953 81.287621 99.081291 107.97812"
           y="0"
           sodipodi:role="line"
           id="tspan90">preprint </tspan></text>
</g><g
       id="g94"><text
         transform="matrix(1,0,0,-1,570.387,84.104)"
         style="font-variant:normal;font-weight:normal;font-size:32.00299835px;font-family:'Nimbus Sans';-inkscape-font-specification:NimbusSans;writing-mode:lr-tb;fill:#000000;fill-opacity:1;fill-rule:nonzero;stroke:none"
         id="text98"><tspan
           x="0 7.1046662 24.898335 33.507141"
           y="0"
           sodipodi:role="line"
           id="tspan96">info</tspan></text>
</g><path
       d="M 671.556,191.367 H 871.994 L 934.356,129.005 871.994,66.643 H 671.556 l 62.362,62.362 z"
       style="fill:#70ad47;fill-opacity:1;fill-rule:evenodd;stroke:none"
       id="path100"
       inkscape:connector-curvature="0" /><g
       id="g102"><path
         d="M 671.556,191.367 H 871.994 L 934.356,129.005 871.994,66.643 H 671.556 l 62.362,62.362 z"
         style="fill:none;stroke:#ffffff;stroke-width:0.99211001;stroke-linecap:butt;stroke-linejoin:miter;stroke-miterlimit:3.86369991;stroke-dasharray:none;stroke-opacity:1"
         id="path104"
         inkscape:connector-curvature="0" /></g><g
       id="g106"><text
         transform="matrix(1,0,0,-1,755.291,118.687)"
         style="font-variant:normal;font-weight:normal;font-size:32.00299835px;font-family:'Nimbus Sans L';-inkscape-font-specification:NimbusSansBold;writing-mode:lr-tb;fill:#000000;fill-opacity:1;fill-rule:nonzero;stroke:none"
         id="text110"><tspan
           x="0 21.378004 39.075665 58.661499 78.247337 91.304558"
           y="0"
           sodipodi:role="line"
           id="tspan108">Export</tspan></text>
</g><g
       id="g112"
       transform="translate(0,2.7305802)"><text
         transform="scale(1,-1)"
         style="font-variant:normal;font-weight:normal;font-size:28.00600052px;font-family:'Nimbus Sans L';-inkscape-font-specification:NimbusSansBold;writing-mode:lr-tb;fill:#1f4e79;fill-opacity:1;fill-rule:nonzero;stroke:none"
         id="text116"
         x="77.929665"
         y="-255.005"><tspan
           x="77.929665 98.121994 113.69333 129.26466 140.159 147.94467 155.73033 172.89801 189.89766 206.89731"
           y="-255.005"
           sodipodi:role="line"
           id="tspan114">User input</tspan></text>
</g><g
       id="g118"
       transform="translate(27.382754)"><text
         transform="matrix(1,0,0,-1,496.29,255.005)"
         style="font-variant:normal;font-weight:normal;font-size:28.00600052px;font-family:'Nimbus Sans L';-inkscape-font-specification:NimbusSansBold;writing-mode:lr-tb;fill:#385623;fill-opacity:1;fill-rule:nonzero;stroke:none"
         id="text122"><tspan
           x="0 19.800241 36.799885 45.78981 62.789452 87.686783 103.20211 112.41608 127.98742"
           y="0"
           sodipodi:role="line"
           id="tspan120">Automated</tspan></text>
</g><g
       id="g124"><path
         d="m 270.34,204.18 v 0 0.737 0.737 l 0.029,0.737 0.028,0.737 0.028,0.708 0.029,0.709 0.056,0.709 0.029,0.68 0.056,0.652 0.057,0.652 0.057,0.623 0.085,0.624 0.085,0.567 0.056,0.567 0.085,0.538 0.114,0.511 0.085,0.482 0.085,0.453 0.113,0.425 0.114,0.369 0.085,0.368 0.113,0.312 0.114,0.284 0.113,0.255 0.142,0.198 0.113,0.17 0.113,0.142 0.114,0.085 0.142,0.057 0.113,0.028 319.776,0.057 v 0 l 0.114,0.028 0.141,0.057 0.114,0.085 0.113,0.142 0.114,0.17 0.141,0.198 0.114,0.255 0.113,0.284 0.113,0.311 0.114,0.369 0.085,0.397 0.113,0.397 0.085,0.453 0.114,0.482 0.085,0.51 0.085,0.539 0.085,0.567 0.057,0.595 0.085,0.624 0.056,0.623 0.057,0.652 0.057,0.681 0.028,0.68 0.057,0.68 0.028,0.737 0.028,0.709 0.029,0.737 0.028,0.737 v 0.737 0.737 0 -0.709 -0.737 l 0.028,-0.708 0.029,-0.709 0.028,-0.68 0.028,-0.709 0.029,-0.68 0.056,-0.652 0.029,-0.652 0.057,-0.652 0.085,-0.595 0.056,-0.624 0.057,-0.567 0.085,-0.567 0.085,-0.51 0.085,-0.51 0.085,-0.482 0.085,-0.454 0.114,-0.425 0.085,-0.397 0.113,-0.368 0.085,-0.341 0.113,-0.283 0.114,-0.284 0.113,-0.226 0.114,-0.199 0.113,-0.17 0.113,-0.113 0.142,-0.085 0.113,-0.057 0.114,-0.028 H 916.98 v 0 l 0.113,-0.029 0.142,-0.056 0.113,-0.085 0.113,-0.142 0.114,-0.17 0.142,-0.199 0.113,-0.255 0.113,-0.283 0.114,-0.312 0.085,-0.368 0.113,-0.369 0.114,-0.425 0.085,-0.454 0.085,-0.482 0.113,-0.51 0.085,-0.538 0.057,-0.567 0.085,-0.596 0.085,-0.595 0.056,-0.624 0.057,-0.651 0.057,-0.681 0.028,-0.68 0.057,-0.709 0.028,-0.708 0.029,-0.709 0.028,-0.737 0.028,-0.737 v -0.737 -0.737"
         style="fill:none;stroke:#385623;stroke-width:2.23933005;stroke-linecap:butt;stroke-linejoin:miter;stroke-miterlimit:3.86369991;stroke-dasharray:none;stroke-opacity:1"
         id="path126"
         inkscape:connector-curvature="0" /></g><g
       id="g128"><path
         d="m 40.564,204.18 v 0 0.737 0.737 l 0.028,0.737 0.028,0.737 0.029,0.708 0.028,0.709 0.057,0.709 0.028,0.68 0.057,0.652 0.057,0.652 0.056,0.623 0.085,0.624 0.085,0.567 0.057,0.567 0.085,0.538 0.113,0.511 0.086,0.482 0.085,0.453 0.113,0.425 0.113,0.369 0.085,0.368 0.114,0.312 0.113,0.284 0.114,0.255 0.141,0.198 0.114,0.17 0.113,0.142 0.113,0.085 0.142,0.057 0.114,0.028 101.877,0.057 v 0 l 0.113,0.028 0.142,0.057 0.113,0.085 0.114,0.142 0.113,0.17 0.142,0.198 0.113,0.255 0.113,0.284 0.114,0.311 0.113,0.369 0.085,0.397 0.114,0.397 0.085,0.453 0.113,0.482 0.085,0.51 0.085,0.539 0.085,0.567 0.057,0.595 0.085,0.624 0.057,0.623 0.056,0.652 0.057,0.681 0.028,0.68 0.057,0.68 0.028,0.737 0.029,0.709 0.028,0.737 0.028,0.737 v 0.737 0.737 0 -0.709 -0.737 l 0.029,-0.708 0.028,-0.709 0.028,-0.68 0.029,-0.709 0.028,-0.68 0.057,-0.652 0.028,-0.652 0.057,-0.652 0.085,-0.595 0.057,-0.624 0.056,-0.567 0.085,-0.567 0.085,-0.51 0.085,-0.51 0.086,-0.482 0.085,-0.454 0.113,-0.425 0.085,-0.397 0.113,-0.368 0.085,-0.341 0.114,-0.283 0.113,-0.284 0.114,-0.226 0.113,-0.199 0.113,-0.17 0.114,-0.113 0.141,-0.085 0.114,-0.057 0.113,-0.028 h 101.906 v 0 l 0.113,-0.029 0.142,-0.056 0.113,-0.085 0.114,-0.142 0.113,-0.17 0.142,-0.199 0.113,-0.255 0.114,-0.283 0.113,-0.312 0.085,-0.368 0.113,-0.369 0.114,-0.425 0.085,-0.454 0.085,-0.482 0.113,-0.51 0.085,-0.538 0.057,-0.567 0.085,-0.596 0.085,-0.595 0.057,-0.624 0.056,-0.651 0.057,-0.681 0.028,-0.68 0.057,-0.709 0.028,-0.708 0.029,-0.709 0.028,-0.737 0.028,-0.737 v -0.737 -0.737"
         style="fill:none;stroke:#1f4e79;stroke-width:2.23933005;stroke-linecap:butt;stroke-linejoin:miter;stroke-miterlimit:3.86369991;stroke-dasharray:none;stroke-opacity:1"
         id="path130"
         inkscape:connector-curvature="0" /></g></g></svg>