<svg width="66" height="57" viewBox="0 0 66 57" fill="none" xmlns="http://www.w3.org/2000/svg">
<circle opacity="0.2" cx="28.5" cy="28.5" r="28.5" fill="#5593E3"/>
<path d="M62.7188 16.2047H56.4844V11.0485C56.4844 9.23918 55.0124 7.76721 53.2031 7.76721H30.7969C28.9876 7.76721 27.5156 9.23918 27.5156 11.0485V23.611H21.2812C19.472 23.611 18 25.0829 18 26.8922V41.7985C18 43.6077 19.472 45.0797 21.2812 45.0797H24.8438V47.8869C24.8438 48.7815 25.3411 49.5852 26.1418 49.9844C26.4757 50.1508 26.8339 50.2329 27.19 50.2328C27.6878 50.2328 28.1815 50.0725 28.598 49.7586L34.8075 45.0796H43.6875C45.4968 45.0796 46.9688 43.6076 46.9688 41.7984V37.6734H49.1925L55.4019 42.3523C55.8186 42.6663 56.3121 42.8266 56.81 42.8265C57.166 42.8265 57.5244 42.7445 57.8582 42.5782C58.6589 42.179 59.1562 41.3753 59.1562 40.4806V37.6735H62.7188C64.528 37.6735 66 36.2015 66 34.3922V19.486C66 17.6767 64.528 16.2047 62.7188 16.2047ZM63.1875 34.3922C63.1875 34.6507 62.9772 34.861 62.7188 34.861H57.75C56.9734 34.861 56.3438 35.4906 56.3438 36.2672V39.5405L50.5093 35.1441C50.2655 34.9603 49.9684 34.8609 49.663 34.8609H40.3125C40.054 34.8609 39.8438 34.6506 39.8438 34.3921V19.4859C39.8438 19.2274 40.054 19.0171 40.3125 19.0171H62.7188C62.9772 19.0171 63.1875 19.2274 63.1875 19.4859V34.3922ZM43.6875 42.2672H34.337C34.0316 42.2672 33.7345 42.3667 33.4907 42.5504L27.6562 46.9467V43.6735C27.6562 42.8968 27.0266 42.2672 26.25 42.2672H21.2812C21.0228 42.2672 20.8125 42.0569 20.8125 41.7985V26.8922C20.8125 26.6337 21.0228 26.4235 21.2812 26.4235H37.0312V34.3922C37.0312 36.2015 38.5032 37.6735 40.3125 37.6735H44.1562V41.7985C44.1562 42.0568 43.946 42.2672 43.6875 42.2672ZM30.7969 10.5797H53.2031C53.4616 10.5797 53.6719 10.79 53.6719 11.0485V16.2047H40.3125C38.5032 16.2047 37.0312 17.6767 37.0312 19.486V23.611H30.3281V11.0485C30.3281 10.79 30.5384 10.5797 30.7969 10.5797Z" fill="#484F5E"/>
</svg>
