<svg width="66" height="57" viewBox="0 0 66 57" fill="none" xmlns="http://www.w3.org/2000/svg">
<circle opacity="0.2" cx="28.5" cy="28.5" r="28.5" fill="#5593E3"/>
<g clip-path="url(#clip0)">
<path d="M19.4076 38.9368H40.7893C41.4738 43.7007 45.5816 47.3742 50.532 47.3742C51.6914 47.3742 52.8043 47.1721 53.8381 46.8023L58.799 51.7632C60.4479 53.4121 63.1154 53.4124 64.7646 51.7632C66.4094 50.1184 66.4094 47.4422 64.7646 45.7975L59.8038 40.8366C60.1735 39.8028 60.3756 38.6899 60.3756 37.5305C60.3756 33.6116 58.0735 30.2207 54.7507 28.638V6.40621C54.7507 5.6296 54.1211 4.99998 53.3445 4.99998H19.4077C18.6311 4.99998 18.0015 5.6296 18.0015 6.40621V37.5306C18.0014 38.3072 18.631 38.9368 19.4076 38.9368ZM62.776 47.7863C63.3241 48.3345 63.3241 49.2264 62.776 49.7746C62.226 50.3244 61.3376 50.3244 60.7877 49.7746L56.4242 45.4112C57.1777 44.8464 57.8478 44.1763 58.4125 43.4229L62.776 47.7863ZM57.5631 37.5306C57.5631 41.4076 54.4089 44.5617 50.532 44.5617C46.655 44.5617 43.5009 41.4076 43.5009 37.5306C43.5009 33.6536 46.655 30.4995 50.532 30.4995C54.4089 30.4995 57.5631 33.6536 57.5631 37.5306ZM50.532 27.687C45.5816 27.687 41.4738 31.3605 40.7893 36.1244H20.8138V13.4373H51.9382V27.7879C51.4787 27.7219 51.0094 27.687 50.532 27.687ZM51.9382 10.6249H49.1258V7.81243H51.9382V10.6249ZM46.3133 7.81243V10.6249H20.8138V7.81243H46.3133Z" fill="#484F5E"/>
<path d="M38.2267 19.3219C37.4902 19.0765 36.6936 19.4745 36.448 20.2113L33.6355 28.6486C33.39 29.3854 33.7881 30.1818 34.5249 30.4274C35.2604 30.6725 36.0576 30.276 36.3037 29.538L39.1161 21.1007C39.3617 20.3638 38.9636 19.5675 38.2267 19.3219Z" fill="#484F5E"/>
<path d="M31.8831 19.8211C31.4219 19.1961 30.5414 19.0631 29.9166 19.5243L24.198 23.743C23.8386 24.0081 23.6265 24.4281 23.6265 24.8746C23.6265 25.3211 23.8386 25.7411 24.198 26.0062L29.9166 30.2249C30.5467 30.6898 31.4258 30.5478 31.8831 29.9281C32.3441 29.3031 32.2112 28.4227 31.5862 27.9616L27.4015 24.8746L31.5862 21.7876C32.2112 21.3265 32.3441 20.4461 31.8831 19.8211Z" fill="#484F5E"/>
<path d="M48.5634 23.7496L42.9385 19.5309C42.3173 19.0649 41.4358 19.191 40.9698 19.8122C40.5038 20.4335 40.6298 21.3149 41.2511 21.7809L45.376 24.8746L41.2511 27.9683C40.6298 28.4343 40.5038 29.3157 40.9698 29.937C41.4336 30.5553 42.3143 30.6864 42.9385 30.2182L48.5634 25.9996C48.9175 25.734 49.1259 25.3172 49.1259 24.8746C49.1259 24.432 48.9176 24.0152 48.5634 23.7496Z" fill="#484F5E"/>
</g>
<defs>
<clipPath id="clip0">
<rect width="48" height="48" fill="white" transform="translate(18 4.99998)"/>
</clipPath>
</defs>
</svg>
