<svg width="48" height="48" fill="none" xmlns="http://www.w3.org/2000/svg"><path d="M24 47C11.297 47 1 36.703 1 24S11.297 1 24 1s23 10.297 23 23-10.297 23-23 23z" stroke="#fff" stroke-width="2"/><path d="M24 7.5c9.113 0 16.5 7.387 16.5 16.5S33.113 40.5 24 40.5 7.5 33.113 7.5 24 14.887 7.5 24 7.5" stroke="#fff" stroke-width="2"/><path d="M26.255 14.068c.583 0 1.055.537 1.055 1.198v9.273a.856.856 0 01-.206.564l-.66.749a.877.877 0 000 1.129l.66.748c.132.15.206.353.206.565v4.439c0 .661-.472 1.197-1.055 1.197h-4.51c-.583 0-1.056-.536-1.056-1.197V23.46c0-.212.075-.415.206-.565l.66-.748a.877.877 0 000-1.13l-.66-.748a.856.856 0 01-.206-.564v-4.439c0-.662.473-1.198 1.056-1.198h4.51z" stroke="#fff" stroke-width="2"/></svg>