<svg width="32" height="32" viewBox="0 0 32 32" fill="none" xmlns="http://www.w3.org/2000/svg">
<circle cx="16" cy="16" r="15" stroke="#43D5EC" stroke-width="2"/>
<path d="M22.5 15.9744C22.5 15.9041 22.4688 15.8416 22.4219 15.7947L19.4219 13.0604C19.3438 12.9979 19.2422 12.9822 19.1484 13.0213C19.0547 13.0604 19 13.1463 19 13.2479V14.9979H9.25C9.10937 14.9979 9 15.1072 9 15.2479V16.7479C9 16.8885 9.10937 16.9979 9.25 16.9979H19V18.7479C19 18.8494 19.0625 18.9354 19.1484 18.9744C19.2422 19.0135 19.3438 18.9979 19.4219 18.9275L22.4219 16.1619C22.4688 16.115 22.5 16.0447 22.5 15.9744Z" fill="#484F5E"/>
</svg>
