<svg width="679" height="615" viewBox="0 0 679 615" fill="none" xmlns="http://www.w3.org/2000/svg">
<path fill-rule="evenodd" clip-rule="evenodd" d="M377.041 445.433L479.534 537.073L619.543 503.53L517.049 411.891L377.041 445.433Z" fill="#447ED3"/>
<path fill-rule="evenodd" clip-rule="evenodd" d="M414.556 320.252L377.041 445.434L517.049 411.892L554.565 286.71L414.556 320.252Z" fill="#4A85D6"/>
<path fill-rule="evenodd" clip-rule="evenodd" d="M554.565 286.71L657.058 378.35L619.543 503.531L517.049 411.892L554.565 286.71Z" fill="#457BCD"/>
<path fill-rule="evenodd" clip-rule="evenodd" d="M554.565 286.71L657.059 378.349L797.067 344.807L694.574 253.168L554.565 286.71Z" fill="#447ED3"/>
<path fill-rule="evenodd" clip-rule="evenodd" d="M592.081 161.528L554.565 286.71L694.574 253.167L732.089 127.986L592.081 161.528Z" fill="#4A85D6"/>
<path fill-rule="evenodd" clip-rule="evenodd" d="M732.089 127.986L834.582 219.626L797.067 344.807L694.573 253.168L732.089 127.986Z" fill="#457BCD"/>
<path fill-rule="evenodd" clip-rule="evenodd" d="M134.539 387.336L237.032 478.976L377.041 445.433L274.547 353.794L134.539 387.336Z" fill="#447ED3"/>
<path fill-rule="evenodd" clip-rule="evenodd" d="M172.053 262.156L134.538 387.337L274.547 353.795L312.062 228.613L172.053 262.156Z" fill="#4A85D6"/>
<path fill-rule="evenodd" clip-rule="evenodd" d="M312.062 228.614L414.556 320.253L377.04 445.434L274.547 353.795L312.062 228.614Z" fill="#457BCD"/>
<path fill-rule="evenodd" clip-rule="evenodd" d="M312.062 228.613L414.556 320.253L554.565 286.71L452.071 195.071L312.062 228.613Z" fill="#447ED3"/>
<path fill-rule="evenodd" clip-rule="evenodd" d="M349.578 103.431L312.062 228.613L452.071 195.07L489.586 69.889L349.578 103.431Z" fill="#4A85D6"/>
<path fill-rule="evenodd" clip-rule="evenodd" d="M489.586 69.8893L592.08 161.528L554.565 286.71L452.071 195.071L489.586 69.8893Z" fill="#457BCD"/>
<path fill-rule="evenodd" clip-rule="evenodd" d="M489.587 69.889L592.08 161.528L732.089 127.986L629.595 36.3468L489.587 69.889Z" fill="#447ED3"/>
<path fill-rule="evenodd" clip-rule="evenodd" d="M527.102 -55.2916L489.586 69.8899L629.595 36.3476L667.11 -88.8338L527.102 -55.2916Z" fill="#4A85D6"/>
<path fill-rule="evenodd" clip-rule="evenodd" d="M667.111 -88.834L769.604 2.80516L732.089 127.987L629.595 36.3475L667.111 -88.834Z" fill="#457BCD"/>
<path fill-rule="evenodd" clip-rule="evenodd" d="M69.56 170.517L172.054 262.156L312.062 228.613L209.569 136.974L69.56 170.517Z" fill="#447ED3"/>
<path fill-rule="evenodd" clip-rule="evenodd" d="M107.075 45.3346L69.56 170.516L209.569 136.974L247.084 11.7924L107.075 45.3346Z" fill="#4A85D6"/>
<path fill-rule="evenodd" clip-rule="evenodd" d="M247.084 11.7925L349.577 103.432L312.062 228.613L209.569 136.974L247.084 11.7925Z" fill="#457BCD"/>
<path fill-rule="evenodd" clip-rule="evenodd" d="M247.084 11.7926L349.578 103.432L489.587 69.8895L387.093 -21.7496L247.084 11.7926Z" fill="#447ED3"/>
<path fill-rule="evenodd" clip-rule="evenodd" d="M284.599 -113.389L247.084 11.7927L387.092 -21.7496L424.608 -146.931L284.599 -113.389Z" fill="#4A85D6"/>
<path fill-rule="evenodd" clip-rule="evenodd" d="M424.608 -146.931L527.101 -55.2922L489.586 69.8892L387.093 -21.75L424.608 -146.931Z" fill="#457BCD"/>
</svg>
