<svg width="14" height="6" viewBox="0 0 14 6" fill="none" xmlns="http://www.w3.org/2000/svg">
<path d="M13.5 2.97656C13.5 2.90625 13.4688 2.84375 13.4219 2.79687L10.4219 0.0624994C10.3438 -3.57628e-07 10.2422 -0.0156257 10.1484 0.0234373C10.0547 0.0624994 10 0.148437 10 0.25V2H0.25C0.109375 2 0 2.10937 0 2.25V3.75C0 3.89062 0.109375 4 0.25 4H10V5.75C10 5.85156 10.0625 5.9375 10.1484 5.97656C10.2422 6.01562 10.3438 6 10.4219 5.92969L13.4219 3.16406C13.4688 3.11719 13.5 3.04687 13.5 2.97656Z" fill="white"/>
</svg>
