<svg width="32" height="32" viewBox="0 0 32 32" fill="none" xmlns="http://www.w3.org/2000/svg">
<path d="M29.8535 7.96868C28.4227 5.51725 26.482 3.57645 24.0308 2.14584C21.5792 0.715158 18.9028 0 15.9997 0C13.097 0 10.4197 0.715377 7.96868 2.14584C5.51725 3.57638 3.57659 5.51725 2.14584 7.96868C0.715304 10.42 0 13.0969 0 15.9993C0 19.4857 1.01717 22.6208 3.05203 25.4053C5.08667 28.1901 7.71511 30.117 10.9372 31.1863C11.3122 31.2559 11.5899 31.207 11.7704 31.0407C11.951 30.8742 12.0412 30.6656 12.0412 30.4159C12.0412 30.3743 12.0376 29.9994 12.0307 29.291C12.0235 28.5825 12.0201 27.9645 12.0201 27.4372L11.541 27.5201C11.2354 27.576 10.85 27.5997 10.3847 27.593C9.91962 27.5865 9.43679 27.5378 8.93689 27.4472C8.43677 27.3573 7.9716 27.149 7.54101 26.8226C7.11065 26.4963 6.80513 26.069 6.62454 25.5416L6.41621 25.0622C6.27735 24.7431 6.05874 24.3885 5.76009 23.9999C5.46143 23.6109 5.15941 23.3472 4.8539 23.2083L4.70803 23.1039C4.61084 23.0345 4.52065 22.9508 4.43725 22.8537C4.35392 22.7566 4.29153 22.6594 4.24987 22.562C4.20813 22.4646 4.24272 22.3847 4.35399 22.3221C4.46527 22.2594 4.66637 22.2289 4.95817 22.2289L5.37467 22.2912C5.65246 22.3469 5.99606 22.5132 6.40592 22.7911C6.81557 23.0688 7.15231 23.4298 7.41624 23.8741C7.73584 24.4437 8.12089 24.8777 8.57249 25.1763C9.02372 25.475 9.47868 25.6241 9.93691 25.6241C10.3952 25.6241 10.7909 25.5893 11.1244 25.5202C11.4575 25.4508 11.77 25.3463 12.0618 25.2076C12.1868 24.2766 12.5271 23.5615 13.0825 23.0616C12.2909 22.9784 11.5793 22.8531 10.9472 22.6865C10.3154 22.5197 9.66255 22.249 8.98906 21.8737C8.3152 21.4988 7.7562 21.0334 7.31189 20.4781C6.86752 19.9225 6.50283 19.1931 6.21832 18.2906C5.93368 17.3877 5.79132 16.3461 5.79132 15.1656C5.79132 13.4848 6.34003 12.0545 7.43725 10.8739C6.92327 9.61024 6.97179 8.19364 7.58297 6.62425C7.98575 6.49911 8.58307 6.59301 9.37462 6.90539C10.1663 7.21791 10.746 7.48563 11.1142 7.7076C11.4824 7.9295 11.7774 8.11753 11.9996 8.27004C13.2915 7.90906 14.6247 7.72854 15.9996 7.72854C17.3745 7.72854 18.7079 7.90906 19.9999 8.27004L20.7915 7.77028C21.3329 7.43682 21.9722 7.13123 22.7078 6.85344C23.4439 6.57579 24.0068 6.49932 24.3959 6.62446C25.0206 8.19393 25.0763 9.61046 24.5622 10.8741C25.6593 12.0547 26.2082 13.4854 26.2082 15.1659C26.2082 16.3463 26.0654 17.3912 25.7812 18.301C25.4966 19.211 25.1288 19.9396 24.6775 20.4885C24.2258 21.0373 23.6632 21.4991 22.9897 21.8739C22.3161 22.2489 21.663 22.5196 21.0312 22.6865C20.3992 22.8533 19.6875 22.9786 18.896 23.0619C19.6179 23.6867 19.979 24.6729 19.979 26.02V30.4154C19.979 30.6651 20.0658 30.8735 20.2396 31.0401C20.4132 31.2064 20.6873 31.2554 21.0624 31.1857C24.2849 30.1165 26.9133 28.1895 28.9479 25.4047C30.9822 22.6202 31.9998 19.4851 31.9998 15.9987C31.999 13.0967 31.2834 10.42 29.8535 7.96868Z" fill="white"/>
</svg>
