<svg width="135" height="48" viewBox="0 0 135 48" fill="none" xmlns="http://www.w3.org/2000/svg">
<path d="M72.6333 27.8422C72.5813 27.5646 72.5119 27.2697 72.4425 26.9922C72.3558 26.6626 72.2343 26.3503 72.0956 26.0381C72.0782 26.0034 72.0609 25.9513 72.0435 25.9167C70.8292 23.2625 68.1751 21.3717 65.1046 21.3196C62.4505 21.2676 60.0913 22.5686 58.6514 24.5636C58.3392 24.9799 58.079 25.4483 57.8535 25.934C57.8361 25.9687 57.8188 26.0034 57.8014 26.0554C57.6626 26.3677 57.5585 26.6799 57.4545 27.0095C57.3677 27.2871 57.3157 27.5646 57.2636 27.8596C57.2116 28.1198 57.1769 28.3973 57.1596 28.6749C57.1422 28.9004 57.1422 29.1086 57.1422 29.3341C57.1422 29.6984 57.1769 30.0627 57.2463 30.4096C57.2983 30.7392 57.3677 31.0515 57.4545 31.3637C58.3912 34.573 61.3229 36.9669 64.8097 37.0363C67.4638 37.0883 69.8231 35.7873 71.2629 33.7923L67.2383 32.3178C66.6659 32.8556 65.9199 33.1678 65.1393 33.2025C63.7862 33.2719 62.6413 32.5954 62.0341 31.3464C61.8954 31.0515 61.7739 30.7392 61.7045 30.3923H61.9648H68.2965H72.6854C72.7201 30.1667 72.7548 29.9239 72.7721 29.681C72.7895 29.4555 72.7895 29.2473 72.7895 29.0218C72.7374 28.6228 72.7027 28.2238 72.6333 27.8422ZM61.6525 27.8422C61.7392 27.5473 61.8433 27.2524 61.9821 26.9922C62.1729 26.6279 62.3984 26.3156 62.676 26.0381H62.6933H62.676C62.7107 26.0034 62.7627 25.9687 62.7974 25.934C63.3525 25.4483 64.0291 25.136 64.7577 25.1013C65.6597 25.0493 66.4577 25.3615 67.0822 25.934C67.1169 25.9687 67.1689 26.0034 67.2036 26.0554C67.4638 26.3156 67.6894 26.6452 67.8628 27.0095C67.9843 27.2697 68.0883 27.5473 68.1751 27.8596H67.6373H61.6525V27.8422Z" fill="white"/>
<path d="M21.9792 10.8419C21.9792 7.87555 20.175 5.3255 17.6076 4.23262C16.7403 3.86832 15.8035 3.66016 14.8147 3.66016H6.36659H6.34924L6.36659 23.6443H10.7208V18.0064H13.9474L16.7056 23.6443H21.4587L18.1975 17.1564C20.4526 15.9421 21.9792 13.5655 21.9792 10.8419ZM17.625 10.8419C17.625 12.4032 16.3586 13.6696 14.7974 13.6696H10.7208V8.01433H14.7974C16.3586 8.01433 17.625 9.28069 17.625 10.8419Z" fill="white"/>
<path d="M27.3916 17.2431V15.6992L23.6966 19.0819L27.3916 22.6208V21.0769C30.9131 21.0769 33.0121 24.13 33.0121 27.2352C33.0121 30.3403 30.8437 33.4976 27.3916 33.4976C23.6446 33.4976 21.7711 30.3403 21.7711 27.2352H17.3995C17.3995 32.7516 21.8751 37.2272 27.3916 37.2272C32.908 37.2272 37.3836 32.7516 37.3836 27.2352C37.401 21.7014 32.9254 17.2431 27.3916 17.2431Z" fill="white"/>
<path d="M119.488 30.8433C119.003 32.3005 117.806 33.1331 116.47 33.2025C114.943 33.2719 113.694 32.4046 113.139 30.8259C113.018 30.479 112.931 30.0974 112.896 29.681C112.879 29.4555 112.862 29.23 112.862 28.9871C112.862 28.8831 112.862 28.7616 112.879 28.6575C112.914 28.2412 112.983 27.8596 113.122 27.4953C113.625 26.0901 114.805 25.1534 116.123 25.084C117.65 25.0146 118.899 25.9167 119.436 27.5126L123.721 26.7493C122.715 23.6615 119.835 21.3717 116.453 21.3196C112.914 21.2502 109.913 23.5748 108.872 26.7493C108.646 27.4259 108.525 28.1545 108.49 28.9004C108.49 29.0392 108.49 29.178 108.49 29.3167C108.49 29.3514 108.49 29.4035 108.49 29.4382C108.508 30.1841 108.646 30.8953 108.872 31.5892C109.878 34.6771 112.758 36.9669 116.14 37.0189C119.679 37.0883 122.68 34.7638 123.721 31.5892L119.488 30.8433Z" fill="white"/>
<path d="M130.209 21.7881H125.855V36.6894H130.209V21.7881Z" fill="white"/>
<path d="M129.897 18.8737H126.236C126.046 18.8737 125.872 18.7176 125.872 18.5094V14.8665C125.872 14.6757 126.028 14.5022 126.236 14.5022H129.897C130.088 14.5022 130.261 14.6583 130.261 14.8665V18.5268C130.261 18.7176 130.088 18.8737 129.897 18.8737Z" fill="white"/>
<path d="M105.749 27.2005C104.414 25.5004 101.1 24.3208 99.4869 23.731C98.0471 23.2106 97.5267 22.7943 97.544 22.083C97.5961 20.7299 98.9145 20.435 99.7992 20.435C101.759 20.435 102.054 22.4994 102.054 22.4994L105.905 21.5452C105.905 21.5452 105.159 16.6707 99.1573 16.6707C97.2144 16.6707 95.0981 17.8156 93.9878 19.2728C92.999 20.5738 92.8776 22.1698 93.5195 23.7657C94.3695 25.8994 96.1216 26.5413 97.891 27.1831C99.2094 27.6688 100.979 28.1546 102.089 29.2648C102.627 29.8026 102.731 30.722 102.349 31.5026C101.95 32.3526 100.823 32.9424 99.7298 32.9424C97.3359 32.9424 96.3644 30.7914 96.3297 30.7046L96.2083 30.4097L91.8715 31.2771L91.9756 31.6414C91.9929 31.6934 92.3745 32.9945 93.5368 34.3129C94.6123 35.5272 96.5726 36.9844 99.8512 36.9844C102.644 36.9844 104.865 35.7874 106.062 33.619C107.189 31.6067 107.241 29.0913 105.749 27.2005Z" fill="white"/>
<path d="M48.2257 21.3371C46.6471 21.3024 45.0164 21.7534 44.1664 22.5514V21.8228H39.8123V43.6631H44.1664V35.8568C44.9297 36.5854 46.4736 37.019 47.9308 37.0537C52.3544 37.1405 55.4769 33.4802 55.4075 29.0566C55.3207 24.8759 52.389 21.4238 48.2257 21.3371ZM47.7747 33.2373C45.745 33.3414 44.1838 31.7628 44.1664 29.074V28.9699C44.1838 26.7841 45.6756 25.1882 47.4104 25.1014C49.44 24.9974 51.0186 26.68 51.0186 29.3689C51.0186 31.7455 49.5094 33.1332 47.7747 33.2373Z" fill="white"/>
<path d="M82.7468 21.3892C80.1447 21.3892 78.9304 23.1065 78.9304 23.1065V21.7881H74.8711V36.6895H78.9304C78.9304 36.6895 78.9304 31.971 78.9304 29.6812C78.9304 27.2352 80.0579 25.2923 82.0529 25.2923C84.0478 25.2923 85.1234 27.027 85.1234 29.6812V36.6895H89.2347C89.2347 36.6895 89.2347 29.9934 89.2347 28.3801C89.2347 26.7842 88.853 21.3892 82.7468 21.3892Z" fill="white"/>
</svg>
