<?xml version="1.0" encoding="utf-8"?>
<!-- Generator: Adobe Illustrator 24.2.1, SVG Export Plug-In . SVG Version: 6.00 Build 0)  -->
<svg version="1.1" id="Layer_1" xmlns="http://www.w3.org/2000/svg" xmlns:xlink="http://www.w3.org/1999/xlink" x="0px" y="0px"
	 viewBox="0 0 1800 1450" style="enable-background:new 0 0 1800 1450;" xml:space="preserve">
<style type="text/css">
	.st0{fill:#BBBBBB;}
	.st1{fill:#545454;}
	.st2{fill:#BABABA;}
</style>
<g>
	<g>
		<g id="Grouped_1_">
			<g id="Logo_Mark_1_">
				<g>
					<path class="st0" d="M463.5,442.4c0,53.1,9.6,103.9,27.1,150.9l69.7-191.5c9.7-26.7-4.1-56.2-30.7-65.9
						c-20.5-7.4-42.5-1-56.1,14.4C467,379.9,463.5,410.7,463.5,442.4z"/>
					<path class="st1" d="M538.2,312.2c26.4,9.6,56.2-4.1,65.9-30.7l78.4-215.6c-77.3,44.1-139.6,111.2-177.8,192
						C502.1,281.1,515.6,304,538.2,312.2z"/>
				</g>
				<g>
					<path class="st2" d="M1150.1,641.2c-9.7,26.7-39.2,40.4-65.9,30.7c-26.7-9.7-40.4-39.2-30.8-65.9c9.7-26.7,39.2-40.4,65.9-30.7
						C1146.1,585,1159.8,614.5,1150.1,641.2z"/>
					<path class="st0" d="M1086,817.4c-9.7,26.8-39.5,40.4-65.9,30.8c-26.4-9.6-40.4-39.2-30.7-65.9l20.3-56
						c9.7-26.7,39.2-40.4,65.9-30.8c26.7,9.7,40.4,39.2,30.7,65.9L1086,817.4z"/>
					<path class="st0" d="M1193.9,520.9c-9.7,26.7-39.4,40.4-65.8,30.8c-26.5-9.6-40.5-39.2-30.8-65.9l88.8-244
						c9.7-26.7,39.2-40.4,65.9-30.7c26.7,9.7,40.4,39.2,30.7,65.9L1193.9,520.9z"/>
				</g>
				<g>
					<path class="st1" d="M1329.8,442.4c0-52.8-9.5-103.4-26.8-150.2l-59.6,164c-9.7,26.7,4.3,56.2,30.7,65.9
						c17.4,6.3,36.2,2.6,49.8-8.3C1327.7,490.5,1329.8,466.7,1329.8,442.4z"/>
					<path class="st2" d="M1298.1,605.2c5.5-24.8-8.1-50.5-32.5-59.5c-26.7-9.7-56.2,4.1-65.9,30.7l-88.2,242.1
						C1195.3,770.5,1261.5,695.5,1298.1,605.2z"/>
				</g>
				<g>
					<path class="st0" d="M999.1,312.2c-9.8,26.7-39.5,40.4-65.9,30.8c-26.5-9.7-40.4-39.3-30.7-65.9L979.6,65
						c9.7-26.7,39.2-40.5,66-30.7c26.6,9.7,40.4,39.2,30.6,65.9L999.1,312.2z"/>
					<path class="st0" d="M871.7,511.8c-26.7-9.8-56.2,4-65.9,30.7L701.5,829c30.4,15.3,62.7,27.2,96.7,35.1l104.3-286.5
						C912.2,550.9,898.4,521.4,871.7,511.8z"/>
				</g>
				<g>
					<path class="st0" d="M726.1,168.1c26.4,9.6,56.1-4,65.9-30.7L837,13.4c-43.2,5.9-84.3,18.3-122.5,36l-19.2,52.8
						C685.7,128.9,699.6,158.4,726.1,168.1z"/>
					<path class="st2" d="M748.2,257.6c-9.8,26.7-39.2,40.5-65.9,30.8c-26.7-9.7-40.5-39.2-30.8-65.9c9.7-26.7,39.3-40.5,65.9-30.8
						C744.1,201.4,757.9,230.9,748.2,257.6z"/>
					<path class="st2" d="M611.1,483.8c-26.4-9.6-40.4-39.1-30.8-65.8l-69.8,191.7c-9.7,26.7,4.3,56.2,30.7,65.9
						c26.4,9.6,56.1-4.1,65.8-30.7L677,453.1C667.3,479.8,637.6,493.5,611.1,483.8z"/>
					<path class="st0" d="M677,453.1c-9.7,26.7-39.4,40.3-65.9,30.7c-26.5-9.6-40.4-39.2-30.7-65.9l27.4-75.3
						c9.7-26.7,39.3-40.4,65.9-30.7c26.7,9.7,40.4,39.2,30.8,65.9L677,453.1z"/>
				</g>
				<g>
					<path class="st1" d="M1182.9,179l16.8-46c-25.7-25.1-54.4-47.1-85.7-65.2l-27.7,76c-9.7,26.7,4.3,56.3,30.7,65.9
						C1143.5,219.3,1173.2,205.7,1182.9,179z"/>
					<path class="st2" d="M896.7,875.5c11.2,0,22.3-0.6,33.2-1.4l10.9-29.9c9.7-26.7-4-56.2-30.7-65.9c-26.7-9.7-56.2,4-65.9,30.7
						l-21.9,60C846.5,873.2,871.3,875.5,896.7,875.5z"/>
					<path d="M984.8,723.4c-9.7,26.7-39.5,40.3-65.9,30.6c-26.5-9.5-40.5-39.1-30.7-65.9l154.3-424.1c9.8-26.7,39.3-40.4,65.9-30.7
						c26.7,9.7,40.4,39.2,30.7,65.9L984.8,723.4z"/>
				</g>
				<g>
					<path class="st2" d="M864.3,10.6c-6.8,25.4,7,52.4,32.1,61.5c26.4,9.6,56.1-4,65.9-30.7l9.3-25.5c-24.3-4.3-49.3-6.6-74.9-6.6
						C885.8,9.2,875,9.8,864.3,10.6z"/>
					<path class="st1" d="M679.9,817.3l53.1-146c-9.9,26.4-39.2,40-65.7,30.4c-26.7-9.7-40.5-39.2-30.7-65.9v0l-42.4,116.5
						C619.8,777.3,648.6,799.2,679.9,817.3z"/>
					<path class="st0" d="M733.1,670.8c-9.8,26.8-39.2,40.5-65.9,30.8c-26.7-9.7-40.4-39.3-30.7-65.9c9.7-26.7,39.2-40.5,65.8-30.8
						C729.1,614.7,742.8,644.2,733.1,670.8z"/>
					<path d="M920.6,367c-10.3-3.8-20.9-4.6-31-3c-13.6,1.7-42.8,1.1-29.2-42.4c0,0,0,0,0,0L919,160.3c9.7-26.7-4-56.2-30.7-65.9
						c-26.7-9.7-56.2,4.1-65.9,30.7L680,516.3c-9.7,26.7,4.3,56.3,30.7,65.9c26.4,9.6,56.1-4,65.9-30.7l25.8-70.8c0,0,0,0,0.1,0
						c17.6-42.3,40.5-23.5,49.7-13.6c6.7,7.7,15.4,13.8,25.6,17.5c32.5,11.9,68.5-4.9,80.3-37.4C969.9,414.7,953.1,378.8,920.6,367z
						"/>
				</g>
			</g>
		</g>
		<g>
			<g>
				<path d="M8.2,1066.4c0-2.6,2.1-5,5-5h109.4c2.9,0,5,2.4,5,5v28.8c0,2.6-2.1,5-5,5H49.4v38h60.2c2.6,0,5,2.4,5,5v28.8
					c0,2.6-2.4,5-5,5H49.4v64.2c0,2.6-2.4,5-5,5H13.3c-2.9,0-5-2.4-5-5V1066.4z"/>
				<path d="M183.7,1066.4c0-2.6,2.1-5,5-5h79c31.7,0,57.6,25.6,57.6,57c0,24.3-16.1,43.9-39.1,53.1l36.2,67.1
					c1.9,3.4,0,7.7-4.5,7.7h-35.1c-2.1,0-3.7-1.3-4.2-2.4l-35.1-70h-18.2v67.4c0,2.6-2.4,5-5,5h-31.4c-2.9,0-5-2.4-5-5V1066.4z
					 M264.3,1140.4c10.8,0,20.1-10,20.1-21.1c0-11.1-9.2-20.1-20.1-20.1h-39.1v41.2H264.3z"/>
				<path d="M379.9,1066.4c0-2.6,2.1-5,5-5h109.4c2.9,0,5,2.4,5,5v28.8c0,2.6-2.1,5-5,5h-73.2v32.8h60.2c2.6,0,5,2.4,5,5v28.8
					c0,2.9-2.4,5-5,5h-60.2v35.7h73.2c2.9,0,5,2.4,5,5v28.8c0,2.6-2.1,5-5,5H384.9c-2.9,0-5-2.4-5-5V1066.4z"/>
				<path d="M562.3,1066.4c0-2.6,2.1-5,4.8-5h64.4c51,0,92.7,41.5,92.7,92.2c0,51.2-41.7,92.7-92.7,92.7h-64.4c-2.6,0-4.8-2.4-4.8-5
					V1066.4z M628.9,1207.2c29.8,0,51.5-23.5,51.5-53.6c0-29.8-21.7-53.4-51.5-53.4h-25.4v107H628.9z"/>
				<path d="M853.1,1066.4c0-2.6,2.4-5,5-5h31.4c2.9,0,5,2.4,5,5v66.6h75.5v-66.6c0-2.6,2.1-5,5-5h31.4c2.6,0,5,2.4,5,5v174.9
					c0,2.6-2.4,5-5,5h-31.4c-2.9,0-5-2.4-5-5v-69.5h-75.5v69.5c0,2.6-2.1,5-5,5h-31.4c-2.6,0-5-2.4-5-5V1066.4z"/>
				<path d="M1070.9,1066.4c0-2.6,2.4-5,5-5h32.5c2.9,0,5,2.4,5,5v107c0,18.5,13.7,33.3,32.5,33.3c19,0,33-14.8,33-33.3v-107
					c0-2.6,2.1-5,5-5h32.5c2.6,0,5,2.4,5,5v109.1c0,40.1-33.8,73.4-75.5,73.4c-41.5,0-75-33.3-75-73.4V1066.4z"/>
				<path d="M1310.2,1100.3h-37.8c-2.9,0-5-2.4-5-5v-28.8c0-2.6,2.1-5,5-5h117.3c2.9,0,5,2.4,5,5v28.8c0,2.6-2.1,5-5,5h-37.8v141
					c0,2.6-2.4,5-5,5h-31.7c-2.6,0-5-2.4-5-5V1100.3z"/>
				<path d="M1520.1,1058.8c26.4,0,46,8.2,63.9,24.6c2.4,2.1,2.4,5.3,0.3,7.4l-20.6,21.4c-1.9,1.8-4.8,1.8-6.6,0
					c-9.8-8.7-22.7-13.5-35.7-13.5c-29.8,0-51.8,24.8-51.8,54.4c0,29.3,22.2,53.6,52,53.6c12.4,0,25.9-4.5,35.4-12.7
					c1.9-1.6,5.3-1.6,6.9,0.3l20.6,21.9c1.9,1.9,1.6,5.3-0.3,7.1c-18,17.4-40.7,25.6-64.2,25.6c-52.8,0-95.4-42-95.4-94.8
					C1424.8,1101.3,1467.3,1058.8,1520.1,1058.8z"/>
				<path d="M1631.6,1066.4c0-2.6,2.4-5,5-5h31.4c2.9,0,5,2.4,5,5v66.6h75.5v-66.6c0-2.6,2.1-5,5-5h31.4c2.6,0,5,2.4,5,5v174.9
					c0,2.6-2.4,5-5,5h-31.4c-2.9,0-5-2.4-5-5v-69.5h-75.5v69.5c0,2.6-2.1,5-5,5h-31.4c-2.6,0-5-2.4-5-5V1066.4z"/>
			</g>
			<g>
				<path d="M252.1,1336.4c13.3,0,23,4.2,32,12.3c1.2,1.1,1.2,2.6,0.1,3.7l-8.1,8.3c-0.9,1-2.2,1-3.3,0c-5.5-4.9-12.9-7.8-20.3-7.8
					c-16.9,0-29.4,14.1-29.4,30.8c0,16.5,12.7,30.5,29.6,30.5c7.9,0,14.7-3,20.2-7.5c1.1-0.9,2.5-0.8,3.3,0l8.2,8.4
					c1.1,0.9,0.8,2.6-0.1,3.6c-9,8.7-20.3,12.8-32.1,12.8c-26.4,0-47.7-21-47.7-47.4C204.4,1357.6,225.7,1336.4,252.1,1336.4z"/>
				<path d="M312.2,1340.2c0-1.3,1.2-2.5,2.5-2.5h12.5c1.5,0,2.5,1.2,2.5,2.5v54c0,11.2,7.7,20.1,19.1,20.1s19.3-8.9,19.3-19.9
					v-54.1c0-1.3,1.1-2.5,2.5-2.5h12.5c1.3,0,2.5,1.2,2.5,2.5v54.9c0,20.1-16,36.3-36.8,36.3c-20.7,0-36.7-16.2-36.7-36.3V1340.2z"
					/>
				<path d="M416.9,1340.2c0-1.3,1-2.5,2.5-2.5h37.8c15.9,0,28.8,12.7,28.8,28.4c0,12.1-8.1,22-19.5,26.7l18.1,33.5
					c0.9,1.7,0,3.8-2.2,3.8h-13.9c-1.2,0-1.9-0.7-2.1-1.2l-17.6-35h-14.7v33.7c0,1.3-1.2,2.5-2.5,2.5h-12.2c-1.5,0-2.5-1.2-2.5-2.5
					V1340.2z M455.7,1379.8c7,0,13.1-6.1,13.1-13.5c0-7-6.1-12.8-13.1-12.8h-21.5v26.3H455.7z"/>
				<path d="M516.8,1340.2c0-1.3,1-2.5,2.5-2.5H573c1.5,0,2.5,1.2,2.5,2.5v10.8c0,1.3-1.1,2.5-2.5,2.5H534v21.7h32.6
					c1.3,0,2.5,1.2,2.5,2.5v11c0,1.5-1.2,2.5-2.5,2.5H534v23.1H573c1.5,0,2.5,1.2,2.5,2.5v10.8c0,1.3-1.1,2.5-2.5,2.5h-53.7
					c-1.5,0-2.5-1.2-2.5-2.5V1340.2z"/>
				<path d="M603.7,1417.2l4.8-8.2c1.1-1.9,3.3-1.9,4.5-0.9c0.7,0.4,11.4,8.2,19.9,8.2c6.9,0,12-4.5,12-10.2
					c0-6.7-5.7-11.4-16.8-15.9c-12.4-5-24.8-12.9-24.8-28.5c0-11.7,8.7-25.3,29.7-25.3c13.5,0,23.8,6.9,26.4,8.9
					c1.3,0.8,1.7,3,0.8,4.4l-5,7.5c-1.1,1.6-3,2.6-4.6,1.6c-1-0.7-11.1-7.3-18.3-7.3c-7.5,0-11.6,5-11.6,9.2
					c0,6.2,4.9,10.4,15.6,14.8c12.8,5.2,27.6,12.8,27.6,29.8c0,13.6-11.8,26.1-30.4,26.1c-16.6,0-26.4-7.8-29-10.3
					C603.1,1419.9,602.5,1419.3,603.7,1417.2z"/>
				<path d="M736.1,1417.2l4.7-8.2c1.1-1.9,3.3-1.9,4.5-0.9c0.7,0.4,11.4,8.2,19.9,8.2c6.9,0,12-4.5,12-10.2
					c0-6.7-5.7-11.4-16.8-15.9c-12.4-5-24.8-12.9-24.8-28.5c0-11.7,8.7-25.3,29.7-25.3c13.5,0,23.8,6.9,26.4,8.9
					c1.3,0.8,1.7,3,0.8,4.4l-5,7.5c-1.1,1.6-3,2.6-4.6,1.6c-1.1-0.7-11.1-7.3-18.3-7.3c-7.5,0-11.6,5-11.6,9.2
					c0,6.2,4.9,10.4,15.6,14.8c12.8,5.2,27.6,12.8,27.6,29.8c0,13.6-11.7,26.1-30.4,26.1c-16.6,0-26.4-7.8-29-10.3
					C735.6,1419.9,734.9,1419.3,736.1,1417.2z"/>
				<path d="M840.1,1353.5h-20.2c-1.5,0-2.5-1.2-2.5-2.5v-10.8c0-1.3,1-2.5,2.5-2.5h57.7c1.5,0,2.5,1.2,2.5,2.5v10.8
					c0,1.3-1.1,2.5-2.5,2.5h-20.2v74.1c0,1.3-1.2,2.5-2.5,2.5h-12.3c-1.3,0-2.5-1.2-2.5-2.5V1353.5z"/>
				<path d="M888.8,1426.7l41.1-88.8c0.4-0.8,1.1-1.5,2.2-1.5h1.3c1.3,0,1.8,0.7,2.2,1.5l40.7,88.8c0.8,1.7-0.3,3.4-2.2,3.4h-11.5
					c-2,0-2.9-0.8-3.8-2.6l-6.5-14.3h-39.5l-6.4,14.3c-0.5,1.3-1.7,2.6-3.8,2.6H891C889,1430.1,888,1428.4,888.8,1426.7z
					 M945.8,1398.5l-13.2-29h-0.4l-12.9,29H945.8z"/>
				<path d="M999.6,1340.2c0-1.3,1.1-2.5,2.5-2.5h37.8c15.8,0,28.8,12.7,28.8,28.4c0,12.1-8,22-19.5,26.7l18.1,33.5
					c0.9,1.7,0,3.8-2.2,3.8h-13.9c-1.2,0-1.9-0.7-2.1-1.2l-17.6-35h-14.7v33.7c0,1.3-1.2,2.5-2.5,2.5h-12.1c-1.5,0-2.5-1.2-2.5-2.5
					V1340.2z M1038.4,1379.8c7,0,13.1-6.1,13.1-13.5c0-7-6.1-12.8-13.1-12.8h-21.5v26.3H1038.4z"/>
				<path d="M1113.7,1353.5h-20.2c-1.5,0-2.5-1.2-2.5-2.5v-10.8c0-1.3,1.1-2.5,2.5-2.5h57.7c1.5,0,2.5,1.2,2.5,2.5v10.8
					c0,1.3-1,2.5-2.5,2.5H1131v74.1c0,1.3-1.2,2.5-2.5,2.5h-12.3c-1.3,0-2.5-1.2-2.5-2.5V1353.5z"/>
				<path d="M1228.5,1340.2c0-1.3,1.2-2.5,2.5-2.5h12.3c1.5,0,2.5,1.2,2.5,2.5v35h43v-35c0-1.3,1-2.5,2.5-2.5h12.1
					c1.3,0,2.5,1.2,2.5,2.5v87.4c0,1.3-1.2,2.5-2.5,2.5h-12.1c-1.5,0-2.5-1.2-2.5-2.5v-36.4h-43v36.4c0,1.3-1.1,2.5-2.5,2.5H1231
					c-1.3,0-2.5-1.2-2.5-2.5V1340.2z"/>
				<path d="M1342.6,1340.2c0-1.3,1.1-2.5,2.5-2.5h53.7c1.5,0,2.5,1.2,2.5,2.5v10.8c0,1.3-1.1,2.5-2.5,2.5h-39.1v21.7h32.6
					c1.3,0,2.5,1.2,2.5,2.5v11c0,1.5-1.2,2.5-2.5,2.5h-32.6v23.1h39.1c1.5,0,2.5,1.2,2.5,2.5v10.8c0,1.3-1.1,2.5-2.5,2.5h-53.7
					c-1.5,0-2.5-1.2-2.5-2.5V1340.2z"/>
				<path d="M1435.8,1340.2c0-1.3,1.1-2.5,2.5-2.5h37.8c15.8,0,28.8,12.7,28.8,28.4c0,12.1-8,22-19.5,26.7l18.1,33.5
					c0.9,1.7,0,3.8-2.2,3.8h-13.9c-1.2,0-1.9-0.7-2.1-1.2l-17.6-35H1453v33.7c0,1.3-1.2,2.5-2.5,2.5h-12.1c-1.5,0-2.5-1.2-2.5-2.5
					V1340.2z M1474.6,1379.8c7,0,13.1-6.1,13.1-13.5c0-7-6.1-12.8-13.1-12.8h-21.5v26.3H1474.6z"/>
				<path d="M1535.1,1340.2c0-1.3,1-2.5,2.5-2.5h53.7c1.5,0,2.5,1.2,2.5,2.5v10.8c0,1.3-1.1,2.5-2.5,2.5h-39.1v21.7h32.6
					c1.3,0,2.5,1.2,2.5,2.5v11c0,1.5-1.2,2.5-2.5,2.5h-32.6v23.1h39.1c1.5,0,2.5,1.2,2.5,2.5v10.8c0,1.3-1.1,2.5-2.5,2.5h-53.7
					c-1.5,0-2.5-1.2-2.5-2.5V1340.2z"/>
			</g>
		</g>
	</g>
	<g>
		<path d="M1647.9,1324c14.6,0,26.5,11.9,26.5,26.5c0,14.6-11.9,26.4-26.5,26.4c-14.6,0-26.4-11.9-26.4-26.4
			C1621.4,1335.9,1633.3,1324,1647.9,1324z M1647.9,1372.6c12.2,0,22-9.9,22-22c0-12.2-9.8-22-22-22c-12.2,0-22,9.8-22,22
			C1625.8,1362.7,1635.7,1372.6,1647.9,1372.6z M1638.7,1338.4c0-0.7,0.6-1.4,1.4-1.4h10.5c4.6,0,9.1,2.7,9.1,8.3c0,5.5-3.9,7.5-6,8
			c1.5,2.9,2.9,5.8,4.4,8.7c0.5,0.9-0.2,2-1.3,2h-2.5c-0.6,0-1.1-0.6-1.3-1l-4.1-9.2h-5.4v8.8c0,0.7-0.6,1.4-1.4,1.4h-1.9
			c-0.8,0-1.4-0.7-1.4-1.4V1338.4z M1650.5,1349.4c2.7,0,4.4-1.9,4.4-4.2c0-2.5-1.7-4.2-4.4-4.2h-7.2v8.4H1650.5z"/>
	</g>
</g>
</svg>
