<?xml version="1.0" encoding="UTF-8"?>
<svg xmlns="http://www.w3.org/2000/svg" xmlns:xlink="http://www.w3.org/1999/xlink" width="88pt" height="73.599998pt" viewBox="0 0 88 73.599998" version="1.1">
<g id="surface1">
<path style=" stroke:none;fill-rule:nonzero;fill:rgb(22%,22%,22%);fill-opacity:1;" d="M 72.152344 36 C 72.152344 53.734375 57.773438 68.113281 40.039062 68.113281 C 22.304688 68.113281 7.925781 53.734375 7.925781 36 C 7.925781 18.265625 22.304688 3.886719 40.039062 3.886719 C 57.773438 3.886719 72.152344 18.265625 72.152344 36 Z M 72.152344 36 "/>
<path style=" stroke:none;fill-rule:nonzero;fill:rgb(100%,100%,100%);fill-opacity:1;" d="M 38.503906 10.054688 C 38.503906 10.253906 38.34375 10.414062 38.144531 10.414062 C 37.945312 10.414062 37.78125 10.253906 37.78125 10.054688 C 37.78125 9.855469 37.945312 9.695312 38.144531 9.695312 C 38.34375 9.695312 38.503906 9.855469 38.503906 10.054688 Z M 38.503906 10.054688 "/>
<path style=" stroke:none;fill-rule:nonzero;fill:rgb(100%,100%,100%);fill-opacity:1;" d="M 42.199219 10.535156 C 42.199219 10.734375 42.039062 10.894531 41.839844 10.894531 C 41.640625 10.894531 41.480469 10.734375 41.480469 10.535156 C 41.480469 10.335938 41.640625 10.175781 41.839844 10.175781 C 42.039062 10.175781 42.199219 10.335938 42.199219 10.535156 Z M 42.199219 10.535156 "/>
<path style=" stroke:none;fill-rule:nonzero;fill:rgb(100%,100%,100%);fill-opacity:1;" d="M 47.046875 17.0625 C 47.046875 17.261719 46.886719 17.425781 46.6875 17.425781 C 46.488281 17.425781 46.328125 17.261719 46.328125 17.0625 C 46.328125 16.863281 46.488281 16.703125 46.6875 16.703125 C 46.886719 16.703125 47.046875 16.863281 47.046875 17.0625 Z M 47.046875 17.0625 "/>
<path style=" stroke:none;fill-rule:nonzero;fill:rgb(100%,100%,100%);fill-opacity:1;" d="M 20.457031 50.664062 C 20.457031 50.863281 20.292969 51.023438 20.09375 51.023438 C 19.894531 51.023438 19.734375 50.863281 19.734375 50.664062 C 19.734375 50.464844 19.894531 50.304688 20.09375 50.304688 C 20.292969 50.304688 20.457031 50.464844 20.457031 50.664062 Z M 20.457031 50.664062 "/>
<path style=" stroke:none;fill-rule:nonzero;fill:rgb(100%,100%,100%);fill-opacity:1;" d="M 21.390625 53.542969 C 21.390625 53.742188 21.230469 53.902344 21.03125 53.902344 C 20.832031 53.902344 20.671875 53.742188 20.671875 53.542969 C 20.671875 53.34375 20.832031 53.183594 21.03125 53.183594 C 21.230469 53.183594 21.390625 53.34375 21.390625 53.542969 Z M 21.390625 53.542969 "/>
<path style=" stroke:none;fill-rule:nonzero;fill:rgb(100%,100%,100%);fill-opacity:1;" d="M 16.835938 51.097656 C 16.835938 51.246094 16.714844 51.367188 16.566406 51.367188 C 16.417969 51.367188 16.296875 51.246094 16.296875 51.097656 C 16.296875 50.945312 16.417969 50.828125 16.566406 50.828125 C 16.714844 50.828125 16.835938 50.945312 16.835938 51.097656 Z M 16.835938 51.097656 "/>
<path style=" stroke:none;fill-rule:nonzero;fill:rgb(100%,100%,100%);fill-opacity:1;" d="M 31.476562 56.753906 C 31.476562 56.902344 31.355469 57.023438 31.207031 57.023438 C 31.058594 57.023438 30.9375 56.902344 30.9375 56.753906 C 30.9375 56.605469 31.058594 56.484375 31.207031 56.484375 C 31.355469 56.484375 31.476562 56.605469 31.476562 56.753906 Z M 31.476562 56.753906 "/>
<path style=" stroke:none;fill-rule:nonzero;fill:rgb(100%,100%,100%);fill-opacity:1;" d="M 54.4375 51.984375 C 54.4375 52.132812 54.316406 52.253906 54.167969 52.253906 C 54.019531 52.253906 53.898438 52.132812 53.898438 51.984375 C 53.898438 51.835938 54.019531 51.714844 54.167969 51.714844 C 54.316406 51.714844 54.4375 51.835938 54.4375 51.984375 Z M 54.4375 51.984375 "/>
<path style=" stroke:none;fill-rule:nonzero;fill:rgb(100%,100%,100%);fill-opacity:1;" d="M 61.113281 44.734375 C 61.113281 44.886719 60.992188 45.007812 60.839844 45.007812 C 60.691406 45.007812 60.570312 44.886719 60.570312 44.734375 C 60.570312 44.585938 60.691406 44.464844 60.839844 44.464844 C 60.992188 44.464844 61.113281 44.585938 61.113281 44.734375 Z M 61.113281 44.734375 "/>
<path style=" stroke:none;fill-rule:nonzero;fill:rgb(100%,100%,100%);fill-opacity:1;" d="M 28.40625 19.167969 C 28.40625 19.320312 28.285156 19.4375 28.136719 19.4375 C 27.984375 19.4375 27.867188 19.320312 27.867188 19.167969 C 27.867188 19.019531 27.984375 18.898438 28.136719 18.898438 C 28.285156 18.898438 28.40625 19.019531 28.40625 19.167969 Z M 28.40625 19.167969 "/>
<path style=" stroke:none;fill-rule:nonzero;fill:rgb(100%,100%,100%);fill-opacity:1;" d="M 35.75 13.777344 C 35.75 13.925781 35.628906 14.046875 35.480469 14.046875 C 35.332031 14.046875 35.210938 13.925781 35.210938 13.777344 C 35.210938 13.628906 35.332031 13.507812 35.480469 13.507812 C 35.628906 13.507812 35.75 13.628906 35.75 13.777344 Z M 35.75 13.777344 "/>
<path style=" stroke:none;fill-rule:nonzero;fill:rgb(100%,100%,100%);fill-opacity:1;" d="M 34.953125 13.246094 C 34.953125 13.398438 34.832031 13.519531 34.679688 13.519531 C 34.53125 13.519531 34.410156 13.398438 34.410156 13.246094 C 34.410156 13.097656 34.53125 12.976562 34.679688 12.976562 C 34.832031 12.976562 34.953125 13.097656 34.953125 13.246094 Z M 34.953125 13.246094 "/>
<path style=" stroke:none;fill-rule:nonzero;fill:rgb(100%,100%,100%);fill-opacity:1;" d="M 34.230469 12.71875 C 34.230469 12.867188 34.109375 12.988281 33.960938 12.988281 C 33.8125 12.988281 33.691406 12.867188 33.691406 12.71875 C 33.691406 12.570312 33.8125 12.449219 33.960938 12.449219 C 34.109375 12.449219 34.230469 12.570312 34.230469 12.71875 Z M 34.230469 12.71875 "/>
<path style=" stroke:none;fill-rule:nonzero;fill:rgb(100%,100%,100%);fill-opacity:1;" d="M 29.558594 20.5625 C 29.558594 20.710938 29.4375 20.832031 29.289062 20.832031 C 29.136719 20.832031 29.019531 20.710938 29.019531 20.5625 C 29.019531 20.414062 29.136719 20.292969 29.289062 20.292969 C 29.4375 20.292969 29.558594 20.414062 29.558594 20.5625 Z M 29.558594 20.5625 "/>
<path style=" stroke:none;fill-rule:nonzero;fill:rgb(100%,100%,100%);fill-opacity:1;" d="M 40.375 6.527344 C 40.375 6.675781 40.253906 6.796875 40.105469 6.796875 C 39.957031 6.796875 39.835938 6.675781 39.835938 6.527344 C 39.835938 6.378906 39.957031 6.257812 40.105469 6.257812 C 40.253906 6.257812 40.375 6.378906 40.375 6.527344 Z M 40.375 6.527344 "/>
<path style=" stroke:none;fill-rule:nonzero;fill:rgb(100%,100%,100%);fill-opacity:1;" d="M 42.152344 14.304688 C 42.152344 14.453125 42.03125 14.574219 41.882812 14.574219 C 41.734375 14.574219 41.613281 14.453125 41.613281 14.304688 C 41.613281 14.15625 41.734375 14.035156 41.882812 14.035156 C 42.03125 14.035156 42.152344 14.15625 42.152344 14.304688 Z M 42.152344 14.304688 "/>
<path style=" stroke:none;fill-rule:nonzero;fill:rgb(100%,100%,100%);fill-opacity:1;" d="M 39.347656 12.785156 C 39.347656 12.933594 39.226562 13.054688 39.078125 13.054688 C 38.929688 13.054688 38.808594 12.933594 38.808594 12.785156 C 38.808594 12.636719 38.929688 12.515625 39.078125 12.515625 C 39.226562 12.515625 39.347656 12.636719 39.347656 12.785156 Z M 39.347656 12.785156 "/>
<path style=" stroke:none;fill-rule:nonzero;fill:rgb(100%,100%,100%);fill-opacity:1;" d="M 34.546875 14.851562 C 34.546875 15 34.429688 15.121094 34.277344 15.121094 C 34.128906 15.121094 34.007812 15 34.007812 14.851562 C 34.007812 14.703125 34.128906 14.582031 34.277344 14.582031 C 34.429688 14.582031 34.546875 14.703125 34.546875 14.851562 Z M 34.546875 14.851562 "/>
<path style=" stroke:none;fill-rule:nonzero;fill:rgb(100%,100%,100%);fill-opacity:1;" d="M 55.71875 59.105469 C 55.71875 59.253906 55.597656 59.375 55.445312 59.375 C 55.296875 59.375 55.175781 59.253906 55.175781 59.105469 C 55.175781 58.957031 55.296875 58.835938 55.445312 58.835938 C 55.597656 58.835938 55.71875 58.957031 55.71875 59.105469 Z M 55.71875 59.105469 "/>
<path style=" stroke:none;fill-rule:nonzero;fill:rgb(100%,100%,100%);fill-opacity:1;" d="M 19.910156 52.488281 C 19.910156 52.636719 19.789062 52.757812 19.640625 52.757812 C 19.488281 52.757812 19.367188 52.636719 19.367188 52.488281 C 19.367188 52.339844 19.488281 52.21875 19.640625 52.21875 C 19.789062 52.21875 19.910156 52.339844 19.910156 52.488281 Z M 19.910156 52.488281 "/>
<path style=" stroke:none;fill-rule:nonzero;fill:rgb(100%,100%,100%);fill-opacity:1;" d="M 38.675781 55.96875 C 38.675781 56.117188 38.554688 56.238281 38.40625 56.238281 C 38.257812 56.238281 38.136719 56.117188 38.136719 55.96875 C 38.136719 55.820312 38.257812 55.699219 38.40625 55.699219 C 38.554688 55.699219 38.675781 55.820312 38.675781 55.96875 Z M 38.675781 55.96875 "/>
<path style=" stroke:none;fill-rule:nonzero;fill:rgb(100%,100%,100%);fill-opacity:1;" d="M 25.496094 52.273438 C 25.496094 52.421875 25.375 52.542969 25.226562 52.542969 C 25.074219 52.542969 24.953125 52.421875 24.953125 52.273438 C 24.953125 52.121094 25.074219 52 25.226562 52 C 25.375 52 25.496094 52.121094 25.496094 52.273438 Z M 25.496094 52.273438 "/>
<path style=" stroke:none;fill-rule:nonzero;fill:rgb(100%,100%,100%);fill-opacity:1;" d="M 27.828125 56.082031 C 27.828125 56.230469 27.707031 56.351562 27.558594 56.351562 C 27.410156 56.351562 27.289062 56.230469 27.289062 56.082031 C 27.289062 55.933594 27.410156 55.8125 27.558594 55.8125 C 27.707031 55.8125 27.828125 55.933594 27.828125 56.082031 Z M 27.828125 56.082031 "/>
<path style=" stroke:none;fill-rule:nonzero;fill:rgb(100%,100%,100%);fill-opacity:1;" d="M 45.011719 53.683594 C 45.011719 53.832031 44.890625 53.953125 44.742188 53.953125 C 44.59375 53.953125 44.472656 53.832031 44.472656 53.683594 C 44.472656 53.535156 44.59375 53.414062 44.742188 53.414062 C 44.890625 53.414062 45.011719 53.535156 45.011719 53.683594 Z M 45.011719 53.683594 "/>
<path style=" stroke:none;fill-rule:nonzero;fill:rgb(100%,100%,100%);fill-opacity:1;" d="M 54.488281 48.335938 C 54.488281 48.484375 54.367188 48.605469 54.21875 48.605469 C 54.066406 48.605469 53.945312 48.484375 53.945312 48.335938 C 53.945312 48.1875 54.066406 48.066406 54.21875 48.066406 C 54.367188 48.066406 54.488281 48.1875 54.488281 48.335938 Z M 54.488281 48.335938 "/>
<path style=" stroke:none;fill-rule:nonzero;fill:rgb(100%,100%,100%);fill-opacity:1;" d="M 61.667969 51.617188 C 61.667969 51.765625 61.546875 51.886719 61.398438 51.886719 C 61.25 51.886719 61.128906 51.765625 61.128906 51.617188 C 61.128906 51.46875 61.25 51.347656 61.398438 51.347656 C 61.546875 51.347656 61.667969 51.46875 61.667969 51.617188 Z M 61.667969 51.617188 "/>
<path style=" stroke:none;fill-rule:nonzero;fill:rgb(100%,100%,100%);fill-opacity:1;" d="M 64.117188 53.183594 C 64.117188 53.332031 63.996094 53.453125 63.847656 53.453125 C 63.699219 53.453125 63.578125 53.332031 63.578125 53.183594 C 63.578125 53.035156 63.699219 52.914062 63.847656 52.914062 C 63.996094 52.914062 64.117188 53.035156 64.117188 53.183594 Z M 64.117188 53.183594 "/>
<path style=" stroke:none;fill-rule:nonzero;fill:rgb(100%,100%,100%);fill-opacity:1;" d="M 64.519531 48.910156 C 64.519531 49.0625 64.398438 49.179688 64.25 49.179688 C 64.101562 49.179688 63.980469 49.0625 63.980469 48.910156 C 63.980469 48.761719 64.101562 48.640625 64.25 48.640625 C 64.398438 48.640625 64.519531 48.761719 64.519531 48.910156 Z M 64.519531 48.910156 "/>
<path style=" stroke:none;fill-rule:nonzero;fill:rgb(100%,100%,100%);fill-opacity:1;" d="M 28.804688 42.863281 C 28.804688 43.011719 28.6875 43.132812 28.535156 43.132812 C 28.386719 43.132812 28.265625 43.011719 28.265625 42.863281 C 28.265625 42.714844 28.386719 42.59375 28.535156 42.59375 C 28.6875 42.59375 28.804688 42.714844 28.804688 42.863281 Z M 28.804688 42.863281 "/>
<path style=" stroke:none;fill-rule:nonzero;fill:rgb(100%,100%,100%);fill-opacity:1;" d="M 29 49.054688 C 29 49.253906 28.839844 49.414062 28.640625 49.414062 C 28.441406 49.414062 28.277344 49.253906 28.277344 49.054688 C 28.277344 48.855469 28.441406 48.695312 28.640625 48.695312 C 28.839844 48.695312 29 48.855469 29 49.054688 Z M 29 49.054688 "/>
<path style=" stroke:none;fill-rule:nonzero;fill:rgb(100%,100%,100%);fill-opacity:1;" d="M 31.160156 53.617188 C 31.160156 53.816406 30.996094 53.976562 30.800781 53.976562 C 30.601562 53.976562 30.4375 53.816406 30.4375 53.617188 C 30.4375 53.417969 30.601562 53.257812 30.800781 53.257812 C 30.996094 53.257812 31.160156 53.417969 31.160156 53.617188 Z M 31.160156 53.617188 "/>
<path style=" stroke:none;fill-rule:nonzero;fill:rgb(100%,100%,100%);fill-opacity:1;" d="M 57.03125 48.863281 C 57.03125 49.0625 56.871094 49.222656 56.671875 49.222656 C 56.472656 49.222656 56.3125 49.0625 56.3125 48.863281 C 56.3125 48.664062 56.472656 48.503906 56.671875 48.503906 C 56.871094 48.503906 57.03125 48.664062 57.03125 48.863281 Z M 57.03125 48.863281 "/>
<path style=" stroke:none;fill-rule:nonzero;fill:rgb(100%,100%,100%);fill-opacity:1;" d="M 66.34375 48.335938 C 66.34375 48.535156 66.183594 48.695312 65.984375 48.695312 C 65.785156 48.695312 65.625 48.535156 65.625 48.335938 C 65.625 48.136719 65.785156 47.976562 65.984375 47.976562 C 66.183594 47.976562 66.34375 48.136719 66.34375 48.335938 Z M 66.34375 48.335938 "/>
<path style=" stroke:none;fill-rule:nonzero;fill:rgb(100%,100%,100%);fill-opacity:1;" d="M 61.734375 46.367188 C 61.734375 46.566406 61.574219 46.726562 61.375 46.726562 C 61.175781 46.726562 61.015625 46.566406 61.015625 46.367188 C 61.015625 46.167969 61.175781 46.007812 61.375 46.007812 C 61.574219 46.007812 61.734375 46.167969 61.734375 46.367188 Z M 61.734375 46.367188 "/>
<path style=" stroke:none;fill-rule:nonzero;fill:rgb(100%,100%,100%);fill-opacity:1;" d="M 57.03125 46.558594 C 57.03125 46.757812 56.871094 46.921875 56.671875 46.921875 C 56.472656 46.921875 56.3125 46.757812 56.3125 46.558594 C 56.3125 46.359375 56.472656 46.199219 56.671875 46.199219 C 56.871094 46.199219 57.03125 46.359375 57.03125 46.558594 Z M 57.03125 46.558594 "/>
<path style=" stroke:none;fill-rule:nonzero;fill:rgb(100%,100%,100%);fill-opacity:1;" d="M 46.96875 9.832031 L 47.863281 9.746094 L 46.96875 9.695312 C 46.941406 9.523438 46.804688 9.386719 46.628906 9.363281 L 46.542969 8.472656 L 46.492188 9.371094 C 46.332031 9.40625 46.207031 9.542969 46.1875 9.710938 L 45.269531 9.792969 L 46.191406 9.84375 C 46.226562 9.996094 46.351562 10.117188 46.507812 10.148438 L 46.589844 11.066406 L 46.640625 10.148438 C 46.804688 10.121094 46.9375 9.992188 46.96875 9.832031 Z M 46.96875 9.832031 "/>
<path style=" stroke:none;fill-rule:nonzero;fill:rgb(100%,100%,100%);fill-opacity:1;" d="M 31.859375 19.796875 L 32.753906 19.710938 L 31.859375 19.660156 C 31.832031 19.488281 31.695312 19.351562 31.519531 19.332031 L 31.433594 18.4375 L 31.382812 19.335938 C 31.222656 19.375 31.097656 19.507812 31.078125 19.675781 L 30.164062 19.761719 L 31.085938 19.808594 C 31.117188 19.964844 31.242188 20.085938 31.398438 20.113281 L 31.480469 21.03125 L 31.53125 20.113281 C 31.699219 20.089844 31.828125 19.960938 31.859375 19.796875 Z M 31.859375 19.796875 "/>
<path style=" stroke:none;fill-rule:nonzero;fill:rgb(100%,100%,100%);fill-opacity:1;" d="M 65.328125 46.148438 L 66.222656 46.0625 L 65.328125 46.011719 C 65.300781 45.839844 65.164062 45.703125 64.988281 45.679688 L 64.902344 44.789062 L 64.851562 45.6875 C 64.691406 45.722656 64.566406 45.859375 64.546875 46.027344 L 63.632812 46.109375 L 64.554688 46.160156 C 64.585938 46.3125 64.710938 46.433594 64.867188 46.464844 L 64.953125 47.382812 L 65 46.464844 C 65.164062 46.4375 65.296875 46.3125 65.328125 46.148438 Z M 65.328125 46.148438 "/>
<path style=" stroke:none;fill-rule:nonzero;fill:rgb(100%,100%,100%);fill-opacity:1;" d="M 28.835938 59.925781 L 29.730469 59.839844 L 28.835938 59.789062 C 28.808594 59.617188 28.671875 59.480469 28.496094 59.457031 L 28.410156 58.566406 L 28.359375 59.464844 C 28.199219 59.5 28.074219 59.636719 28.054688 59.804688 L 27.136719 59.886719 L 28.058594 59.9375 C 28.09375 60.09375 28.21875 60.214844 28.375 60.242188 L 28.457031 61.160156 L 28.507812 60.242188 C 28.671875 60.214844 28.804688 60.089844 28.835938 59.925781 Z M 28.835938 59.925781 "/>
<path style=" stroke:none;fill-rule:nonzero;fill:rgb(100%,100%,100%);fill-opacity:1;" d="M 62.484375 53.203125 L 63.378906 53.121094 L 62.484375 53.070312 C 62.457031 52.894531 62.320312 52.761719 62.144531 52.738281 L 62.058594 51.847656 L 62.007812 52.746094 C 61.847656 52.78125 61.722656 52.914062 61.703125 53.085938 L 60.789062 53.167969 L 61.707031 53.21875 C 61.742188 53.371094 61.867188 53.492188 62.023438 53.519531 L 62.105469 54.4375 L 62.15625 53.523438 C 62.320312 53.496094 62.453125 53.367188 62.484375 53.203125 Z M 62.484375 53.203125 "/>
<path style=" stroke:none;fill-rule:nonzero;fill:rgb(45%,45%,45%);fill-opacity:1;" d="M 47.65625 28.308594 C 43.921875 29.757812 40.277344 31.054688 37.207031 32.015625 C 30.960938 33.972656 13.878906 39.265625 3.558594 45.9375 L 4.421875 46.273438 C 10.710938 42.71875 14.796875 41.605469 18.726562 40.367188 C 23 39.023438 36.808594 35.792969 43.0625 34.03125 C 45.175781 33.4375 47.648438 32.660156 50.269531 31.710938 C 49.660156 30.863281 49.019531 30.007812 48.339844 29.15625 C 48.113281 28.871094 47.886719 28.585938 47.65625 28.308594 Z M 52.214844 34.59375 C 51.3125 35.207031 50.554688 35.691406 50.023438 36 C 46.953125 37.777344 31.976562 48 28.566406 50.351562 C 25.160156 52.703125 15.703125 61.632812 12.921875 64.222656 L 12.824219 65.277344 C 21.800781 57.214844 24.617188 55.226562 28.183594 52.511719 C 32.601562 49.152344 41.734375 42.9375 44.839844 40.945312 C 47.808594 39.039062 50.484375 37.289062 52.886719 35.6875 C 52.847656 35.621094 52.808594 35.554688 52.769531 35.488281 C 52.589844 35.191406 52.402344 34.894531 52.214844 34.59375 Z M 66.246094 19.777344 C 61.875 22.339844 54.980469 25.433594 48.296875 28.058594 C 48.457031 28.253906 48.613281 28.453125 48.773438 28.652344 C 49.519531 29.589844 50.226562 30.539062 50.890625 31.488281 C 56.144531 29.550781 61.910156 26.953125 66.488281 23.808594 C 64.308594 25.871094 57.101562 31.257812 52.707031 34.261719 C 52.933594 34.628906 53.152344 35 53.363281 35.367188 C 60.023438 30.910156 64.5 27.632812 67.113281 25.4375 C 70.710938 22.414062 78.921875 15.648438 82.039062 6.574219 C 76.566406 13.535156 70.097656 17.519531 66.246094 19.777344 Z M 66.246094 19.777344 "/>
<path style=" stroke:none;fill-rule:nonzero;fill:rgb(100%,100%,100%);fill-opacity:1;" d="M 35.90625 43.953125 C 35.199219 43.058594 34.21875 41.867188 33.484375 40.941406 C 32.5 39.703125 31.59375 38.453125 30.757812 37.203125 C 30.488281 37.273438 30.214844 37.339844 29.945312 37.40625 C 30.949219 38.976562 32.066406 40.546875 33.285156 42.078125 C 34.175781 43.199219 34.984375 44.101562 35.398438 44.660156 C 35.480469 44.773438 35.648438 45.027344 35.875 45.359375 C 36.132812 45.183594 36.394531 45.007812 36.660156 44.828125 C 36.402344 44.550781 36.152344 44.257812 35.90625 43.953125 Z M 41.074219 48.640625 C 40.492188 48.09375 39.082031 47.171875 37.613281 45.792969 C 37.292969 46.015625 36.964844 46.242188 36.636719 46.46875 C 37.585938 47.804688 38.875 49.445312 39.886719 49.925781 C 41.410156 50.644531 41.820312 49.347656 41.074219 48.640625 Z M 48.773438 28.652344 C 40.378906 18.085938 30.125 12.28125 25.707031 15.792969 C 22.273438 18.523438 23.679688 26.496094 28.414062 34.871094 C 28.660156 34.785156 28.902344 34.703125 29.140625 34.621094 C 24.363281 26.460938 23.058594 18.878906 26.296875 16.304688 C 30.367188 13.070312 40.191406 18.898438 48.34375 29.15625 C 50.03125 31.28125 51.511719 33.410156 52.769531 35.488281 C 57.578125 43.449219 59.054688 50.648438 55.730469 53.585938 C 54.714844 54.484375 51.605469 54.835938 47.535156 53.003906 C 47.480469 53.078125 47.570312 53.269531 47.640625 53.316406 C 51.15625 54.730469 54.523438 55.269531 56.222656 53.917969 C 60.304688 50.671875 57.167969 39.214844 48.773438 28.652344 Z M 48.773438 28.652344 "/>
<path style=" stroke:none;fill-rule:nonzero;fill:rgb(100%,100%,100%);fill-opacity:1;" d="M 12.773438 29.902344 L 18.152344 29.902344 L 22.664062 37.558594 L 22.664062 31.585938 C 22.664062 30.910156 21.8125 30.035156 21.511719 29.902344 L 25.230469 29.902344 C 25.003906 29.964844 24.269531 30.851562 24.269531 31.585938 L 24.269531 40.367188 C 24.269531 40.90625 25.050781 41.652344 25.421875 41.941406 L 20.238281 41.941406 L 15.65625 34.246094 L 15.65625 40.296875 C 15.65625 40.894531 16.242188 41.472656 16.855469 41.964844 L 12.894531 41.964844 C 13.460938 41.722656 14 40.96875 14.046875 40.367188 C 14.09375 39.769531 14.046875 32.027344 14.046875 31.691406 C 14.046875 30.960938 13.339844 30.359375 12.773438 29.902344 Z M 12.773438 29.902344 "/>
<path style=" stroke:none;fill-rule:nonzero;fill:rgb(100%,100%,100%);fill-opacity:1;" d="M 61.953125 41.941406 L 69.101562 41.941406 C 68.707031 41.84375 68.261719 41.375 68.023438 40.753906 C 67.78125 40.128906 63.992188 29.902344 63.992188 29.902344 L 61.273438 29.902344 C 60.5 30.460938 59.675781 31.042969 58.792969 31.660156 C 58.789062 31.683594 58.789062 31.707031 58.78125 31.726562 C 58.664062 32.449219 56.535156 40.15625 56.40625 40.535156 C 56.226562 41.0625 55.304688 41.652344 54.929688 41.964844 L 58.78125 41.964844 C 58.398438 41.53125 58.085938 41.113281 58.160156 40.632812 C 58.230469 40.152344 58.445312 39.191406 58.445312 39.191406 L 62.429688 39.191406 C 62.609375 39.671875 62.746094 40.101562 62.816406 40.511719 C 62.898438 41.003906 62.394531 41.554688 61.953125 41.941406 Z M 58.808594 37.65625 L 60.152344 33.265625 L 61.925781 37.65625 Z M 58.203125 30.34375 C 58.398438 30.195312 58.597656 30.050781 58.796875 29.902344 L 57.75 29.902344 C 57.855469 30 58.027344 30.152344 58.203125 30.34375 Z M 58.203125 30.34375 "/>
<path style=" stroke:none;fill-rule:nonzero;fill:rgb(100%,100%,100%);fill-opacity:1;" d="M 30.847656 40.632812 C 30.917969 40.152344 31.136719 39.191406 31.136719 39.191406 L 35.121094 39.191406 C 35.300781 39.671875 35.433594 40.101562 35.503906 40.511719 C 35.585938 41.003906 35.082031 41.554688 34.640625 41.941406 L 40.9375 41.941406 C 41.066406 41.851562 41.199219 41.765625 41.328125 41.675781 C 41.085938 41.460938 40.859375 41.136719 40.710938 40.753906 C 40.472656 40.128906 36.679688 29.902344 36.679688 29.902344 L 30.4375 29.902344 C 30.738281 30.179688 31.601562 30.925781 31.472656 31.726562 C 31.355469 32.449219 29.226562 40.15625 29.09375 40.535156 C 28.914062 41.0625 27.992188 41.652344 27.621094 41.964844 L 31.472656 41.964844 C 31.085938 41.53125 30.773438 41.113281 30.847656 40.632812 Z M 32.839844 33.265625 L 34.613281 37.65625 L 31.496094 37.65625 Z M 32.839844 33.265625 "/>
<path style=" stroke:none;fill-rule:nonzero;fill:rgb(100%,100%,100%);fill-opacity:1;" d="M 52.597656 35.878906 C 51.425781 36.660156 50.183594 37.476562 48.878906 38.332031 C 49.464844 38.613281 49.929688 38.972656 49.976562 39.433594 C 50.058594 40.296875 48.320312 40.714844 46.746094 40.535156 C 46.433594 40.5 46.125 40.417969 45.832031 40.308594 C 45.503906 40.519531 45.175781 40.730469 44.839844 40.945312 C 44.5 41.164062 44.085938 41.429688 43.617188 41.742188 L 43.617188 42.984375 C 43.929688 42.371094 44.609375 41.824219 45.140625 41.796875 C 45.367188 41.785156 46.160156 42.515625 49.425781 42.335938 C 51.007812 42.25 54.066406 40.558594 54.019531 38.617188 C 53.992188 37.46875 53.390625 36.570312 52.597656 35.878906 Z M 43.613281 38.878906 L 43.613281 40.144531 C 43.902344 39.953125 44.1875 39.761719 44.46875 39.578125 C 44.027344 39.273438 43.71875 38.988281 43.613281 38.878906 Z M 51.480469 35.085938 C 51.179688 34.902344 50.871094 34.746094 50.574219 34.605469 C 49.039062 33.886719 47.429688 33.753906 47.09375 32.78125 C 46.859375 32.097656 47.527344 31.464844 49.160156 31.488281 C 50.792969 31.511719 52.304688 32.484375 52.710938 32.832031 L 52.710938 29.734375 C 52.589844 29.855469 52.066406 30.460938 51.582031 30.359375 C 50.660156 30.167969 49.085938 29.917969 47.289062 29.925781 C 45.222656 29.9375 43.445312 31.535156 43.386719 33.550781 C 43.304688 36.371094 45.558594 37.140625 46.832031 37.582031 C 46.960938 37.628906 47.113281 37.675781 47.273438 37.730469 C 48.496094 36.9375 49.460938 36.324219 50.023438 36 C 50.402344 35.78125 50.898438 35.46875 51.480469 35.085938 Z M 51.480469 35.085938 "/>
</g>
</svg>
