<?xml version="1.0" standalone="no"?>
<!DOCTYPE svg PUBLIC "-//W3C//DTD SVG 20010904//EN"
 "http://www.w3.org/TR/2001/REC-SVG-20010904/DTD/svg10.dtd">
<svg version="1.0" xmlns="http://www.w3.org/2000/svg"
 width="1466.000000pt" height="1420.000000pt" viewBox="0 0 1466.000000 1420.000000"
 preserveAspectRatio="xMidYMid meet">

<g transform="translate(0.000000,1420.000000) scale(0.100000,-0.100000)"
fill=#5c5c5c stroke="none">
<path d="M6648 13654 c-35 -19 -48 -43 -48 -92 0 -52 26 -84 92 -112 72 -30
98 -56 98 -96 0 -38 -38 -74 -77 -74 -27 0 -73 41 -73 65 0 16 -17 19 -44 9
-20 -8 -20 -27 -1 -64 20 -39 63 -60 120 -60 88 0 135 47 135 134 0 57 -31 95
-102 126 -66 28 -88 47 -88 76 0 26 34 54 66 54 12 0 33 -9 47 -21 21 -16 31
-18 47 -9 27 15 25 24 -11 54 -24 21 -41 26 -82 26 -29 -1 -64 -7 -79 -16z"/>
<path d="M7112 13633 c-133 -65 -172 -236 -80 -347 54 -66 140 -94 229 -75 42
9 49 14 49 34 0 13 3 30 6 39 5 12 -2 11 -32 -5 -71 -36 -145 -19 -201 44 -76
87 -39 220 73 263 52 20 97 13 148 -21 l36 -24 0 37 c0 34 -4 40 -35 55 -46
22 -149 22 -193 0z"/>
<path d="M6057 13632 c-26 -3 -27 -4 -21 -55 3 -29 13 -124 23 -212 l16 -160
45 2 c25 1 68 5 96 8 48 6 51 7 46 32 -5 25 -6 26 -68 20 -35 -4 -64 -3 -64 1
-1 25 -40 365 -42 366 -2 1 -15 0 -31 -2z"/>
<path d="M7495 13588 c-6 -31 -55 -377 -55 -394 0 -9 11 -14 30 -14 17 0 30 4
30 9 0 11 47 341 55 389 6 30 4 32 -24 32 -24 0 -32 -5 -36 -22z"/>
<path d="M5626 13377 c-33 -122 -61 -230 -64 -239 -3 -14 2 -18 26 -18 21 0
32 6 36 18 3 9 10 36 16 59 10 39 13 42 58 52 26 5 70 13 98 16 l51 7 29 -46
c19 -30 36 -46 49 -46 53 1 47 14 -86 206 -72 104 -136 194 -142 201 -9 9 -26
-40 -71 -210z m134 18 c24 -36 41 -67 39 -69 -6 -5 -123 -25 -127 -21 -6 5 34
155 42 155 2 0 23 -29 46 -65z"/>
<path d="M7731 13531 c-38 -184 -73 -372 -69 -376 9 -10 210 -46 224 -41 17 7
19 42 2 49 -7 2 -46 10 -86 17 l-74 14 6 30 c4 17 9 48 13 69 3 21 12 41 19
44 7 2 46 -2 86 -10 40 -9 73 -15 74 -14 1 1 4 14 7 28 7 26 5 27 -75 43 -45
9 -83 18 -85 19 -6 6 18 107 25 107 4 0 34 -7 67 -15 87 -21 102 -19 107 10 5
22 1 25 -51 36 -31 6 -84 17 -118 24 l-62 12 -10 -46z"/>
<path d="M8082 13307 c-34 -117 -62 -217 -62 -223 0 -10 49 -30 55 -22 1 2 19
62 39 133 21 72 41 136 45 143 5 8 48 -65 114 -190 59 -112 108 -196 111 -188
15 43 125 425 123 426 -1 2 -15 4 -31 6 l-30 3 -39 -137 c-22 -76 -43 -138
-47 -138 -4 0 -32 48 -63 108 -31 59 -78 148 -104 199 l-49 92 -62 -212z"/>
<path d="M5303 13493 c-13 -2 -23 -7 -23 -11 0 -4 18 -70 40 -146 22 -77 38
-141 37 -142 -1 -2 -92 49 -201 112 -135 78 -197 109 -194 97 3 -10 31 -109
63 -221 l58 -203 26 6 c14 4 27 8 29 10 2 2 -15 68 -37 146 -22 79 -39 144
-38 146 2 1 90 -47 196 -108 106 -61 194 -109 196 -107 2 2 -19 82 -46 178
-27 96 -54 192 -59 213 -6 20 -14 36 -18 36 -4 -1 -17 -4 -29 -6z"/>
<path d="M4589 13267 c-93 -35 -153 -121 -154 -218 0 -123 85 -210 214 -217
57 -3 73 0 121 25 43 22 62 41 88 83 31 51 33 60 30 126 -4 86 -34 139 -103
179 -54 32 -142 42 -196 22z m145 -61 c67 -28 111 -124 92 -200 -10 -40 -63
-93 -111 -112 -39 -14 -51 -15 -91 -4 -91 26 -151 124 -124 204 33 102 138
152 234 112z"/>
<path d="M8695 13232 c-124 -68 -155 -233 -62 -338 41 -48 101 -76 161 -78 46
-1 50 1 62 29 l12 30 -63 0 c-49 0 -70 5 -91 21 -44 32 -66 68 -71 117 -7 60
11 110 52 146 72 63 162 61 226 -5 18 -19 36 -34 40 -34 4 0 12 13 17 30 10
27 8 32 -24 58 -71 59 -177 69 -259 24z"/>
<path d="M9051 12941 c-50 -103 -91 -191 -91 -197 0 -5 47 -33 104 -61 l103
-52 12 25 c6 14 11 26 11 28 0 2 -34 18 -75 36 -42 18 -75 39 -75 47 0 7 14
40 30 73 l30 60 79 -39 78 -40 12 25 c10 23 8 26 -64 61 -41 21 -75 41 -75 46
0 16 41 87 50 87 6 0 42 -16 81 -36 39 -19 72 -34 74 -32 1 2 8 13 14 25 11
22 6 25 -97 77 l-109 55 -92 -188z"/>
<path d="M4195 13078 c-11 -6 -21 -12 -23 -13 -2 -2 40 -88 92 -193 84 -167
98 -190 116 -185 11 3 23 9 26 14 6 10 -175 389 -185 389 -3 0 -15 -6 -26 -12z"/>
<path d="M3928 12949 c-60 -33 -108 -63 -108 -68 0 -4 6 -15 13 -25 13 -18 15
-18 55 5 22 13 43 21 45 19 3 -3 45 -75 92 -160 48 -85 89 -156 90 -158 3 -3
43 15 53 23 2 2 -37 75 -87 164 -50 88 -91 163 -91 165 0 3 18 15 40 27 22 13
40 26 40 30 0 18 -13 39 -24 39 -6 0 -59 -27 -118 -61z"/>
<path d="M3580 12734 c0 -22 62 -468 66 -472 1 -2 14 4 28 13 27 18 28 26 11
111 -4 18 10 31 75 74 87 57 86 57 155 11 29 -19 31 -19 55 -1 14 10 23 21 20
23 -7 7 -364 233 -389 246 -18 10 -21 9 -21 -5z m154 -147 l59 -40 -54 -33
c-30 -18 -57 -34 -60 -34 -7 0 -13 27 -25 114 -8 55 -14 56 80 -7z"/>
<path d="M9661 12718 c-85 -42 -132 -141 -112 -237 14 -71 51 -122 109 -153
77 -42 97 -43 122 -8 l21 30 -31 0 c-113 0 -198 123 -155 225 22 53 42 74 94
97 61 28 120 18 172 -29 22 -20 42 -47 46 -61 l6 -25 19 22 c10 13 18 30 18
37 0 28 -34 66 -84 95 -66 37 -158 41 -225 7z"/>
<path d="M3267 12522 c-9 -10 -17 -22 -17 -26 0 -3 40 -57 90 -118 49 -62 88
-114 86 -115 -2 -2 -95 8 -207 22 -111 14 -211 25 -220 23 -13 -2 12 -40 102
-153 66 -82 130 -160 142 -172 21 -21 23 -22 45 -4 l24 17 -96 119 c-53 65
-95 119 -94 120 3 3 348 -37 425 -49 31 -4 27 1 -94 152 -69 86 -136 167 -148
180 -21 22 -22 22 -38 4z"/>
<path d="M10060 12454 c-119 -51 -167 -198 -103 -315 106 -196 405 -137 421
82 8 104 -41 189 -133 230 -49 23 -137 24 -185 3z m171 -60 c34 -17 77 -68 85
-100 12 -46 -2 -112 -31 -150 -65 -85 -189 -87 -258 -4 -58 68 -54 150 9 220
52 57 125 70 195 34z"/>
<path d="M6537 12412 c-15 -10 -29 -24 -32 -32 -3 -9 -19 -24 -36 -34 -28 -17
-45 -18 -153 -12 -75 4 -129 12 -142 21 -19 12 -23 11 -41 -13 l-19 -26 -57
21 c-52 19 -61 19 -134 7 -43 -7 -94 -18 -114 -25 -32 -10 -40 -9 -75 13 -53
34 -99 48 -151 48 -48 0 -66 -14 -138 -105 -29 -36 -33 -38 -125 -51 -52 -7
-99 -13 -103 -14 -5 0 -34 -27 -65 -59 -32 -33 -88 -77 -127 -99 -50 -28 -79
-52 -100 -84 -17 -25 -49 -66 -73 -92 -37 -40 -42 -51 -42 -94 0 -75 -128
-380 -170 -402 -29 -15 -80 -112 -73 -138 3 -12 -1 -32 -9 -44 -23 -36 -38
-87 -48 -161 -7 -60 -13 -73 -49 -112 -47 -51 -53 -88 -21 -123 33 -35 115
-72 159 -72 l40 0 -24 -52 c-14 -29 -25 -58 -25 -64 0 -5 -13 -23 -29 -38 -24
-23 -32 -43 -42 -100 -6 -39 -19 -87 -29 -106 -10 -19 -35 -80 -56 -135 -32
-85 -38 -113 -39 -185 -2 -110 -22 -200 -45 -200 -24 0 -136 -74 -155 -103 -8
-14 -25 -63 -37 -110 l-21 -86 -48 -18 -49 -17 2 -78 c0 -43 -2 -81 -5 -84
-14 -14 -50 11 -93 64 -65 80 -71 81 -189 35 -27 -11 -81 -26 -120 -33 -88
-16 -135 -36 -217 -93 -37 -25 -92 -55 -123 -66 -32 -12 -76 -32 -99 -45 -25
-14 -66 -26 -104 -30 l-62 -6 -24 53 c-32 70 -117 156 -188 189 -76 36 -198
75 -272 88 -34 6 -139 29 -235 53 l-174 42 -52 50 c-47 44 -54 56 -60 103 -4
29 -12 55 -19 58 -7 3 -50 0 -96 -5 -47 -5 -92 -6 -100 -1 -9 5 -47 38 -85 75
-38 36 -80 68 -94 71 -74 16 -161 78 -161 115 0 22 -52 83 -91 106 -25 15 -29
23 -29 61 0 58 25 110 58 119 l25 6 -22 19 c-13 10 -38 18 -57 18 -32 0 -33
-1 -22 -26 10 -21 9 -27 -3 -34 -16 -11 -36 11 -71 79 -17 32 -20 45 -10 48 6
3 12 16 12 30 0 18 -4 24 -15 19 -8 -3 -15 0 -15 7 -1 24 -39 -39 -49 -80 -14
-52 -14 -150 -2 -155 6 -2 16 -24 23 -51 10 -39 10 -53 -1 -80 -28 -67 -26
-92 13 -143 30 -39 36 -55 36 -96 0 -27 7 -63 16 -80 15 -28 14 -31 -6 -53
l-22 -23 24 -15 c12 -8 38 -18 56 -22 27 -6 32 -11 32 -35 0 -16 -4 -40 -10
-54 -8 -23 -6 -28 19 -40 20 -11 38 -37 65 -98 27 -60 45 -88 67 -100 17 -10
29 -25 29 -37 0 -31 56 -90 80 -84 11 3 20 14 20 24 0 23 27 25 74 5 25 -10
36 -22 41 -46 7 -30 7 -31 31 -15 23 15 25 14 68 -30 41 -41 44 -48 36 -76 -9
-29 -7 -32 30 -46 26 -10 40 -23 45 -40 8 -34 1 -40 -63 -53 -31 -6 -69 -13
-85 -16 -19 -4 -27 -12 -27 -27 0 -11 -9 -31 -21 -43 -19 -20 -20 -27 -10 -57
13 -39 30 -47 104 -47 l47 0 0 -89 c0 -117 11 -132 93 -122 48 6 64 13 100 47
23 22 54 46 70 52 l27 12 0 -54 c0 -29 7 -71 16 -92 l16 -39 16 40 c22 58 80
134 107 141 32 8 85 -32 85 -64 0 -21 4 -23 24 -18 22 5 25 2 31 -37 3 -23 6
-71 5 -106 l-1 -65 -80 -75 -80 -76 16 -47 17 -48 56 0 c34 -1 65 -7 76 -15
20 -15 20 -15 0 -30 -18 -13 -18 -14 13 -21 27 -5 32 -11 38 -46 l7 -40 42 6
43 7 -5 -32 c-4 -25 -16 -39 -66 -71 -66 -43 -80 -63 -125 -186 -52 -142 -73
-323 -60 -522 6 -86 5 -138 -1 -144 -5 -5 -29 -12 -52 -15 -38 -5 -43 -9 -51
-41 -14 -56 18 -212 60 -288 19 -34 44 -67 56 -74 87 -46 224 -39 255 14 15
25 22 29 55 26 32 -2 41 2 57 27 11 17 20 44 20 60 0 25 6 33 30 42 27 10 32
9 50 -15 19 -26 20 -26 32 -7 22 38 57 65 83 65 24 0 26 -3 20 -29 -4 -19 -1
-41 9 -59 13 -26 13 -31 -1 -51 -11 -16 -13 -34 -9 -63 5 -30 2 -47 -13 -71
-12 -21 -17 -42 -14 -59 6 -33 4 -33 45 -9 18 10 47 22 64 25 26 6 32 3 42
-19 7 -14 12 -45 12 -69 0 -46 -10 -56 -55 -56 -31 0 -70 -52 -79 -104 l-7
-38 45 4 c33 2 46 -1 46 -10 0 -24 -31 -87 -56 -113 -19 -20 -24 -32 -18 -53
8 -32 53 -66 88 -66 24 0 26 -3 26 -44 0 -35 5 -48 24 -63 14 -10 28 -30 31
-45 5 -21 3 -27 -14 -33 -12 -3 -21 -11 -21 -16 0 -18 28 -64 53 -87 26 -24
40 -54 51 -105 5 -20 14 -29 34 -33 71 -14 91 -73 54 -154 -12 -25 -22 -52
-22 -61 0 -24 33 -49 66 -49 25 0 34 7 53 41 22 39 25 41 60 35 20 -3 62 -6
93 -6 49 0 62 -4 91 -30 19 -16 38 -44 43 -62 9 -30 13 -33 54 -36 32 -2 56
-12 85 -36 22 -18 61 -47 87 -64 43 -29 52 -32 100 -26 46 5 56 3 72 -15 27
-29 82 -28 128 4 48 32 67 32 114 -6 29 -23 47 -30 74 -28 19 2 66 0 104 -5
53 -6 74 -14 93 -32 13 -13 26 -24 28 -24 2 0 10 18 16 40 9 30 18 40 39 45
15 3 55 31 89 61 63 57 100 74 163 74 31 0 38 -4 38 -20 0 -19 1 -20 24 -5 26
17 30 15 40 -29 10 -39 51 -91 92 -115 27 -16 45 -20 75 -15 l39 7 0 49 c0 27
7 64 14 83 12 29 20 35 45 35 29 0 55 17 63 42 3 9 19 8 66 -6 l62 -19 48 25
c27 15 79 31 124 38 72 10 81 10 125 -10 127 -57 146 -61 346 -61 104 0 203 3
220 6 55 11 140 -29 219 -101 38 -35 75 -64 82 -64 7 0 38 5 69 11 45 9 69 22
119 65 34 29 79 62 99 73 l36 20 34 -25 c18 -13 51 -30 72 -36 41 -12 57 -37
57 -87 0 -15 16 -65 36 -111 36 -83 37 -86 31 -180 -5 -71 -3 -101 7 -120 12
-21 11 -31 -6 -75 -17 -43 -19 -66 -15 -157 4 -88 2 -108 -10 -112 -32 -13
-57 -5 -94 29 -38 34 -97 50 -85 23 27 -67 29 -88 10 -109 -18 -20 -18 -21 6
-39 20 -15 24 -26 21 -57 -1 -21 -10 -50 -19 -65 -13 -23 -14 -38 -3 -115 21
-156 20 -152 55 -158 17 -3 61 -2 98 3 55 7 72 5 101 -10 20 -10 37 -27 41
-42 8 -33 56 -40 198 -31 108 7 110 8 105 31 -2 13 4 35 13 50 l18 26 6 -29
c4 -15 17 -42 30 -58 24 -30 25 -30 123 -29 79 1 108 5 151 24 60 26 128 23
192 -10 45 -23 117 -16 171 17 34 21 34 21 69 3 38 -21 154 -28 165 -10 3 5 1
18 -4 29 -9 16 1 26 84 81 89 59 95 65 95 97 0 45 35 63 73 39 20 -14 33 -15
69 -7 59 14 88 5 88 -25 0 -17 8 -28 26 -34 33 -13 32 -14 39 18 7 36 68 83
124 98 62 15 93 5 103 -33 7 -25 12 -30 29 -26 12 4 29 19 38 34 12 21 37 36
98 60 45 17 92 43 105 57 26 28 92 61 123 62 11 0 39 15 62 33 23 17 62 44 86
59 24 15 80 61 124 102 69 63 89 76 135 86 43 10 58 19 80 49 14 20 32 55 39
79 7 24 21 48 31 53 10 5 25 24 34 42 9 18 30 48 45 68 25 31 30 49 35 123 l7
87 -40 42 c-52 55 -55 66 -35 128 18 50 18 51 30 25 24 -53 127 -16 202 74 38
45 41 53 39 102 -3 69 7 112 41 173 l28 50 -18 103 c-16 98 -16 107 0 175 37
153 38 154 135 174 39 8 41 10 77 98 20 50 37 100 37 111 1 14 9 24 24 28 43
11 54 7 61 -26 l6 -33 25 30 c32 40 49 97 48 165 -2 54 -2 56 -67 116 -64 58
-66 62 -66 108 0 43 5 53 51 104 69 77 91 128 83 197 -9 72 20 204 49 227 29
23 37 22 37 -2 0 -31 57 -26 99 9 30 24 32 30 22 49 -7 13 -21 22 -35 22 -39
0 -52 71 -16 90 24 13 28 71 5 90 -29 24 -19 97 23 167 37 63 52 76 52 47 0
-9 8 -22 17 -29 15 -11 21 -8 46 18 28 30 29 30 40 12 13 -25 27 -35 49 -35
12 0 20 15 29 55 7 30 18 60 26 66 27 23 1 44 -43 33 -18 -5 -24 -13 -24 -35
0 -24 -4 -29 -24 -29 -28 0 -55 36 -63 85 -7 45 -42 64 -77 41 -14 -9 -41 -16
-61 -16 l-35 0 0 61 c0 60 0 61 -25 55 -40 -10 -106 13 -142 49 -31 31 -33 37
-33 104 0 53 -5 83 -21 112 -11 22 -31 86 -45 142 -14 56 -27 109 -30 119 -3
11 5 19 28 27 18 7 48 25 66 41 59 55 37 137 -63 228 -44 40 -57 60 -62 89 -8
51 -27 87 -60 113 -26 20 -28 27 -28 92 0 68 1 70 27 75 16 3 28 8 28 12 0 14
-60 71 -74 71 -17 0 -75 -85 -76 -110 0 -8 -8 -25 -18 -38 l-18 -23 -59 27
c-43 18 -81 47 -132 100 -66 67 -77 74 -111 74 -37 0 -155 35 -203 60 -43 23
-157 130 -163 153 -3 12 -19 31 -36 41 l-32 18 29 18 c16 10 44 41 62 69 l34
52 -7 134 -8 134 40 28 c22 15 53 35 69 44 17 9 33 26 36 38 4 17 -1 24 -27
35 -51 21 -93 77 -106 143 -14 69 -65 222 -92 276 -10 21 -34 55 -52 75 -113
125 -223 497 -171 576 31 46 22 144 -18 224 -32 61 -39 69 -122 118 -64 39
-102 55 -141 60 -81 10 -102 1 -125 -52 -16 -36 -25 -45 -42 -42 -21 3 -22 8
-22 90 0 48 -4 91 -10 96 -6 6 -33 6 -72 0 -51 -9 -63 -14 -63 -29 0 -10 -9
-23 -21 -29 -17 -10 -26 -6 -59 24 -49 45 -67 54 -132 67 -29 6 -90 22 -135
35 -89 27 -152 27 -312 1 -64 -10 -80 -17 -115 -49 -71 -67 -126 -43 -126 57
0 57 -10 78 -32 70 -22 -9 -45 59 -52 152 -7 88 -20 123 -44 123 -10 0 -48
-18 -85 -40 -36 -22 -71 -40 -77 -40 -6 0 -15 11 -21 23 -27 60 -107 72 -215
31 -39 -14 -100 -28 -139 -31 -68 -5 -73 -3 -177 45 -59 28 -131 69 -161 91
-29 22 -103 64 -163 92 -60 28 -121 62 -137 75 -23 20 -35 22 -77 17 -49 -6
-52 -5 -90 36 -44 46 -75 51 -123 23z m-2139 -3227 c250 -59 459 -263 522
-511 15 -59 20 -111 20 -221 l0 -143 -215 0 -215 0 0 53 c-1 202 -76 355 -189
387 -52 14 -186 12 -224 -3 -124 -53 -173 -176 -165 -419 5 -150 18 -190 83
-246 49 -43 78 -57 341 -162 258 -104 325 -140 404 -220 129 -131 180 -312
180 -641 0 -502 -180 -788 -542 -864 -103 -22 -287 -19 -384 5 -127 32 -237
93 -325 180 -155 153 -219 319 -219 568 l0 102 220 0 220 0 0 -98 c0 -114 14
-171 60 -237 48 -70 108 -95 230 -95 106 0 148 9 195 41 84 58 106 136 107
384 2 338 -13 360 -335 492 -250 101 -306 127 -384 179 -129 86 -191 169 -241
324 -36 110 -46 189 -45 350 1 134 4 169 27 255 76 291 241 467 499 535 91 24
284 26 375 5z m1759 -22 c107 -41 177 -88 261 -178 130 -139 182 -287 185
-525 l2 -145 -215 0 -215 0 -5 120 c-6 136 -29 203 -91 264 -47 48 -86 61
-176 61 -134 -1 -187 -39 -223 -159 -20 -64 -20 -90 -18 -941 l3 -875 26 -50
c46 -87 97 -115 206 -115 99 0 141 15 194 69 62 61 79 119 79 263 l0 108 218
-2 217 -3 -1 -140 c-1 -158 -15 -230 -68 -340 -89 -187 -259 -329 -452 -379
-150 -39 -394 -9 -537 66 -90 47 -203 163 -249 258 -77 158 -73 91 -73 1165
l0 960 23 75 c61 192 168 322 335 407 118 59 191 73 352 70 127 -3 147 -6 222
-34z m1617 0 c5 -17 641 -2869 653 -2925 l6 -28 -217 0 c-119 0 -216 1 -217 3
0 1 -28 144 -62 317 l-62 315 -286 3 -286 2 -57 -297 c-32 -164 -60 -308 -63
-320 -5 -23 -5 -23 -222 -23 l-217 0 328 1473 c181 809 331 1478 333 1485 3 9
49 12 184 12 162 0 180 -2 185 -17z m1816 -12 c205 -62 341 -190 417 -391 52
-139 67 -240 67 -445 1 -224 -23 -342 -97 -490 -34 -68 -138 -180 -209 -226
-26 -17 -48 -37 -48 -44 0 -10 419 -1259 445 -1327 7 -17 -8 -18 -223 -18
l-231 0 -24 78 c-13 42 -102 328 -197 635 l-174 557 -123 0 -123 0 0 -635 0
-635 -215 0 -215 0 0 1486 0 1485 438 -3 c420 -4 440 -5 512 -27z"/>
<path d="M7487 7807 c-55 -282 -101 -522 -104 -534 l-5 -23 206 0 c152 0 206
3 206 12 0 12 -201 1052 -203 1055 -1 0 -46 -229 -100 -510z"/>
<path d="M9070 8320 l0 -463 168 6 c185 7 217 13 284 56 93 59 123 173 116
445 -6 206 -20 257 -88 327 -61 64 -112 78 -317 86 l-163 6 0 -463z"/>
<path d="M10473 12037 c-125 -127 -146 -165 -125 -236 22 -70 73 -116 137
-122 79 -6 83 -4 211 123 117 115 123 123 107 140 -9 10 -21 18 -27 18 -6 0
-60 -49 -121 -110 -125 -124 -149 -136 -204 -98 -39 26 -56 66 -46 106 4 15
54 75 116 137 l109 111 -23 22 -23 22 -111 -113z"/>
<path d="M2790 12090 c-19 -10 -53 -37 -74 -59 l-39 -40 144 -148 c79 -81 149
-149 154 -149 6 -1 19 4 29 12 18 13 16 17 -43 84 -72 81 -73 80 76 51 l92
-18 26 27 25 26 -111 18 -111 19 8 26 c19 66 -4 129 -57 157 -37 19 -76 17
-119 -6z m109 -66 c28 -36 26 -58 -8 -96 l-30 -33 -51 50 -51 50 33 28 c42 35
80 35 107 1z"/>
<path d="M2484 11787 c-40 -45 -73 -86 -74 -91 -2 -5 69 -73 156 -152 l159
-143 20 23 c11 13 46 53 79 90 58 66 59 67 40 87 l-19 21 -61 -67 -60 -66 -52
46 c-29 26 -52 51 -52 56 0 5 23 34 51 65 51 57 55 70 26 88 -13 8 -26 -1 -73
-52 l-56 -62 -36 32 c-21 17 -37 35 -37 40 0 4 24 35 54 68 51 59 53 62 36 81
-10 10 -21 19 -24 19 -3 -1 -38 -38 -77 -83z"/>
<path d="M10820 11668 c-80 -66 -158 -131 -173 -144 l-28 -24 19 -25 20 -25
113 95 c63 52 117 95 121 95 4 0 5 -12 3 -27 -8 -43 -45 -416 -42 -419 2 -2
147 117 321 263 27 23 28 24 11 43 -10 11 -21 20 -26 20 -4 0 -56 -40 -115
-90 -60 -49 -112 -90 -116 -90 -4 0 -5 12 -3 28 8 45 45 415 42 418 -1 1 -68
-52 -147 -118z"/>
<path d="M2233 11492 l-83 -107 23 -17 c21 -17 23 -17 41 5 10 12 24 30 31 41
13 17 24 10 162 -98 l148 -116 18 22 c10 11 16 24 15 29 -2 4 -65 55 -140 114
-76 58 -140 109 -142 114 -3 4 9 24 26 45 16 20 29 38 27 39 -2 1 -13 10 -24
19 -19 16 -23 12 -102 -90z"/>
<path d="M2052 11249 c-7 -10 -12 -23 -12 -28 0 -5 54 -44 120 -87 67 -42 117
-80 113 -84 -4 -4 -96 -24 -203 -44 -107 -21 -204 -40 -214 -43 -14 -4 28 -36
170 -129 189 -124 189 -124 207 -103 9 12 17 24 16 28 0 3 -56 42 -124 86 -68
44 -121 83 -117 86 4 3 97 23 207 44 110 21 206 41 213 44 8 4 -56 51 -165
123 -98 63 -183 118 -188 121 -6 3 -16 -3 -23 -14z"/>
<path d="M11139 11237 c-80 -42 -129 -145 -113 -235 9 -54 49 -118 91 -146 35
-24 37 -25 65 -8 15 9 28 19 28 22 0 3 -18 13 -40 23 -73 34 -106 122 -75 202
40 105 172 142 260 73 32 -25 64 -91 65 -131 l0 -28 29 22 c25 18 28 25 21 52
-16 73 -66 134 -132 161 -57 24 -146 21 -199 -7z"/>
<path d="M11400 10819 c-91 -55 -171 -103 -179 -108 -11 -7 -11 -12 -1 -32 7
-13 14 -25 15 -27 2 -2 86 47 189 108 182 108 185 111 174 135 -6 14 -16 25
-22 24 -6 0 -85 -46 -176 -100z"/>
<path d="M1742 10756 c-12 -27 -20 -22 233 -161 22 -12 61 -34 87 -49 l47 -26
15 27 14 28 -180 100 c-99 55 -185 101 -192 103 -7 1 -18 -8 -24 -22z"/>
<path d="M1299 10686 c-11 -19 -26 -37 -34 -40 -16 -6 -21 -66 -7 -66 10 0 62
77 62 91 0 5 4 9 10 9 5 0 14 9 20 20 9 17 8 20 -10 20 -13 0 -28 -13 -41 -34z"/>
<path d="M11510 10615 c-96 -52 -179 -96 -185 -98 -5 -3 10 -43 34 -90 41 -80
45 -85 65 -75 12 6 22 12 24 13 2 2 -8 26 -22 54 -14 28 -26 55 -26 60 0 5 71
46 158 91 86 46 159 84 161 86 6 6 -17 54 -26 53 -5 0 -87 -42 -183 -94z"/>
<path d="M1125 9960 c-8 -14 23 -39 48 -40 31 0 18 44 -15 48 -14 2 -29 -2
-33 -8z"/>
<path d="M1110 9841 c0 -5 7 -15 16 -22 9 -7 20 -23 25 -36 5 -15 17 -23 31
-23 21 0 23 4 20 45 l-4 45 -44 0 c-24 0 -44 -4 -44 -9z"/>
<path d="M12020 9395 c-210 -51 -215 -53 -218 -79 -5 -38 16 -41 109 -18 58
14 81 17 84 9 16 -47 45 -182 41 -192 -2 -6 -43 -20 -90 -31 l-87 -19 7 -30
c3 -16 8 -32 9 -33 2 -2 106 21 232 51 l228 55 -2 27 c-1 15 -5 30 -8 33 -3 3
-53 -6 -111 -20 -57 -14 -106 -23 -108 -19 -9 15 -46 193 -42 199 3 5 50 19
106 32 l101 24 -3 30 c-2 19 -9 31 -18 32 -8 1 -112 -22 -230 -51z"/>
<path d="M1412 9293 c-8 -3 11 -28 50 -69 47 -48 70 -64 91 -64 21 0 27 5 27
23 0 37 -27 64 -80 82 -27 9 -52 21 -55 26 -7 10 -13 10 -33 2z"/>
<path d="M12307 8893 l-28 -4 25 -30 c53 -62 58 -144 13 -210 -60 -89 -173
-114 -257 -56 -81 55 -101 125 -66 235 6 19 4 22 -16 22 -13 0 -33 -6 -44 -14
-28 -21 -27 -145 3 -202 32 -61 93 -111 159 -130 202 -58 379 148 291 340 -14
31 -32 55 -39 55 -7 -1 -26 -4 -41 -6z"/>
<path d="M2062 8608 c-28 -28 -1 -151 39 -176 18 -11 19 -9 19 26 0 22 -3 67
-6 101 -5 48 -10 61 -23 61 -10 0 -22 -5 -29 -12z"/>
<path d="M1121 8463 c-47 -24 -71 -67 -71 -131 0 -97 53 -152 148 -152 64 0
101 29 143 111 34 69 68 96 98 79 46 -24 54 -81 16 -120 -23 -24 -25 -30 -14
-53 12 -26 13 -26 39 -10 39 23 60 64 60 118 0 87 -43 135 -121 135 -59 0 -86
-21 -127 -97 -17 -33 -40 -67 -52 -78 -48 -43 -130 -4 -130 62 0 39 37 83 70
83 16 0 20 6 20 35 0 30 -3 35 -22 35 -13 0 -38 -8 -57 -17z"/>
<path d="M12344 8300 c-49 -38 -92 -70 -96 -70 -4 0 -9 9 -13 20 -3 10 -20 31
-36 45 -24 19 -42 25 -80 25 -105 0 -143 -48 -143 -177 0 -45 2 -84 5 -87 4
-4 472 14 477 19 2 2 1 18 -3 35 l-7 31 -94 -7 c-77 -5 -94 -4 -94 7 1 8 43
46 95 84 85 63 95 73 95 102 0 17 -4 34 -9 37 -4 3 -48 -26 -97 -64z m-179
-64 c21 -21 44 -91 34 -100 -2 -2 -39 -7 -81 -11 l-78 -7 0 50 c0 43 4 54 26
71 35 28 69 26 99 -3z"/>
<path d="M1225 8011 c-72 -18 -142 -77 -169 -143 -20 -47 -21 -148 -2 -193 14
-32 19 -35 56 -35 l41 0 -23 31 c-19 25 -23 44 -23 98 0 59 4 72 29 105 134
177 414 10 313 -186 l-24 -48 39 0 c35 0 40 3 54 35 22 53 18 141 -10 201 -49
104 -169 162 -281 135z"/>
<path d="M12198 7802 c-137 -53 -248 -99 -248 -102 1 -6 467 -255 478 -255 4
0 8 14 10 32 3 29 -1 34 -46 57 -26 13 -53 30 -58 38 -5 7 -7 55 -4 112 l5 99
60 22 c57 21 60 25 63 59 2 20 0 36 -5 35 -4 0 -119 -44 -255 -97z m67 -159
c-3 -18 -8 -33 -11 -33 -8 0 -128 62 -142 73 -11 8 6 18 70 43 l83 31 3 -41
c2 -22 1 -55 -3 -73z"/>
<path d="M1280 7459 c-96 -10 -184 -18 -195 -18 -18 -1 -20 -6 -17 -37 4 -30
8 -35 26 -31 11 3 115 13 229 23 114 10 212 21 218 25 6 3 7 18 3 32 -8 33
-11 33 -264 6z"/>
<path d="M11935 7328 c-10 -59 -33 -223 -31 -225 2 -3 471 -72 473 -70 1 1 10
59 21 129 l19 126 -21 6 c-41 11 -43 7 -56 -90 l-13 -96 -51 6 c-91 12 -116
18 -116 30 0 6 6 48 14 94 9 59 10 82 2 82 -6 0 -20 3 -32 6 -20 5 -22 0 -34
-90 l-13 -96 -36 5 c-93 15 -89 7 -70 127 9 57 8 72 -3 79 -28 18 -47 10 -53
-23z"/>
<path d="M1339 7199 c-125 -20 -231 -38 -236 -40 -8 -3 23 -246 33 -257 1 -2
16 -1 32 2 l29 7 -15 85 c-8 46 -12 90 -9 97 6 17 149 40 158 26 3 -6 12 -48
19 -95 12 -84 12 -84 39 -78 14 4 28 8 30 10 2 2 -1 35 -8 73 -16 103 -16 109
19 115 17 3 43 8 58 11 l28 6 15 -93 c13 -85 16 -93 38 -96 13 -2 27 0 31 5 6
6 -23 229 -33 254 -1 3 -104 -11 -228 -32z"/>
<path d="M11902 6900 c-44 -27 -72 -76 -72 -128 0 -82 48 -132 126 -132 38 0
53 12 152 123 26 28 41 37 65 37 106 -1 114 -155 8 -163 -28 -2 -31 -5 -31
-34 0 -31 2 -33 36 -33 50 0 91 27 114 75 54 111 -13 225 -131 225 -56 0 -80
-17 -145 -101 -37 -48 -51 -59 -74 -59 -32 0 -60 31 -60 65 0 25 26 64 50 73
15 6 15 12 6 39 l-11 33 -33 -20z"/>
<path d="M1415 6766 l-230 -62 2 -28 c1 -16 4 -31 7 -34 3 -3 76 14 162 37 86
23 158 40 160 38 3 -2 -54 -99 -125 -216 -71 -116 -127 -211 -123 -211 4 0
114 28 245 62 237 63 238 63 232 88 -4 14 -9 28 -13 32 -4 4 -76 -11 -160 -33
-85 -22 -156 -39 -158 -36 -2 2 54 99 125 216 71 116 124 211 118 210 -7 0
-115 -29 -242 -63z"/>
<path d="M11766 6512 c-8 -14 -77 -244 -74 -247 6 -5 451 -145 453 -143 1 2
20 58 43 125 l40 122 -31 10 c-16 6 -31 10 -32 9 -2 -2 -15 -42 -29 -90 -15
-51 -32 -88 -39 -88 -12 0 -138 39 -145 45 -2 2 9 42 23 90 22 72 25 89 13 96
-35 23 -47 10 -74 -76 -14 -47 -32 -85 -38 -85 -14 0 -106 30 -106 35 0 1 7
22 15 45 8 23 21 64 29 90 l14 49 -29 10 c-15 5 -30 7 -33 3z"/>
<path d="M2860 6481 c-6 -16 -23 -40 -37 -53 -45 -42 -80 -128 -51 -128 6 0
21 -9 32 -19 30 -28 59 -12 102 55 51 79 64 144 29 144 -7 0 -18 7 -25 15 -19
23 -36 18 -50 -14z"/>
<path d="M1760 6278 c-34 -12 -33 -10 -11 -66 l20 -51 -52 -19 c-29 -11 -116
-43 -194 -72 -79 -29 -143 -58 -143 -64 1 -6 6 -20 13 -32 12 -21 14 -20 197
47 102 38 190 69 195 69 6 0 18 -22 28 -49 17 -49 18 -50 47 -39 17 5 30 11
30 12 0 5 -99 268 -102 271 -2 1 -14 -2 -28 -7z"/>
<path d="M11654 6046 c-17 -8 -43 -29 -57 -47 -34 -46 -72 -138 -61 -148 5 -4
103 -47 219 -95 193 -79 211 -85 222 -69 26 35 15 47 -72 82 -47 19 -84 39
-82 45 2 6 56 22 120 36 l116 25 15 37 c8 21 13 38 11 38 -2 0 -51 -11 -109
-25 -135 -32 -136 -32 -136 6 0 86 -106 151 -186 115z m100 -77 c34 -27 35
-93 1 -136 -1 -2 -33 11 -71 27 -77 32 -80 41 -38 98 30 38 68 42 108 11z"/>
<path d="M1724 5802 l-221 -96 11 -28 c6 -15 15 -28 21 -28 9 0 422 177 433
185 1 1 -4 16 -11 33 l-13 31 -220 -97z"/>
<path d="M1828 5553 l-207 -107 15 -28 c8 -15 17 -28 19 -28 3 0 50 23 105 50
l100 50 35 -70 c19 -38 37 -70 40 -70 2 0 15 5 29 11 l25 12 -35 69 c-19 38
-32 73 -29 79 7 10 79 49 93 49 4 0 23 -31 42 -70 35 -72 44 -79 74 -57 17 12
15 20 -33 115 -28 56 -55 102 -59 102 -4 0 -100 -48 -214 -107z"/>
<path d="M11324 5428 c-130 -115 -104 -329 51 -411 54 -29 164 -30 218 -3 75
37 133 118 139 196 3 28 -2 36 -29 53 l-33 19 0 -40 c0 -104 -77 -182 -180
-182 -56 0 -99 20 -137 63 -80 91 -62 210 40 276 l37 24 -27 19 c-36 23 -36
23 -79 -14z"/>
<path d="M2028 5202 c-109 -64 -197 -122 -198 -128 0 -7 8 -21 18 -32 17 -20
20 -18 216 99 109 65 201 120 203 123 6 5 -27 56 -36 55 -3 0 -95 -53 -203
-117z"/>
<path d="M2180 5003 c-161 -85 -183 -291 -44 -412 40 -36 59 -38 93 -12 l25
19 -42 21 c-77 39 -114 117 -98 206 10 50 80 120 136 135 103 28 212 -45 226
-149 4 -28 9 -51 13 -51 18 1 51 41 51 62 -1 59 -67 150 -134 185 -17 9 -62
18 -101 21 -62 3 -76 1 -125 -25z"/>
<path d="M11035 4984 c-9 -14 -13 -29 -8 -34 9 -8 361 -252 379 -263 6 -3 18
7 27 23 l17 29 -194 135 c-107 75 -196 136 -199 136 -3 0 -12 -12 -22 -26z"/>
<path d="M10854 4743 c-42 -54 -82 -104 -88 -112 -8 -10 -4 -18 14 -33 l24
-20 37 43 36 43 163 -129 163 -129 18 23 c11 13 19 26 19 30 0 6 -190 159
-319 257 -2 2 13 24 33 48 l36 45 -22 15 c-12 9 -26 16 -30 16 -4 0 -42 -44
-84 -97z"/>
<path d="M10661 4498 c-147 -73 -175 -285 -53 -404 50 -48 107 -67 190 -62 81
4 134 33 182 100 43 59 47 84 19 114 -30 32 -35 31 -42 -12 -12 -74 -96 -143
-175 -144 -115 -1 -212 127 -182 239 14 52 67 106 120 122 22 7 40 15 40 19 0
3 -13 16 -29 27 l-28 22 -42 -21z"/>
<path d="M2755 4401 c-113 -29 -187 -124 -188 -241 -1 -53 4 -74 28 -118 29
-53 90 -108 133 -119 16 -4 31 2 47 17 29 27 26 36 -18 44 -37 7 -100 66 -116
109 -26 67 -6 140 50 194 41 38 77 53 130 53 82 0 140 -44 169 -129 l17 -50
27 28 c27 28 27 29 11 67 -20 48 -68 100 -117 125 -42 21 -129 32 -173 20z"/>
<path d="M10250 4079 c-19 -12 -54 -38 -76 -59 l-41 -38 161 -181 161 -181 24
25 25 25 -29 32 c-16 18 -47 52 -68 74 -22 23 -35 44 -30 47 5 3 62 -7 128
-23 l120 -29 28 27 28 27 -23 7 c-13 3 -67 16 -121 28 -84 19 -97 24 -91 38 4
10 9 36 12 58 11 111 -110 182 -208 123z m121 -68 c16 -16 29 -37 29 -46 0
-22 -24 -66 -47 -88 -19 -17 -21 -15 -73 44 l-53 61 24 20 c56 45 82 47 120 9z"/>
<path d="M3130 4041 c-74 -24 -139 -82 -166 -147 -17 -41 -18 -123 -2 -175 39
-131 210 -206 338 -148 97 44 144 117 144 224 1 106 -48 186 -139 229 -42 20
-137 30 -175 17z m150 -77 c29 -14 72 -59 89 -91 15 -30 14 -107 -3 -146 -18
-44 -77 -94 -126 -107 -140 -38 -271 110 -213 241 23 51 81 106 121 115 15 3
32 7 37 9 16 4 68 -7 95 -21z"/>
<path d="M9840 3768 c0 -17 101 -522 105 -526 2 -2 15 4 30 15 27 19 27 28 9
119 -5 28 -1 34 68 85 40 30 79 59 86 63 7 4 35 -6 67 -24 l55 -31 31 22 c29
20 30 23 13 32 -11 6 -104 58 -209 117 -252 142 -255 143 -255 128z m208 -175
c17 -9 32 -20 32 -24 0 -6 -75 -64 -106 -82 -8 -5 -17 17 -28 64 -25 112 -24
115 27 84 23 -14 57 -34 75 -42z"/>
<path d="M3565 3519 c-146 -145 -177 -181 -165 -190 47 -31 44 -33 148 76 55
58 102 105 105 105 2 0 -8 -73 -24 -162 -15 -90 -26 -164 -25 -165 2 -2 66 37
144 86 78 49 142 87 142 84 0 -3 -25 -61 -55 -129 -30 -69 -55 -128 -55 -133
0 -9 50 -45 54 -39 9 11 197 460 194 463 -2 2 -77 -43 -168 -101 -91 -57 -166
-100 -168 -96 -1 5 11 91 28 192 16 101 29 185 27 186 -2 2 -84 -78 -182 -177z"/>
<path d="M9497 3531 c-131 -82 -132 -83 -118 -110 15 -27 23 -26 73 5 33 21
43 23 49 13 55 -95 207 -333 215 -336 5 -1 19 5 31 15 l22 17 -31 50 c-17 28
-66 107 -109 177 l-79 127 45 27 c25 14 45 28 45 29 0 11 -24 55 -29 54 -3 0
-54 -31 -114 -68z"/>
<path d="M9228 3375 l-27 -15 65 -138 c77 -161 78 -162 71 -162 -3 0 -106 36
-229 80 -123 44 -226 80 -230 80 -5 0 42 -101 104 -224 l112 -224 28 14 c15 8
28 17 28 19 0 3 -32 69 -71 146 -38 78 -68 143 -65 146 2 3 107 -31 232 -76
125 -45 229 -79 231 -77 4 4 -214 446 -220 446 -1 -1 -14 -7 -29 -15z"/>
<path d="M4163 3148 l-152 -203 32 -16 31 -17 42 57 c23 31 62 85 88 121 l48
65 -4 -172 -3 -172 50 43 c161 136 217 179 212 160 -38 -121 -77 -255 -77
-263 0 -6 13 -17 29 -25 l29 -15 62 222 c35 122 66 235 71 250 l8 28 -24 -18
c-13 -10 -82 -66 -153 -125 -72 -60 -133 -108 -136 -108 -4 0 -3 88 0 195 4
107 5 195 3 195 -2 0 -73 -91 -156 -202z"/>
<path d="M4840 3068 c-48 -112 -159 -423 -153 -429 5 -4 19 -10 33 -14 24 -5
27 0 104 207 44 117 81 218 83 224 2 6 -8 16 -22 22 -34 16 -34 16 -45 -10z"/>
<path d="M8540 3075 c0 -11 -9 -126 -20 -255 -25 -299 -25 -283 3 -275 35 11
47 34 47 91 l0 51 101 38 100 38 47 -45 c44 -42 49 -44 80 -35 17 5 32 13 32
16 0 3 -88 94 -195 201 -137 137 -195 189 -195 175z m124 -197 c30 -34 54 -63
52 -65 -1 -1 -33 -14 -71 -28 l-68 -26 6 68 c4 37 7 78 7 91 0 34 14 27 74
-40z"/>
<path d="M5036 2995 c-9 -35 -4 -40 49 -55 34 -10 44 -17 41 -29 -3 -9 -30
-98 -61 -199 -32 -101 -55 -185 -53 -188 3 -2 18 -6 34 -9 l29 -6 60 195 c33
108 65 196 71 196 6 0 30 -7 53 -15 41 -14 42 -14 51 11 6 14 10 29 10 32 0 4
-57 25 -126 46 -70 20 -132 40 -139 42 -7 3 -15 -6 -19 -21z"/>
<path d="M5396 2893 c-15 -39 -7 -52 40 -59 25 -3 48 -12 50 -19 3 -6 -16 -99
-41 -205 -25 -106 -44 -194 -43 -195 2 -2 17 -6 34 -9 l30 -7 45 191 c24 106
47 196 50 202 5 7 22 7 55 0 53 -11 66 -4 62 33 -2 15 -18 23 -78 37 -41 9
-103 23 -137 31 -54 13 -62 13 -67 0z"/>
<path d="M7928 2872 c-16 -2 -28 -9 -28 -15 0 -7 13 -79 30 -162 16 -82 27
-151 25 -153 -2 -3 -95 59 -206 137 -111 77 -203 140 -205 138 -2 -2 77 -405
91 -464 6 -26 52 -33 61 -9 3 8 -8 83 -24 168 -16 84 -29 154 -28 155 2 2 94
-61 205 -138 111 -78 204 -139 206 -137 4 4 -91 478 -96 481 -2 1 -16 1 -31
-1z"/>
<path d="M5815 2806 c-2 -6 -18 -103 -35 -216 -17 -113 -34 -214 -36 -226 -5
-19 3 -22 123 -40 115 -18 129 -18 135 -5 18 42 11 48 -82 60 -49 7 -92 16
-95 21 -9 15 17 160 29 160 6 0 48 -6 93 -14 87 -14 93 -12 93 33 0 14 -16 19
-90 30 -89 12 -90 13 -90 41 0 15 3 42 6 60 7 32 7 32 55 26 163 -21 146 -22
151 13 3 18 0 31 -6 31 -6 0 -64 9 -129 19 -84 13 -120 15 -122 7z"/>
<path d="M6239 2768 c-3 -21 -36 -474 -34 -476 1 -2 58 -7 125 -13 129 -10
139 -8 140 32 0 18 -44 29 -125 29 -27 0 -54 4 -60 8 -6 4 -9 41 -7 86 l4 79
99 -6 99 -5 0 29 c0 33 -9 36 -112 41 -37 2 -70 7 -73 10 -4 4 -4 31 0 62 l7
56 97 -2 96 -3 3 27 3 26 -88 6 c-48 4 -107 9 -130 12 -24 3 -43 4 -44 2z"/>
<path d="M7030 2728 c-76 -46 -113 -108 -118 -199 -9 -153 94 -259 250 -259
81 1 132 24 186 85 49 56 66 109 59 186 -6 65 -24 104 -68 148 -52 53 -99 71
-182 71 -65 0 -79 -4 -127 -32z m203 -42 c104 -43 142 -195 70 -283 -44 -55
-88 -75 -155 -70 -68 4 -121 40 -152 101 -22 45 -24 122 -3 162 19 36 64 80
97 93 36 14 106 13 143 -3z"/>
</g>
</svg>
