<?xml version="1.0" encoding="UTF-8"?>
<svg xmlns="http://www.w3.org/2000/svg" xmlns:xlink="http://www.w3.org/1999/xlink" width="400pt" height="160pt" viewBox="0 0 400 160" version="1.1">
<g id="surface1">
<path style=" stroke:none;fill-rule:nonzero;fill:rgb(30%,30%,30%);fill-opacity:1;" d="M 187.960938 12.351562 L 187.960938 80.382812 C 187.960938 94.730469 179.855469 109.878906 155.40625 109.878906 C 133.351562 109.878906 122.71875 98.453125 122.71875 80.382812 L 122.71875 12.347656 L 142.785156 12.347656 L 142.785156 79.050781 C 142.785156 90.878906 147.832031 95.527344 155.140625 95.527344 C 163.910156 95.527344 167.894531 89.679688 167.894531 79.050781 L 167.894531 12.347656 L 187.960938 12.347656 M 220.59375 109.878906 C 195.746094 109.878906 191.09375 95.261719 192.160156 78.652344 L 212.222656 78.652344 C 212.222656 87.824219 212.621094 95.527344 223.648438 95.527344 C 230.425781 95.527344 233.742188 91.140625 233.742188 84.632812 C 233.742188 67.359375 193.355469 66.296875 193.355469 37.726562 C 193.355469 22.710938 200.527344 10.757812 224.972656 10.757812 C 244.507812 10.757812 254.207031 19.527344 252.878906 39.589844 L 233.34375 39.589844 C 233.34375 32.410156 232.152344 25.105469 224.042969 25.105469 C 217.535156 25.105469 213.679688 28.695312 213.679688 35.335938 C 213.679688 53.539062 254.074219 51.945312 254.074219 82.105469 C 254.074219 106.957031 235.875 109.882812 220.59375 109.882812 M 355.476562 109.882812 C 330.628906 109.882812 325.976562 95.265625 327.042969 78.660156 L 347.105469 78.660156 C 347.105469 87.828125 347.503906 95.53125 358.53125 95.53125 C 365.3125 95.53125 368.632812 91.148438 368.632812 84.636719 C 368.632812 67.363281 328.238281 66.300781 328.238281 37.734375 C 328.238281 22.71875 335.410156 10.761719 359.863281 10.761719 C 379.390625 10.761719 389.089844 19.53125 387.761719 39.597656 L 368.230469 39.597656 C 368.230469 32.417969 367.035156 25.109375 358.933594 25.109375 C 352.414062 25.109375 348.566406 28.699219 348.566406 35.339844 C 348.566406 53.546875 388.957031 51.953125 388.957031 82.113281 C 388.957031 106.960938 370.757812 109.890625 355.476562 109.890625 M 291.566406 72.542969 L 303.371094 72.542969 L 303.371094 93.710938 L 302.390625 94.074219 C 299.335938 95.140625 295.75 95.933594 292.429688 95.933594 C 281 95.933594 278.074219 90.621094 278.074219 60.59375 C 278.074219 41.988281 278.074219 25.113281 290.566406 25.113281 C 300.28125 25.113281 302.335938 31.671875 302.511719 39.601562 L 322.496094 39.601562 C 322.65625 20.984375 310.664062 10.765625 291.761719 10.765625 C 258.945312 10.765625 257.742188 35.34375 257.742188 59.53125 C 257.742188 95.933594 261.695312 110.0625 295.441406 110.0625 C 303.265625 110.0625 315.726562 108.292969 321.484375 106.71875 C 321.832031 106.628906 322.453125 106.242188 322.453125 105.746094 L 322.453125 58.066406 L 291.5625 58.066406 L 291.5625 72.539062 "/>
<path style=" stroke:none;fill-rule:nonzero;fill:rgb(30%,30%,30%);fill-opacity:1;" d="M 38.988281 44.476562 L 39.324219 44.796875 C 48.726562 52.671875 58.867188 51.90625 66.597656 46.769531 C 71.46875 43.53125 93.503906 28.875 105.960938 20.59375 L 105.960938 12.320312 L 13.136719 12.320312 L 13.136719 34.167969 C 18.792969 33.1875 27.910156 34.148438 38.988281 44.476562 M 73.910156 80.816406 L 62.945312 70.300781 C 61.402344 68.898438 60.089844 67.871094 59.804688 67.652344 C 50.839844 61.359375 42.488281 63.269531 38.882812 64.609375 C 37.792969 65.046875 36.753906 65.640625 36.015625 66.105469 L 13.132812 81.410156 L 13.132812 109.140625 L 105.957031 109.140625 L 105.957031 89.183594 C 103.917969 90.476562 91.339844 97.277344 73.90625 80.8125 M 38.164062 46.957031 C 37.671875 46.496094 37.121094 46 36.632812 45.597656 C 25.671875 37.117188 15.316406 41.269531 13.132812 42.304688 L 13.132812 51.851562 L 18.503906 48.230469 C 18.503906 48.230469 26.78125 42.09375 39.660156 48.386719 L 38.164062 46.957031 M 50.988281 59.285156 C 50.503906 58.855469 50.015625 58.417969 49.53125 57.953125 C 39.804688 49.726562 30.402344 51.816406 26.503906 53.261719 C 25.398438 53.703125 24.34375 54.304688 23.601562 54.769531 L 13.132812 61.773438 L 13.132812 71.605469 L 30.644531 59.804688 C 30.644531 59.804688 38.824219 53.734375 51.574219 59.847656 L 50.988281 59.285156 M 105.964844 69.574219 C 102.316406 72.039062 98.601562 74.539062 97.128906 75.527344 C 93.824219 77.742188 86.183594 83.21875 73.464844 77.140625 L 74.960938 78.578125 C 75.519531 79.082031 76.203125 79.667969 76.945312 80.238281 C 86.078125 87.0625 95.839844 86.082031 103.160156 81.234375 C 104.175781 80.5625 105.101562 79.945312 105.964844 79.367188 L 105.964844 69.578125 M 105.964844 49.890625 C 97.949219 55.28125 87.128906 62.558594 85.097656 63.921875 C 81.796875 66.132812 74.042969 71.6875 61.59375 65.738281 L 63.039062 67.121094 C 63.203125 67.273438 63.367188 67.421875 63.527344 67.578125 L 63.519531 67.585938 L 63.527344 67.578125 C 73.191406 75.753906 83.832031 74.503906 91.128906 69.628906 C 95.246094 66.878906 101.097656 62.925781 105.96875 59.625 L 105.960938 49.890625 M 105.960938 30.308594 C 94.398438 38.054688 75.429688 50.761719 73.132812 52.300781 C 69.804688 54.53125 61.957031 60.171875 49.667969 54.300781 L 51.15625 55.738281 C 52.046875 56.542969 53.242188 57.546875 54.511719 58.375 C 63.015625 63.808594 71.917969 62.847656 79.164062 58.011719 C 84.375 54.53125 97.1875 46.011719 105.960938 40.183594 L 105.960938 30.308594 "/>
<path style=" stroke:none;fill-rule:nonzero;fill:rgb(30%,30%,30%);fill-opacity:1;" d="M 17.863281 137.703125 C 17.664062 138.472656 17.542969 139.214844 17.664062 139.746094 C 17.820312 140.292969 18.261719 140.554688 19.199219 140.554688 C 20.136719 140.554688 21.074219 139.949219 21.3125 138.808594 C 22.078125 135.226562 13.59375 136.027344 14.738281 130.628906 C 15.519531 126.976562 19.375 125.867188 22.425781 125.867188 C 25.644531 125.867188 28.230469 127.410156 27.1875 131.0625 L 22.558594 131.0625 C 22.808594 129.890625 22.824219 129.1875 22.554688 128.886719 C 22.316406 128.582031 21.929688 128.515625 21.425781 128.515625 C 20.386719 128.515625 19.671875 129.1875 19.429688 130.328125 C 18.859375 133.007812 27.203125 132.878906 26.046875 138.304688 C 25.421875 141.257812 22.535156 143.472656 18.613281 143.472656 C 14.488281 143.472656 11.960938 142.425781 13.234375 137.703125 L 17.863281 137.703125 M 38.089844 132.222656 C 38.625 129.710938 38.164062 128.875 36.691406 128.875 C 34.679688 128.875 34.136719 130.648438 33.386719 134.167969 C 32.289062 139.332031 32.488281 140.4375 34.230469 140.4375 C 35.707031 140.4375 36.695312 139.097656 37.164062 136.886719 L 41.894531 136.886719 C 40.917969 141.480469 38.015625 143.460938 33.585938 143.460938 C 27.484375 143.460938 27.472656 139.738281 28.601562 134.441406 C 29.582031 129.8125 31.09375 125.859375 37.332031 125.859375 C 41.691406 125.859375 43.757812 127.804688 42.816406 132.230469 L 38.089844 132.230469 M 52.800781 119.675781 L 52.011719 123.398438 L 47.28125 123.398438 L 48.074219 119.675781 L 52.800781 119.675781 M 47.816406 143.125 L 43.089844 143.125 L 46.6875 126.195312 L 51.414062 126.195312 L 47.816406 143.121094 Z M 274.03125 119.675781 L 273.238281 123.398438 L 268.507812 123.398438 L 269.300781 119.675781 L 274.03125 119.675781 M 269.046875 143.125 L 264.320312 143.125 L 267.917969 126.195312 L 272.644531 126.195312 L 269.046875 143.121094 Z M 61.820312 132.765625 C 62.171875 131.125 62.738281 128.777344 60.492188 128.777344 C 58.308594 128.777344 57.800781 131.328125 57.496094 132.765625 L 61.820312 132.765625 M 56.933594 135.414062 C 56.507812 137.425781 55.933594 140.441406 58.007812 140.441406 C 59.6875 140.441406 60.363281 138.832031 60.664062 137.425781 L 65.457031 137.425781 C 64.996094 139.269531 64.074219 140.777344 62.714844 141.816406 C 61.386719 142.855469 59.582031 143.460938 57.367188 143.460938 C 51.265625 143.460938 51.253906 139.734375 52.378906 134.441406 C 53.359375 129.8125 54.875 125.859375 61.109375 125.859375 C 67.480469 125.859375 67.308594 129.980469 65.988281 135.414062 Z M 74.902344 127.910156 L 74.96875 127.910156 C 76.230469 126.402344 77.617188 125.863281 79.394531 125.863281 C 81.640625 125.863281 83.335938 127.203125 82.835938 129.550781 L 79.949219 143.132812 L 75.222656 143.132812 L 77.703125 131.464844 C 78.023438 129.957031 78.003906 128.78125 76.496094 128.78125 C 74.988281 128.78125 74.46875 129.957031 74.148438 131.464844 L 71.667969 143.132812 L 66.941406 143.132812 L 70.542969 126.199219 L 75.265625 126.199219 L 74.902344 127.910156 M 93.675781 132.230469 C 94.210938 129.71875 93.75 128.882812 92.273438 128.882812 C 90.265625 128.882812 89.71875 130.65625 88.96875 134.175781 C 87.871094 139.339844 88.074219 140.445312 89.816406 140.445312 C 91.292969 140.445312 92.28125 139.105469 92.75 136.894531 L 97.476562 136.894531 C 96.5 141.488281 93.601562 143.46875 89.171875 143.46875 C 83.070312 143.46875 83.058594 139.746094 84.183594 134.449219 C 85.167969 129.824219 86.675781 125.867188 92.914062 125.867188 C 97.273438 125.867188 99.34375 127.8125 98.402344 132.238281 L 93.675781 132.238281 M 109.363281 132.773438 C 109.710938 131.132812 110.28125 128.785156 108.03125 128.785156 C 105.851562 128.785156 105.34375 131.335938 105.039062 132.773438 L 109.359375 132.773438 M 104.46875 135.421875 C 104.039062 137.433594 103.464844 140.449219 105.546875 140.449219 C 107.222656 140.449219 107.898438 138.839844 108.199219 137.433594 L 112.992188 137.433594 C 112.53125 139.277344 111.609375 140.785156 110.246094 141.824219 C 108.921875 142.863281 107.117188 143.46875 104.902344 143.46875 C 98.800781 143.46875 98.785156 139.742188 99.914062 134.449219 C 100.898438 129.820312 102.410156 125.867188 108.644531 125.867188 C 115.011719 125.867188 114.84375 129.988281 113.519531 135.421875 Z M 133.367188 122.703125 C 131.484375 122.566406 130.925781 123.308594 130.5625 125.019531 L 130.226562 126.203125 L 132.441406 126.203125 L 131.820312 129.121094 L 129.605469 129.121094 L 126.628906 143.136719 L 121.902344 143.136719 L 124.878906 129.121094 L 122.769531 129.121094 L 123.386719 126.203125 L 125.53125 126.203125 C 126.484375 121.96875 127.332031 119.617188 132.34375 119.617188 C 132.914062 119.617188 133.445312 119.652344 134.007812 119.683594 L 133.378906 122.699219 M 141.027344 134.179688 C 141.773438 130.660156 141.984375 128.886719 139.972656 128.886719 C 137.960938 128.886719 137.414062 130.660156 136.667969 134.179688 C 135.570312 139.34375 135.769531 140.449219 137.511719 140.449219 C 139.25 140.449219 139.921875 139.347656 141.027344 134.179688 M 131.882812 134.449219 C 132.863281 129.824219 134.375 125.867188 140.609375 125.867188 C 146.847656 125.867188 146.679688 129.824219 145.695312 134.449219 C 144.566406 139.746094 142.972656 143.46875 136.871094 143.46875 C 130.765625 143.46875 130.75 139.75 131.878906 134.453125 Z M 154.167969 126.203125 L 153.707031 128.378906 L 153.773438 128.378906 C 155.058594 126.4375 156.789062 125.867188 158.703125 125.867188 L 157.804688 130.089844 C 153.703125 129.820312 153.121094 132.234375 152.765625 133.914062 L 150.808594 143.132812 L 146.082031 143.132812 L 149.679688 126.199219 L 154.175781 126.199219 M 168.4375 137.863281 C 168.183594 139.070312 168.066406 140.546875 169.609375 140.546875 C 172.394531 140.546875 172.757812 136.792969 173.148438 134.945312 C 170.789062 135.050781 169.082031 134.851562 168.441406 137.867188 M 176.714844 139.980469 C 176.492188 141.023438 176.398438 142.09375 176.277344 143.132812 L 171.886719 143.132812 L 172.160156 140.886719 L 172.097656 140.886719 C 170.71875 142.628906 169.164062 143.46875 167.117188 143.46875 C 163.832031 143.46875 163.148438 141.019531 163.773438 138.070312 C 164.964844 132.46875 169.339844 132.234375 173.71875 132.304688 L 173.996094 130.996094 C 174.300781 129.550781 174.324219 128.511719 172.609375 128.511719 C 170.96875 128.511719 170.570312 129.753906 170.285156 131.09375 L 165.65625 131.09375 C 166.09375 129.046875 167.007812 127.742188 168.28125 126.972656 C 169.523438 126.164062 171.128906 125.863281 172.941406 125.863281 C 178.941406 125.863281 179.164062 128.445312 178.507812 131.53125 L 176.707031 139.988281 Z M 195.425781 132.234375 C 195.960938 129.722656 195.5 128.886719 194.027344 128.886719 C 192.015625 128.886719 191.472656 130.660156 190.722656 134.179688 C 189.625 139.34375 189.824219 140.449219 191.570312 140.449219 C 193.042969 140.449219 194.035156 139.109375 194.503906 136.898438 L 199.230469 136.898438 C 198.253906 141.492188 195.351562 143.472656 190.925781 143.472656 C 184.824219 143.472656 184.8125 139.746094 185.9375 134.453125 C 186.921875 129.824219 188.433594 125.871094 194.667969 125.871094 C 199.027344 125.871094 201.097656 127.816406 200.15625 132.242188 L 195.425781 132.242188 M 221.386719 137.871094 C 221.128906 139.082031 221.015625 140.554688 222.558594 140.554688 C 225.34375 140.554688 225.707031 136.800781 226.09375 134.957031 C 223.726562 135.058594 222.023438 134.859375 221.382812 137.875 M 229.65625 139.988281 C 229.429688 141.03125 229.339844 142.105469 229.21875 143.140625 L 224.824219 143.140625 L 225.101562 140.894531 L 225.035156 140.894531 C 223.660156 142.636719 222.109375 143.476562 220.054688 143.476562 C 216.773438 143.476562 216.085938 141.03125 216.710938 138.078125 C 217.902344 132.480469 222.277344 132.242188 226.65625 132.3125 L 226.9375 131.003906 C 227.238281 129.5625 227.261719 128.519531 225.550781 128.519531 C 223.90625 128.519531 223.511719 129.761719 223.222656 131.105469 L 218.597656 131.105469 C 219.035156 129.058594 219.953125 127.753906 221.21875 126.984375 C 222.46875 126.175781 224.070312 125.871094 225.882812 125.871094 C 231.882812 125.871094 232.101562 128.457031 231.449219 131.539062 L 229.65625 139.996094 Z M 240.03125 127.925781 L 240.09375 127.925781 C 241.359375 126.414062 242.742188 125.878906 244.523438 125.878906 C 246.765625 125.878906 248.460938 127.21875 247.960938 129.5625 L 245.074219 143.144531 L 240.347656 143.144531 L 242.828125 131.480469 C 243.148438 129.96875 243.132812 128.796875 241.625 128.796875 C 240.113281 128.796875 239.597656 129.972656 239.273438 131.480469 L 236.792969 143.144531 L 232.0625 143.144531 L 235.667969 126.214844 L 240.394531 126.214844 L 240.035156 127.925781 M 254.9375 139.992188 C 256.652344 139.992188 257.261719 138.214844 258.023438 134.628906 C 258.8125 130.90625 259.097656 128.796875 257.347656 128.796875 C 255.570312 128.796875 255.007812 130.035156 253.90625 135.199219 C 253.570312 136.773438 252.660156 139.992188 254.941406 139.992188 M 264.539062 126.214844 L 260.792969 143.851562 C 260.539062 145.023438 259.621094 149.652344 253.121094 149.652344 C 249.601562 149.652344 246.769531 148.746094 247.546875 144.621094 L 252.175781 144.621094 C 252.027344 145.328125 251.996094 145.933594 252.214844 146.332031 C 252.425781 146.769531 252.910156 147.003906 253.648438 147.003906 C 254.824219 147.003906 255.628906 145.894531 255.992188 144.1875 L 256.683594 140.9375 L 256.613281 140.9375 C 255.632812 142.242188 254.148438 142.914062 252.609375 142.914062 C 247.410156 142.914062 248.652344 138.15625 249.464844 134.332031 C 250.261719 130.609375 251.332031 125.878906 256.257812 125.878906 C 257.933594 125.878906 259.222656 126.617188 259.554688 128.195312 L 259.621094 128.195312 L 260.042969 126.214844 L 264.558594 126.214844 Z M 280.363281 127.925781 L 280.4375 127.925781 C 281.695312 126.417969 283.082031 125.878906 284.859375 125.878906 C 287.105469 125.878906 288.796875 127.222656 288.296875 129.566406 L 285.414062 143.148438 L 280.683594 143.148438 L 283.167969 131.480469 C 283.484375 129.972656 283.46875 128.800781 281.960938 128.800781 C 280.449219 128.800781 279.933594 129.972656 279.613281 131.480469 L 277.128906 143.148438 L 272.402344 143.148438 L 276.003906 126.21875 L 280.730469 126.21875 L 280.371094 127.929688 M 295.273438 139.992188 C 296.984375 139.992188 297.59375 138.21875 298.359375 134.628906 C 299.152344 130.910156 299.433594 128.796875 297.6875 128.796875 C 295.910156 128.796875 295.347656 130.035156 294.246094 135.199219 C 293.921875 136.777344 293 139.992188 295.28125 139.992188 M 304.878906 126.21875 L 301.128906 143.851562 C 300.878906 145.023438 299.96875 149.652344 293.457031 149.652344 C 289.9375 149.652344 287.109375 148.75 287.890625 144.625 L 292.519531 144.625 C 292.367188 145.332031 292.335938 145.933594 292.554688 146.335938 C 292.765625 146.773438 293.253906 147.007812 293.984375 147.007812 C 295.164062 147.007812 295.964844 145.898438 296.328125 144.191406 L 297.019531 140.941406 L 296.957031 140.941406 C 295.972656 142.246094 294.488281 142.914062 292.945312 142.914062 C 287.75 142.914062 288.996094 138.15625 289.804688 134.332031 C 290.597656 130.613281 291.667969 125.882812 296.601562 125.882812 C 298.277344 125.882812 299.558594 126.617188 299.894531 128.195312 L 299.964844 128.195312 L 300.382812 126.21875 L 304.890625 126.21875 Z M 312.265625 126.21875 L 316.960938 126.21875 L 316.574219 138.957031 L 316.636719 138.957031 L 322.273438 126.21875 L 327.292969 126.21875 L 327.359375 138.957031 L 327.425781 138.957031 L 332.574219 126.21875 L 337.109375 126.21875 L 329.074219 143.148438 L 324.117188 143.148438 L 323.632812 131.917969 L 323.566406 131.917969 L 317.898438 143.148438 L 312.875 143.148438 L 312.25 126.222656 M 345.28125 134.195312 C 346.03125 130.675781 346.238281 128.902344 344.234375 128.902344 C 342.214844 128.902344 341.671875 130.675781 340.925781 134.195312 C 339.828125 139.359375 340.03125 140.46875 341.773438 140.46875 C 343.507812 140.46875 344.179688 139.363281 345.277344 134.195312 M 336.132812 134.46875 C 337.113281 129.839844 338.625 125.882812 344.863281 125.882812 C 351.097656 125.882812 350.929688 129.839844 349.945312 134.46875 C 348.820312 139.761719 347.226562 143.488281 341.125 143.488281 C 335.023438 143.488281 335.011719 139.765625 336.140625 134.46875 Z M 358.6875 126.21875 L 358.21875 128.398438 L 358.289062 128.398438 C 359.574219 126.453125 361.304688 125.882812 363.21875 125.882812 L 362.320312 130.105469 C 358.21875 129.839844 357.636719 132.253906 357.28125 133.929688 L 355.320312 143.148438 L 350.597656 143.148438 L 354.195312 126.21875 L 358.679688 126.21875 M 212.761719 125.878906 C 210.988281 125.878906 209.597656 126.417969 208.335938 127.925781 L 208.269531 127.925781 L 210.019531 119.699219 L 205.292969 119.699219 L 200.304688 143.148438 L 205.035156 143.148438 L 207.515625 131.480469 C 207.835938 129.972656 208.355469 128.800781 209.863281 128.800781 C 211.375 128.800781 211.390625 129.972656 211.074219 131.480469 L 208.589844 143.148438 L 213.316406 143.148438 L 216.199219 129.570312 C 216.695312 127.226562 215.007812 125.890625 212.761719 125.890625 M 366.570312 119.703125 L 361.585938 143.15625 L 366.3125 143.15625 L 371.296875 119.703125 L 366.570312 119.703125 M 379.210938 134.535156 C 378.304688 138.796875 377.625 140.574219 376.015625 140.574219 C 374.308594 140.574219 374.382812 138.796875 375.285156 134.535156 C 376.007812 131.152344 376.46875 128.804688 378.519531 128.804688 C 380.460938 128.804688 379.925781 131.148438 379.207031 134.53125 M 382.367188 119.699219 L 380.640625 127.828125 L 380.570312 127.828125 C 379.90625 126.386719 378.839844 125.882812 377.132812 125.882812 C 372.367188 125.882812 371.382812 131.148438 370.652344 134.566406 C 369.914062 138.050781 368.589844 143.484375 373.488281 143.484375 C 375.300781 143.484375 376.726562 142.910156 377.945312 141.269531 L 378.015625 141.269531 L 377.613281 143.148438 L 382.109375 143.148438 L 387.089844 119.695312 L 382.363281 119.695312 L 382.363281 119.6875 Z M 382.367188 119.699219 "/>
</g>
</svg>
